M48
;Layer_Color=9474304
;FILE_FORMAT=2:5
INCH,LZ
;TYPE=PLATED
T1F00S00C0.00787
T2F00S00C0.00800
T3F00S00C0.01000
T4F00S00C0.03937
T5F00S00C0.09843
;TYPE=NON_PLATED
T6F00S00C0.04016
%
T01
X0081102Y0112992
X0085827
X0090551
X0085827Y0117717
Y0108268
X0040945Y0112992
X003622
X0031496
X003622Y0117717
Y0108268
T02
X0031102Y0025197
X0034252
Y0028346
Y0031496
Y0034646
X0037402
Y0031496
X0040551
Y0034646
Y0037795
X0037402
Y0040945
X0040551
X0043701
Y0037795
X004685
Y0040945
Y0044094
X0043701
Y0047244
Y0050394
X004685
Y0047244
X005315
Y0050394
X0051575Y0053543
X005315Y0040945
Y0037795
X005
Y0040945
Y0034646
Y0031496
Y0028346
Y0025197
X004685
X0043701
X0040551
X0037402
Y0028346
X0040551
X0043701
X004685
Y0031496
X0043701
Y0034646
X004685
X005315Y0028346
X0055512Y0023622
X0031102Y0028346
Y0031496
Y0034646
Y0037795
X0034252
Y0040945
X00282Y00409
X0031102Y0044094
Y0047244
Y0050394
Y0053543
X00266Y0036
X0056299Y0037795
Y0040945
X0059449
Y0037795
Y0034646
X0062598Y0031496
X0065748
Y0028346
Y0025197
X0068898
X0072047
X0075197
X0078347
Y0028346
X0075197
Y0031496
Y0034646
Y0037795
X0078347
Y0040945
X0075197
Y0044094
X0078347
X0081496
X0084646
X0087795
X0090945
Y0040945
X0087795
Y0034646
Y0031496
Y0028346
X0090945
Y0025197
X0087795
X0090945Y0034646
X0084646
Y0047244
Y0050394
X0081496
X00815Y00473
X0078347Y0047244
Y0050394
X0075197
Y0047244
X0068898
Y0050394
X0065748
Y0047244
X0062598
Y0050394
X0056299
Y0047244
X0065748Y0040945
Y0037795
X0068898
Y0040945
X0072047
Y0037795
Y0031496
X0069291Y002126
X0061811
X0059449Y0028346
X0087795Y0047244
Y0050394
X0090945
Y0047244
X0094564Y0047144
X0094882Y0044488
X00922Y00566
X0090945Y0062992
Y0066142
X0087795Y0069291
X0084646
Y0072441
X0081496
Y0069291
Y0066142
X0084646
Y0062992
Y0059842
X0081496
Y0062992
X0078347
Y0059842
Y0056693
X0075197
X0072047Y0056693
Y0059842
X0068898
Y0062992
X0065748
Y0059842
X0062598
Y0062992
X0056299
Y0059842
Y0056693
X0062598
X0065748
X0068898
X0081496
X0084646
X0087795Y0062992
Y007559
X00931Y0075834
X0090945Y008189
Y0085039
X0087795
X0088976Y0088976
X0081496Y007874
X0078445Y0075689
X0075197Y007559
X0072047
Y007874
Y008189
Y0085039
X0068898
X0065748
Y008189
X0068898
Y007874
Y007559
Y0072441
Y0069291
X0065748
X0062598
Y0072441
Y007559
Y007874
Y008189
Y0085039
X0056299
Y008189
Y007874
Y007559
Y0072441
Y0069291
X0072047
Y0072441
X0075197
X0078347
Y0069291
X0075197
Y0066142
X0078347
X005315Y0069291
Y0072441
Y007559
Y007874
Y008189
Y0085039
X005
X004685
Y008189
X0043701
X0040551
Y0085039
Y007874
Y007559
X0043701
Y007874
X005
Y007559
Y0072441
Y0069291
X004685
Y0072441
X0043701
Y0069291
X0040551
Y0066142
X0037402
X0034252
Y0062992
Y0059842
Y0056693
X0031102
X0030315Y0059842
X0031102Y0062992
X0026772Y0064567
X0025984Y0072441
X0031102Y0069291
Y007559
Y007874
Y008189
Y0085039
X0027049Y0083071
X0026403Y0086577
X0034646Y0088976
X0034252Y008189
Y007874
X005Y008189
X004685Y0066142
X0043701
Y0062992
Y0059842
X004685
Y0062992
Y0056693
X0043701
X0040551
X0037402
Y0059842
Y0062992
X0040551Y0059842
X005315
Y0062992
Y0056693
T03
X0003937Y0024016
X0004331Y0027559
X000957Y003067
X0008268Y0038583
X00056Y00412
X00089Y00523
X00117Y00555
X0021366Y0050787
X0024016Y0044094
X0026772Y0017323
X0031Y00159
X0034646Y0015748
X00372Y00135
X00467Y00149
X00482Y0019
X0053937Y0002756
X00127Y002
X00577Y00208
X0064173Y0019291
X0076378
X008Y00193
X0086221Y0019291
X0095669Y0024409
X009685Y003189
X0102362Y0030709
X0105905Y0029921
X0110236Y0032283
X01126Y00359
X0113779Y0038583
X01148Y0041893
X0113044Y0048425
X0100766Y0043722
X0096457Y0038189
X0100787Y0020472
X01088Y00227
X01131Y00285
X01158Y00306
X01157Y00338
X009685Y0008268
X0086221Y0004331
X0075984
X0073555Y0002322
X0070472Y0003937
X0058268
X0060236Y0091732
X0065863Y0089485
X0074016Y0098425
Y0101325
X0076772Y0102362
X0081934Y0098469
X00898Y00987
X00938Y00988
X0096Y01007
X0098277Y0103395
X00999Y00991
X0100102Y0107663
X0105702Y0107087
X0105755Y0103925
X01122Y01039
Y01119
X0112Y01198
X0103937Y0117717
X0104331Y0114567
X0102967Y0111458
X0100394Y0113779
X0096215Y0125421
X0096063Y0128347
X0091032Y0129614
X0088981Y0127564
X0082759Y0129216
X0080709Y0127165
X0079921Y0133858
X0073003Y0134425
X00769Y01402
X00797Y01431
X0079921Y014685
X0080315Y0151181
X0079134Y0155905
X0079465Y0159055
X0085Y01588
X0082677Y0170079
X0081496Y0172835
X0075197Y017126
X0073601Y0168597
X0070866Y0169685
X007159Y0165914
X0067716Y016811
X0065354Y0162992
X0061024Y0164173
Y0160236
X0062992Y0157874
X0061024Y0155118
Y0152022
X0061417Y0142913
X0061811Y0138583
X0066535Y0140157
X006063Y0133465
X0056331Y0129528
X0057087Y0126378
X0057874Y011811
X0058268Y0114961
X0058661Y011063
X005748Y0107874
X0056693Y0104724
X0057008Y0100394
X0056783Y0097502
X0070866Y010748
X0072047Y0112205
X0069291Y0114173
X006865Y0117601
X0071653Y0117717
X0072441Y0122047
X007126Y0124803
X00886Y01411
X00957Y01416
X00989Y01391
X0098713Y0136158
X0097638Y0133465
X0099575Y0131306
X0107677Y0129134
X0111811Y0132677
X0109843Y0148031
X0106169Y0147983
X00997Y01454
X0097Y01501
X0098Y01662
X0103543Y0172047
X011063Y016811
X0108455Y018877
X0108661Y0195669
X01079Y01991
X0105905Y0201969
X0103321Y019773
X0094095Y0201575
X0087795Y0196063
X0074803Y0197638
X007126
X0066535Y0195669
X00588Y0195063
X0067716Y0188189
X0076378Y0187992
X0080315
X0078347Y0190354
X0096457Y0188189
X008937Y0173301
X0062598Y0174409
X0066Y02108
X00706Y02106
X00748Y02123
X00779
X0101793Y0210399
X0116535Y0206693
X0114746Y0195783
X0111417Y0088583
X0113266Y008189
X0095669Y0083071
X009998Y0088728
X0094898Y0069291
X00952Y00575
X0112992Y006063
X00221Y00648
X0022047Y007126
X0022835Y0084252
X0021654Y0091339
X002126Y0094488
X0020925Y01002
X00268Y00983
X00264Y01029
X0022Y01088
X00225Y01119
X00221Y0115
X00228Y0118
X0022441Y0121653
X0027953Y0123228
X00271Y01265
X0036422Y0125792
X0038473Y0127843
X0044882Y0128347
X0046659Y0126054
X00418Y0132687
Y01376
Y01412
Y01445
Y01479
Y0151
X0040551Y0159055
X00422Y0163483
X0045276Y0170079
X0044882Y0173622
X0048962Y0171403
X0048701Y0167723
X0051181Y0169291
X0047638Y018937
X0047539Y019556
X0027165Y0200661
X0024016Y0190945
X00195Y01831
X0016535Y0183858
X00148Y01794
X00127Y01773
X00111Y01731
X0021251Y0172851
X00211Y0169
X00213Y01591
X00158Y0162
X00125Y01616
X00121Y01494
X0015719Y0144825
X00238Y01469
X00236Y01385
X00155Y01253
X00118Y00925
X003937Y0099213
X0043307Y0098032
X0043701Y0101181
X005225Y0117784
X00284Y01752
X00253Y01751
X0011442Y0192158
X0012598Y02
X0004331Y0211417
X00104Y00587
X00106Y02194
X00105Y02241
X0004331Y0217717
Y0214567
X00341Y02179
X00316Y02217
X0042126Y0222835
X0046457
X0051575
X0055905
X0044457Y0213796
X0060236Y0213654
X00683Y02132
X007079Y0215146
X007126Y0220472
X0064567Y0222835
X0060236
X0080378Y0222277
X0081544Y0218311
X008937Y0219291
X0091732Y022126
X0093701Y0218504
X0092886Y0215382
X0096456Y0216141
X009685Y0212992
X0101073Y0224016
T04
X0051378Y0007673
Y0015673
X0091378Y0011673
T05
X0009843Y0009843
X0110236
X0104331Y015748
T06
X0099665Y0203425
X0020413
M30
