G04*
G04 #@! TF.GenerationSoftware,Altium Limited,Altium Designer,21.0.9 (235)*
G04*
G04 Layer_Physical_Order=7*
G04 Layer_Color=8388736*
%FSLAX25Y25*%
%MOIN*%
G70*
G04*
G04 #@! TF.SameCoordinates,4C2DBE1E-8494-471D-9509-704978DB3033*
G04*
G04*
G04 #@! TF.FilePolarity,Positive*
G04*
G01*
G75*
%ADD98C,0.04016*%
%ADD112C,0.03937*%
%ADD120C,0.15748*%
%ADD121C,0.02200*%
%ADD122C,0.01800*%
%ADD123C,0.01968*%
G36*
X9843Y227123D02*
X104331D01*
Y217500D01*
X97643D01*
X97476Y217667D01*
X96815Y217941D01*
X96099D01*
X95928Y217871D01*
X95738Y217993D01*
X95501Y218235D01*
Y218862D01*
X95227Y219524D01*
X94720Y220030D01*
X94059Y220304D01*
X93826D01*
X93492Y220804D01*
X93532Y220902D01*
Y221618D01*
X93258Y222280D01*
X92752Y222786D01*
X92090Y223060D01*
X91374D01*
X90713Y222786D01*
X90206Y222280D01*
X89932Y221618D01*
Y221228D01*
X89728Y221091D01*
X89012D01*
X88350Y220817D01*
X87844Y220311D01*
X87570Y219649D01*
Y218933D01*
X87844Y218272D01*
X88116Y218000D01*
X87909Y217500D01*
X87900D01*
Y214900D01*
X74900D01*
X74800Y215000D01*
X72590Y215000D01*
Y215504D01*
X72316Y216165D01*
X71810Y216672D01*
X71148Y216946D01*
X70432D01*
X69770Y216672D01*
X69264Y216165D01*
X68990Y215504D01*
Y215222D01*
X68658Y215000D01*
X67942D01*
X67280Y214726D01*
X66774Y214220D01*
X66500Y213558D01*
Y213062D01*
X66419Y212797D01*
X66059Y212600D01*
X65642D01*
X64980Y212326D01*
X64474Y211820D01*
X64200Y211158D01*
Y210442D01*
X64474Y209780D01*
X64980Y209274D01*
X65642Y209000D01*
X65693D01*
X65900Y208500D01*
X64800Y207400D01*
X17400Y207400D01*
X9300Y199300D01*
X9300Y69000D01*
X30471Y48844D01*
X30402Y48471D01*
X30318Y48299D01*
X30000Y47980D01*
X29802Y47503D01*
Y46986D01*
X30000Y46508D01*
X30366Y46142D01*
X30844Y45944D01*
X31361D01*
X31839Y46142D01*
X32204Y46508D01*
X32796Y46630D01*
X35731Y43836D01*
X42401Y43836D01*
X42599Y43358D01*
X42964Y42992D01*
X43442Y42794D01*
X43959D01*
X44437Y42992D01*
X44803Y43358D01*
X45001Y43836D01*
X45550Y43836D01*
X45748Y43358D01*
X46114Y42992D01*
X46592Y42794D01*
X47109D01*
X47587Y42992D01*
X47952Y43358D01*
X48041Y43571D01*
X48510Y43639D01*
X48898Y43287D01*
Y41681D01*
X48700Y41203D01*
Y40686D01*
X48898Y40209D01*
Y38532D01*
X48700Y38054D01*
Y37537D01*
X48898Y37059D01*
X49264Y36693D01*
X49741Y36495D01*
X50259D01*
X50736Y36693D01*
X51102Y37059D01*
X51717D01*
X52300Y36533D01*
Y29335D01*
X52047Y29083D01*
X51850Y28605D01*
Y28088D01*
X52047Y27610D01*
X52300Y27358D01*
X52300Y18599D01*
X51903Y18295D01*
X51729Y18342D01*
X51027D01*
X50348Y18160D01*
X50340Y18155D01*
X49942Y18503D01*
X50000Y18642D01*
Y19358D01*
X49726Y20020D01*
X49220Y20526D01*
X48558Y20800D01*
X47842D01*
X47180Y20526D01*
X46674Y20020D01*
X46400Y19358D01*
Y18642D01*
X46674Y17980D01*
X47180Y17474D01*
X47842Y17200D01*
X48558D01*
X48614Y17223D01*
X48962Y16826D01*
X48891Y16703D01*
X48715Y16045D01*
X48653Y16012D01*
X48327Y15942D01*
X48209Y15936D01*
X47720Y16426D01*
X47058Y16700D01*
X46342D01*
X45680Y16426D01*
X45174Y15920D01*
X44900Y15258D01*
Y14542D01*
X45174Y13880D01*
X45680Y13374D01*
X46342Y13100D01*
X47058D01*
X47720Y13374D01*
X48226Y13880D01*
X48454Y14430D01*
X48864Y14503D01*
X48979Y14491D01*
X49243Y14035D01*
X49739Y13538D01*
X50348Y13187D01*
X51027Y13005D01*
X51729D01*
X51903Y13051D01*
X52300Y12747D01*
Y10599D01*
X51903Y10295D01*
X51729Y10342D01*
X51027D01*
X50348Y10160D01*
X49739Y9809D01*
X49243Y9312D01*
X48891Y8703D01*
X48709Y8025D01*
Y7322D01*
X48891Y6643D01*
X49243Y6035D01*
X49739Y5538D01*
X50348Y5187D01*
X51027Y5005D01*
X51729D01*
X52000Y5077D01*
X52500Y4694D01*
Y3864D01*
X52411Y3776D01*
X52137Y3114D01*
Y2398D01*
X52411Y1736D01*
X52424Y1723D01*
X52316Y1223D01*
X12746D01*
X12646Y1723D01*
X13904Y2244D01*
X15308Y3183D01*
X16502Y4377D01*
X17441Y5781D01*
X18087Y7342D01*
X18417Y8998D01*
Y10687D01*
X18087Y12343D01*
X17441Y13904D01*
X16502Y15308D01*
X15308Y16502D01*
X13904Y17441D01*
X13186Y17738D01*
X13218Y18266D01*
X13720Y18474D01*
X14226Y18980D01*
X14500Y19642D01*
Y20358D01*
X14226Y21020D01*
X13720Y21526D01*
X13058Y21800D01*
X12342D01*
X11680Y21526D01*
X11174Y21020D01*
X10900Y20358D01*
Y19642D01*
X11174Y18980D01*
X11362Y18792D01*
X11116Y18331D01*
X10687Y18417D01*
X8998D01*
X7342Y18087D01*
X5781Y17441D01*
X4377Y16502D01*
X3183Y15308D01*
X2244Y13904D01*
X1723Y12646D01*
X1223Y12746D01*
Y218504D01*
X1213Y218555D01*
X1374Y220188D01*
X1866Y221808D01*
X2664Y223301D01*
X3737Y224609D01*
X5046Y225683D01*
X6538Y226481D01*
X8158Y226972D01*
X9792Y227133D01*
X9843Y227123D01*
D02*
G37*
G36*
X107087Y200711D02*
X106880Y200626D01*
X106374Y200120D01*
X106100Y199458D01*
Y198742D01*
X106374Y198080D01*
X106880Y197574D01*
X107087Y197489D01*
Y196571D01*
X106861Y196027D01*
Y195311D01*
X107087Y194768D01*
Y189947D01*
X106929Y189790D01*
X106655Y189128D01*
Y188412D01*
X106929Y187751D01*
X107087Y187593D01*
Y185433D01*
X107087Y166110D01*
X106587Y165774D01*
X105175Y166054D01*
X103486D01*
X101830Y165725D01*
X100269Y165078D01*
X99853Y164800D01*
X99526Y165180D01*
X99800Y165842D01*
Y166558D01*
X99526Y167220D01*
X99020Y167726D01*
X98358Y168000D01*
X97642D01*
X96980Y167726D01*
X96474Y167220D01*
X96200Y166558D01*
Y165842D01*
X96474Y165180D01*
X96980Y164674D01*
X97642Y164400D01*
X98358D01*
X98460Y164442D01*
X98743Y164018D01*
X97671Y162946D01*
X96732Y161542D01*
X96086Y159981D01*
X95757Y158325D01*
Y156636D01*
X96086Y154979D01*
X96732Y153419D01*
X97435Y152368D01*
X97146Y151900D01*
X96642D01*
X95980Y151626D01*
X95474Y151120D01*
X95200Y150458D01*
Y149742D01*
X95474Y149080D01*
X95980Y148574D01*
X96642Y148300D01*
X97358D01*
X98020Y148574D01*
X98526Y149080D01*
X98800Y149742D01*
Y150263D01*
X99253Y150553D01*
X99262Y150555D01*
X100269Y149882D01*
X101830Y149236D01*
X103486Y148906D01*
X104153D01*
X104431Y148491D01*
X104369Y148340D01*
Y147624D01*
X104643Y146963D01*
X105149Y146457D01*
X105810Y146183D01*
X106527D01*
X106671Y146242D01*
X107087Y145964D01*
Y130838D01*
X106658Y130660D01*
X106151Y130154D01*
X105877Y129492D01*
Y128776D01*
X106151Y128114D01*
X106658Y127608D01*
X107087Y127430D01*
Y108901D01*
X106587Y108668D01*
X106060Y108887D01*
X105344D01*
X104683Y108613D01*
X104176Y108106D01*
X104080Y107874D01*
X101902D01*
Y108021D01*
X101628Y108682D01*
X101122Y109189D01*
X100460Y109463D01*
X99744D01*
X99082Y109189D01*
X98576Y108682D01*
X98302Y108021D01*
Y107874D01*
X87550Y107874D01*
X87511Y107933D01*
Y108603D01*
X87255Y109222D01*
X86781Y109695D01*
X86162Y109952D01*
X85492D01*
X84873Y109695D01*
X84399Y109222D01*
X84143Y108603D01*
Y108374D01*
X83667Y107874D01*
X82283D01*
Y111791D01*
X82530Y112038D01*
X82787Y112657D01*
Y113327D01*
X82530Y113946D01*
X82283Y114193D01*
Y126264D01*
X82509Y126807D01*
Y127416D01*
X83117D01*
X83779Y127690D01*
X84285Y128196D01*
X84559Y128858D01*
Y129574D01*
X84285Y130236D01*
X83779Y130742D01*
X83117Y131016D01*
X82784D01*
X82283Y131467D01*
X82284Y168255D01*
X82319Y168279D01*
X83035D01*
X83697Y168553D01*
X84203Y169059D01*
X84477Y169721D01*
Y170437D01*
X84203Y171098D01*
X83697Y171605D01*
X83047Y171874D01*
X83296Y172477D01*
Y173193D01*
X83022Y173854D01*
X82516Y174361D01*
X82284Y174457D01*
X82284Y214186D01*
X87900D01*
X88173Y214241D01*
X88405Y214395D01*
X88559Y214627D01*
X88614Y214900D01*
Y216142D01*
X90817D01*
X90926Y215980D01*
X91086Y215642D01*
Y215024D01*
X91360Y214362D01*
X91866Y213856D01*
X92528Y213582D01*
X93244D01*
X93906Y213856D01*
X94412Y214362D01*
X94564Y214730D01*
X95041Y214855D01*
X95342Y214632D01*
X95401Y214089D01*
X95324Y214011D01*
X95050Y213350D01*
Y212634D01*
X95324Y211972D01*
X95831Y211466D01*
X96492Y211192D01*
X97208D01*
X97870Y211466D01*
X98376Y211972D01*
X98650Y212634D01*
Y213350D01*
X98376Y214011D01*
X97870Y214518D01*
X97788Y214928D01*
X97983Y215122D01*
X98256Y215783D01*
Y216142D01*
X107087Y216142D01*
Y200711D01*
D02*
G37*
G36*
X111921Y226972D02*
X113540Y226481D01*
X115033Y225683D01*
X116341Y224609D01*
X117415Y223301D01*
X118213Y221808D01*
X118704Y220188D01*
X118865Y218555D01*
X118855Y218504D01*
Y12746D01*
X118355Y12646D01*
X117834Y13904D01*
X116896Y15308D01*
X115702Y16502D01*
X114297Y17441D01*
X112737Y18087D01*
X111081Y18417D01*
X109392D01*
X107735Y18087D01*
X106175Y17441D01*
X104771Y16502D01*
X103576Y15308D01*
X102638Y13904D01*
X101992Y12343D01*
X101662Y10687D01*
Y8998D01*
X101992Y7342D01*
X102638Y5781D01*
X103576Y4377D01*
X104771Y3183D01*
X106175Y2244D01*
X107432Y1723D01*
X107333Y1223D01*
X75590D01*
X75255Y1723D01*
X75355Y1964D01*
Y2349D01*
X75626Y2531D01*
X76342D01*
X77004Y2805D01*
X77510Y3311D01*
X77784Y3973D01*
Y4689D01*
X77510Y5350D01*
X77004Y5857D01*
X76342Y6131D01*
X75626D01*
X74965Y5857D01*
X74458Y5350D01*
X74184Y4689D01*
Y4303D01*
X73913Y4122D01*
X73197D01*
X72773Y3946D01*
X72272Y4238D01*
Y4295D01*
X71998Y4957D01*
X71492Y5463D01*
X70831Y5737D01*
X70114D01*
X69453Y5463D01*
X68946Y4957D01*
X68672Y4295D01*
Y3579D01*
X68946Y2917D01*
X69453Y2411D01*
X70114Y2137D01*
X70831D01*
X71158Y2273D01*
X71623Y2027D01*
X71721Y1640D01*
X71415Y1223D01*
X55657D01*
X55450Y1723D01*
X55463Y1736D01*
X55737Y2398D01*
Y3114D01*
X55463Y3776D01*
X54957Y4282D01*
X54295Y4556D01*
X53629D01*
X53468Y4644D01*
X53231Y4833D01*
X53167Y4927D01*
X53159Y4967D01*
X53133Y5006D01*
X53118Y5051D01*
X53053Y5364D01*
X53119Y5593D01*
X53180Y5702D01*
X53513Y6035D01*
X53865Y6643D01*
X54046Y7322D01*
Y8025D01*
X53865Y8703D01*
X53513Y9312D01*
X53108Y9717D01*
X53014Y9835D01*
X52959Y10326D01*
X52978Y10418D01*
X53008Y10506D01*
X53004Y10553D01*
X53014Y10599D01*
Y12747D01*
X53004Y12793D01*
X53008Y12840D01*
X52978Y12929D01*
X52959Y13020D01*
X53014Y13512D01*
X53108Y13629D01*
X53513Y14035D01*
X53865Y14643D01*
X54046Y15322D01*
Y16025D01*
X53865Y16703D01*
X53513Y17312D01*
X53108Y17717D01*
X53014Y17835D01*
X52959Y18326D01*
X52978Y18418D01*
X53008Y18506D01*
X53004Y18553D01*
X53014Y18599D01*
X53014Y27358D01*
X52959Y27631D01*
X52805Y27862D01*
X52653Y28014D01*
X52563Y28230D01*
Y28463D01*
X52653Y28679D01*
X52805Y28831D01*
X52959Y29062D01*
X53014Y29335D01*
Y36495D01*
X53408D01*
X53886Y36693D01*
X53932Y36739D01*
X54379Y36929D01*
X54452Y36895D01*
X54518Y36850D01*
X54577Y36837D01*
X54632Y36812D01*
X54712Y36808D01*
X54791Y36792D01*
X54850Y36803D01*
X54910Y36800D01*
X55110Y36832D01*
X55189Y36861D01*
X55272Y36877D01*
X55319Y36908D01*
X55371Y36928D01*
X55433Y36985D01*
X55504Y37032D01*
X55535Y37078D01*
X55576Y37116D01*
X55611Y37193D01*
X55659Y37264D01*
X55669Y37318D01*
X55693Y37369D01*
X55696Y37454D01*
X55713Y37537D01*
Y37912D01*
X55802Y38127D01*
X55967Y38292D01*
X56183Y38382D01*
X56416D01*
X56631Y38292D01*
X56796Y38127D01*
X56885Y37912D01*
Y37541D01*
X56884Y37533D01*
X56897Y37464D01*
Y37393D01*
X56924Y37328D01*
X56938Y37260D01*
X56977Y37201D01*
X57004Y37136D01*
X57226Y36803D01*
X57276Y36754D01*
X57315Y36695D01*
X57373Y36656D01*
X57423Y36607D01*
X57488Y36580D01*
X57547Y36541D01*
X57616Y36527D01*
X57680Y36500D01*
X57751D01*
X57820Y36486D01*
X64227D01*
X64296Y36500D01*
X64367D01*
X64432Y36527D01*
X64501Y36541D01*
X64559Y36580D01*
X64624Y36607D01*
X64674Y36656D01*
X64732Y36695D01*
X64771Y36754D01*
X64821Y36803D01*
X65043Y37136D01*
X65070Y37201D01*
X65109Y37260D01*
X65123Y37328D01*
X65150Y37393D01*
Y37464D01*
X65163Y37533D01*
X65162Y37541D01*
Y37912D01*
X65251Y38127D01*
X65416Y38292D01*
X65631Y38382D01*
X65865D01*
X66080Y38292D01*
X66245Y38127D01*
X66334Y37912D01*
Y37865D01*
X66361Y37732D01*
X66385Y37600D01*
X66388Y37596D01*
X66389Y37591D01*
X66464Y37479D01*
X66537Y37367D01*
X66887Y37007D01*
X66937Y36973D01*
X66978Y36929D01*
X67050Y36895D01*
X67116Y36850D01*
X67176Y36837D01*
X67230Y36812D01*
X67311Y36808D01*
X67389Y36792D01*
X67448Y36803D01*
X67509Y36800D01*
X67708Y36832D01*
X67788Y36861D01*
X67871Y36877D01*
X67917Y36908D01*
X67970Y36928D01*
X68032Y36985D01*
X68102Y37032D01*
X68133Y37078D01*
X68174Y37116D01*
X68210Y37193D01*
X68257Y37264D01*
X68268Y37318D01*
X68291Y37369D01*
X68295Y37454D01*
X68311Y37537D01*
Y37912D01*
X68401Y38127D01*
X68565Y38292D01*
X68781Y38382D01*
X69014D01*
X69230Y38292D01*
X69395Y38127D01*
X69484Y37912D01*
Y37541D01*
X69482Y37533D01*
X69496Y37464D01*
Y37393D01*
X69523Y37328D01*
X69537Y37260D01*
X69576Y37201D01*
X69603Y37136D01*
X69825Y36803D01*
X69875Y36754D01*
X69914Y36695D01*
X69972Y36656D01*
X70022Y36607D01*
X70087Y36580D01*
X70145Y36541D01*
X70214Y36527D01*
X70279Y36500D01*
X70349D01*
X70418Y36486D01*
X73603D01*
X73628Y36491D01*
X73652Y36488D01*
X73763Y36518D01*
X73877Y36541D01*
X73897Y36554D01*
X73921Y36561D01*
X74012Y36631D01*
X74108Y36695D01*
X74461Y36693D01*
X74938Y36495D01*
X75455D01*
X75933Y36693D01*
X76299Y37059D01*
X76497Y37537D01*
Y38054D01*
X76299Y38532D01*
X75933Y38897D01*
X75455Y39095D01*
X75127D01*
X75053Y39324D01*
X75389Y39645D01*
X75455D01*
X75933Y39843D01*
X76299Y40209D01*
X76497Y40686D01*
Y41203D01*
X76299Y41681D01*
X75933Y42047D01*
X75455Y42245D01*
X74938D01*
X74729Y42384D01*
Y43549D01*
X74675Y43822D01*
X74611Y43978D01*
Y44211D01*
X74675Y44367D01*
X74729Y44640D01*
Y45805D01*
X74938Y45944D01*
X75455D01*
X75933Y46142D01*
X76299Y46508D01*
X76497Y46986D01*
Y47503D01*
X76299Y47980D01*
X75933Y48346D01*
X75455Y48544D01*
X74938D01*
X74730Y48684D01*
Y49848D01*
X74675Y50121D01*
X74611Y50277D01*
Y50510D01*
X74675Y50666D01*
X74730Y50939D01*
Y55253D01*
X74938Y55393D01*
X75455D01*
X75933Y55591D01*
X76299Y55957D01*
X76497Y56434D01*
Y56763D01*
X76726Y56836D01*
X77047Y56501D01*
Y56434D01*
X77244Y55957D01*
X77610Y55591D01*
X78088Y55393D01*
X78605D01*
X79083Y55591D01*
X79448Y55957D01*
X79646Y56434D01*
Y56763D01*
X79875Y56837D01*
X80196Y56501D01*
Y56434D01*
X80394Y55957D01*
X80760Y55591D01*
X81238Y55393D01*
X81755D01*
X82232Y55591D01*
X82598Y55957D01*
X82796Y56434D01*
Y56763D01*
X83025Y56836D01*
X83346Y56501D01*
Y56434D01*
X83544Y55957D01*
X83909Y55591D01*
X84387Y55393D01*
X84904D01*
X85382Y55591D01*
X85748Y55957D01*
X85946Y56434D01*
Y56660D01*
X86359Y57160D01*
X90698Y57160D01*
X90900Y56859D01*
Y56341D01*
X91098Y55864D01*
X91464Y55498D01*
X91941Y55300D01*
X92459D01*
X92936Y55498D01*
X93302Y55864D01*
X93500Y56341D01*
Y56859D01*
X93680Y57215D01*
X93911Y57369D01*
X94066Y57601D01*
X94279Y58115D01*
X94585Y58421D01*
X94984Y58586D01*
X95416D01*
X95815Y58421D01*
X96121Y58115D01*
X96334Y57601D01*
X96489Y57369D01*
X96720Y57215D01*
X96993Y57160D01*
X103543D01*
X103816Y57215D01*
X104048Y57369D01*
X104203Y57601D01*
X104257Y57874D01*
X104257Y90158D01*
X104203Y90431D01*
X104048Y90662D01*
X103816Y90817D01*
X103543Y90871D01*
X101619D01*
X101346Y90817D01*
X101115Y90662D01*
X100960Y90431D01*
X100767Y90351D01*
X100338Y90528D01*
X99622D01*
X99194Y90351D01*
X99001Y90431D01*
X98846Y90662D01*
X98615Y90817D01*
X98341Y90871D01*
X90200D01*
X89926Y90817D01*
X89695Y90662D01*
X89540Y90431D01*
X89441Y90191D01*
X89235Y90276D01*
X88718D01*
X88512Y90191D01*
X88413Y90431D01*
X88258Y90662D01*
X88026Y90817D01*
X87753Y90871D01*
X67873D01*
X67804Y90857D01*
X67734D01*
X67669Y90831D01*
X67600Y90817D01*
X67541Y90778D01*
X67476Y90751D01*
X67427Y90701D01*
X67368Y90662D01*
X67329Y90604D01*
X67280Y90554D01*
X67069Y90239D01*
X67042Y90175D01*
X67003Y90116D01*
X66990Y90047D01*
X66963Y89982D01*
Y89912D01*
X66949Y89843D01*
Y89269D01*
X66784Y88870D01*
X66478Y88564D01*
X66079Y88399D01*
X65647D01*
X65247Y88564D01*
X64942Y88870D01*
X64776Y89269D01*
Y89843D01*
X64763Y89912D01*
Y89982D01*
X64736Y90047D01*
X64722Y90116D01*
X64683Y90175D01*
X64656Y90239D01*
X64446Y90554D01*
X64396Y90604D01*
X64357Y90662D01*
X64299Y90701D01*
X64249Y90751D01*
X64184Y90778D01*
X64126Y90817D01*
X64057Y90831D01*
X63992Y90857D01*
X63922D01*
X63853Y90871D01*
X62278D01*
X62000Y91287D01*
X62036Y91374D01*
Y92090D01*
X61762Y92752D01*
X61256Y93258D01*
X60594Y93532D01*
X59878D01*
X59217Y93258D01*
X58710Y92752D01*
X58436Y92090D01*
Y91374D01*
X58472Y91287D01*
X58195Y90871D01*
X42126D01*
X41853Y90817D01*
X41621Y90662D01*
X41467Y90431D01*
X41412Y90158D01*
Y86631D01*
X40912Y86297D01*
X40810Y86339D01*
X40293D01*
X39815Y86142D01*
X39449Y85776D01*
X39251Y85298D01*
Y84781D01*
X39449Y84303D01*
X39815Y83937D01*
X40293Y83739D01*
X40523D01*
X40909Y83412D01*
X40810Y83190D01*
X40293D01*
X39815Y82992D01*
X39449Y82626D01*
X39251Y82148D01*
Y81631D01*
X39449Y81153D01*
X39815Y80788D01*
X40293Y80590D01*
X40810D01*
X40909Y80367D01*
X40523Y80040D01*
X40293D01*
X39815Y79842D01*
X39449Y79476D01*
X39251Y78999D01*
Y78482D01*
X39449Y78004D01*
X39815Y77638D01*
X40293Y77440D01*
X40810D01*
X40909Y77218D01*
X40523Y76890D01*
X40293D01*
X39815Y76693D01*
X39449Y76327D01*
X39251Y75849D01*
Y75332D01*
X39449Y74854D01*
X39815Y74489D01*
X40293Y74291D01*
X40810D01*
X40912Y74333D01*
X41412Y73999D01*
Y73081D01*
X41426Y73012D01*
Y72942D01*
X41453Y72877D01*
X41467Y72808D01*
X41476Y72794D01*
X41508Y72743D01*
X41532Y72685D01*
X41532Y72197D01*
X41509Y72139D01*
X41476Y72088D01*
X41467Y72074D01*
X41453Y72005D01*
X41426Y71940D01*
Y71869D01*
X41412Y71801D01*
X41412Y69932D01*
X41426Y69863D01*
Y69792D01*
X41453Y69727D01*
X41467Y69659D01*
X41476Y69644D01*
X41488Y69626D01*
X41532Y69468D01*
Y69114D01*
X41488Y68957D01*
X41476Y68938D01*
X41467Y68924D01*
X41453Y68855D01*
X41426Y68790D01*
Y68720D01*
X41412Y68651D01*
Y66782D01*
X41426Y66713D01*
Y66643D01*
X41453Y66578D01*
X41467Y66509D01*
X41476Y66495D01*
X41508Y66444D01*
X41532Y66386D01*
Y65965D01*
X41488Y65807D01*
X41476Y65789D01*
X41467Y65775D01*
X41453Y65706D01*
X41426Y65641D01*
Y65570D01*
X41412Y65501D01*
Y63633D01*
X41426Y63564D01*
Y63493D01*
X41453Y63428D01*
X41467Y63359D01*
X41476Y63345D01*
X41508Y63294D01*
X41532Y63236D01*
X41532Y62748D01*
X41509Y62690D01*
X41476Y62639D01*
X41467Y62625D01*
X41453Y62556D01*
X41426Y62491D01*
Y62421D01*
X41412Y62352D01*
Y61434D01*
X40912Y61100D01*
X40810Y61142D01*
X40293D01*
X39815Y60945D01*
X39449Y60579D01*
X39251Y60101D01*
Y59584D01*
X39449Y59106D01*
X39815Y58740D01*
X40293Y58543D01*
X40810D01*
X40909Y58320D01*
X40523Y57993D01*
X40293D01*
X39815Y57795D01*
X39449Y57429D01*
X39251Y56951D01*
Y56434D01*
X39449Y55957D01*
X39815Y55591D01*
X40293Y55393D01*
X40810D01*
X40912Y55435D01*
X41412Y55101D01*
Y51034D01*
X41426Y50965D01*
Y50895D01*
X41453Y50830D01*
X41467Y50761D01*
X41476Y50747D01*
X41488Y50728D01*
X41532Y50571D01*
X41532Y50150D01*
X41509Y50092D01*
X41476Y50041D01*
X41467Y50026D01*
X41453Y49957D01*
X41426Y49893D01*
Y49822D01*
X41412Y49753D01*
Y47885D01*
X41426Y47816D01*
Y47745D01*
X41453Y47680D01*
X41467Y47611D01*
X41476Y47597D01*
X41488Y47578D01*
X41532Y47421D01*
X41532Y47000D01*
X41509Y46942D01*
X41476Y46891D01*
X41467Y46877D01*
X41453Y46808D01*
X41426Y46743D01*
Y46673D01*
X41412Y46604D01*
Y44735D01*
X40948Y44550D01*
X36016Y44550D01*
X33288Y47147D01*
X33234Y47181D01*
X33188Y47226D01*
X33118Y47255D01*
X33053Y47296D01*
X32990Y47307D01*
X32930Y47331D01*
X32854Y47330D01*
X32779Y47344D01*
X32716Y47329D01*
X32652Y47329D01*
X32126Y47220D01*
X31061Y48224D01*
X31068Y48252D01*
X31104Y48340D01*
X31173Y48713D01*
X31352Y49076D01*
X31623Y49202D01*
X31839Y49292D01*
X32204Y49657D01*
X32402Y50135D01*
Y50652D01*
X32204Y51130D01*
X31839Y51496D01*
X31361Y51694D01*
X30844D01*
X30366Y51496D01*
X30000Y51130D01*
X29952Y51014D01*
X29359Y50888D01*
X10014Y69306D01*
X10014Y91034D01*
X10514Y91241D01*
X10780Y90974D01*
X11442Y90700D01*
X12158D01*
X12820Y90974D01*
X13326Y91480D01*
X13600Y92142D01*
Y92858D01*
X13326Y93520D01*
X12820Y94026D01*
X12158Y94300D01*
X11442D01*
X10780Y94026D01*
X10514Y93759D01*
X10014Y93966D01*
X10014Y171061D01*
X10514Y171395D01*
X10742Y171300D01*
X11458D01*
X12120Y171574D01*
X12626Y172080D01*
X12900Y172742D01*
Y173458D01*
X12626Y174120D01*
X12120Y174626D01*
X11458Y174900D01*
X10742D01*
X10514Y174805D01*
X10014Y175139D01*
X10014Y190387D01*
X10514Y190594D01*
X11084Y190358D01*
X11800D01*
X12462Y190632D01*
X12968Y191138D01*
X13242Y191800D01*
Y192516D01*
X12968Y193178D01*
X12462Y193684D01*
X11800Y193958D01*
X11084D01*
X10514Y193722D01*
X10014Y193929D01*
Y199004D01*
X10373Y199363D01*
X10962Y199246D01*
X11073Y198980D01*
X11579Y198474D01*
X12240Y198200D01*
X12957D01*
X13618Y198474D01*
X14124Y198980D01*
X14398Y199642D01*
Y200358D01*
X14124Y201020D01*
X13618Y201526D01*
X13352Y201636D01*
X13235Y202226D01*
X17696Y206686D01*
X64800Y206686D01*
X65073Y206741D01*
X65305Y206895D01*
X66405Y207995D01*
X66559Y208227D01*
X66614Y208500D01*
X66559Y208773D01*
X66450Y209038D01*
X67020Y209274D01*
X67526Y209780D01*
X67800Y210442D01*
Y210938D01*
X67881Y211203D01*
X68241Y211400D01*
X68442D01*
X68800Y210959D01*
X68800Y210958D01*
Y210242D01*
X69074Y209580D01*
X69580Y209074D01*
X70242Y208800D01*
X70958D01*
X71620Y209074D01*
X72126Y209580D01*
X72400Y210242D01*
Y210958D01*
X72126Y211620D01*
X71620Y212126D01*
X70958Y212400D01*
X70604D01*
X70247Y212813D01*
X70300Y213258D01*
X70432Y213346D01*
X71148D01*
X71810Y213620D01*
X72316Y214126D01*
X72398Y214324D01*
X72590Y214286D01*
X73587D01*
X73720Y213970D01*
X73741Y213786D01*
X73274Y213320D01*
X73000Y212658D01*
Y211942D01*
X73274Y211280D01*
X73780Y210774D01*
X74442Y210500D01*
X75158D01*
X75820Y210774D01*
X76023Y210978D01*
X76350Y211260D01*
X76677Y210978D01*
X76880Y210774D01*
X77542Y210500D01*
X78258D01*
X78920Y210774D01*
X79426Y211280D01*
X79700Y211942D01*
Y212658D01*
X79426Y213320D01*
X79059Y213686D01*
X79257Y214186D01*
X81570D01*
X81570Y189936D01*
X81070Y189628D01*
X80673Y189792D01*
X80283D01*
X80146Y189996D01*
Y190712D01*
X79872Y191374D01*
X79366Y191880D01*
X78705Y192154D01*
X77988D01*
X77327Y191880D01*
X76820Y191374D01*
X76547Y190712D01*
Y189996D01*
X76410Y189792D01*
X76020D01*
X75358Y189518D01*
X74852Y189012D01*
X74578Y188350D01*
Y187634D01*
X74852Y186972D01*
X75358Y186466D01*
X76020Y186192D01*
X76736D01*
X77398Y186466D01*
X77904Y186972D01*
X78076Y187388D01*
X78617D01*
X78789Y186972D01*
X79295Y186466D01*
X79957Y186192D01*
X80673D01*
X81070Y186356D01*
X81570Y186048D01*
Y174635D01*
X81138D01*
X80476Y174361D01*
X79970Y173854D01*
X79696Y173193D01*
Y172477D01*
X79970Y171815D01*
X80476Y171309D01*
X81127Y171039D01*
X80877Y170437D01*
Y169721D01*
X81151Y169059D01*
X81647Y168563D01*
X81624Y168528D01*
X81610Y168459D01*
X81583Y168394D01*
X81583Y168324D01*
X81570Y168255D01*
Y153125D01*
X81070Y152817D01*
X80673Y152981D01*
X79957D01*
X79295Y152707D01*
X78789Y152201D01*
X78515Y151539D01*
Y150823D01*
X78789Y150162D01*
X79295Y149655D01*
X79957Y149381D01*
X80673D01*
X81070Y149545D01*
X81570Y149237D01*
Y144483D01*
X81070Y144276D01*
X80720Y144626D01*
X80058Y144900D01*
X79342D01*
X78680Y144626D01*
X78174Y144120D01*
X77900Y143458D01*
Y142742D01*
X78143Y142156D01*
X77947Y141895D01*
X77800Y141775D01*
X77258Y142000D01*
X76542D01*
X75880Y141726D01*
X75374Y141220D01*
X75100Y140558D01*
Y139842D01*
X75374Y139180D01*
X75880Y138674D01*
X76542Y138400D01*
X77258D01*
X77920Y138674D01*
X78426Y139180D01*
X78700Y139842D01*
Y140558D01*
X78457Y141144D01*
X78653Y141405D01*
X78800Y141525D01*
X79342Y141300D01*
X80058D01*
X80720Y141574D01*
X81070Y141924D01*
X81570Y141717D01*
Y135462D01*
X81070Y135255D01*
X80941Y135384D01*
X80279Y135658D01*
X79563D01*
X78902Y135384D01*
X78395Y134878D01*
X78121Y134216D01*
Y133500D01*
X78395Y132839D01*
X78902Y132332D01*
X79563Y132058D01*
X80279D01*
X80941Y132332D01*
X81070Y132461D01*
X81570Y132254D01*
Y131467D01*
X81573Y131449D01*
X81571Y131431D01*
X81600Y131313D01*
X81624Y131194D01*
X81713Y130848D01*
X81550Y130567D01*
X81520Y130522D01*
X81233Y130236D01*
X80959Y129574D01*
Y128965D01*
X80351D01*
X79689Y128691D01*
X79183Y128185D01*
X78909Y127523D01*
Y126807D01*
X79183Y126146D01*
X79689Y125639D01*
X80351Y125365D01*
X81067D01*
X81154Y125401D01*
X81570Y125124D01*
Y114765D01*
X81437Y114676D01*
X80767D01*
X80148Y114420D01*
X79675Y113946D01*
X79418Y113327D01*
Y112657D01*
X79675Y112038D01*
X80148Y111564D01*
X80767Y111308D01*
X81437D01*
X81570Y111219D01*
Y107874D01*
X81624Y107601D01*
X81779Y107369D01*
X82010Y107215D01*
X82283Y107160D01*
X83667D01*
X83676Y107162D01*
X83685Y107160D01*
X83812Y107189D01*
X83940Y107215D01*
X84301Y107292D01*
X84519Y107162D01*
X84609Y107104D01*
X84873Y106840D01*
X85492Y106583D01*
X86162D01*
X86781Y106840D01*
X87202Y107261D01*
X87219Y107254D01*
X87277Y107215D01*
X87346Y107201D01*
X87411Y107174D01*
X87481Y107174D01*
X87550Y107160D01*
X98302Y107160D01*
X98357Y107171D01*
X98576Y106643D01*
X99082Y106137D01*
X99744Y105863D01*
X100460D01*
X101122Y106137D01*
X101628Y106643D01*
X101847Y107171D01*
X101902Y107160D01*
X103902D01*
Y106729D01*
X104176Y106067D01*
X104437Y105806D01*
X104666Y105533D01*
X104437Y105153D01*
X104229Y104945D01*
X103955Y104283D01*
Y103567D01*
X104229Y102905D01*
X104736Y102399D01*
X105397Y102125D01*
X106113D01*
X106775Y102399D01*
X107281Y102905D01*
X107555Y103567D01*
Y104283D01*
X107281Y104945D01*
X107020Y105206D01*
X106791Y105478D01*
X107020Y105859D01*
X107228Y106067D01*
X107502Y106729D01*
Y107445D01*
X107228Y108106D01*
X107591Y108396D01*
X107600Y108409D01*
X107602Y108411D01*
X107612Y108418D01*
X107677Y108525D01*
X107746Y108628D01*
X107749Y108643D01*
X107757Y108656D01*
X107776Y108779D01*
X107800Y108901D01*
Y127334D01*
X108035D01*
X108697Y127608D01*
X109203Y128114D01*
X109477Y128776D01*
Y129492D01*
X109203Y130154D01*
X108697Y130660D01*
X108035Y130934D01*
X107800D01*
Y145964D01*
X107787Y146033D01*
Y146104D01*
X107760Y146169D01*
X107746Y146238D01*
X107707Y146296D01*
X107680Y146361D01*
X107630Y146411D01*
X107591Y146469D01*
X107681Y146950D01*
X107694Y146963D01*
X107969Y147624D01*
Y148340D01*
X107694Y149002D01*
X107595Y149102D01*
X107692Y149592D01*
X108392Y149882D01*
X109796Y150820D01*
X110991Y152015D01*
X111929Y153419D01*
X112575Y154979D01*
X112905Y156636D01*
Y158325D01*
X112575Y159981D01*
X111929Y161542D01*
X110991Y162946D01*
X109796Y164140D01*
X108392Y165078D01*
X107924Y165272D01*
X107924Y165272D01*
X107880Y165332D01*
X107808Y165471D01*
X107746Y165837D01*
X107760Y165907D01*
X107787Y165973D01*
X107787Y166042D01*
X107800Y166110D01*
X107800Y185433D01*
Y186772D01*
X108097Y186970D01*
X108813D01*
X109475Y187244D01*
X109981Y187751D01*
X110255Y188412D01*
Y189128D01*
X109981Y189790D01*
X109475Y190296D01*
X108813Y190570D01*
X108097D01*
X107800Y190769D01*
Y193628D01*
X108216Y193905D01*
X108303Y193869D01*
X109019D01*
X109681Y194143D01*
X110187Y194650D01*
X110461Y195311D01*
Y196027D01*
X110187Y196689D01*
X109681Y197195D01*
X109375Y197322D01*
X109257Y197912D01*
X109426Y198080D01*
X109700Y198742D01*
Y199458D01*
X109426Y200120D01*
X108920Y200626D01*
X108258Y200900D01*
X107800D01*
Y216142D01*
X107746Y216415D01*
X107591Y216646D01*
X107360Y216801D01*
X107087Y216856D01*
X105343D01*
X105231Y216974D01*
X105016Y217355D01*
X105044Y217500D01*
Y227123D01*
X110236D01*
X110287Y227133D01*
X111921Y226972D01*
D02*
G37*
G36*
X103543Y57874D02*
X96993D01*
X96726Y58520D01*
X96220Y59026D01*
X95558Y59300D01*
X94842D01*
X94180Y59026D01*
X93674Y58520D01*
X93407Y57874D01*
X92521D01*
X92459Y57900D01*
X91941D01*
X91879Y57874D01*
X85191Y57874D01*
X84904Y57993D01*
X84387D01*
X84100Y57874D01*
X82042D01*
X81755Y57993D01*
X81238D01*
X80950Y57874D01*
X78892D01*
X78605Y57993D01*
X78088D01*
X77801Y57874D01*
X75743D01*
X75455Y57993D01*
X74938D01*
X74651Y57874D01*
X74016D01*
Y57239D01*
X73897Y56951D01*
Y56434D01*
X74016Y56147D01*
Y50939D01*
X73897Y50652D01*
Y50135D01*
X74016Y49848D01*
Y47790D01*
X73897Y47503D01*
Y46986D01*
X74016Y46698D01*
Y44640D01*
X73897Y44353D01*
Y43836D01*
X74016Y43549D01*
Y41491D01*
X73897Y41203D01*
Y40686D01*
X74016Y40399D01*
Y38341D01*
X73897Y38054D01*
Y37537D01*
X73603Y37200D01*
X70418D01*
X70196Y37533D01*
X70198Y37537D01*
Y38054D01*
X70000Y38532D01*
X69634Y38897D01*
X69156Y39095D01*
X68639D01*
X68161Y38897D01*
X67795Y38532D01*
X67598Y38054D01*
Y37537D01*
X67398Y37505D01*
X67048Y37865D01*
Y38054D01*
X66850Y38532D01*
X66484Y38897D01*
X66007Y39095D01*
X65489D01*
X65012Y38897D01*
X64646Y38532D01*
X64448Y38054D01*
Y37537D01*
X64450Y37533D01*
X64227Y37200D01*
X57820D01*
X57598Y37533D01*
X57599Y37537D01*
Y38054D01*
X57401Y38532D01*
X57036Y38897D01*
X56558Y39095D01*
X56041D01*
X55563Y38897D01*
X55197Y38532D01*
X54999Y38054D01*
Y37537D01*
X54800Y37505D01*
X54450Y37865D01*
Y38054D01*
X54252Y38532D01*
X53886Y38897D01*
X53408Y39095D01*
X52891D01*
X52413Y38897D01*
X52047Y38532D01*
X51850Y38054D01*
X51717Y37773D01*
X51300D01*
Y38054D01*
X51102Y38532D01*
X50736Y38897D01*
X50259Y39095D01*
X49741D01*
X49612Y39182D01*
Y39298D01*
X49977Y39645D01*
X50259D01*
X50736Y39843D01*
X51102Y40209D01*
X51300Y40686D01*
Y41203D01*
X51102Y41681D01*
X50736Y42047D01*
X50259Y42245D01*
X49741D01*
X49612Y42332D01*
Y43287D01*
X49608Y43304D01*
X49611Y43321D01*
X49581Y43440D01*
X49557Y43560D01*
X49548Y43574D01*
X49543Y43591D01*
X49471Y43689D01*
X49403Y43791D01*
X49388Y43801D01*
X49378Y43815D01*
X48990Y44167D01*
X48960Y44186D01*
X48936Y44212D01*
X48841Y44257D01*
X48751Y44311D01*
X48717Y44316D01*
X48685Y44331D01*
X48580Y44337D01*
X48476Y44352D01*
X48150Y44353D01*
X47952Y44831D01*
X47587Y45197D01*
X47109Y45395D01*
X46592D01*
X46114Y45197D01*
X45748Y44831D01*
X45626Y44535D01*
X45550Y44550D01*
X45001Y44550D01*
X44926Y44535D01*
X44803Y44831D01*
X44437Y45197D01*
X43959Y45395D01*
X43442D01*
X42964Y45197D01*
X42599Y44831D01*
X42526Y44655D01*
X42126Y44735D01*
Y46604D01*
X42526Y46683D01*
X42599Y46508D01*
X42964Y46142D01*
X43442Y45944D01*
X43959D01*
X44437Y46142D01*
X44803Y46508D01*
X45001Y46986D01*
Y47503D01*
X44803Y47980D01*
X44437Y48346D01*
X43959Y48544D01*
X43442D01*
X42964Y48346D01*
X42599Y47980D01*
X42526Y47805D01*
X42126Y47885D01*
Y49753D01*
X42526Y49833D01*
X42599Y49657D01*
X42964Y49292D01*
X43442Y49094D01*
X43959D01*
X44437Y49292D01*
X44803Y49657D01*
X45001Y50135D01*
Y50652D01*
X44803Y51130D01*
X44437Y51496D01*
X43959Y51694D01*
X43442D01*
X42964Y51496D01*
X42599Y51130D01*
X42526Y50955D01*
X42126Y51034D01*
Y59202D01*
X42526Y59282D01*
X42599Y59106D01*
X42964Y58740D01*
X43442Y58543D01*
X43959D01*
X44437Y58740D01*
X44803Y59106D01*
X45001Y59584D01*
Y60101D01*
X44803Y60579D01*
X44437Y60945D01*
X43959Y61142D01*
X43442D01*
X42964Y60945D01*
X42599Y60579D01*
X42526Y60403D01*
X42126Y60483D01*
Y62352D01*
X42526Y62431D01*
X42599Y62256D01*
X42964Y61890D01*
X43442Y61692D01*
X43959D01*
X44437Y61890D01*
X44803Y62256D01*
X45001Y62734D01*
Y63251D01*
X44803Y63728D01*
X44437Y64094D01*
X43959Y64292D01*
X43442D01*
X42964Y64094D01*
X42599Y63728D01*
X42526Y63553D01*
X42126Y63633D01*
Y65501D01*
X42526Y65581D01*
X42599Y65405D01*
X42964Y65040D01*
X43442Y64842D01*
X43959D01*
X44437Y65040D01*
X44803Y65405D01*
X45001Y65883D01*
Y66400D01*
X44803Y66878D01*
X44437Y67244D01*
X43959Y67442D01*
X43442D01*
X42964Y67244D01*
X42599Y66878D01*
X42526Y66703D01*
X42126Y66782D01*
Y68651D01*
X42526Y68730D01*
X42599Y68555D01*
X42964Y68189D01*
X43442Y67991D01*
X43959D01*
X44437Y68189D01*
X44803Y68555D01*
X45001Y69033D01*
Y69550D01*
X44803Y70028D01*
X44437Y70393D01*
X43959Y70591D01*
X43442D01*
X42964Y70393D01*
X42599Y70028D01*
X42526Y69852D01*
X42126Y69932D01*
X42126Y71801D01*
X42526Y71880D01*
X42599Y71705D01*
X42964Y71339D01*
X43442Y71141D01*
X43959D01*
X44437Y71339D01*
X44803Y71705D01*
X45001Y72182D01*
Y72699D01*
X44803Y73177D01*
X44437Y73543D01*
X43959Y73741D01*
X43442D01*
X42964Y73543D01*
X42599Y73177D01*
X42526Y73002D01*
X42126Y73081D01*
Y74950D01*
X42526Y75030D01*
X42599Y74854D01*
X42964Y74489D01*
X43442Y74291D01*
X43959D01*
X44437Y74489D01*
X44803Y74854D01*
X45001Y75332D01*
Y75849D01*
X44803Y76327D01*
X44437Y76693D01*
X43959Y76890D01*
X43442D01*
X42964Y76693D01*
X42599Y76327D01*
X42526Y76151D01*
X42126Y76231D01*
Y78100D01*
X42526Y78179D01*
X42599Y78004D01*
X42964Y77638D01*
X43442Y77440D01*
X43959D01*
X44437Y77638D01*
X44803Y78004D01*
X45001Y78482D01*
Y78999D01*
X44803Y79476D01*
X44437Y79842D01*
X43959Y80040D01*
X43442D01*
X42964Y79842D01*
X42599Y79476D01*
X42526Y79301D01*
X42126Y79381D01*
Y81249D01*
X42526Y81329D01*
X42599Y81153D01*
X42964Y80788D01*
X43442Y80590D01*
X43959D01*
X44437Y80788D01*
X44803Y81153D01*
X45001Y81631D01*
Y82148D01*
X44803Y82626D01*
X44437Y82992D01*
X43959Y83190D01*
X43442D01*
X42964Y82992D01*
X42599Y82626D01*
X42526Y82451D01*
X42126Y82530D01*
X42126Y90158D01*
X59334D01*
X59878Y89932D01*
X60594D01*
X61138Y90158D01*
X63853D01*
X64063Y89843D01*
Y89127D01*
X64337Y88465D01*
X64843Y87959D01*
X65505Y87685D01*
X66221D01*
X66882Y87959D01*
X67389Y88465D01*
X67663Y89127D01*
Y89843D01*
X67873Y90158D01*
X87753D01*
X87919Y89758D01*
X87874Y89713D01*
X87676Y89235D01*
Y88718D01*
X87874Y88240D01*
X88240Y87874D01*
X88718Y87676D01*
X89235D01*
X89713Y87874D01*
X90079Y88240D01*
X90276Y88718D01*
Y89235D01*
X90079Y89713D01*
X90034Y89758D01*
X90200Y90158D01*
X98341D01*
X98494Y89788D01*
X98454Y89748D01*
X98180Y89086D01*
Y88370D01*
X98454Y87709D01*
X98961Y87202D01*
X99622Y86928D01*
X100338D01*
X101000Y87202D01*
X101506Y87709D01*
X101780Y88370D01*
Y89086D01*
X101506Y89748D01*
X101466Y89788D01*
X101619Y90158D01*
X103543D01*
X103543Y57874D01*
D02*
G37*
%LPC*%
G36*
X64925Y224635D02*
X64209D01*
X63547Y224361D01*
X63041Y223854D01*
X62767Y223193D01*
Y222477D01*
X63041Y221815D01*
X63547Y221309D01*
X64209Y221035D01*
X64925D01*
X65587Y221309D01*
X66093Y221815D01*
X66367Y222477D01*
Y223193D01*
X66093Y223854D01*
X65587Y224361D01*
X64925Y224635D01*
D02*
G37*
G36*
X60594D02*
X59878D01*
X59217Y224361D01*
X58710Y223854D01*
X58436Y223193D01*
Y222477D01*
X58710Y221815D01*
X59217Y221309D01*
X59878Y221035D01*
X60594D01*
X61256Y221309D01*
X61762Y221815D01*
X62036Y222477D01*
Y223193D01*
X61762Y223854D01*
X61256Y224361D01*
X60594Y224635D01*
D02*
G37*
G36*
X56264D02*
X55547D01*
X54886Y224361D01*
X54379Y223854D01*
X54106Y223193D01*
Y222477D01*
X54379Y221815D01*
X54886Y221309D01*
X55547Y221035D01*
X56264D01*
X56925Y221309D01*
X57432Y221815D01*
X57705Y222477D01*
Y223193D01*
X57432Y223854D01*
X56925Y224361D01*
X56264Y224635D01*
D02*
G37*
G36*
X51933D02*
X51217D01*
X50555Y224361D01*
X50049Y223854D01*
X49775Y223193D01*
Y222477D01*
X50049Y221815D01*
X50555Y221309D01*
X51217Y221035D01*
X51933D01*
X52594Y221309D01*
X53101Y221815D01*
X53375Y222477D01*
Y223193D01*
X53101Y223854D01*
X52594Y224361D01*
X51933Y224635D01*
D02*
G37*
G36*
X46815D02*
X46099D01*
X45437Y224361D01*
X44931Y223854D01*
X44657Y223193D01*
Y222477D01*
X44931Y221815D01*
X45437Y221309D01*
X46099Y221035D01*
X46815D01*
X47476Y221309D01*
X47983Y221815D01*
X48257Y222477D01*
Y223193D01*
X47983Y223854D01*
X47476Y224361D01*
X46815Y224635D01*
D02*
G37*
G36*
X42484D02*
X41768D01*
X41106Y224361D01*
X40600Y223854D01*
X40326Y223193D01*
Y222477D01*
X40600Y221815D01*
X41106Y221309D01*
X41768Y221035D01*
X42484D01*
X43146Y221309D01*
X43652Y221815D01*
X43926Y222477D01*
Y223193D01*
X43652Y223854D01*
X43146Y224361D01*
X42484Y224635D01*
D02*
G37*
G36*
X31958Y223500D02*
X31242D01*
X30580Y223226D01*
X30074Y222720D01*
X29800Y222058D01*
Y221342D01*
X30074Y220680D01*
X30580Y220174D01*
X31242Y219900D01*
X31958D01*
X32620Y220174D01*
X33126Y220680D01*
X33400Y221342D01*
Y222058D01*
X33126Y222720D01*
X32620Y223226D01*
X31958Y223500D01*
D02*
G37*
G36*
X71618Y222272D02*
X70902D01*
X70240Y221998D01*
X69734Y221492D01*
X69460Y220830D01*
Y220114D01*
X69734Y219453D01*
X70240Y218947D01*
X70902Y218672D01*
X71618D01*
X72280Y218947D01*
X72786Y219453D01*
X73060Y220114D01*
Y220830D01*
X72786Y221492D01*
X72280Y221998D01*
X71618Y222272D01*
D02*
G37*
G36*
X10958Y221200D02*
X10242D01*
X9580Y220926D01*
X9074Y220420D01*
X8800Y219758D01*
Y219042D01*
X9074Y218380D01*
X9580Y217874D01*
X10242Y217600D01*
X10958D01*
X11620Y217874D01*
X12126Y218380D01*
X12400Y219042D01*
Y219758D01*
X12126Y220420D01*
X11620Y220926D01*
X10958Y221200D01*
D02*
G37*
G36*
X81902Y220111D02*
X81186D01*
X80524Y219836D01*
X80018Y219330D01*
X79744Y218669D01*
Y217952D01*
X80018Y217291D01*
X80524Y216785D01*
X81186Y216511D01*
X81902D01*
X82564Y216785D01*
X83070Y217291D01*
X83344Y217952D01*
Y218669D01*
X83070Y219330D01*
X82564Y219836D01*
X81902Y220111D01*
D02*
G37*
G36*
X34458Y219700D02*
X33742D01*
X33080Y219426D01*
X32574Y218920D01*
X32300Y218258D01*
Y217542D01*
X32574Y216880D01*
X33080Y216374D01*
X33742Y216100D01*
X34458D01*
X35120Y216374D01*
X35626Y216880D01*
X35900Y217542D01*
Y218258D01*
X35626Y218920D01*
X35120Y219426D01*
X34458Y219700D01*
D02*
G37*
G36*
X44815Y215596D02*
X44099D01*
X43437Y215322D01*
X42931Y214815D01*
X42657Y214154D01*
Y213438D01*
X42931Y212776D01*
X43437Y212270D01*
X44099Y211996D01*
X44815D01*
X45476Y212270D01*
X45983Y212776D01*
X46257Y213438D01*
Y214154D01*
X45983Y214815D01*
X45476Y215322D01*
X44815Y215596D01*
D02*
G37*
G36*
X60594Y215454D02*
X59878D01*
X59217Y215180D01*
X58710Y214674D01*
X58436Y214012D01*
Y213296D01*
X58710Y212634D01*
X59217Y212128D01*
X59878Y211854D01*
X60594D01*
X61256Y212128D01*
X61762Y212634D01*
X62036Y213296D01*
Y214012D01*
X61762Y214674D01*
X61256Y215180D01*
X60594Y215454D01*
D02*
G37*
G36*
X4689Y219516D02*
X3973D01*
X3311Y219243D01*
X2805Y218736D01*
X2531Y218075D01*
Y217358D01*
X2805Y216697D01*
X3033Y216468D01*
X3275Y216142D01*
X3033Y215815D01*
X2805Y215586D01*
X2531Y214925D01*
Y214209D01*
X2805Y213547D01*
X3033Y213319D01*
X3275Y212992D01*
X3033Y212666D01*
X2805Y212437D01*
X2531Y211775D01*
Y211059D01*
X2805Y210398D01*
X3311Y209891D01*
X3973Y209617D01*
X4689D01*
X5350Y209891D01*
X5857Y210398D01*
X6131Y211059D01*
Y211775D01*
X5857Y212437D01*
X5628Y212666D01*
X5387Y212992D01*
X5628Y213319D01*
X5857Y213547D01*
X6131Y214209D01*
Y214925D01*
X5857Y215586D01*
X5628Y215815D01*
X5387Y216142D01*
X5628Y216468D01*
X5857Y216697D01*
X6131Y217358D01*
Y218075D01*
X5857Y218736D01*
X5350Y219243D01*
X4689Y219516D01*
D02*
G37*
G36*
X10758Y60500D02*
X10042D01*
X9380Y60226D01*
X8874Y59720D01*
X8600Y59058D01*
Y58342D01*
X8874Y57680D01*
X9380Y57174D01*
X9904Y56957D01*
X10079Y56673D01*
X10125Y56400D01*
X9900Y55858D01*
Y55142D01*
X10174Y54480D01*
X10680Y53974D01*
X11342Y53700D01*
X12058D01*
X12720Y53974D01*
X13226Y54480D01*
X13500Y55142D01*
Y55858D01*
X13226Y56520D01*
X12720Y57026D01*
X12196Y57243D01*
X12021Y57527D01*
X11975Y57800D01*
X12200Y58342D01*
Y59058D01*
X11926Y59720D01*
X11420Y60226D01*
X10758Y60500D01*
D02*
G37*
G36*
X9258Y54100D02*
X8542D01*
X7880Y53826D01*
X7374Y53320D01*
X7100Y52658D01*
Y51942D01*
X7374Y51280D01*
X7880Y50774D01*
X8542Y50500D01*
X9258D01*
X9920Y50774D01*
X10426Y51280D01*
X10700Y51942D01*
Y52658D01*
X10426Y53320D01*
X9920Y53826D01*
X9258Y54100D01*
D02*
G37*
G36*
X21724Y52587D02*
X21008D01*
X20346Y52313D01*
X19840Y51807D01*
X19566Y51145D01*
Y50429D01*
X19840Y49768D01*
X20346Y49261D01*
X21008Y48987D01*
X21724D01*
X22386Y49261D01*
X22892Y49768D01*
X23166Y50429D01*
Y51145D01*
X22892Y51807D01*
X22386Y52313D01*
X21724Y52587D01*
D02*
G37*
G36*
X31361Y45395D02*
X30844D01*
X30366Y45197D01*
X30000Y44831D01*
X29802Y44353D01*
Y43836D01*
X30000Y43358D01*
X30366Y42992D01*
X30844Y42794D01*
X31361D01*
X31839Y42992D01*
X32204Y43358D01*
X32402Y43836D01*
Y44353D01*
X32204Y44831D01*
X31839Y45197D01*
X31361Y45395D01*
D02*
G37*
G36*
X24374Y45895D02*
X23658D01*
X22996Y45620D01*
X22490Y45114D01*
X22216Y44453D01*
Y43736D01*
X22490Y43075D01*
X22996Y42568D01*
X23658Y42294D01*
X24374D01*
X25035Y42568D01*
X25542Y43075D01*
X25816Y43736D01*
Y44453D01*
X25542Y45114D01*
X25035Y45620D01*
X24374Y45895D01*
D02*
G37*
G36*
X43959Y42245D02*
X43442D01*
X42964Y42047D01*
X42599Y41681D01*
X42401Y41203D01*
Y40686D01*
X42599Y40209D01*
X42964Y39843D01*
X43442Y39645D01*
X43959D01*
X44437Y39843D01*
X44803Y40209D01*
X45001Y40686D01*
Y41203D01*
X44803Y41681D01*
X44437Y42047D01*
X43959Y42245D01*
D02*
G37*
G36*
X40810D02*
X40293D01*
X39815Y42047D01*
X39449Y41681D01*
X39251Y41203D01*
Y40686D01*
X39449Y40209D01*
X39815Y39843D01*
X40293Y39645D01*
X40810D01*
X41288Y39843D01*
X41653Y40209D01*
X41851Y40686D01*
Y41203D01*
X41653Y41681D01*
X41288Y42047D01*
X40810Y42245D01*
D02*
G37*
G36*
X37660D02*
X37143D01*
X36665Y42047D01*
X36299Y41681D01*
X36102Y41203D01*
Y40686D01*
X36299Y40209D01*
X36665Y39843D01*
X37143Y39645D01*
X37660D01*
X38138Y39843D01*
X38504Y40209D01*
X38702Y40686D01*
Y41203D01*
X38504Y41681D01*
X38138Y42047D01*
X37660Y42245D01*
D02*
G37*
G36*
X34511D02*
X33993D01*
X33516Y42047D01*
X33150Y41681D01*
X32952Y41203D01*
Y40686D01*
X33150Y40209D01*
X33516Y39843D01*
X33993Y39645D01*
X34511D01*
X34988Y39843D01*
X35354Y40209D01*
X35552Y40686D01*
Y41203D01*
X35354Y41681D01*
X34988Y42047D01*
X34511Y42245D01*
D02*
G37*
G36*
X28459Y42200D02*
X27941D01*
X27464Y42002D01*
X27098Y41636D01*
X26900Y41159D01*
Y40641D01*
X27098Y40164D01*
X27464Y39798D01*
X27941Y39600D01*
X28459D01*
X28936Y39798D01*
X29302Y40164D01*
X29500Y40641D01*
Y41159D01*
X29302Y41636D01*
X28936Y42002D01*
X28459Y42200D01*
D02*
G37*
G36*
X5958Y43000D02*
X5242D01*
X4580Y42726D01*
X4074Y42220D01*
X3800Y41558D01*
Y40842D01*
X4074Y40180D01*
X4580Y39674D01*
X5242Y39400D01*
X5958D01*
X6150Y39479D01*
X6532Y39097D01*
X6468Y38941D01*
Y38225D01*
X6742Y37563D01*
X7248Y37057D01*
X7910Y36783D01*
X8626D01*
X9287Y37057D01*
X9794Y37563D01*
X10068Y38225D01*
Y38941D01*
X9794Y39602D01*
X9287Y40109D01*
X8626Y40383D01*
X7910D01*
X7718Y40303D01*
X7335Y40686D01*
X7400Y40842D01*
Y41558D01*
X7126Y42220D01*
X6620Y42726D01*
X5958Y43000D01*
D02*
G37*
G36*
X43959Y39095D02*
X43442D01*
X42964Y38897D01*
X42599Y38532D01*
X42401Y38054D01*
Y37537D01*
X42599Y37059D01*
X42964Y36693D01*
X43442Y36495D01*
X43959D01*
X44437Y36693D01*
X44803Y37059D01*
X45001Y37537D01*
Y38054D01*
X44803Y38532D01*
X44437Y38897D01*
X43959Y39095D01*
D02*
G37*
G36*
X40810D02*
X40293D01*
X39815Y38897D01*
X39449Y38532D01*
X39251Y38054D01*
Y37537D01*
X39449Y37059D01*
X39815Y36693D01*
X40293Y36495D01*
X40810D01*
X41288Y36693D01*
X41653Y37059D01*
X41851Y37537D01*
Y38054D01*
X41653Y38532D01*
X41288Y38897D01*
X40810Y39095D01*
D02*
G37*
G36*
X37660D02*
X37143D01*
X36665Y38897D01*
X36299Y38532D01*
X36102Y38054D01*
Y37537D01*
X36299Y37059D01*
X36665Y36693D01*
X37143Y36495D01*
X37660D01*
X38138Y36693D01*
X38504Y37059D01*
X38702Y37537D01*
Y38054D01*
X38504Y38532D01*
X38138Y38897D01*
X37660Y39095D01*
D02*
G37*
G36*
X34511D02*
X33993D01*
X33516Y38897D01*
X33150Y38532D01*
X32952Y38054D01*
Y37537D01*
X33150Y37059D01*
X33516Y36693D01*
X33993Y36495D01*
X34511D01*
X34988Y36693D01*
X35354Y37059D01*
X35552Y37537D01*
Y38054D01*
X35354Y38532D01*
X34988Y38897D01*
X34511Y39095D01*
D02*
G37*
G36*
X31361D02*
X30844D01*
X30366Y38897D01*
X30000Y38532D01*
X29802Y38054D01*
Y37537D01*
X30000Y37059D01*
X30366Y36693D01*
X30844Y36495D01*
X31361D01*
X31839Y36693D01*
X32204Y37059D01*
X32402Y37537D01*
Y38054D01*
X32204Y38532D01*
X31839Y38897D01*
X31361Y39095D01*
D02*
G37*
G36*
X26859Y37300D02*
X26341D01*
X25864Y37102D01*
X25498Y36736D01*
X25300Y36259D01*
Y35741D01*
X25498Y35264D01*
X25864Y34898D01*
X26341Y34700D01*
X26859D01*
X27336Y34898D01*
X27702Y35264D01*
X27900Y35741D01*
Y36259D01*
X27702Y36736D01*
X27336Y37102D01*
X26859Y37300D01*
D02*
G37*
G36*
X50259Y35946D02*
X49741D01*
X49264Y35748D01*
X48898Y35382D01*
X48700Y34904D01*
Y34387D01*
X48898Y33909D01*
X49264Y33544D01*
X49741Y33346D01*
X50259D01*
X50736Y33544D01*
X51102Y33909D01*
X51300Y34387D01*
Y34904D01*
X51102Y35382D01*
X50736Y35748D01*
X50259Y35946D01*
D02*
G37*
G36*
X47109D02*
X46592D01*
X46114Y35748D01*
X45748Y35382D01*
X45550Y34904D01*
Y34387D01*
X45748Y33909D01*
X46114Y33544D01*
X46592Y33346D01*
X47109D01*
X47587Y33544D01*
X47952Y33909D01*
X48150Y34387D01*
Y34904D01*
X47952Y35382D01*
X47587Y35748D01*
X47109Y35946D01*
D02*
G37*
G36*
X43959D02*
X43442D01*
X42964Y35748D01*
X42599Y35382D01*
X42401Y34904D01*
Y34387D01*
X42599Y33909D01*
X42964Y33544D01*
X43442Y33346D01*
X43959D01*
X44437Y33544D01*
X44803Y33909D01*
X45001Y34387D01*
Y34904D01*
X44803Y35382D01*
X44437Y35748D01*
X43959Y35946D01*
D02*
G37*
G36*
X40810D02*
X40293D01*
X39815Y35748D01*
X39449Y35382D01*
X39251Y34904D01*
Y34387D01*
X39449Y33909D01*
X39815Y33544D01*
X40293Y33346D01*
X40810D01*
X41288Y33544D01*
X41653Y33909D01*
X41851Y34387D01*
Y34904D01*
X41653Y35382D01*
X41288Y35748D01*
X40810Y35946D01*
D02*
G37*
G36*
X37660D02*
X37143D01*
X36665Y35748D01*
X36299Y35382D01*
X36102Y34904D01*
Y34387D01*
X36299Y33909D01*
X36665Y33544D01*
X37143Y33346D01*
X37660D01*
X38138Y33544D01*
X38504Y33909D01*
X38702Y34387D01*
Y34904D01*
X38504Y35382D01*
X38138Y35748D01*
X37660Y35946D01*
D02*
G37*
G36*
X34511D02*
X33993D01*
X33516Y35748D01*
X33150Y35382D01*
X32952Y34904D01*
Y34387D01*
X33150Y33909D01*
X33516Y33544D01*
X33993Y33346D01*
X34511D01*
X34988Y33544D01*
X35354Y33909D01*
X35552Y34387D01*
Y34904D01*
X35354Y35382D01*
X34988Y35748D01*
X34511Y35946D01*
D02*
G37*
G36*
X31361D02*
X30844D01*
X30366Y35748D01*
X30000Y35382D01*
X29802Y34904D01*
Y34387D01*
X30000Y33909D01*
X30366Y33544D01*
X30844Y33346D01*
X31361D01*
X31839Y33544D01*
X32204Y33909D01*
X32402Y34387D01*
Y34904D01*
X32204Y35382D01*
X31839Y35748D01*
X31361Y35946D01*
D02*
G37*
G36*
X50259Y32796D02*
X49741D01*
X49264Y32598D01*
X48898Y32232D01*
X48700Y31755D01*
Y31238D01*
X48898Y30760D01*
X49264Y30394D01*
X49741Y30196D01*
X50259D01*
X50736Y30394D01*
X51102Y30760D01*
X51300Y31238D01*
Y31755D01*
X51102Y32232D01*
X50736Y32598D01*
X50259Y32796D01*
D02*
G37*
G36*
X47109D02*
X46592D01*
X46114Y32598D01*
X45748Y32232D01*
X45550Y31755D01*
Y31238D01*
X45748Y30760D01*
X46114Y30394D01*
X46592Y30196D01*
X47109D01*
X47587Y30394D01*
X47952Y30760D01*
X48150Y31238D01*
Y31755D01*
X47952Y32232D01*
X47587Y32598D01*
X47109Y32796D01*
D02*
G37*
G36*
X43959D02*
X43442D01*
X42964Y32598D01*
X42599Y32232D01*
X42401Y31755D01*
Y31238D01*
X42599Y30760D01*
X42964Y30394D01*
X43442Y30196D01*
X43959D01*
X44437Y30394D01*
X44803Y30760D01*
X45001Y31238D01*
Y31755D01*
X44803Y32232D01*
X44437Y32598D01*
X43959Y32796D01*
D02*
G37*
G36*
X40810D02*
X40293D01*
X39815Y32598D01*
X39449Y32232D01*
X39251Y31755D01*
Y31238D01*
X39449Y30760D01*
X39815Y30394D01*
X40293Y30196D01*
X40810D01*
X41288Y30394D01*
X41653Y30760D01*
X41851Y31238D01*
Y31755D01*
X41653Y32232D01*
X41288Y32598D01*
X40810Y32796D01*
D02*
G37*
G36*
X37660D02*
X37143D01*
X36665Y32598D01*
X36299Y32232D01*
X36102Y31755D01*
Y31238D01*
X36299Y30760D01*
X36665Y30394D01*
X37143Y30196D01*
X37660D01*
X38138Y30394D01*
X38504Y30760D01*
X38702Y31238D01*
Y31755D01*
X38504Y32232D01*
X38138Y32598D01*
X37660Y32796D01*
D02*
G37*
G36*
X34511D02*
X33993D01*
X33516Y32598D01*
X33150Y32232D01*
X32952Y31755D01*
Y31238D01*
X33150Y30760D01*
X33516Y30394D01*
X33993Y30196D01*
X34511D01*
X34988Y30394D01*
X35354Y30760D01*
X35552Y31238D01*
Y31755D01*
X35354Y32232D01*
X34988Y32598D01*
X34511Y32796D01*
D02*
G37*
G36*
X31361D02*
X30844D01*
X30366Y32598D01*
X30000Y32232D01*
X29802Y31755D01*
Y31238D01*
X30000Y30760D01*
X30366Y30394D01*
X30844Y30196D01*
X31361D01*
X31839Y30394D01*
X32204Y30760D01*
X32402Y31238D01*
Y31755D01*
X32204Y32232D01*
X31839Y32598D01*
X31361Y32796D01*
D02*
G37*
G36*
X9928Y32470D02*
X9212D01*
X8551Y32196D01*
X8044Y31690D01*
X7770Y31028D01*
Y30312D01*
X8044Y29651D01*
X8551Y29144D01*
X9212Y28870D01*
X9928D01*
X10590Y29144D01*
X11096Y29651D01*
X11370Y30312D01*
Y31028D01*
X11096Y31690D01*
X10590Y32196D01*
X9928Y32470D01*
D02*
G37*
G36*
X50259Y29647D02*
X49741D01*
X49264Y29449D01*
X48898Y29083D01*
X48700Y28605D01*
Y28088D01*
X48898Y27610D01*
X49264Y27244D01*
X49741Y27046D01*
X50259D01*
X50736Y27244D01*
X51102Y27610D01*
X51300Y28088D01*
Y28605D01*
X51102Y29083D01*
X50736Y29449D01*
X50259Y29647D01*
D02*
G37*
G36*
X47109D02*
X46592D01*
X46114Y29449D01*
X45748Y29083D01*
X45550Y28605D01*
Y28088D01*
X45748Y27610D01*
X46114Y27244D01*
X46592Y27046D01*
X47109D01*
X47587Y27244D01*
X47952Y27610D01*
X48150Y28088D01*
Y28605D01*
X47952Y29083D01*
X47587Y29449D01*
X47109Y29647D01*
D02*
G37*
G36*
X43959D02*
X43442D01*
X42964Y29449D01*
X42599Y29083D01*
X42401Y28605D01*
Y28088D01*
X42599Y27610D01*
X42964Y27244D01*
X43442Y27046D01*
X43959D01*
X44437Y27244D01*
X44803Y27610D01*
X45001Y28088D01*
Y28605D01*
X44803Y29083D01*
X44437Y29449D01*
X43959Y29647D01*
D02*
G37*
G36*
X40810D02*
X40293D01*
X39815Y29449D01*
X39449Y29083D01*
X39251Y28605D01*
Y28088D01*
X39449Y27610D01*
X39815Y27244D01*
X40293Y27046D01*
X40810D01*
X41288Y27244D01*
X41653Y27610D01*
X41851Y28088D01*
Y28605D01*
X41653Y29083D01*
X41288Y29449D01*
X40810Y29647D01*
D02*
G37*
G36*
X37660D02*
X37143D01*
X36665Y29449D01*
X36299Y29083D01*
X36102Y28605D01*
Y28088D01*
X36299Y27610D01*
X36665Y27244D01*
X37143Y27046D01*
X37660D01*
X38138Y27244D01*
X38504Y27610D01*
X38702Y28088D01*
Y28605D01*
X38504Y29083D01*
X38138Y29449D01*
X37660Y29647D01*
D02*
G37*
G36*
X34511D02*
X33993D01*
X33516Y29449D01*
X33150Y29083D01*
X32952Y28605D01*
Y28088D01*
X33150Y27610D01*
X33516Y27244D01*
X33993Y27046D01*
X34511D01*
X34988Y27244D01*
X35354Y27610D01*
X35552Y28088D01*
Y28605D01*
X35354Y29083D01*
X34988Y29449D01*
X34511Y29647D01*
D02*
G37*
G36*
X31361D02*
X30844D01*
X30366Y29449D01*
X30000Y29083D01*
X29802Y28605D01*
Y28088D01*
X30000Y27610D01*
X30366Y27244D01*
X30844Y27046D01*
X31361D01*
X31839Y27244D01*
X32204Y27610D01*
X32402Y28088D01*
Y28605D01*
X32204Y29083D01*
X31839Y29449D01*
X31361Y29647D01*
D02*
G37*
G36*
X50259Y26497D02*
X49741D01*
X49264Y26299D01*
X48898Y25933D01*
X48700Y25455D01*
Y24938D01*
X48898Y24461D01*
X49264Y24095D01*
X49741Y23897D01*
X50259D01*
X50736Y24095D01*
X51102Y24461D01*
X51300Y24938D01*
Y25455D01*
X51102Y25933D01*
X50736Y26299D01*
X50259Y26497D01*
D02*
G37*
G36*
X47109D02*
X46592D01*
X46114Y26299D01*
X45748Y25933D01*
X45550Y25455D01*
Y24938D01*
X45748Y24461D01*
X46114Y24095D01*
X46592Y23897D01*
X47109D01*
X47587Y24095D01*
X47952Y24461D01*
X48150Y24938D01*
Y25455D01*
X47952Y25933D01*
X47587Y26299D01*
X47109Y26497D01*
D02*
G37*
G36*
X43959D02*
X43442D01*
X42964Y26299D01*
X42599Y25933D01*
X42401Y25455D01*
Y24938D01*
X42599Y24461D01*
X42964Y24095D01*
X43442Y23897D01*
X43959D01*
X44437Y24095D01*
X44803Y24461D01*
X45001Y24938D01*
Y25455D01*
X44803Y25933D01*
X44437Y26299D01*
X43959Y26497D01*
D02*
G37*
G36*
X40810D02*
X40293D01*
X39815Y26299D01*
X39449Y25933D01*
X39251Y25455D01*
Y24938D01*
X39449Y24461D01*
X39815Y24095D01*
X40293Y23897D01*
X40810D01*
X41288Y24095D01*
X41653Y24461D01*
X41851Y24938D01*
Y25455D01*
X41653Y25933D01*
X41288Y26299D01*
X40810Y26497D01*
D02*
G37*
G36*
X37660D02*
X37143D01*
X36665Y26299D01*
X36299Y25933D01*
X36102Y25455D01*
Y24938D01*
X36299Y24461D01*
X36665Y24095D01*
X37143Y23897D01*
X37660D01*
X38138Y24095D01*
X38504Y24461D01*
X38702Y24938D01*
Y25455D01*
X38504Y25933D01*
X38138Y26299D01*
X37660Y26497D01*
D02*
G37*
G36*
X34511D02*
X33993D01*
X33516Y26299D01*
X33150Y25933D01*
X32952Y25455D01*
Y24938D01*
X33150Y24461D01*
X33516Y24095D01*
X33993Y23897D01*
X34511D01*
X34988Y24095D01*
X35354Y24461D01*
X35552Y24938D01*
Y25455D01*
X35354Y25933D01*
X34988Y26299D01*
X34511Y26497D01*
D02*
G37*
G36*
X31361D02*
X30844D01*
X30366Y26299D01*
X30000Y25933D01*
X29802Y25455D01*
Y24938D01*
X30000Y24461D01*
X30366Y24095D01*
X30844Y23897D01*
X31361D01*
X31839Y24095D01*
X32204Y24461D01*
X32402Y24938D01*
Y25455D01*
X32204Y25933D01*
X31839Y26299D01*
X31361Y26497D01*
D02*
G37*
G36*
X4689Y29359D02*
X3973D01*
X3311Y29085D01*
X2805Y28579D01*
X2531Y27917D01*
Y27201D01*
X2805Y26539D01*
X3161Y26184D01*
X3108Y25659D01*
X3081Y25610D01*
X2917Y25542D01*
X2411Y25035D01*
X2137Y24374D01*
Y23658D01*
X2411Y22996D01*
X2917Y22490D01*
X3579Y22216D01*
X4295D01*
X4957Y22490D01*
X5463Y22996D01*
X5737Y23658D01*
Y24374D01*
X5463Y25035D01*
X5107Y25391D01*
X5160Y25916D01*
X5186Y25965D01*
X5350Y26033D01*
X5857Y26539D01*
X6131Y27201D01*
Y27917D01*
X5857Y28579D01*
X5350Y29085D01*
X4689Y29359D01*
D02*
G37*
G36*
X27130Y19123D02*
X26414D01*
X25752Y18849D01*
X25246Y18342D01*
X24972Y17681D01*
Y16965D01*
X25246Y16303D01*
X25752Y15797D01*
X26414Y15523D01*
X27130D01*
X27791Y15797D01*
X28298Y16303D01*
X28572Y16965D01*
Y17681D01*
X28298Y18342D01*
X27791Y18849D01*
X27130Y19123D01*
D02*
G37*
G36*
X31358Y17700D02*
X30642D01*
X29980Y17426D01*
X29474Y16920D01*
X29200Y16258D01*
Y15542D01*
X29474Y14880D01*
X29980Y14374D01*
X30642Y14100D01*
X31358D01*
X32020Y14374D01*
X32526Y14880D01*
X33062Y14868D01*
X33120Y14728D01*
X33626Y14222D01*
X34288Y13948D01*
X35004D01*
X35665Y14222D01*
X36172Y14728D01*
X36446Y15390D01*
Y16106D01*
X36172Y16768D01*
X35665Y17274D01*
X35004Y17548D01*
X34288D01*
X33626Y17274D01*
X33120Y16768D01*
X32584Y16780D01*
X32526Y16920D01*
X32020Y17426D01*
X31358Y17700D01*
D02*
G37*
G36*
X102151Y212199D02*
X101435D01*
X100774Y211925D01*
X100267Y211418D01*
X99993Y210757D01*
Y210041D01*
X100267Y209379D01*
X100774Y208873D01*
X101435Y208599D01*
X102151D01*
X102813Y208873D01*
X103319Y209379D01*
X103593Y210041D01*
Y210757D01*
X103319Y211418D01*
X102813Y211925D01*
X102151Y212199D01*
D02*
G37*
G36*
X100022Y206133D02*
X99309D01*
X98620Y205948D01*
X98003Y205592D01*
X97499Y205088D01*
X97142Y204470D01*
X96957Y203782D01*
Y203069D01*
X97142Y202380D01*
X97499Y201763D01*
X98003Y201258D01*
X98620Y200902D01*
X99309Y200717D01*
X100022D01*
X100711Y200902D01*
X101328Y201258D01*
X101832Y201763D01*
X102189Y202380D01*
X102373Y203069D01*
Y203782D01*
X102189Y204470D01*
X101832Y205088D01*
X101328Y205592D01*
X100711Y205948D01*
X100022Y206133D01*
D02*
G37*
G36*
X94453Y203375D02*
X93736D01*
X93075Y203101D01*
X92568Y202594D01*
X92295Y201933D01*
Y201217D01*
X92568Y200555D01*
X93075Y200049D01*
X93736Y199775D01*
X94453D01*
X95114Y200049D01*
X95621Y200555D01*
X95894Y201217D01*
Y201933D01*
X95621Y202594D01*
X95114Y203101D01*
X94453Y203375D01*
D02*
G37*
G36*
X88153Y197863D02*
X87437D01*
X86776Y197589D01*
X86269Y197083D01*
X85995Y196421D01*
Y195705D01*
X86269Y195043D01*
X86776Y194537D01*
X87437Y194263D01*
X88153D01*
X88815Y194537D01*
X89321Y195043D01*
X89595Y195705D01*
Y196421D01*
X89321Y197083D01*
X88815Y197589D01*
X88153Y197863D01*
D02*
G37*
G36*
X96815Y189989D02*
X96099D01*
X95437Y189715D01*
X94931Y189209D01*
X94657Y188547D01*
Y187831D01*
X94931Y187169D01*
X95437Y186663D01*
X96099Y186389D01*
X96815D01*
X97476Y186663D01*
X97983Y187169D01*
X98257Y187831D01*
Y188547D01*
X97983Y189209D01*
X97476Y189715D01*
X96815Y189989D01*
D02*
G37*
G36*
X89728Y175101D02*
X89012D01*
X88350Y174827D01*
X87844Y174321D01*
X87570Y173659D01*
Y172943D01*
X87844Y172282D01*
X88350Y171775D01*
X89012Y171501D01*
X89728D01*
X90390Y171775D01*
X90896Y172282D01*
X91170Y172943D01*
Y173659D01*
X90896Y174321D01*
X90390Y174827D01*
X89728Y175101D01*
D02*
G37*
G36*
X103901Y173847D02*
X103185D01*
X102524Y173573D01*
X102017Y173067D01*
X101743Y172405D01*
Y171689D01*
X102017Y171028D01*
X102524Y170521D01*
X103185Y170247D01*
X103901D01*
X104563Y170521D01*
X105069Y171028D01*
X105343Y171689D01*
Y172405D01*
X105069Y173067D01*
X104563Y173573D01*
X103901Y173847D01*
D02*
G37*
G36*
X85358Y160600D02*
X84642D01*
X83980Y160326D01*
X83474Y159820D01*
X83200Y159158D01*
Y158442D01*
X83474Y157780D01*
X83980Y157274D01*
X84642Y157000D01*
X85358D01*
X86020Y157274D01*
X86526Y157780D01*
X86800Y158442D01*
Y159158D01*
X86526Y159820D01*
X86020Y160326D01*
X85358Y160600D01*
D02*
G37*
G36*
X100058Y147200D02*
X99342D01*
X98680Y146926D01*
X98174Y146420D01*
X97900Y145758D01*
Y145042D01*
X98174Y144380D01*
X98680Y143874D01*
X99342Y143600D01*
X100058D01*
X100720Y143874D01*
X101226Y144380D01*
X101500Y145042D01*
Y145758D01*
X101226Y146420D01*
X100720Y146926D01*
X100058Y147200D01*
D02*
G37*
G36*
X88958Y142900D02*
X88242D01*
X87580Y142626D01*
X87074Y142120D01*
X86800Y141458D01*
Y140742D01*
X87074Y140080D01*
X87580Y139574D01*
X88242Y139300D01*
X88958D01*
X89620Y139574D01*
X90126Y140080D01*
X90400Y140742D01*
Y141458D01*
X90126Y142120D01*
X89620Y142626D01*
X88958Y142900D01*
D02*
G37*
G36*
X96058Y143400D02*
X95342D01*
X94680Y143126D01*
X94174Y142620D01*
X93900Y141958D01*
Y141242D01*
X94174Y140580D01*
X94680Y140074D01*
X95342Y139800D01*
X96058D01*
X96720Y140074D01*
X96881Y140235D01*
X97304Y139952D01*
X97100Y139458D01*
Y138742D01*
X97374Y138080D01*
X97707Y137748D01*
X97694Y137684D01*
X97188Y137177D01*
X96913Y136516D01*
Y135800D01*
X97156Y135213D01*
X96618Y134991D01*
X96112Y134484D01*
X95838Y133823D01*
Y133107D01*
X96112Y132445D01*
X96618Y131939D01*
X97280Y131665D01*
X97775D01*
X97775Y131664D01*
Y130948D01*
X98049Y130287D01*
X98555Y129780D01*
X99217Y129506D01*
X99933D01*
X100594Y129780D01*
X101101Y130287D01*
X101375Y130948D01*
Y131664D01*
X101101Y132326D01*
X100594Y132832D01*
X99933Y133106D01*
X99438D01*
X99438Y133107D01*
Y133823D01*
X99195Y134409D01*
X99733Y134632D01*
X100239Y135138D01*
X100513Y135800D01*
Y136516D01*
X100239Y137177D01*
X99907Y137510D01*
X99920Y137574D01*
X100426Y138080D01*
X100700Y138742D01*
Y139458D01*
X100426Y140120D01*
X99920Y140626D01*
X99258Y140900D01*
X98542D01*
X97880Y140626D01*
X97719Y140465D01*
X97295Y140748D01*
X97500Y141242D01*
Y141958D01*
X97226Y142620D01*
X96720Y143126D01*
X96058Y143400D01*
D02*
G37*
G36*
X91390Y131414D02*
X90674D01*
X90012Y131140D01*
X89506Y130634D01*
X89232Y129973D01*
Y129364D01*
X88623D01*
X87962Y129090D01*
X87455Y128584D01*
X87181Y127922D01*
Y127206D01*
X87455Y126544D01*
X87962Y126038D01*
X88623Y125764D01*
X89339D01*
X90001Y126038D01*
X90507Y126544D01*
X90781Y127206D01*
Y127814D01*
X91390D01*
X92051Y128088D01*
X92558Y128595D01*
X92832Y129256D01*
Y129973D01*
X92558Y130634D01*
X92051Y131140D01*
X91390Y131414D01*
D02*
G37*
G36*
X96421Y130147D02*
X95705D01*
X95043Y129872D01*
X94537Y129366D01*
X94263Y128705D01*
Y127988D01*
X94537Y127327D01*
X95043Y126821D01*
X95047Y126799D01*
X94689Y126441D01*
X94415Y125779D01*
Y125063D01*
X94689Y124402D01*
X95195Y123895D01*
X95857Y123621D01*
X96573D01*
X97234Y123895D01*
X97741Y124402D01*
X98015Y125063D01*
Y125779D01*
X97741Y126441D01*
X97235Y126947D01*
X97230Y126968D01*
X97589Y127327D01*
X97863Y127988D01*
Y128705D01*
X97589Y129366D01*
X97083Y129872D01*
X96421Y130147D01*
D02*
G37*
G36*
X86162Y119401D02*
X85492D01*
X84873Y119144D01*
X84399Y118671D01*
X84143Y118052D01*
Y117382D01*
X84399Y116762D01*
X84873Y116289D01*
X85492Y116032D01*
X86162D01*
X86781Y116289D01*
X87255Y116762D01*
X87511Y117382D01*
Y118052D01*
X87255Y118671D01*
X86781Y119144D01*
X86162Y119401D01*
D02*
G37*
G36*
X104295Y119517D02*
X103579D01*
X102917Y119243D01*
X102411Y118736D01*
X102137Y118075D01*
Y117359D01*
X102411Y116697D01*
X102917Y116191D01*
X102999Y115781D01*
X102805Y115587D01*
X102531Y114925D01*
Y114630D01*
X102031Y114531D01*
X101920Y114799D01*
X101413Y115305D01*
X100752Y115579D01*
X100036D01*
X99374Y115305D01*
X98868Y114799D01*
X98594Y114138D01*
Y113421D01*
X98868Y112760D01*
X99374Y112254D01*
X100036Y111979D01*
X100752D01*
X101413Y112254D01*
X101920Y112760D01*
X102194Y113421D01*
Y113716D01*
X102694Y113815D01*
X102805Y113547D01*
X103311Y113041D01*
X103973Y112767D01*
X104689D01*
X105350Y113041D01*
X105857Y113547D01*
X106131Y114209D01*
Y114925D01*
X105857Y115587D01*
X105350Y116093D01*
X105269Y116503D01*
X105463Y116697D01*
X105737Y117359D01*
Y118075D01*
X105463Y118736D01*
X104957Y119243D01*
X104295Y119517D01*
D02*
G37*
G36*
X90886Y114676D02*
X90216D01*
X89597Y114420D01*
X89123Y113946D01*
X88867Y113327D01*
Y112657D01*
X89123Y112038D01*
X89597Y111564D01*
X90216Y111308D01*
X90886D01*
X91505Y111564D01*
X91979Y112038D01*
X92235Y112657D01*
Y113327D01*
X91979Y113946D01*
X91505Y114420D01*
X90886Y114676D01*
D02*
G37*
G36*
X86162D02*
X85492D01*
X84873Y114420D01*
X84399Y113946D01*
X84143Y113327D01*
Y112657D01*
X84399Y112038D01*
X84873Y111564D01*
X85492Y111308D01*
X86162D01*
X86781Y111564D01*
X87255Y112038D01*
X87511Y112657D01*
Y113327D01*
X87255Y113946D01*
X86781Y114420D01*
X86162Y114676D01*
D02*
G37*
G36*
X116893Y208493D02*
X116177D01*
X115516Y208219D01*
X115009Y207713D01*
X114735Y207051D01*
Y206335D01*
X115009Y205673D01*
X115516Y205167D01*
X116177Y204893D01*
X116893D01*
X117555Y205167D01*
X118061Y205673D01*
X118335Y206335D01*
Y207051D01*
X118061Y207713D01*
X117555Y208219D01*
X116893Y208493D01*
D02*
G37*
G36*
X20770Y206133D02*
X20057D01*
X19368Y205948D01*
X18751Y205592D01*
X18247Y205088D01*
X17890Y204470D01*
X17706Y203782D01*
Y203069D01*
X17890Y202380D01*
X18247Y201763D01*
X18751Y201258D01*
X19368Y200902D01*
X20057Y200717D01*
X20770D01*
X21459Y200902D01*
X22076Y201258D01*
X22580Y201763D01*
X22937Y202380D01*
X23121Y203069D01*
Y203782D01*
X22937Y204470D01*
X22580Y205088D01*
X22076Y205592D01*
X21459Y205948D01*
X20770Y206133D01*
D02*
G37*
G36*
X27523Y202461D02*
X26807D01*
X26146Y202187D01*
X25639Y201680D01*
X25365Y201019D01*
Y200303D01*
X25639Y199641D01*
X26146Y199135D01*
X26807Y198861D01*
X27523D01*
X28185Y199135D01*
X28691Y199641D01*
X28965Y200303D01*
Y201019D01*
X28691Y201680D01*
X28185Y202187D01*
X27523Y202461D01*
D02*
G37*
G36*
X75161Y199438D02*
X74445D01*
X73783Y199164D01*
X73312Y198693D01*
X73032Y198674D01*
X72751Y198693D01*
X72280Y199164D01*
X71618Y199438D01*
X70902D01*
X70240Y199164D01*
X69734Y198657D01*
X69460Y197996D01*
Y197280D01*
X69734Y196618D01*
X70240Y196112D01*
X70902Y195838D01*
X71618D01*
X72280Y196112D01*
X72751Y196583D01*
X73032Y196602D01*
X73312Y196583D01*
X73783Y196112D01*
X74445Y195838D01*
X75161D01*
X75823Y196112D01*
X76329Y196618D01*
X76603Y197280D01*
Y197996D01*
X76329Y198657D01*
X75823Y199164D01*
X75161Y199438D01*
D02*
G37*
G36*
X115104Y197583D02*
X114388D01*
X113727Y197309D01*
X113220Y196803D01*
X112946Y196142D01*
Y195425D01*
X113220Y194764D01*
X113727Y194257D01*
X114388Y193983D01*
X115104D01*
X115766Y194257D01*
X116272Y194764D01*
X116546Y195425D01*
Y196142D01*
X116272Y196803D01*
X115766Y197309D01*
X115104Y197583D01*
D02*
G37*
G36*
X66894Y197469D02*
X66177D01*
X65516Y197195D01*
X65009Y196689D01*
X64735Y196027D01*
Y195311D01*
X65009Y194650D01*
X65516Y194143D01*
X66177Y193869D01*
X66894D01*
X67555Y194143D01*
X68061Y194650D01*
X68335Y195311D01*
Y196027D01*
X68061Y196689D01*
X67555Y197195D01*
X66894Y197469D01*
D02*
G37*
G36*
X59158Y196863D02*
X58442D01*
X57780Y196589D01*
X57274Y196083D01*
X57000Y195421D01*
Y194705D01*
X57274Y194044D01*
X57780Y193537D01*
X58442Y193263D01*
X59158D01*
X59820Y193537D01*
X60326Y194044D01*
X60600Y194705D01*
Y195421D01*
X60326Y196083D01*
X59820Y196589D01*
X59158Y196863D01*
D02*
G37*
G36*
X24374Y192745D02*
X23658D01*
X22996Y192471D01*
X22490Y191964D01*
X22216Y191303D01*
Y190587D01*
X22490Y189925D01*
X22996Y189419D01*
X23658Y189145D01*
X24374D01*
X25035Y189419D01*
X25542Y189925D01*
X25816Y190587D01*
Y191303D01*
X25542Y191964D01*
X25035Y192471D01*
X24374Y192745D01*
D02*
G37*
G36*
X47996Y191170D02*
X47280D01*
X46618Y190896D01*
X46112Y190390D01*
X45838Y189728D01*
Y189012D01*
X46112Y188350D01*
X46618Y187844D01*
X47280Y187570D01*
X47996D01*
X48657Y187844D01*
X49164Y188350D01*
X49438Y189012D01*
Y189728D01*
X49164Y190390D01*
X48657Y190896D01*
X47996Y191170D01*
D02*
G37*
G36*
X68075Y189989D02*
X67358D01*
X66697Y189715D01*
X66191Y189209D01*
X65917Y188547D01*
Y187831D01*
X66191Y187169D01*
X66697Y186663D01*
X67358Y186389D01*
X68075D01*
X68736Y186663D01*
X69243Y187169D01*
X69516Y187831D01*
Y188547D01*
X69243Y189209D01*
X68736Y189715D01*
X68075Y189989D01*
D02*
G37*
G36*
X16894Y185658D02*
X16177D01*
X15516Y185384D01*
X15010Y184878D01*
X14735Y184216D01*
Y183500D01*
X15010Y182839D01*
X15516Y182332D01*
X16177Y182058D01*
X16894D01*
X17436Y182283D01*
X17969Y182093D01*
X17974Y182080D01*
X18480Y181574D01*
X19142Y181300D01*
X19858D01*
X20520Y181574D01*
X21026Y182080D01*
X21300Y182742D01*
Y183458D01*
X21026Y184120D01*
X20520Y184626D01*
X19858Y184900D01*
X19142D01*
X18599Y184675D01*
X18067Y184865D01*
X18061Y184878D01*
X17555Y185384D01*
X16894Y185658D01*
D02*
G37*
G36*
X28758Y177000D02*
X28042D01*
X27380Y176726D01*
X26874Y176220D01*
X26473Y176472D01*
X26320Y176626D01*
X25658Y176900D01*
X24942D01*
X24280Y176626D01*
X23774Y176120D01*
X23500Y175458D01*
Y174742D01*
X23774Y174080D01*
X24280Y173574D01*
X24942Y173300D01*
X25658D01*
X26320Y173574D01*
X26826Y174080D01*
X27227Y173828D01*
X27380Y173674D01*
X28042Y173400D01*
X28758D01*
X29420Y173674D01*
X29926Y174180D01*
X30200Y174842D01*
Y175558D01*
X29926Y176220D01*
X29420Y176726D01*
X28758Y177000D01*
D02*
G37*
G36*
X15158Y181200D02*
X14442D01*
X13780Y180926D01*
X13274Y180420D01*
X13000Y179758D01*
Y179100D01*
X12342D01*
X11680Y178826D01*
X11174Y178320D01*
X10900Y177658D01*
Y176942D01*
X11174Y176280D01*
X11680Y175774D01*
X12342Y175500D01*
X13058D01*
X13720Y175774D01*
X14226Y176280D01*
X14500Y176942D01*
Y177600D01*
X15158D01*
X15820Y177874D01*
X16326Y178380D01*
X16600Y179042D01*
Y179758D01*
X16326Y180420D01*
X15820Y180926D01*
X15158Y181200D01*
D02*
G37*
G36*
X62957Y176209D02*
X62240D01*
X61579Y175935D01*
X61072Y175429D01*
X60798Y174767D01*
Y174051D01*
X61072Y173390D01*
X61579Y172883D01*
X62240Y172609D01*
X62957D01*
X63618Y172883D01*
X64124Y173390D01*
X64398Y174051D01*
Y174767D01*
X64124Y175429D01*
X63618Y175935D01*
X62957Y176209D01*
D02*
G37*
G36*
X21609Y174651D02*
X20893D01*
X20231Y174377D01*
X19725Y173871D01*
X19451Y173209D01*
Y172493D01*
X19725Y171831D01*
X20231Y171325D01*
X20893Y171051D01*
X21609D01*
X22271Y171325D01*
X22777Y171831D01*
X23051Y172493D01*
Y173209D01*
X22777Y173871D01*
X22271Y174377D01*
X21609Y174651D01*
D02*
G37*
G36*
X75555Y173060D02*
X74839D01*
X74177Y172786D01*
X73671Y172280D01*
X73397Y171618D01*
Y170902D01*
X73414Y170859D01*
X73091Y170334D01*
X72625Y170142D01*
X72392Y170705D01*
X71886Y171211D01*
X71224Y171485D01*
X70508D01*
X69846Y171211D01*
X69340Y170705D01*
X69066Y170043D01*
Y170000D01*
X68999Y169925D01*
X68566Y169707D01*
X68075Y169910D01*
X67358D01*
X66697Y169636D01*
X66191Y169130D01*
X65917Y168468D01*
Y167752D01*
X66191Y167091D01*
X66697Y166584D01*
X67358Y166310D01*
X68075D01*
X68736Y166584D01*
X69243Y167091D01*
X69516Y167752D01*
Y167796D01*
X69584Y167870D01*
X70016Y168089D01*
X70508Y167885D01*
X71224D01*
X71841Y168141D01*
X72075Y167578D01*
X72581Y167071D01*
X73243Y166797D01*
X73959D01*
X74620Y167071D01*
X75127Y167578D01*
X75401Y168239D01*
Y168955D01*
X75383Y168998D01*
X75707Y169523D01*
X76217Y169734D01*
X76723Y170240D01*
X76997Y170902D01*
Y171618D01*
X76723Y172280D01*
X76217Y172786D01*
X75555Y173060D01*
D02*
G37*
G36*
X110988Y169910D02*
X110272D01*
X109610Y169636D01*
X109104Y169130D01*
X108830Y168468D01*
Y167752D01*
X109104Y167091D01*
X109610Y166584D01*
X110272Y166310D01*
X110988D01*
X111650Y166584D01*
X112156Y167091D01*
X112430Y167752D01*
Y168468D01*
X112156Y169130D01*
X111650Y169636D01*
X110988Y169910D01*
D02*
G37*
G36*
X45240Y175422D02*
X44524D01*
X43862Y175148D01*
X43356Y174642D01*
X43082Y173980D01*
Y173264D01*
X43356Y172602D01*
X43862Y172096D01*
X44026Y172028D01*
X44053Y171979D01*
X44105Y171454D01*
X43750Y171098D01*
X43476Y170437D01*
Y169721D01*
X43750Y169059D01*
X44256Y168553D01*
X44918Y168279D01*
X45634D01*
X46295Y168553D01*
X46801Y169059D01*
X47076Y169721D01*
Y170048D01*
X47576Y170245D01*
X47943Y169877D01*
X47917Y169347D01*
X47682Y169249D01*
X47175Y168743D01*
X46901Y168081D01*
Y167365D01*
X47175Y166704D01*
X47682Y166197D01*
X48343Y165923D01*
X49059D01*
X49721Y166197D01*
X50227Y166704D01*
X50402Y167125D01*
X50823Y167491D01*
X51539D01*
X52201Y167765D01*
X52707Y168272D01*
X52981Y168933D01*
Y169649D01*
X52707Y170311D01*
X52201Y170817D01*
X51539Y171091D01*
X50823D01*
X50762Y171132D01*
Y171761D01*
X50488Y172423D01*
X49982Y172929D01*
X49320Y173203D01*
X48604D01*
X47943Y172929D01*
X47436Y172423D01*
X47162Y171761D01*
Y171434D01*
X46662Y171238D01*
X46295Y171605D01*
X46131Y171673D01*
X46105Y171721D01*
X46052Y172247D01*
X46408Y172602D01*
X46682Y173264D01*
Y173980D01*
X46408Y174642D01*
X45902Y175148D01*
X45240Y175422D01*
D02*
G37*
G36*
X16158Y163800D02*
X15442D01*
X14780Y163526D01*
X14274Y163020D01*
X13701Y162944D01*
X13520Y163126D01*
X12858Y163400D01*
X12142D01*
X11480Y163126D01*
X10974Y162620D01*
X10700Y161958D01*
Y161242D01*
X10974Y160580D01*
X11480Y160074D01*
X12142Y159800D01*
X12858D01*
X13520Y160074D01*
X14026Y160580D01*
X14599Y160656D01*
X14780Y160474D01*
X15442Y160200D01*
X16158D01*
X16820Y160474D01*
X17326Y160980D01*
X17600Y161642D01*
Y162358D01*
X17326Y163020D01*
X16820Y163526D01*
X16158Y163800D01*
D02*
G37*
G36*
X42558Y165283D02*
X41842D01*
X41180Y165009D01*
X40674Y164503D01*
X40400Y163841D01*
Y163125D01*
X40674Y162464D01*
X41180Y161957D01*
X41842Y161683D01*
X42558D01*
X43220Y161957D01*
X43726Y162464D01*
X44000Y163125D01*
Y163841D01*
X43726Y164503D01*
X43220Y165009D01*
X42558Y165283D01*
D02*
G37*
G36*
X65712Y164792D02*
X64996D01*
X64335Y164518D01*
X63828Y164012D01*
X63554Y163350D01*
Y162634D01*
X63828Y161972D01*
X64335Y161466D01*
X64996Y161192D01*
X65712D01*
X66374Y161466D01*
X66880Y161972D01*
X67154Y162634D01*
Y163350D01*
X66880Y164012D01*
X66374Y164518D01*
X65712Y164792D01*
D02*
G37*
G36*
X21658Y160900D02*
X20942D01*
X20280Y160626D01*
X19774Y160120D01*
X19500Y159458D01*
Y158742D01*
X19774Y158080D01*
X20280Y157574D01*
X20942Y157300D01*
X21658D01*
X22320Y157574D01*
X22826Y158080D01*
X23100Y158742D01*
Y159458D01*
X22826Y160120D01*
X22320Y160626D01*
X21658Y160900D01*
D02*
G37*
G36*
X40909Y160855D02*
X40193D01*
X39532Y160581D01*
X39025Y160075D01*
X38751Y159413D01*
Y158697D01*
X39025Y158036D01*
X39532Y157529D01*
X40193Y157255D01*
X40909D01*
X41571Y157529D01*
X42077Y158036D01*
X42351Y158697D01*
Y159413D01*
X42077Y160075D01*
X41571Y160581D01*
X40909Y160855D01*
D02*
G37*
G36*
X79492Y157705D02*
X78776D01*
X78114Y157431D01*
X77608Y156925D01*
X77334Y156264D01*
Y155547D01*
X77608Y154886D01*
X78114Y154379D01*
X78776Y154105D01*
X79492D01*
X80154Y154379D01*
X80660Y154886D01*
X80934Y155547D01*
Y156264D01*
X80660Y156925D01*
X80154Y157431D01*
X79492Y157705D01*
D02*
G37*
G36*
X61382Y165973D02*
X60666D01*
X60004Y165699D01*
X59498Y165193D01*
X59224Y164531D01*
Y163815D01*
X59498Y163154D01*
X60004Y162647D01*
X60419Y162475D01*
Y161934D01*
X60004Y161762D01*
X59498Y161256D01*
X59224Y160594D01*
Y159878D01*
X59498Y159217D01*
X60004Y158710D01*
X60666Y158436D01*
X61056D01*
X61192Y158232D01*
Y157516D01*
X61233Y157418D01*
X60899Y156918D01*
X60666D01*
X60004Y156644D01*
X59498Y156138D01*
X59224Y155476D01*
Y154760D01*
X59498Y154098D01*
X59699Y153897D01*
X59985Y153570D01*
X59699Y153243D01*
X59498Y153042D01*
X59224Y152380D01*
Y151664D01*
X59498Y151002D01*
X60004Y150496D01*
X60666Y150222D01*
X61382D01*
X62043Y150496D01*
X62550Y151002D01*
X62824Y151664D01*
Y152380D01*
X62550Y153042D01*
X62348Y153243D01*
X62063Y153570D01*
X62348Y153897D01*
X62550Y154098D01*
X62824Y154760D01*
Y155476D01*
X62783Y155574D01*
X63117Y156074D01*
X63350D01*
X64012Y156348D01*
X64518Y156854D01*
X64792Y157516D01*
Y158232D01*
X64518Y158894D01*
X64012Y159400D01*
X63350Y159674D01*
X62960D01*
X62824Y159878D01*
Y160594D01*
X62550Y161256D01*
X62043Y161762D01*
X61628Y161934D01*
Y162475D01*
X62043Y162647D01*
X62550Y163154D01*
X62824Y163815D01*
Y164531D01*
X62550Y165193D01*
X62043Y165699D01*
X61382Y165973D01*
D02*
G37*
G36*
X42158Y152800D02*
X41442D01*
X40780Y152526D01*
X40274Y152020D01*
X40000Y151358D01*
Y150642D01*
X40274Y149980D01*
X40478Y149777D01*
X40760Y149450D01*
X40478Y149123D01*
X40274Y148920D01*
X40000Y148258D01*
Y147542D01*
X40274Y146880D01*
X40780Y146374D01*
X41442Y146100D01*
X42158D01*
X42820Y146374D01*
X43326Y146880D01*
X43600Y147542D01*
Y148258D01*
X43326Y148920D01*
X43122Y149123D01*
X42840Y149450D01*
X43122Y149777D01*
X43326Y149980D01*
X43600Y150642D01*
Y151358D01*
X43326Y152020D01*
X42820Y152526D01*
X42158Y152800D01*
D02*
G37*
G36*
X16077Y146625D02*
X15361D01*
X14699Y146351D01*
X14193Y145844D01*
X13919Y145183D01*
Y144467D01*
X14193Y143805D01*
X14699Y143299D01*
X15361Y143025D01*
X16077D01*
X16738Y143299D01*
X17245Y143805D01*
X17519Y144467D01*
Y145183D01*
X17245Y145844D01*
X16738Y146351D01*
X16077Y146625D01*
D02*
G37*
G36*
X66894Y141957D02*
X66177D01*
X65516Y141683D01*
X65009Y141177D01*
X64735Y140515D01*
Y139799D01*
X65009Y139138D01*
X65516Y138631D01*
X66177Y138357D01*
X66894D01*
X67555Y138631D01*
X68061Y139138D01*
X68335Y139799D01*
Y140515D01*
X68061Y141177D01*
X67555Y141683D01*
X66894Y141957D01*
D02*
G37*
G36*
X62169Y140383D02*
X61453D01*
X60791Y140109D01*
X60285Y139602D01*
X60011Y138941D01*
Y138225D01*
X60285Y137563D01*
X60791Y137057D01*
X61453Y136783D01*
X62169D01*
X62831Y137057D01*
X63337Y137563D01*
X63611Y138225D01*
Y138941D01*
X63337Y139602D01*
X62831Y140109D01*
X62169Y140383D01*
D02*
G37*
G36*
X23958Y140300D02*
X23242D01*
X22580Y140026D01*
X22074Y139520D01*
X21800Y138858D01*
Y138142D01*
X22074Y137480D01*
X22580Y136974D01*
X23242Y136700D01*
X23958D01*
X24620Y136974D01*
X25126Y137480D01*
X25400Y138142D01*
Y138858D01*
X25126Y139520D01*
X24620Y140026D01*
X23958Y140300D01*
D02*
G37*
G36*
X42158Y143000D02*
X41442D01*
X40780Y142726D01*
X40274Y142220D01*
X40000Y141558D01*
Y140842D01*
X40274Y140180D01*
X40780Y139674D01*
X40838Y139650D01*
Y139150D01*
X40780Y139126D01*
X40274Y138620D01*
X40000Y137958D01*
Y137242D01*
X40274Y136580D01*
X40780Y136074D01*
X41442Y135800D01*
X42158D01*
X42820Y136074D01*
X43326Y136580D01*
X43600Y137242D01*
Y137958D01*
X43326Y138620D01*
X42820Y139126D01*
X42762Y139150D01*
Y139650D01*
X42820Y139674D01*
X43326Y140180D01*
X43600Y140842D01*
Y141558D01*
X43326Y142220D01*
X42820Y142726D01*
X42158Y143000D01*
D02*
G37*
G36*
X60988Y135265D02*
X60272D01*
X59610Y134991D01*
X59104Y134484D01*
X58830Y133823D01*
Y133107D01*
X59104Y132445D01*
X59610Y131939D01*
X60272Y131665D01*
X60988D01*
X61650Y131939D01*
X62156Y132445D01*
X62430Y133107D01*
Y133823D01*
X62156Y134484D01*
X61650Y134991D01*
X60988Y135265D01*
D02*
G37*
G36*
X42158Y134487D02*
X41442D01*
X40780Y134213D01*
X40274Y133706D01*
X40000Y133045D01*
Y132329D01*
X40274Y131667D01*
X40780Y131161D01*
X41442Y130887D01*
X42158D01*
X42820Y131161D01*
X43326Y131667D01*
X43600Y132329D01*
Y133045D01*
X43326Y133706D01*
X42820Y134213D01*
X42158Y134487D01*
D02*
G37*
G36*
X112169Y134477D02*
X111453D01*
X110791Y134203D01*
X110285Y133697D01*
X110011Y133035D01*
Y132319D01*
X110285Y131658D01*
X110791Y131151D01*
X111453Y130877D01*
X112169D01*
X112831Y131151D01*
X113337Y131658D01*
X113611Y132319D01*
Y133035D01*
X113337Y133697D01*
X112831Y134203D01*
X112169Y134477D01*
D02*
G37*
G36*
X57445Y128178D02*
X56729D01*
X56067Y127904D01*
X55561Y127398D01*
X55287Y126736D01*
Y126020D01*
X55561Y125358D01*
X56067Y124852D01*
X56729Y124578D01*
X57445D01*
X58106Y124852D01*
X58613Y125358D01*
X58887Y126020D01*
Y126736D01*
X58613Y127398D01*
X58106Y127904D01*
X57445Y128178D01*
D02*
G37*
G36*
X45240Y130147D02*
X44524D01*
X43862Y129872D01*
X43356Y129366D01*
X43082Y128705D01*
Y127988D01*
X43356Y127327D01*
X43862Y126821D01*
X44524Y126547D01*
X44527D01*
X44859Y126412D01*
Y125696D01*
X45133Y125035D01*
X45639Y124528D01*
X46301Y124254D01*
X47017D01*
X47678Y124528D01*
X48184Y125035D01*
X48458Y125696D01*
Y126412D01*
X48184Y127074D01*
X47678Y127580D01*
X47017Y127854D01*
X47013D01*
X46682Y127988D01*
Y128705D01*
X46408Y129366D01*
X45902Y129872D01*
X45240Y130147D01*
D02*
G37*
G36*
X38831Y129643D02*
X38115D01*
X37453Y129369D01*
X36947Y128862D01*
X36673Y128201D01*
Y127592D01*
X36064D01*
X35403Y127318D01*
X34896Y126812D01*
X34622Y126150D01*
Y125434D01*
X34896Y124773D01*
X35403Y124266D01*
X36064Y123992D01*
X36780D01*
X37442Y124266D01*
X37948Y124773D01*
X38222Y125434D01*
Y126043D01*
X38831D01*
X39492Y126317D01*
X39999Y126823D01*
X40273Y127485D01*
Y128201D01*
X39999Y128862D01*
X39492Y129369D01*
X38831Y129643D01*
D02*
G37*
G36*
X15858Y127100D02*
X15142D01*
X14480Y126826D01*
X13974Y126320D01*
X13700Y125658D01*
Y124942D01*
X13974Y124280D01*
X14480Y123774D01*
X15142Y123500D01*
X15858D01*
X16520Y123774D01*
X17026Y124280D01*
X17300Y124942D01*
Y125658D01*
X17026Y126320D01*
X16520Y126826D01*
X15858Y127100D01*
D02*
G37*
G36*
X28311Y125028D02*
X27595D01*
X26933Y124754D01*
X26427Y124248D01*
X26153Y123586D01*
Y122870D01*
X26427Y122209D01*
X26933Y121702D01*
X27595Y121428D01*
X28311D01*
X28972Y121702D01*
X29479Y122209D01*
X29753Y122870D01*
Y123586D01*
X29479Y124248D01*
X28972Y124754D01*
X28311Y125028D01*
D02*
G37*
G36*
X72799Y123847D02*
X72083D01*
X71421Y123573D01*
X70915Y123067D01*
X70641Y122405D01*
Y121689D01*
X70915Y121028D01*
X71421Y120521D01*
X72083Y120247D01*
X72799D01*
X73461Y120521D01*
X73967Y121028D01*
X74241Y121689D01*
Y122405D01*
X73967Y123067D01*
X73461Y123573D01*
X72799Y123847D01*
D02*
G37*
G36*
X72012Y119517D02*
X71295D01*
X70634Y119243D01*
X70128Y118736D01*
X70072Y118725D01*
X69670Y119127D01*
X69008Y119401D01*
X68292D01*
X67631Y119127D01*
X67124Y118620D01*
X66850Y117959D01*
Y117243D01*
X67124Y116581D01*
X67631Y116075D01*
X67850Y115984D01*
X67967Y115394D01*
X67765Y115193D01*
X67491Y114531D01*
Y113815D01*
X67765Y113154D01*
X68272Y112647D01*
X68933Y112373D01*
X69649D01*
X69747Y112414D01*
X70247Y112080D01*
Y111847D01*
X70521Y111185D01*
X71028Y110679D01*
X71689Y110405D01*
X72405D01*
X73067Y110679D01*
X73573Y111185D01*
X73847Y111847D01*
Y112563D01*
X73573Y113224D01*
X73067Y113731D01*
X72405Y114005D01*
X71689D01*
X71591Y113964D01*
X71091Y114298D01*
Y114531D01*
X70817Y115193D01*
X70333Y115677D01*
X70311Y115708D01*
X70320Y116237D01*
X70495Y116330D01*
X70634Y116191D01*
X71295Y115917D01*
X72012D01*
X72673Y116191D01*
X73180Y116697D01*
X73453Y117359D01*
Y118075D01*
X73180Y118736D01*
X72673Y119243D01*
X72012Y119517D01*
D02*
G37*
G36*
X112358Y121600D02*
X111642D01*
X110980Y121326D01*
X110474Y120820D01*
X110200Y120158D01*
Y119442D01*
X110474Y118780D01*
X110980Y118274D01*
X111642Y118000D01*
X112358D01*
X113020Y118274D01*
X113526Y118780D01*
X113800Y119442D01*
Y120158D01*
X113526Y120820D01*
X113020Y121326D01*
X112358Y121600D01*
D02*
G37*
G36*
X36555Y119401D02*
X35886D01*
X35266Y119144D01*
X34793Y118671D01*
X34536Y118052D01*
Y117382D01*
X34793Y116762D01*
X35266Y116289D01*
X35886Y116032D01*
X36555D01*
X37174Y116289D01*
X37648Y116762D01*
X37905Y117382D01*
Y118052D01*
X37648Y118671D01*
X37174Y119144D01*
X36555Y119401D01*
D02*
G37*
G36*
X52609Y119584D02*
X51892D01*
X51231Y119310D01*
X50725Y118804D01*
X50450Y118142D01*
Y117426D01*
X50725Y116765D01*
X51231Y116259D01*
X51892Y115984D01*
X52609D01*
X53270Y116259D01*
X53776Y116765D01*
X54050Y117426D01*
Y118142D01*
X53776Y118804D01*
X53270Y119310D01*
X52609Y119584D01*
D02*
G37*
G36*
X58232Y119910D02*
X57516D01*
X56854Y119636D01*
X56348Y119130D01*
X56074Y118468D01*
Y117752D01*
X56348Y117091D01*
X56814Y116624D01*
X56848Y116087D01*
X56742Y115980D01*
X56468Y115319D01*
Y114603D01*
X56742Y113941D01*
X57248Y113435D01*
X57910Y113161D01*
X58626D01*
X59287Y113435D01*
X59794Y113941D01*
X60068Y114603D01*
Y115319D01*
X59794Y115980D01*
X59327Y116447D01*
X59293Y116984D01*
X59400Y117091D01*
X59674Y117752D01*
Y118468D01*
X59400Y119130D01*
X58894Y119636D01*
X58232Y119910D01*
D02*
G37*
G36*
X41280Y114676D02*
X40610D01*
X39991Y114420D01*
X39517Y113946D01*
X39261Y113327D01*
Y112657D01*
X39517Y112038D01*
X39991Y111564D01*
X40610Y111308D01*
X41280D01*
X41899Y111564D01*
X42373Y112038D01*
X42629Y112657D01*
Y113327D01*
X42373Y113946D01*
X41899Y114420D01*
X41280Y114676D01*
D02*
G37*
G36*
X36555D02*
X35886D01*
X35266Y114420D01*
X34793Y113946D01*
X34536Y113327D01*
Y112657D01*
X34793Y112038D01*
X35266Y111564D01*
X35886Y111308D01*
X36555D01*
X37174Y111564D01*
X37648Y112038D01*
X37905Y112657D01*
Y113327D01*
X37648Y113946D01*
X37174Y114420D01*
X36555Y114676D01*
D02*
G37*
G36*
X31831D02*
X31161D01*
X30542Y114420D01*
X30068Y113946D01*
X29812Y113327D01*
Y112657D01*
X30068Y112038D01*
X30542Y111564D01*
X31161Y111308D01*
X31831D01*
X32450Y111564D01*
X32924Y112038D01*
X33180Y112657D01*
Y113327D01*
X32924Y113946D01*
X32450Y114420D01*
X31831Y114676D01*
D02*
G37*
G36*
X22799Y123453D02*
X22083D01*
X21421Y123179D01*
X20915Y122673D01*
X20641Y122012D01*
Y121295D01*
X20915Y120634D01*
X21421Y120128D01*
X21674Y120023D01*
X21721Y119801D01*
X21718Y119464D01*
X21274Y119020D01*
X21000Y118358D01*
Y117642D01*
X21215Y117123D01*
X21080Y116526D01*
X20574Y116020D01*
X20300Y115358D01*
Y114642D01*
X20574Y113980D01*
X21013Y113542D01*
X21044Y112989D01*
X20974Y112920D01*
X20700Y112258D01*
Y111542D01*
X20974Y110880D01*
X21480Y110374D01*
X22142Y110100D01*
X22858D01*
X23520Y110374D01*
X24026Y110880D01*
X24300Y111542D01*
Y112258D01*
X24026Y112920D01*
X23587Y113358D01*
X23556Y113911D01*
X23626Y113980D01*
X23900Y114642D01*
Y115358D01*
X23685Y115877D01*
X23820Y116474D01*
X24326Y116980D01*
X24600Y117642D01*
Y118358D01*
X24326Y119020D01*
X23820Y119526D01*
X23567Y119631D01*
X23519Y119853D01*
X23523Y120190D01*
X23967Y120634D01*
X24241Y121295D01*
Y122012D01*
X23967Y122673D01*
X23461Y123179D01*
X22799Y123453D01*
D02*
G37*
G36*
X36555Y109952D02*
X35886D01*
X35266Y109695D01*
X34793Y109222D01*
X34536Y108603D01*
Y107933D01*
X34793Y107314D01*
X35266Y106840D01*
X35886Y106583D01*
X36555D01*
X37174Y106840D01*
X37648Y107314D01*
X37905Y107933D01*
Y108603D01*
X37648Y109222D01*
X37174Y109695D01*
X36555Y109952D01*
D02*
G37*
G36*
X59020Y112430D02*
X58303D01*
X57642Y112156D01*
X57135Y111650D01*
X56861Y110988D01*
Y110272D01*
X57111Y109669D01*
X56461Y109400D01*
X55954Y108894D01*
X55680Y108232D01*
Y107516D01*
X55954Y106854D01*
X55981Y106828D01*
X55883Y106337D01*
X55673Y106250D01*
X55167Y105744D01*
X54893Y105082D01*
Y104366D01*
X55167Y103705D01*
X55673Y103199D01*
X56335Y102924D01*
X57051D01*
X57713Y103199D01*
X58219Y103705D01*
X58493Y104366D01*
Y105082D01*
X58219Y105744D01*
X58192Y105771D01*
X58290Y106261D01*
X58500Y106348D01*
X59006Y106854D01*
X59280Y107516D01*
Y108232D01*
X59031Y108835D01*
X59681Y109104D01*
X60187Y109610D01*
X60461Y110272D01*
Y110988D01*
X60187Y111650D01*
X59681Y112156D01*
X59020Y112430D01*
D02*
G37*
G36*
X77130Y104162D02*
X76414D01*
X75752Y103888D01*
X75246Y103382D01*
X75027Y102855D01*
X74374Y103125D01*
X73658D01*
X72996Y102851D01*
X72490Y102345D01*
X72216Y101683D01*
Y100967D01*
X72490Y100306D01*
X72920Y99875D01*
X72490Y99445D01*
X72216Y98783D01*
Y98067D01*
X72490Y97406D01*
X72996Y96899D01*
X73658Y96625D01*
X74374D01*
X75035Y96899D01*
X75542Y97406D01*
X75816Y98067D01*
Y98783D01*
X75542Y99445D01*
X75111Y99875D01*
X75542Y100306D01*
X75760Y100833D01*
X76414Y100562D01*
X77130D01*
X77791Y100836D01*
X78298Y101343D01*
X78572Y102004D01*
Y102720D01*
X78298Y103382D01*
X77791Y103888D01*
X77130Y104162D01*
D02*
G37*
G36*
X112558Y105700D02*
X111842D01*
X111180Y105426D01*
X110674Y104920D01*
X110400Y104258D01*
Y103542D01*
X110674Y102880D01*
X111180Y102374D01*
X111842Y102100D01*
X112558D01*
X113220Y102374D01*
X113726Y102880D01*
X114000Y103542D01*
Y104258D01*
X113726Y104920D01*
X113220Y105426D01*
X112558Y105700D01*
D02*
G37*
G36*
X26758Y104700D02*
X26042D01*
X25380Y104426D01*
X24874Y103920D01*
X24600Y103258D01*
Y102542D01*
X24874Y101880D01*
X25380Y101374D01*
X26042Y101100D01*
X26758D01*
X27420Y101374D01*
X27926Y101880D01*
X28200Y102542D01*
Y103258D01*
X27926Y103920D01*
X27420Y104426D01*
X26758Y104700D01*
D02*
G37*
G36*
X98635Y105195D02*
X97919D01*
X97258Y104921D01*
X96751Y104415D01*
X96477Y103753D01*
Y103037D01*
X96508Y102962D01*
X96485Y102890D01*
X96158Y102500D01*
X95642D01*
X94980Y102226D01*
X94474Y101720D01*
X94200Y101058D01*
Y100628D01*
X94158Y100600D01*
X93442D01*
X92780Y100326D01*
X92274Y99820D01*
X92050Y99278D01*
X91607Y99217D01*
X91529Y99229D01*
X91326Y99720D01*
X90820Y100226D01*
X90158Y100500D01*
X89442D01*
X88780Y100226D01*
X88274Y99720D01*
X88000Y99058D01*
Y98342D01*
X88274Y97680D01*
X88780Y97174D01*
X89442Y96900D01*
X90158D01*
X90820Y97174D01*
X91326Y97680D01*
X91550Y98221D01*
X91993Y98283D01*
X92071Y98271D01*
X92274Y97780D01*
X92780Y97274D01*
X93442Y97000D01*
X94158D01*
X94820Y97274D01*
X95326Y97780D01*
X95600Y98442D01*
Y98872D01*
X95642Y98900D01*
X96358D01*
X97020Y99174D01*
X97526Y99680D01*
X97800Y100342D01*
Y101058D01*
X97769Y101133D01*
X97792Y101205D01*
X98119Y101595D01*
X98635D01*
X99297Y101869D01*
X99803Y102376D01*
X100077Y103037D01*
Y103753D01*
X99803Y104415D01*
X99297Y104921D01*
X98635Y105195D01*
D02*
G37*
G36*
X44059Y102981D02*
X43343D01*
X42681Y102707D01*
X42175Y102201D01*
X41901Y101539D01*
Y100823D01*
X42175Y100162D01*
X42369Y99967D01*
X42287Y99557D01*
X41781Y99051D01*
X41695Y98842D01*
X41632Y98691D01*
X41170Y98855D01*
X41170Y99022D01*
Y99571D01*
X40896Y100232D01*
X40390Y100739D01*
X39728Y101013D01*
X39012D01*
X38350Y100739D01*
X37844Y100232D01*
X37570Y99571D01*
Y98855D01*
X37844Y98193D01*
X38350Y97687D01*
X39012Y97413D01*
X39728D01*
X40390Y97687D01*
X40896Y98193D01*
X40983Y98402D01*
X41045Y98553D01*
X41507Y98390D01*
X41507Y98222D01*
Y97673D01*
X41781Y97012D01*
X42287Y96505D01*
X42949Y96232D01*
X43665D01*
X44327Y96505D01*
X44833Y97012D01*
X45107Y97673D01*
Y98390D01*
X44833Y99051D01*
X44639Y99245D01*
X44720Y99655D01*
X45227Y100162D01*
X45501Y100823D01*
Y101539D01*
X45227Y102201D01*
X44720Y102707D01*
X44059Y102981D01*
D02*
G37*
G36*
X21283Y102000D02*
X20567D01*
X19905Y101726D01*
X19399Y101220D01*
X19125Y100558D01*
Y99842D01*
X19399Y99180D01*
X19905Y98674D01*
X20567Y98400D01*
X21283D01*
X21945Y98674D01*
X22451Y99180D01*
X22725Y99842D01*
Y100558D01*
X22451Y101220D01*
X21945Y101726D01*
X21283Y102000D01*
D02*
G37*
G36*
X100258Y100900D02*
X99542D01*
X98880Y100626D01*
X98374Y100120D01*
X98100Y99458D01*
Y98742D01*
X98374Y98080D01*
X98880Y97574D01*
X99542Y97300D01*
X100258D01*
X100920Y97574D01*
X101426Y98080D01*
X101700Y98742D01*
Y99458D01*
X101426Y100120D01*
X100920Y100626D01*
X100258Y100900D01*
D02*
G37*
G36*
X82292Y100269D02*
X81576D01*
X80914Y99995D01*
X80408Y99489D01*
X80134Y98827D01*
Y98111D01*
X80408Y97450D01*
X80914Y96943D01*
X81576Y96669D01*
X82292D01*
X82954Y96943D01*
X83460Y97450D01*
X83734Y98111D01*
Y98827D01*
X83460Y99489D01*
X82954Y99995D01*
X82292Y100269D01*
D02*
G37*
G36*
X27158Y100100D02*
X26442D01*
X25780Y99826D01*
X25274Y99320D01*
X25000Y98658D01*
Y97942D01*
X25274Y97280D01*
X25780Y96774D01*
X26442Y96500D01*
X27158D01*
X27820Y96774D01*
X28326Y97280D01*
X28600Y97942D01*
Y98658D01*
X28326Y99320D01*
X27820Y99826D01*
X27158Y100100D01*
D02*
G37*
G36*
X57367Y102194D02*
X56650D01*
X55989Y101920D01*
X55483Y101413D01*
X55208Y100752D01*
Y100036D01*
X55483Y99374D01*
X55451Y98716D01*
X55257Y98522D01*
X54983Y97860D01*
Y97144D01*
X55257Y96483D01*
X55764Y95977D01*
X56425Y95702D01*
X57141D01*
X57803Y95977D01*
X58309Y96483D01*
X58583Y97144D01*
Y97860D01*
X58309Y98522D01*
X58340Y99180D01*
X58534Y99374D01*
X58808Y100036D01*
Y100752D01*
X58534Y101413D01*
X58028Y101920D01*
X57367Y102194D01*
D02*
G37*
G36*
X21618Y96288D02*
X20902D01*
X20240Y96014D01*
X19734Y95508D01*
X19460Y94846D01*
Y94130D01*
X19734Y93469D01*
X20200Y93002D01*
X20234Y92465D01*
X20128Y92358D01*
X19853Y91697D01*
Y90980D01*
X20128Y90319D01*
X20634Y89813D01*
X21295Y89539D01*
X22012D01*
X22673Y89813D01*
X23179Y90319D01*
X23453Y90980D01*
Y91697D01*
X23179Y92358D01*
X22713Y92825D01*
X22679Y93362D01*
X22786Y93469D01*
X23060Y94130D01*
Y94846D01*
X22786Y95508D01*
X22279Y96014D01*
X21618Y96288D01*
D02*
G37*
G36*
X34904Y90276D02*
X34387D01*
X33909Y90079D01*
X33544Y89713D01*
X33346Y89235D01*
Y88718D01*
X33544Y88240D01*
X33909Y87874D01*
X34387Y87676D01*
X34904D01*
X35382Y87874D01*
X35748Y88240D01*
X35946Y88718D01*
Y89235D01*
X35748Y89713D01*
X35382Y90079D01*
X34904Y90276D01*
D02*
G37*
G36*
X31361Y86339D02*
X30844D01*
X30366Y86142D01*
X30000Y85776D01*
X29802Y85298D01*
Y84781D01*
X30000Y84303D01*
X30366Y83937D01*
X30844Y83739D01*
X31361D01*
X31839Y83937D01*
X32204Y84303D01*
X32402Y84781D01*
Y85298D01*
X32204Y85776D01*
X31839Y86142D01*
X31361Y86339D01*
D02*
G37*
G36*
X23193Y86052D02*
X22477D01*
X21815Y85778D01*
X21309Y85272D01*
X21035Y84610D01*
Y83894D01*
X21309Y83232D01*
X21815Y82726D01*
X22477Y82452D01*
X23193D01*
X23854Y82726D01*
X24361Y83232D01*
X24635Y83894D01*
Y84610D01*
X24361Y85272D01*
X23854Y85778D01*
X23193Y86052D01*
D02*
G37*
G36*
X27308Y84371D02*
X26791D01*
X26313Y84173D01*
X25947Y83807D01*
X25749Y83329D01*
Y82812D01*
X25947Y82335D01*
X26313Y81969D01*
X26791Y81771D01*
X27308D01*
X27786Y81969D01*
X28152Y82335D01*
X28350Y82812D01*
Y83329D01*
X28152Y83807D01*
X27786Y84173D01*
X27308Y84371D01*
D02*
G37*
G36*
X34511Y83190D02*
X33993D01*
X33516Y82992D01*
X33150Y82626D01*
X32952Y82148D01*
Y81631D01*
X33150Y81153D01*
X33516Y80788D01*
X33993Y80590D01*
X34511D01*
X34988Y80788D01*
X35354Y81153D01*
X35552Y81631D01*
Y82148D01*
X35354Y82626D01*
X34988Y82992D01*
X34511Y83190D01*
D02*
G37*
G36*
X113624Y83690D02*
X112908D01*
X112247Y83416D01*
X111740Y82909D01*
X111466Y82248D01*
Y81532D01*
X111740Y80870D01*
X112247Y80364D01*
X112908Y80090D01*
X113624D01*
X114286Y80364D01*
X114792Y80870D01*
X115066Y81532D01*
Y82248D01*
X114792Y82909D01*
X114286Y83416D01*
X113624Y83690D01*
D02*
G37*
G36*
X34511Y80040D02*
X33993D01*
X33516Y79842D01*
X33150Y79476D01*
X32952Y78999D01*
Y78482D01*
X33150Y78004D01*
X33516Y77638D01*
X33993Y77440D01*
X34511D01*
X34988Y77638D01*
X35354Y78004D01*
X35552Y78482D01*
Y78999D01*
X35354Y79476D01*
X34988Y79842D01*
X34511Y80040D01*
D02*
G37*
G36*
X31361D02*
X30844D01*
X30366Y79842D01*
X30000Y79476D01*
X29802Y78999D01*
Y78482D01*
X30000Y78004D01*
X30366Y77638D01*
X30844Y77440D01*
X31361D01*
X31839Y77638D01*
X32204Y78004D01*
X32402Y78482D01*
Y78999D01*
X32204Y79476D01*
X31839Y79842D01*
X31361Y80040D01*
D02*
G37*
G36*
Y76890D02*
X30844D01*
X30366Y76693D01*
X30000Y76327D01*
X29802Y75849D01*
Y75332D01*
X30000Y74854D01*
X30366Y74489D01*
X30844Y74291D01*
X31361D01*
X31839Y74489D01*
X32204Y74854D01*
X32402Y75332D01*
Y75849D01*
X32204Y76327D01*
X31839Y76693D01*
X31361Y76890D01*
D02*
G37*
G36*
X26243Y73741D02*
X25726D01*
X25248Y73543D01*
X24882Y73177D01*
X24684Y72699D01*
Y72182D01*
X24882Y71705D01*
X25248Y71339D01*
X25726Y71141D01*
X26243D01*
X26721Y71339D01*
X27086Y71705D01*
X27284Y72182D01*
Y72699D01*
X27086Y73177D01*
X26721Y73543D01*
X26243Y73741D01*
D02*
G37*
G36*
X22405Y73060D02*
X21689D01*
X21028Y72786D01*
X20521Y72280D01*
X20247Y71618D01*
Y70902D01*
X20521Y70240D01*
X21028Y69734D01*
X21689Y69460D01*
X22405D01*
X23067Y69734D01*
X23573Y70240D01*
X23847Y70902D01*
Y71618D01*
X23573Y72280D01*
X23067Y72786D01*
X22405Y73060D01*
D02*
G37*
G36*
X31361Y70591D02*
X30844D01*
X30366Y70393D01*
X30000Y70028D01*
X29802Y69550D01*
Y69033D01*
X30000Y68555D01*
X30366Y68189D01*
X30844Y67991D01*
X31361D01*
X31839Y68189D01*
X32204Y68555D01*
X32402Y69033D01*
Y69550D01*
X32204Y70028D01*
X31839Y70393D01*
X31361Y70591D01*
D02*
G37*
G36*
X37660Y67442D02*
X37143D01*
X36665Y67244D01*
X36299Y66878D01*
X36102Y66400D01*
Y65883D01*
X36299Y65405D01*
X36665Y65040D01*
X37143Y64842D01*
X37660D01*
X38138Y65040D01*
X38504Y65405D01*
X38702Y65883D01*
Y66400D01*
X38504Y66878D01*
X38138Y67244D01*
X37660Y67442D01*
D02*
G37*
G36*
X34511D02*
X33993D01*
X33516Y67244D01*
X33150Y66878D01*
X32952Y66400D01*
Y65883D01*
X33150Y65405D01*
X33516Y65040D01*
X33993Y64842D01*
X34511D01*
X34988Y65040D01*
X35354Y65405D01*
X35552Y65883D01*
Y66400D01*
X35354Y66878D01*
X34988Y67244D01*
X34511Y67442D01*
D02*
G37*
G36*
X22458Y66600D02*
X21742D01*
X21080Y66326D01*
X20574Y65820D01*
X20300Y65158D01*
Y64442D01*
X20574Y63780D01*
X21080Y63274D01*
X21742Y63000D01*
X22458D01*
X23120Y63274D01*
X23626Y63780D01*
X23900Y64442D01*
Y65158D01*
X23626Y65820D01*
X23120Y66326D01*
X22458Y66600D01*
D02*
G37*
G36*
X37660Y64292D02*
X37143D01*
X36665Y64094D01*
X36299Y63728D01*
X36102Y63251D01*
Y62734D01*
X36299Y62256D01*
X36665Y61890D01*
X37143Y61692D01*
X37660D01*
X38138Y61890D01*
X38504Y62256D01*
X38702Y62734D01*
Y63251D01*
X38504Y63728D01*
X38138Y64094D01*
X37660Y64292D01*
D02*
G37*
G36*
X34511D02*
X33993D01*
X33516Y64094D01*
X33150Y63728D01*
X32952Y63251D01*
Y62734D01*
X33150Y62256D01*
X33516Y61890D01*
X33993Y61692D01*
X34511D01*
X34988Y61890D01*
X35354Y62256D01*
X35552Y62734D01*
Y63251D01*
X35354Y63728D01*
X34988Y64094D01*
X34511Y64292D01*
D02*
G37*
G36*
X31361D02*
X30844D01*
X30366Y64094D01*
X30000Y63728D01*
X29802Y63251D01*
Y62734D01*
X30000Y62256D01*
X30366Y61890D01*
X30844Y61692D01*
X31361D01*
X31839Y61890D01*
X32204Y62256D01*
X32402Y62734D01*
Y63251D01*
X32204Y63728D01*
X31839Y64094D01*
X31361Y64292D01*
D02*
G37*
G36*
X113350Y62430D02*
X112634D01*
X111972Y62156D01*
X111466Y61650D01*
X111192Y60988D01*
Y60272D01*
X111466Y59610D01*
X111972Y59104D01*
X112634Y58830D01*
X113350D01*
X114012Y59104D01*
X114518Y59610D01*
X114792Y60272D01*
Y60988D01*
X114518Y61650D01*
X114012Y62156D01*
X113350Y62430D01*
D02*
G37*
G36*
X37660Y61142D02*
X37143D01*
X36665Y60945D01*
X36299Y60579D01*
X36102Y60101D01*
Y59584D01*
X36299Y59106D01*
X36665Y58740D01*
X37143Y58543D01*
X37660D01*
X38138Y58740D01*
X38504Y59106D01*
X38702Y59584D01*
Y60101D01*
X38504Y60579D01*
X38138Y60945D01*
X37660Y61142D01*
D02*
G37*
G36*
X34511D02*
X33993D01*
X33516Y60945D01*
X33150Y60579D01*
X32952Y60101D01*
Y59584D01*
X33150Y59106D01*
X33516Y58740D01*
X33993Y58543D01*
X34511D01*
X34988Y58740D01*
X35354Y59106D01*
X35552Y59584D01*
Y60101D01*
X35354Y60579D01*
X34988Y60945D01*
X34511Y61142D01*
D02*
G37*
G36*
X37660Y57993D02*
X37143D01*
X36665Y57795D01*
X36299Y57429D01*
X36102Y56951D01*
Y56434D01*
X36299Y55957D01*
X36665Y55591D01*
X37143Y55393D01*
X37660D01*
X38138Y55591D01*
X38504Y55957D01*
X38702Y56434D01*
Y56951D01*
X38504Y57429D01*
X38138Y57795D01*
X37660Y57993D01*
D02*
G37*
G36*
X34511D02*
X33993D01*
X33516Y57795D01*
X33150Y57429D01*
X32952Y56951D01*
Y56434D01*
X33150Y55957D01*
X33516Y55591D01*
X33993Y55393D01*
X34511D01*
X34988Y55591D01*
X35354Y55957D01*
X35552Y56434D01*
Y56951D01*
X35354Y57429D01*
X34988Y57795D01*
X34511Y57993D01*
D02*
G37*
G36*
X31361D02*
X30844D01*
X30366Y57795D01*
X30000Y57429D01*
X29802Y56951D01*
Y56434D01*
X30000Y55957D01*
X30366Y55591D01*
X30844Y55393D01*
X31361D01*
X31839Y55591D01*
X32204Y55957D01*
X32402Y56434D01*
Y56951D01*
X32204Y57429D01*
X31839Y57795D01*
X31361Y57993D01*
D02*
G37*
G36*
Y54843D02*
X30844D01*
X30366Y54645D01*
X30000Y54280D01*
X29802Y53802D01*
Y53285D01*
X30000Y52807D01*
X30366Y52441D01*
X30844Y52243D01*
X31361D01*
X31839Y52441D01*
X32204Y52807D01*
X32402Y53285D01*
Y53802D01*
X32204Y54280D01*
X31839Y54645D01*
X31361Y54843D01*
D02*
G37*
G36*
X91203Y51694D02*
X90686D01*
X90209Y51496D01*
X89843Y51130D01*
X89645Y50652D01*
Y50135D01*
X89843Y49657D01*
X90209Y49292D01*
X90686Y49094D01*
X91203D01*
X91681Y49292D01*
X92047Y49657D01*
X92245Y50135D01*
Y50652D01*
X92047Y51130D01*
X91681Y51496D01*
X91203Y51694D01*
D02*
G37*
G36*
X88054D02*
X87537D01*
X87059Y51496D01*
X86693Y51130D01*
X86495Y50652D01*
Y50135D01*
X86693Y49657D01*
X87059Y49292D01*
X87537Y49094D01*
X88054D01*
X88532Y49292D01*
X88897Y49657D01*
X89095Y50135D01*
Y50652D01*
X88897Y51130D01*
X88532Y51496D01*
X88054Y51694D01*
D02*
G37*
G36*
X84904D02*
X84387D01*
X83909Y51496D01*
X83544Y51130D01*
X83346Y50652D01*
Y50135D01*
X83544Y49657D01*
X83909Y49292D01*
X84387Y49094D01*
X84904D01*
X85382Y49292D01*
X85748Y49657D01*
X85946Y50135D01*
Y50652D01*
X85748Y51130D01*
X85382Y51496D01*
X84904Y51694D01*
D02*
G37*
G36*
X113402Y50225D02*
X112686D01*
X112024Y49951D01*
X111518Y49445D01*
X111244Y48783D01*
Y48067D01*
X111518Y47406D01*
X112024Y46899D01*
X112686Y46625D01*
X113402D01*
X114063Y46899D01*
X114570Y47406D01*
X114844Y48067D01*
Y48783D01*
X114570Y49445D01*
X114063Y49951D01*
X113402Y50225D01*
D02*
G37*
G36*
X81755Y51694D02*
X81238D01*
X80760Y51496D01*
X80394Y51130D01*
X80196Y50652D01*
Y50135D01*
X80394Y49657D01*
X80760Y49292D01*
X81238Y49094D01*
X81241Y48600D01*
X80764Y48402D01*
X80398Y48036D01*
X80200Y47559D01*
Y47041D01*
X80398Y46564D01*
X80764Y46198D01*
X81241Y46000D01*
X81759D01*
X82236Y46198D01*
X82602Y46564D01*
X82800Y47041D01*
Y47559D01*
X82602Y48036D01*
X82236Y48402D01*
X81759Y48600D01*
X81755Y49094D01*
X82232Y49292D01*
X82598Y49657D01*
X82796Y50135D01*
Y50652D01*
X82598Y51130D01*
X82232Y51496D01*
X81755Y51694D01*
D02*
G37*
G36*
X91203Y48544D02*
X90686D01*
X90209Y48346D01*
X89843Y47980D01*
X89645Y47503D01*
Y46986D01*
X89843Y46508D01*
X90209Y46142D01*
X90686Y45944D01*
X91203D01*
X91681Y46142D01*
X92047Y46508D01*
X92245Y46986D01*
Y47503D01*
X92047Y47980D01*
X91681Y48346D01*
X91203Y48544D01*
D02*
G37*
G36*
X88054D02*
X87537D01*
X87059Y48346D01*
X86693Y47980D01*
X86495Y47503D01*
Y46986D01*
X86693Y46508D01*
X87059Y46142D01*
X87537Y45944D01*
X88054D01*
X88532Y46142D01*
X88897Y46508D01*
X89095Y46986D01*
Y47503D01*
X88897Y47980D01*
X88532Y48346D01*
X88054Y48544D01*
D02*
G37*
G36*
X84904D02*
X84387D01*
X83909Y48346D01*
X83544Y47980D01*
X83346Y47503D01*
Y46986D01*
X83544Y46508D01*
X83909Y46142D01*
X84387Y45944D01*
X84904D01*
X85382Y46142D01*
X85748Y46508D01*
X85946Y46986D01*
Y47503D01*
X85748Y47980D01*
X85382Y48346D01*
X84904Y48544D01*
D02*
G37*
G36*
X78605D02*
X78088D01*
X77610Y48346D01*
X77244Y47980D01*
X77047Y47503D01*
Y46986D01*
X77244Y46508D01*
X77610Y46142D01*
X78088Y45944D01*
X78605D01*
X79083Y46142D01*
X79448Y46508D01*
X79646Y46986D01*
Y47503D01*
X79448Y47980D01*
X79083Y48346D01*
X78605Y48544D01*
D02*
G37*
G36*
X94823Y48444D02*
X94305D01*
X93827Y48246D01*
X93462Y47880D01*
X93264Y47402D01*
Y46885D01*
X93462Y46407D01*
X93827Y46042D01*
X93910Y46008D01*
X93931Y45970D01*
X93989Y45434D01*
X93780Y45225D01*
X93582Y44747D01*
Y44230D01*
X93780Y43752D01*
X94146Y43386D01*
X94623Y43188D01*
X95140D01*
X95618Y43386D01*
X95984Y43752D01*
X96182Y44230D01*
Y44747D01*
X95984Y45225D01*
X95618Y45590D01*
X95536Y45624D01*
X95515Y45662D01*
X95457Y46198D01*
X95666Y46407D01*
X95864Y46885D01*
Y47402D01*
X95666Y47880D01*
X95300Y48246D01*
X94823Y48444D01*
D02*
G37*
G36*
X91203Y45395D02*
X90686D01*
X90209Y45197D01*
X89843Y44831D01*
X89645Y44353D01*
Y43836D01*
X89843Y43358D01*
X90209Y42992D01*
X90686Y42794D01*
X91203D01*
X91681Y42992D01*
X92047Y43358D01*
X92245Y43836D01*
Y44353D01*
X92047Y44831D01*
X91681Y45197D01*
X91203Y45395D01*
D02*
G37*
G36*
X88054D02*
X87537D01*
X87059Y45197D01*
X86693Y44831D01*
X86495Y44353D01*
Y43836D01*
X86693Y43358D01*
X87059Y42992D01*
X87537Y42794D01*
X88054D01*
X88532Y42992D01*
X88897Y43358D01*
X89095Y43836D01*
Y44353D01*
X88897Y44831D01*
X88532Y45197D01*
X88054Y45395D01*
D02*
G37*
G36*
X84904D02*
X84387D01*
X83909Y45197D01*
X83544Y44831D01*
X83346Y44353D01*
Y43836D01*
X83544Y43358D01*
X83909Y42992D01*
X84387Y42794D01*
X84904D01*
X85382Y42992D01*
X85748Y43358D01*
X85946Y43836D01*
Y44353D01*
X85748Y44831D01*
X85382Y45197D01*
X84904Y45395D01*
D02*
G37*
G36*
X81755D02*
X81238D01*
X80760Y45197D01*
X80394Y44831D01*
X80196Y44353D01*
Y43836D01*
X80394Y43358D01*
X80760Y42992D01*
X81238Y42794D01*
X81755D01*
X82232Y42992D01*
X82598Y43358D01*
X82796Y43836D01*
Y44353D01*
X82598Y44831D01*
X82232Y45197D01*
X81755Y45395D01*
D02*
G37*
G36*
X91203Y42245D02*
X90686D01*
X90209Y42047D01*
X89843Y41681D01*
X89645Y41203D01*
Y40686D01*
X89843Y40209D01*
X90209Y39843D01*
X90686Y39645D01*
X91203D01*
X91681Y39843D01*
X92047Y40209D01*
X92245Y40686D01*
Y41203D01*
X92047Y41681D01*
X91681Y42047D01*
X91203Y42245D01*
D02*
G37*
G36*
X88054D02*
X87537D01*
X87059Y42047D01*
X86693Y41681D01*
X86495Y41203D01*
Y40686D01*
X86693Y40209D01*
X87059Y39843D01*
X87537Y39645D01*
X88054D01*
X88532Y39843D01*
X88897Y40209D01*
X89095Y40686D01*
Y41203D01*
X88897Y41681D01*
X88532Y42047D01*
X88054Y42245D01*
D02*
G37*
G36*
X78605D02*
X78088D01*
X77610Y42047D01*
X77244Y41681D01*
X77047Y41203D01*
Y40686D01*
X77244Y40209D01*
X77610Y39843D01*
X78088Y39645D01*
X78605D01*
X79083Y39843D01*
X79448Y40209D01*
X79646Y40686D01*
Y41203D01*
X79448Y41681D01*
X79083Y42047D01*
X78605Y42245D01*
D02*
G37*
G36*
Y39095D02*
X78088D01*
X77610Y38897D01*
X77244Y38532D01*
X77047Y38054D01*
Y37537D01*
X77244Y37059D01*
X77610Y36693D01*
X78088Y36495D01*
X78605D01*
X79083Y36693D01*
X79448Y37059D01*
X79646Y37537D01*
Y38054D01*
X79448Y38532D01*
X79083Y38897D01*
X78605Y39095D01*
D02*
G37*
G36*
X96815Y39989D02*
X96099D01*
X95437Y39715D01*
X94931Y39209D01*
X94657Y38547D01*
Y37831D01*
X94931Y37169D01*
X95437Y36663D01*
X96099Y36389D01*
X96815D01*
X97476Y36663D01*
X97983Y37169D01*
X98257Y37831D01*
Y38547D01*
X97983Y39209D01*
X97476Y39715D01*
X96815Y39989D01*
D02*
G37*
G36*
X91203Y35946D02*
X90686D01*
X90209Y35748D01*
X89843Y35382D01*
X89645Y34904D01*
Y34387D01*
X89843Y33909D01*
X90209Y33544D01*
X90686Y33346D01*
X91203D01*
X91681Y33544D01*
X92047Y33909D01*
X92245Y34387D01*
Y34904D01*
X92047Y35382D01*
X91681Y35748D01*
X91203Y35946D01*
D02*
G37*
G36*
X88054D02*
X87537D01*
X87059Y35748D01*
X86693Y35382D01*
X86495Y34904D01*
Y34387D01*
X86693Y33909D01*
X87059Y33544D01*
X87537Y33346D01*
X88054D01*
X88532Y33544D01*
X88897Y33909D01*
X89095Y34387D01*
Y34904D01*
X88897Y35382D01*
X88532Y35748D01*
X88054Y35946D01*
D02*
G37*
G36*
X84904D02*
X84387D01*
X83909Y35748D01*
X83544Y35382D01*
X83346Y34904D01*
Y34387D01*
X83544Y33909D01*
X83909Y33544D01*
X84387Y33346D01*
X84904D01*
X85382Y33544D01*
X85748Y33909D01*
X85946Y34387D01*
Y34904D01*
X85748Y35382D01*
X85382Y35748D01*
X84904Y35946D01*
D02*
G37*
G36*
X75455D02*
X74938D01*
X74461Y35748D01*
X74095Y35382D01*
X73897Y34904D01*
Y34387D01*
X74095Y33909D01*
X74461Y33544D01*
X74938Y33346D01*
X75455D01*
X75933Y33544D01*
X76299Y33909D01*
X76497Y34387D01*
Y34904D01*
X76299Y35382D01*
X75933Y35748D01*
X75455Y35946D01*
D02*
G37*
G36*
X59707D02*
X59190D01*
X58712Y35748D01*
X58347Y35382D01*
X58149Y34904D01*
Y34387D01*
X58347Y33909D01*
X58712Y33544D01*
X59190Y33346D01*
X59707D01*
X60185Y33544D01*
X60551Y33909D01*
X60749Y34387D01*
Y34904D01*
X60551Y35382D01*
X60185Y35748D01*
X59707Y35946D01*
D02*
G37*
G36*
X110594Y34084D02*
X109878D01*
X109217Y33809D01*
X108710Y33303D01*
X108436Y32642D01*
Y31925D01*
X108710Y31264D01*
X109217Y30757D01*
X109878Y30483D01*
X110594D01*
X111256Y30757D01*
X111762Y31264D01*
X112036Y31925D01*
Y32642D01*
X111762Y33303D01*
X111256Y33809D01*
X110594Y34084D01*
D02*
G37*
G36*
X115158Y43693D02*
X114442D01*
X113780Y43419D01*
X113274Y42913D01*
X113000Y42251D01*
Y41535D01*
X113274Y40873D01*
X113303Y40845D01*
X113164Y40276D01*
X112760Y40109D01*
X112254Y39602D01*
X111979Y38941D01*
Y38225D01*
X112203Y37684D01*
X111580Y37426D01*
X111074Y36920D01*
X110800Y36258D01*
Y35542D01*
X111074Y34880D01*
X111580Y34374D01*
X112242Y34100D01*
X112958D01*
X113438Y34299D01*
X113507Y34278D01*
X113883Y34013D01*
X113900Y33990D01*
Y33442D01*
X114174Y32780D01*
X114478Y32477D01*
X114671Y32253D01*
X114478Y31823D01*
X114274Y31620D01*
X114000Y30958D01*
Y30617D01*
X113500Y30283D01*
X113458Y30300D01*
X112742D01*
X112080Y30026D01*
X111574Y29520D01*
X111300Y28858D01*
Y28142D01*
X111574Y27480D01*
X112080Y26974D01*
X112742Y26700D01*
X113458D01*
X114120Y26974D01*
X114626Y27480D01*
X114900Y28142D01*
Y28483D01*
X115400Y28817D01*
X115442Y28800D01*
X116158D01*
X116820Y29074D01*
X117326Y29580D01*
X117600Y30242D01*
Y30958D01*
X117326Y31620D01*
X117022Y31923D01*
X116829Y32147D01*
X117022Y32577D01*
X117226Y32780D01*
X117500Y33442D01*
Y34158D01*
X117226Y34820D01*
X116720Y35326D01*
X116058Y35600D01*
X115342D01*
X114862Y35401D01*
X114793Y35422D01*
X114417Y35687D01*
X114400Y35710D01*
Y36258D01*
X114176Y36799D01*
X114799Y37057D01*
X115305Y37563D01*
X115579Y38225D01*
Y38941D01*
X115305Y39602D01*
X115277Y39631D01*
X115415Y40200D01*
X115820Y40367D01*
X116326Y40873D01*
X116600Y41535D01*
Y42251D01*
X116326Y42913D01*
X115820Y43419D01*
X115158Y43693D01*
D02*
G37*
G36*
X88054Y32796D02*
X87537D01*
X87059Y32598D01*
X86693Y32232D01*
X86495Y31755D01*
Y31238D01*
X86693Y30760D01*
X87059Y30394D01*
X87537Y30196D01*
X88054D01*
X88532Y30394D01*
X88897Y30760D01*
X89095Y31238D01*
Y31755D01*
X88897Y32232D01*
X88532Y32598D01*
X88054Y32796D01*
D02*
G37*
G36*
X75455D02*
X74938D01*
X74461Y32598D01*
X74095Y32232D01*
X73897Y31755D01*
Y31238D01*
X74095Y30760D01*
X74461Y30394D01*
X74938Y30196D01*
X75455D01*
X75933Y30394D01*
X76299Y30760D01*
X76497Y31238D01*
Y31755D01*
X76299Y32232D01*
X75933Y32598D01*
X75455Y32796D01*
D02*
G37*
G36*
X72306D02*
X71789D01*
X71311Y32598D01*
X70945Y32232D01*
X70747Y31755D01*
Y31238D01*
X70945Y30760D01*
X71311Y30394D01*
X71789Y30196D01*
X72306D01*
X72784Y30394D01*
X73149Y30760D01*
X73347Y31238D01*
Y31755D01*
X73149Y32232D01*
X72784Y32598D01*
X72306Y32796D01*
D02*
G37*
G36*
X66007D02*
X65489D01*
X65012Y32598D01*
X64646Y32232D01*
X64448Y31755D01*
Y31238D01*
X64646Y30760D01*
X65012Y30394D01*
X65489Y30196D01*
X66007D01*
X66484Y30394D01*
X66850Y30760D01*
X67048Y31238D01*
Y31755D01*
X66850Y32232D01*
X66484Y32598D01*
X66007Y32796D01*
D02*
G37*
G36*
X62857D02*
X62340D01*
X61862Y32598D01*
X61496Y32232D01*
X61298Y31755D01*
Y31238D01*
X61496Y30760D01*
X61862Y30394D01*
X62340Y30196D01*
X62857D01*
X63335Y30394D01*
X63700Y30760D01*
X63898Y31238D01*
Y31755D01*
X63700Y32232D01*
X63335Y32598D01*
X62857Y32796D01*
D02*
G37*
G36*
X97208Y33690D02*
X96492D01*
X95831Y33416D01*
X95324Y32909D01*
X95050Y32248D01*
Y31532D01*
X95324Y30870D01*
X95831Y30364D01*
X96492Y30090D01*
X97208D01*
X97870Y30364D01*
X98376Y30870D01*
X98650Y31532D01*
Y32248D01*
X98376Y32909D01*
X97870Y33416D01*
X97208Y33690D01*
D02*
G37*
G36*
X102720Y32509D02*
X102004D01*
X101343Y32235D01*
X100836Y31728D01*
X100562Y31067D01*
Y30351D01*
X100836Y29689D01*
X101343Y29183D01*
X102004Y28909D01*
X102720D01*
X103382Y29183D01*
X103644Y29445D01*
X104212Y29306D01*
X104379Y28902D01*
X104886Y28395D01*
X105547Y28121D01*
X106264D01*
X106925Y28395D01*
X107431Y28902D01*
X107705Y29563D01*
Y30279D01*
X107431Y30941D01*
X106925Y31447D01*
X106264Y31721D01*
X105547D01*
X104886Y31447D01*
X104624Y31185D01*
X104056Y31324D01*
X103888Y31728D01*
X103382Y32235D01*
X102720Y32509D01*
D02*
G37*
G36*
X88054Y29647D02*
X87537D01*
X87059Y29449D01*
X86693Y29083D01*
X86495Y28605D01*
Y28088D01*
X86693Y27610D01*
X87059Y27244D01*
X87537Y27046D01*
X88054D01*
X88532Y27244D01*
X88897Y27610D01*
X89095Y28088D01*
Y28605D01*
X88897Y29083D01*
X88532Y29449D01*
X88054Y29647D01*
D02*
G37*
G36*
X78605D02*
X78088D01*
X77610Y29449D01*
X77244Y29083D01*
X77047Y28605D01*
Y28088D01*
X77244Y27610D01*
X77610Y27244D01*
X78088Y27046D01*
X78605D01*
X79083Y27244D01*
X79448Y27610D01*
X79646Y28088D01*
Y28605D01*
X79448Y29083D01*
X79083Y29449D01*
X78605Y29647D01*
D02*
G37*
G36*
X75455D02*
X74938D01*
X74461Y29449D01*
X74095Y29083D01*
X73897Y28605D01*
Y28088D01*
X74095Y27610D01*
X74461Y27244D01*
X74938Y27046D01*
X75455D01*
X75933Y27244D01*
X76299Y27610D01*
X76497Y28088D01*
Y28605D01*
X76299Y29083D01*
X75933Y29449D01*
X75455Y29647D01*
D02*
G37*
G36*
X66007D02*
X65489D01*
X65012Y29449D01*
X64646Y29083D01*
X64448Y28605D01*
Y28088D01*
X64646Y27610D01*
X65012Y27244D01*
X65489Y27046D01*
X66007D01*
X66484Y27244D01*
X66850Y27610D01*
X67048Y28088D01*
Y28605D01*
X66850Y29083D01*
X66484Y29449D01*
X66007Y29647D01*
D02*
G37*
G36*
X59707D02*
X59190D01*
X58712Y29449D01*
X58347Y29083D01*
X58149Y28605D01*
Y28088D01*
X58347Y27610D01*
X58712Y27244D01*
X59190Y27046D01*
X59707D01*
X60185Y27244D01*
X60551Y27610D01*
X60749Y28088D01*
Y28605D01*
X60551Y29083D01*
X60185Y29449D01*
X59707Y29647D01*
D02*
G37*
G36*
X91203Y26497D02*
X90686D01*
X90209Y26299D01*
X89843Y25933D01*
X89645Y25455D01*
Y24938D01*
X89843Y24461D01*
X90209Y24095D01*
X90686Y23897D01*
X91203D01*
X91681Y24095D01*
X92047Y24461D01*
X92245Y24938D01*
Y25455D01*
X92047Y25933D01*
X91681Y26299D01*
X91203Y26497D01*
D02*
G37*
G36*
X88054D02*
X87537D01*
X87059Y26299D01*
X86693Y25933D01*
X86495Y25455D01*
Y24938D01*
X86693Y24461D01*
X87059Y24095D01*
X87537Y23897D01*
X88054D01*
X88532Y24095D01*
X88897Y24461D01*
X89095Y24938D01*
Y25455D01*
X88897Y25933D01*
X88532Y26299D01*
X88054Y26497D01*
D02*
G37*
G36*
X78605D02*
X78088D01*
X77610Y26299D01*
X77244Y25933D01*
X77047Y25455D01*
Y24938D01*
X77244Y24461D01*
X77610Y24095D01*
X78088Y23897D01*
X78605D01*
X79083Y24095D01*
X79448Y24461D01*
X79646Y24938D01*
Y25455D01*
X79448Y25933D01*
X79083Y26299D01*
X78605Y26497D01*
D02*
G37*
G36*
X75455D02*
X74938D01*
X74461Y26299D01*
X74095Y25933D01*
X73897Y25455D01*
Y24938D01*
X74095Y24461D01*
X74461Y24095D01*
X74938Y23897D01*
X75455D01*
X75933Y24095D01*
X76299Y24461D01*
X76497Y24938D01*
Y25455D01*
X76299Y25933D01*
X75933Y26299D01*
X75455Y26497D01*
D02*
G37*
G36*
X72306D02*
X71789D01*
X71311Y26299D01*
X70945Y25933D01*
X70747Y25455D01*
Y24938D01*
X70945Y24461D01*
X71311Y24095D01*
X71789Y23897D01*
X72306D01*
X72784Y24095D01*
X73149Y24461D01*
X73347Y24938D01*
Y25455D01*
X73149Y25933D01*
X72784Y26299D01*
X72306Y26497D01*
D02*
G37*
G36*
X69156D02*
X68639D01*
X68161Y26299D01*
X67796Y25933D01*
X67598Y25455D01*
Y24938D01*
X67796Y24461D01*
X68161Y24095D01*
X68639Y23897D01*
X69156D01*
X69634Y24095D01*
X70000Y24461D01*
X70198Y24938D01*
Y25455D01*
X70000Y25933D01*
X69634Y26299D01*
X69156Y26497D01*
D02*
G37*
G36*
X66007D02*
X65489D01*
X65012Y26299D01*
X64646Y25933D01*
X64448Y25455D01*
Y24938D01*
X64646Y24461D01*
X65012Y24095D01*
X65489Y23897D01*
X66007D01*
X66484Y24095D01*
X66850Y24461D01*
X67048Y24938D01*
Y25455D01*
X66850Y25933D01*
X66484Y26299D01*
X66007Y26497D01*
D02*
G37*
G36*
X96027Y26209D02*
X95311D01*
X94650Y25935D01*
X94143Y25429D01*
X93869Y24768D01*
Y24051D01*
X94143Y23390D01*
X94650Y22884D01*
X95311Y22610D01*
X96027D01*
X96689Y22884D01*
X97195Y23390D01*
X97469Y24051D01*
Y24768D01*
X97195Y25429D01*
X96689Y25935D01*
X96027Y26209D01*
D02*
G37*
G36*
X109158Y24500D02*
X108442D01*
X107780Y24226D01*
X107274Y23720D01*
X107000Y23058D01*
Y22342D01*
X107274Y21680D01*
X107780Y21174D01*
X108442Y20900D01*
X109158D01*
X109820Y21174D01*
X110326Y21680D01*
X110600Y22342D01*
Y23058D01*
X110326Y23720D01*
X109820Y24226D01*
X109158Y24500D01*
D02*
G37*
G36*
X80358Y21100D02*
X79642D01*
X78980Y20826D01*
X78474Y20320D01*
X78458Y20280D01*
X77917D01*
X77904Y20311D01*
X77398Y20817D01*
X76736Y21091D01*
X76020D01*
X75358Y20817D01*
X74852Y20311D01*
X74578Y19649D01*
Y18933D01*
X74852Y18272D01*
X75358Y17765D01*
X76020Y17491D01*
X76736D01*
X77398Y17765D01*
X77904Y18272D01*
X77920Y18311D01*
X78461D01*
X78474Y18280D01*
X78980Y17774D01*
X79642Y17500D01*
X80358D01*
X81020Y17774D01*
X81526Y18280D01*
X81800Y18942D01*
Y19658D01*
X81526Y20320D01*
X81020Y20826D01*
X80358Y21100D01*
D02*
G37*
G36*
X69550Y22560D02*
X69033D01*
X68555Y22362D01*
X68189Y21996D01*
X67991Y21518D01*
Y21001D01*
X68189Y20523D01*
X68555Y20158D01*
X69033Y19960D01*
X69550D01*
X70028Y20158D01*
X70393Y20523D01*
X70591Y21001D01*
Y21518D01*
X70393Y21996D01*
X70028Y22362D01*
X69550Y22560D01*
D02*
G37*
G36*
X62070D02*
X61552D01*
X61075Y22362D01*
X60709Y21996D01*
X60511Y21518D01*
Y21001D01*
X60709Y20523D01*
X61075Y20158D01*
X61552Y19960D01*
X62070D01*
X62547Y20158D01*
X62913Y20523D01*
X63111Y21001D01*
Y21518D01*
X62913Y21996D01*
X62547Y22362D01*
X62070Y22560D01*
D02*
G37*
G36*
X55770Y24922D02*
X55253D01*
X54775Y24724D01*
X54410Y24358D01*
X54212Y23881D01*
Y23363D01*
X54410Y22886D01*
X54775Y22520D01*
X55253Y22322D01*
X55770D01*
X56110Y22463D01*
X56393Y22039D01*
X56174Y21820D01*
X55900Y21158D01*
Y20442D01*
X56174Y19780D01*
X56680Y19274D01*
X57342Y19000D01*
X58058D01*
X58720Y19274D01*
X59226Y19780D01*
X59500Y20442D01*
Y21158D01*
X59226Y21820D01*
X58720Y22326D01*
X58058Y22600D01*
X57342D01*
X56818Y22383D01*
X56535Y22807D01*
X56614Y22886D01*
X56812Y23363D01*
Y23881D01*
X56614Y24358D01*
X56248Y24724D01*
X55770Y24922D01*
D02*
G37*
G36*
X101145Y22272D02*
X100429D01*
X99768Y21998D01*
X99261Y21492D01*
X98987Y20831D01*
Y20114D01*
X99261Y19453D01*
X99768Y18947D01*
X100429Y18672D01*
X101145D01*
X101807Y18947D01*
X102313Y19453D01*
X102587Y20114D01*
Y20831D01*
X102313Y21492D01*
X101807Y21998D01*
X101145Y22272D01*
D02*
G37*
G36*
X86579Y21091D02*
X85862D01*
X85201Y20817D01*
X84694Y20311D01*
X84421Y19649D01*
Y18933D01*
X84694Y18272D01*
X85201Y17765D01*
X85862Y17491D01*
X86579D01*
X87240Y17765D01*
X87746Y18272D01*
X88020Y18933D01*
Y19649D01*
X87746Y20311D01*
X87240Y20817D01*
X86579Y21091D01*
D02*
G37*
G36*
X91729Y14342D02*
X91027D01*
X90348Y14160D01*
X89739Y13809D01*
X89243Y13312D01*
X88891Y12703D01*
X88709Y12025D01*
Y11322D01*
X88891Y10643D01*
X89243Y10035D01*
X89739Y9538D01*
X90348Y9187D01*
X91027Y9005D01*
X91729D01*
X92408Y9187D01*
X93016Y9538D01*
X93513Y10035D01*
X93865Y10643D01*
X94046Y11322D01*
Y12025D01*
X93865Y12703D01*
X93513Y13312D01*
X93016Y13809D01*
X92408Y14160D01*
X91729Y14342D01*
D02*
G37*
G36*
X86579Y6131D02*
X85862D01*
X85201Y5857D01*
X84694Y5350D01*
X84421Y4689D01*
Y3973D01*
X84694Y3311D01*
X85201Y2805D01*
X85862Y2531D01*
X86579D01*
X87240Y2805D01*
X87746Y3311D01*
X88020Y3973D01*
Y4689D01*
X87746Y5350D01*
X87240Y5857D01*
X86579Y6131D01*
D02*
G37*
G36*
X58626Y5737D02*
X57910D01*
X57248Y5463D01*
X56742Y4957D01*
X56468Y4295D01*
Y3579D01*
X56742Y2917D01*
X57248Y2411D01*
X57910Y2137D01*
X58626D01*
X59287Y2411D01*
X59794Y2917D01*
X60068Y3579D01*
Y4295D01*
X59794Y4957D01*
X59287Y5463D01*
X58626Y5737D01*
D02*
G37*
G36*
X91203Y86339D02*
X90686D01*
X90209Y86142D01*
X89843Y85776D01*
X89645Y85298D01*
Y84781D01*
X89843Y84303D01*
X90209Y83937D01*
X90686Y83739D01*
X91203D01*
X91681Y83937D01*
X92047Y84303D01*
X92245Y84781D01*
Y85298D01*
X92047Y85776D01*
X91681Y86142D01*
X91203Y86339D01*
D02*
G37*
G36*
X88054D02*
X87537D01*
X87059Y86142D01*
X86693Y85776D01*
X86495Y85298D01*
Y84781D01*
X86693Y84303D01*
X87059Y83937D01*
X87537Y83739D01*
X88054D01*
X88532Y83937D01*
X88897Y84303D01*
X89095Y84781D01*
Y85298D01*
X88897Y85776D01*
X88532Y86142D01*
X88054Y86339D01*
D02*
G37*
G36*
X72306D02*
X71789D01*
X71311Y86142D01*
X70945Y85776D01*
X70747Y85298D01*
Y84781D01*
X70945Y84303D01*
X71311Y83937D01*
X71789Y83739D01*
X72306D01*
X72784Y83937D01*
X73149Y84303D01*
X73347Y84781D01*
Y85298D01*
X73149Y85776D01*
X72784Y86142D01*
X72306Y86339D01*
D02*
G37*
G36*
X69156D02*
X68639D01*
X68161Y86142D01*
X67795Y85776D01*
X67598Y85298D01*
Y84781D01*
X67795Y84303D01*
X68161Y83937D01*
X68639Y83739D01*
X69156D01*
X69634Y83937D01*
X70000Y84303D01*
X70198Y84781D01*
Y85298D01*
X70000Y85776D01*
X69634Y86142D01*
X69156Y86339D01*
D02*
G37*
G36*
X66007D02*
X65489D01*
X65012Y86142D01*
X64646Y85776D01*
X64448Y85298D01*
Y84781D01*
X64646Y84303D01*
X65012Y83937D01*
X65489Y83739D01*
X66007D01*
X66484Y83937D01*
X66850Y84303D01*
X67048Y84781D01*
Y85298D01*
X66850Y85776D01*
X66484Y86142D01*
X66007Y86339D01*
D02*
G37*
G36*
X62857D02*
X62340D01*
X61862Y86142D01*
X61496Y85776D01*
X61298Y85298D01*
Y84781D01*
X61496Y84303D01*
X61862Y83937D01*
X62340Y83739D01*
X62857D01*
X63335Y83937D01*
X63700Y84303D01*
X63898Y84781D01*
Y85298D01*
X63700Y85776D01*
X63335Y86142D01*
X62857Y86339D01*
D02*
G37*
G36*
X56558D02*
X56041D01*
X55563Y86142D01*
X55197Y85776D01*
X54999Y85298D01*
Y84781D01*
X55197Y84303D01*
X55563Y83937D01*
X56041Y83739D01*
X56558D01*
X57036Y83937D01*
X57401Y84303D01*
X57599Y84781D01*
Y85298D01*
X57401Y85776D01*
X57036Y86142D01*
X56558Y86339D01*
D02*
G37*
G36*
X53408D02*
X52891D01*
X52413Y86142D01*
X52047Y85776D01*
X51850Y85298D01*
Y84781D01*
X52047Y84303D01*
X52413Y83937D01*
X52891Y83739D01*
X53408D01*
X53886Y83937D01*
X54252Y84303D01*
X54450Y84781D01*
Y85298D01*
X54252Y85776D01*
X53886Y86142D01*
X53408Y86339D01*
D02*
G37*
G36*
X50259D02*
X49741D01*
X49264Y86142D01*
X48898Y85776D01*
X48700Y85298D01*
Y84781D01*
X48898Y84303D01*
X49264Y83937D01*
X49741Y83739D01*
X50259D01*
X50736Y83937D01*
X51102Y84303D01*
X51300Y84781D01*
Y85298D01*
X51102Y85776D01*
X50736Y86142D01*
X50259Y86339D01*
D02*
G37*
G36*
X47109D02*
X46592D01*
X46114Y86142D01*
X45748Y85776D01*
X45550Y85298D01*
Y84781D01*
X45748Y84303D01*
X46114Y83937D01*
X46592Y83739D01*
X47109D01*
X47587Y83937D01*
X47952Y84303D01*
X48150Y84781D01*
Y85298D01*
X47952Y85776D01*
X47587Y86142D01*
X47109Y86339D01*
D02*
G37*
G36*
X91203Y83190D02*
X90686D01*
X90209Y82992D01*
X89843Y82626D01*
X89645Y82148D01*
Y81631D01*
X89843Y81153D01*
X90209Y80788D01*
X90686Y80590D01*
X91203D01*
X91681Y80788D01*
X92047Y81153D01*
X92245Y81631D01*
Y82148D01*
X92047Y82626D01*
X91681Y82992D01*
X91203Y83190D01*
D02*
G37*
G36*
X72306D02*
X71789D01*
X71311Y82992D01*
X70945Y82626D01*
X70747Y82148D01*
Y81631D01*
X70945Y81153D01*
X71311Y80788D01*
X71789Y80590D01*
X72306D01*
X72784Y80788D01*
X73149Y81153D01*
X73347Y81631D01*
Y82148D01*
X73149Y82626D01*
X72784Y82992D01*
X72306Y83190D01*
D02*
G37*
G36*
X69156D02*
X68639D01*
X68161Y82992D01*
X67795Y82626D01*
X67598Y82148D01*
Y81631D01*
X67795Y81153D01*
X68161Y80788D01*
X68639Y80590D01*
X69156D01*
X69634Y80788D01*
X70000Y81153D01*
X70198Y81631D01*
Y82148D01*
X70000Y82626D01*
X69634Y82992D01*
X69156Y83190D01*
D02*
G37*
G36*
X66007D02*
X65489D01*
X65012Y82992D01*
X64646Y82626D01*
X64448Y82148D01*
Y81631D01*
X64646Y81153D01*
X65012Y80788D01*
X65489Y80590D01*
X66007D01*
X66484Y80788D01*
X66850Y81153D01*
X67048Y81631D01*
Y82148D01*
X66850Y82626D01*
X66484Y82992D01*
X66007Y83190D01*
D02*
G37*
G36*
X62857D02*
X62340D01*
X61862Y82992D01*
X61496Y82626D01*
X61298Y82148D01*
Y81631D01*
X61496Y81153D01*
X61862Y80788D01*
X62340Y80590D01*
X62857D01*
X63335Y80788D01*
X63700Y81153D01*
X63898Y81631D01*
Y82148D01*
X63700Y82626D01*
X63335Y82992D01*
X62857Y83190D01*
D02*
G37*
G36*
X56558D02*
X56041D01*
X55563Y82992D01*
X55197Y82626D01*
X54999Y82148D01*
Y81631D01*
X55197Y81153D01*
X55563Y80788D01*
X56041Y80590D01*
X56558D01*
X57036Y80788D01*
X57401Y81153D01*
X57599Y81631D01*
Y82148D01*
X57401Y82626D01*
X57036Y82992D01*
X56558Y83190D01*
D02*
G37*
G36*
X53408D02*
X52891D01*
X52413Y82992D01*
X52047Y82626D01*
X51850Y82148D01*
Y81631D01*
X52047Y81153D01*
X52413Y80788D01*
X52891Y80590D01*
X53408D01*
X53886Y80788D01*
X54252Y81153D01*
X54450Y81631D01*
Y82148D01*
X54252Y82626D01*
X53886Y82992D01*
X53408Y83190D01*
D02*
G37*
G36*
X50259D02*
X49741D01*
X49264Y82992D01*
X48898Y82626D01*
X48700Y82148D01*
Y81631D01*
X48898Y81153D01*
X49264Y80788D01*
X49741Y80590D01*
X50259D01*
X50736Y80788D01*
X51102Y81153D01*
X51300Y81631D01*
Y82148D01*
X51102Y82626D01*
X50736Y82992D01*
X50259Y83190D01*
D02*
G37*
G36*
X47109D02*
X46592D01*
X46114Y82992D01*
X45748Y82626D01*
X45550Y82148D01*
Y81631D01*
X45748Y81153D01*
X46114Y80788D01*
X46592Y80590D01*
X47109D01*
X47587Y80788D01*
X47952Y81153D01*
X48150Y81631D01*
Y82148D01*
X47952Y82626D01*
X47587Y82992D01*
X47109Y83190D01*
D02*
G37*
G36*
X81755Y80040D02*
X81238D01*
X80760Y79842D01*
X80394Y79476D01*
X80196Y78999D01*
Y78482D01*
X80394Y78004D01*
X80760Y77638D01*
X81238Y77440D01*
X81755D01*
X82232Y77638D01*
X82598Y78004D01*
X82796Y78482D01*
Y78999D01*
X82598Y79476D01*
X82232Y79842D01*
X81755Y80040D01*
D02*
G37*
G36*
X72306Y80040D02*
X71789D01*
X71311Y79842D01*
X70945Y79476D01*
X70747Y78999D01*
Y78482D01*
X70945Y78004D01*
X71311Y77638D01*
X71789Y77440D01*
X72306D01*
X72784Y77638D01*
X73149Y78004D01*
X73347Y78482D01*
Y78999D01*
X73149Y79476D01*
X72784Y79842D01*
X72306Y80040D01*
D02*
G37*
G36*
X69156D02*
X68639D01*
X68161Y79842D01*
X67795Y79476D01*
X67598Y78999D01*
Y78482D01*
X67795Y78004D01*
X68161Y77638D01*
X68639Y77440D01*
X69156D01*
X69634Y77638D01*
X70000Y78004D01*
X70198Y78482D01*
Y78999D01*
X70000Y79476D01*
X69634Y79842D01*
X69156Y80040D01*
D02*
G37*
G36*
X62857D02*
X62340D01*
X61862Y79842D01*
X61496Y79476D01*
X61298Y78999D01*
Y78482D01*
X61496Y78004D01*
X61862Y77638D01*
X62340Y77440D01*
X62857D01*
X63335Y77638D01*
X63700Y78004D01*
X63898Y78482D01*
Y78999D01*
X63700Y79476D01*
X63335Y79842D01*
X62857Y80040D01*
D02*
G37*
G36*
X56558D02*
X56041D01*
X55563Y79842D01*
X55197Y79476D01*
X54999Y78999D01*
Y78482D01*
X55197Y78004D01*
X55563Y77638D01*
X56041Y77440D01*
X56558D01*
X57036Y77638D01*
X57401Y78004D01*
X57599Y78482D01*
Y78999D01*
X57401Y79476D01*
X57036Y79842D01*
X56558Y80040D01*
D02*
G37*
G36*
X53408D02*
X52891D01*
X52413Y79842D01*
X52047Y79476D01*
X51850Y78999D01*
Y78482D01*
X52047Y78004D01*
X52413Y77638D01*
X52891Y77440D01*
X53408D01*
X53886Y77638D01*
X54252Y78004D01*
X54450Y78482D01*
Y78999D01*
X54252Y79476D01*
X53886Y79842D01*
X53408Y80040D01*
D02*
G37*
G36*
X50259D02*
X49741D01*
X49264Y79842D01*
X48898Y79476D01*
X48700Y78999D01*
Y78482D01*
X48898Y78004D01*
X49264Y77638D01*
X49741Y77440D01*
X50259D01*
X50736Y77638D01*
X51102Y78004D01*
X51300Y78482D01*
Y78999D01*
X51102Y79476D01*
X50736Y79842D01*
X50259Y80040D01*
D02*
G37*
G36*
X93359Y77134D02*
X92841D01*
X92364Y76936D01*
X91998Y76571D01*
X91800Y76093D01*
Y75576D01*
X91998Y75098D01*
X92364Y74732D01*
X92841Y74534D01*
X93359D01*
X93836Y74732D01*
X94202Y75098D01*
X94400Y75576D01*
Y76093D01*
X94202Y76571D01*
X93836Y76936D01*
X93359Y77134D01*
D02*
G37*
G36*
X88054Y76890D02*
X87537D01*
X87059Y76693D01*
X86693Y76327D01*
X86495Y75849D01*
Y75332D01*
X86693Y74854D01*
X87059Y74489D01*
X87537Y74291D01*
X88054D01*
X88532Y74489D01*
X88897Y74854D01*
X89095Y75332D01*
Y75849D01*
X88897Y76327D01*
X88532Y76693D01*
X88054Y76890D01*
D02*
G37*
G36*
X75455D02*
X74938D01*
X74461Y76693D01*
X74095Y76327D01*
X73897Y75849D01*
Y75332D01*
X74095Y74854D01*
X74461Y74489D01*
X74938Y74291D01*
X75455D01*
X75933Y74489D01*
X76299Y74854D01*
X76497Y75332D01*
Y75849D01*
X76299Y76327D01*
X75933Y76693D01*
X75455Y76890D01*
D02*
G37*
G36*
X72306D02*
X71789D01*
X71311Y76693D01*
X70945Y76327D01*
X70747Y75849D01*
Y75332D01*
X70945Y74854D01*
X71311Y74489D01*
X71789Y74291D01*
X72306D01*
X72784Y74489D01*
X73149Y74854D01*
X73347Y75332D01*
Y75849D01*
X73149Y76327D01*
X72784Y76693D01*
X72306Y76890D01*
D02*
G37*
G36*
X69156D02*
X68639D01*
X68161Y76693D01*
X67795Y76327D01*
X67598Y75849D01*
Y75332D01*
X67795Y74854D01*
X68161Y74489D01*
X68639Y74291D01*
X69156D01*
X69634Y74489D01*
X70000Y74854D01*
X70198Y75332D01*
Y75849D01*
X70000Y76327D01*
X69634Y76693D01*
X69156Y76890D01*
D02*
G37*
G36*
X62857D02*
X62340D01*
X61862Y76693D01*
X61496Y76327D01*
X61298Y75849D01*
Y75332D01*
X61496Y74854D01*
X61862Y74489D01*
X62340Y74291D01*
X62857D01*
X63335Y74489D01*
X63700Y74854D01*
X63898Y75332D01*
Y75849D01*
X63700Y76327D01*
X63335Y76693D01*
X62857Y76890D01*
D02*
G37*
G36*
X56558D02*
X56041D01*
X55563Y76693D01*
X55197Y76327D01*
X54999Y75849D01*
Y75332D01*
X55197Y74854D01*
X55563Y74489D01*
X56041Y74291D01*
X56558D01*
X57036Y74489D01*
X57401Y74854D01*
X57599Y75332D01*
Y75849D01*
X57401Y76327D01*
X57036Y76693D01*
X56558Y76890D01*
D02*
G37*
G36*
X53408D02*
X52891D01*
X52413Y76693D01*
X52047Y76327D01*
X51850Y75849D01*
Y75332D01*
X52047Y74854D01*
X52413Y74489D01*
X52891Y74291D01*
X53408D01*
X53886Y74489D01*
X54252Y74854D01*
X54450Y75332D01*
Y75849D01*
X54252Y76327D01*
X53886Y76693D01*
X53408Y76890D01*
D02*
G37*
G36*
X50259D02*
X49741D01*
X49264Y76693D01*
X48898Y76327D01*
X48700Y75849D01*
Y75332D01*
X48898Y74854D01*
X49264Y74489D01*
X49741Y74291D01*
X50259D01*
X50736Y74489D01*
X51102Y74854D01*
X51300Y75332D01*
Y75849D01*
X51102Y76327D01*
X50736Y76693D01*
X50259Y76890D01*
D02*
G37*
G36*
X84904Y73741D02*
X84387D01*
X83909Y73543D01*
X83544Y73177D01*
X83346Y72699D01*
Y72182D01*
X83544Y71705D01*
X83909Y71339D01*
X84387Y71141D01*
X84904D01*
X85382Y71339D01*
X85748Y71705D01*
X85946Y72182D01*
Y72699D01*
X85748Y73177D01*
X85382Y73543D01*
X84904Y73741D01*
D02*
G37*
G36*
X81755D02*
X81238D01*
X80760Y73543D01*
X80394Y73177D01*
X80196Y72699D01*
Y72182D01*
X80394Y71705D01*
X80760Y71339D01*
X81238Y71141D01*
X81755D01*
X82232Y71339D01*
X82598Y71705D01*
X82796Y72182D01*
Y72699D01*
X82598Y73177D01*
X82232Y73543D01*
X81755Y73741D01*
D02*
G37*
G36*
X78605D02*
X78088D01*
X77610Y73543D01*
X77244Y73177D01*
X77047Y72699D01*
Y72182D01*
X77244Y71705D01*
X77610Y71339D01*
X78088Y71141D01*
X78605D01*
X79083Y71339D01*
X79448Y71705D01*
X79646Y72182D01*
Y72699D01*
X79448Y73177D01*
X79083Y73543D01*
X78605Y73741D01*
D02*
G37*
G36*
X75455D02*
X74938D01*
X74461Y73543D01*
X74095Y73177D01*
X73897Y72699D01*
Y72182D01*
X74095Y71705D01*
X74461Y71339D01*
X74938Y71141D01*
X75455D01*
X75933Y71339D01*
X76299Y71705D01*
X76497Y72182D01*
Y72699D01*
X76299Y73177D01*
X75933Y73543D01*
X75455Y73741D01*
D02*
G37*
G36*
X72306D02*
X71789D01*
X71311Y73543D01*
X70945Y73177D01*
X70747Y72699D01*
Y72182D01*
X70945Y71705D01*
X71311Y71339D01*
X71789Y71141D01*
X72306D01*
X72784Y71339D01*
X73149Y71705D01*
X73347Y72182D01*
Y72699D01*
X73149Y73177D01*
X72784Y73543D01*
X72306Y73741D01*
D02*
G37*
G36*
X69156D02*
X68639D01*
X68161Y73543D01*
X67795Y73177D01*
X67598Y72699D01*
Y72182D01*
X67795Y71705D01*
X68161Y71339D01*
X68639Y71141D01*
X69156D01*
X69634Y71339D01*
X70000Y71705D01*
X70198Y72182D01*
Y72699D01*
X70000Y73177D01*
X69634Y73543D01*
X69156Y73741D01*
D02*
G37*
G36*
X62857D02*
X62340D01*
X61862Y73543D01*
X61496Y73177D01*
X61298Y72699D01*
Y72182D01*
X61496Y71705D01*
X61862Y71339D01*
X62340Y71141D01*
X62857D01*
X63335Y71339D01*
X63700Y71705D01*
X63898Y72182D01*
Y72699D01*
X63700Y73177D01*
X63335Y73543D01*
X62857Y73741D01*
D02*
G37*
G36*
X53408D02*
X52891D01*
X52413Y73543D01*
X52047Y73177D01*
X51850Y72699D01*
Y72182D01*
X52047Y71705D01*
X52413Y71339D01*
X52891Y71141D01*
X53408D01*
X53886Y71339D01*
X54252Y71705D01*
X54450Y72182D01*
Y72699D01*
X54252Y73177D01*
X53886Y73543D01*
X53408Y73741D01*
D02*
G37*
G36*
X50259D02*
X49741D01*
X49264Y73543D01*
X48898Y73177D01*
X48700Y72699D01*
Y72182D01*
X48898Y71705D01*
X49264Y71339D01*
X49741Y71141D01*
X50259D01*
X50736Y71339D01*
X51102Y71705D01*
X51300Y72182D01*
Y72699D01*
X51102Y73177D01*
X50736Y73543D01*
X50259Y73741D01*
D02*
G37*
G36*
X47109D02*
X46592D01*
X46114Y73543D01*
X45748Y73177D01*
X45550Y72699D01*
Y72182D01*
X45748Y71705D01*
X46114Y71339D01*
X46592Y71141D01*
X47109D01*
X47587Y71339D01*
X47952Y71705D01*
X48150Y72182D01*
Y72699D01*
X47952Y73177D01*
X47587Y73543D01*
X47109Y73741D01*
D02*
G37*
G36*
X88054Y70591D02*
X87537D01*
X87059Y70393D01*
X86693Y70028D01*
X86495Y69550D01*
Y69033D01*
X86693Y68555D01*
X87059Y68189D01*
X87537Y67991D01*
X88054D01*
X88532Y68189D01*
X88897Y68555D01*
X89095Y69033D01*
Y69550D01*
X88897Y70028D01*
X88532Y70393D01*
X88054Y70591D01*
D02*
G37*
G36*
X84904D02*
X84387D01*
X83909Y70393D01*
X83544Y70028D01*
X83346Y69550D01*
Y69033D01*
X83544Y68555D01*
X83909Y68189D01*
X84387Y67991D01*
X84904D01*
X85382Y68189D01*
X85748Y68555D01*
X85946Y69033D01*
Y69550D01*
X85748Y70028D01*
X85382Y70393D01*
X84904Y70591D01*
D02*
G37*
G36*
X81755D02*
X81238D01*
X80760Y70393D01*
X80394Y70028D01*
X80196Y69550D01*
Y69033D01*
X80394Y68555D01*
X80760Y68189D01*
X81238Y67991D01*
X81755D01*
X82232Y68189D01*
X82598Y68555D01*
X82796Y69033D01*
Y69550D01*
X82598Y70028D01*
X82232Y70393D01*
X81755Y70591D01*
D02*
G37*
G36*
X78605D02*
X78088D01*
X77610Y70393D01*
X77244Y70028D01*
X77047Y69550D01*
Y69033D01*
X77244Y68555D01*
X77610Y68189D01*
X78088Y67991D01*
X78605D01*
X79083Y68189D01*
X79448Y68555D01*
X79646Y69033D01*
Y69550D01*
X79448Y70028D01*
X79083Y70393D01*
X78605Y70591D01*
D02*
G37*
G36*
X75455D02*
X74938D01*
X74461Y70393D01*
X74095Y70028D01*
X73897Y69550D01*
Y69033D01*
X74095Y68555D01*
X74461Y68189D01*
X74938Y67991D01*
X75455D01*
X75933Y68189D01*
X76299Y68555D01*
X76497Y69033D01*
Y69550D01*
X76299Y70028D01*
X75933Y70393D01*
X75455Y70591D01*
D02*
G37*
G36*
X72306D02*
X71789D01*
X71311Y70393D01*
X70945Y70028D01*
X70747Y69550D01*
Y69033D01*
X70945Y68555D01*
X71311Y68189D01*
X71789Y67991D01*
X72306D01*
X72784Y68189D01*
X73149Y68555D01*
X73347Y69033D01*
Y69550D01*
X73149Y70028D01*
X72784Y70393D01*
X72306Y70591D01*
D02*
G37*
G36*
X69156D02*
X68639D01*
X68161Y70393D01*
X67795Y70028D01*
X67598Y69550D01*
Y69033D01*
X67795Y68555D01*
X68161Y68189D01*
X68639Y67991D01*
X69156D01*
X69634Y68189D01*
X70000Y68555D01*
X70198Y69033D01*
Y69550D01*
X70000Y70028D01*
X69634Y70393D01*
X69156Y70591D01*
D02*
G37*
G36*
X62857D02*
X62340D01*
X61862Y70393D01*
X61496Y70028D01*
X61298Y69550D01*
Y69033D01*
X61496Y68555D01*
X61862Y68189D01*
X62340Y67991D01*
X62857D01*
X63335Y68189D01*
X63700Y68555D01*
X63898Y69033D01*
Y69550D01*
X63700Y70028D01*
X63335Y70393D01*
X62857Y70591D01*
D02*
G37*
G36*
X53408D02*
X52891D01*
X52413Y70393D01*
X52047Y70028D01*
X51850Y69550D01*
Y69033D01*
X52047Y68555D01*
X52413Y68189D01*
X52891Y67991D01*
X53408D01*
X53886Y68189D01*
X54252Y68555D01*
X54450Y69033D01*
Y69550D01*
X54252Y70028D01*
X53886Y70393D01*
X53408Y70591D01*
D02*
G37*
G36*
X50259D02*
X49741D01*
X49264Y70393D01*
X48898Y70028D01*
X48700Y69550D01*
Y69033D01*
X48898Y68555D01*
X49264Y68189D01*
X49741Y67991D01*
X50259D01*
X50736Y68189D01*
X51102Y68555D01*
X51300Y69033D01*
Y69550D01*
X51102Y70028D01*
X50736Y70393D01*
X50259Y70591D01*
D02*
G37*
G36*
X47109D02*
X46592D01*
X46114Y70393D01*
X45748Y70028D01*
X45550Y69550D01*
Y69033D01*
X45748Y68555D01*
X46114Y68189D01*
X46592Y67991D01*
X47109D01*
X47587Y68189D01*
X47952Y68555D01*
X48150Y69033D01*
Y69550D01*
X47952Y70028D01*
X47587Y70393D01*
X47109Y70591D01*
D02*
G37*
G36*
X95256Y71091D02*
X94540D01*
X93878Y70817D01*
X93372Y70311D01*
X93098Y69649D01*
Y68933D01*
X93372Y68272D01*
X93878Y67765D01*
X94540Y67491D01*
X95256D01*
X95917Y67765D01*
X96424Y68272D01*
X96698Y68933D01*
Y69649D01*
X96424Y70311D01*
X95917Y70817D01*
X95256Y71091D01*
D02*
G37*
G36*
X91203Y67442D02*
X90686D01*
X90209Y67244D01*
X89843Y66878D01*
X89645Y66400D01*
Y65883D01*
X89843Y65405D01*
X90209Y65040D01*
X90686Y64842D01*
X91203D01*
X91681Y65040D01*
X92047Y65405D01*
X92245Y65883D01*
Y66400D01*
X92047Y66878D01*
X91681Y67244D01*
X91203Y67442D01*
D02*
G37*
G36*
X84904D02*
X84387D01*
X83909Y67244D01*
X83544Y66878D01*
X83346Y66400D01*
Y65883D01*
X83544Y65405D01*
X83909Y65040D01*
X84387Y64842D01*
X84904D01*
X85382Y65040D01*
X85748Y65405D01*
X85946Y65883D01*
Y66400D01*
X85748Y66878D01*
X85382Y67244D01*
X84904Y67442D01*
D02*
G37*
G36*
X81755D02*
X81238D01*
X80760Y67244D01*
X80394Y66878D01*
X80196Y66400D01*
Y65883D01*
X80394Y65405D01*
X80760Y65040D01*
X81238Y64842D01*
X81755D01*
X82232Y65040D01*
X82598Y65405D01*
X82796Y65883D01*
Y66400D01*
X82598Y66878D01*
X82232Y67244D01*
X81755Y67442D01*
D02*
G37*
G36*
X47109D02*
X46592D01*
X46114Y67244D01*
X45748Y66878D01*
X45550Y66400D01*
Y65883D01*
X45748Y65405D01*
X46114Y65040D01*
X46592Y64842D01*
X47109D01*
X47587Y65040D01*
X47952Y65405D01*
X48150Y65883D01*
Y66400D01*
X47952Y66878D01*
X47587Y67244D01*
X47109Y67442D01*
D02*
G37*
G36*
X91203Y64292D02*
X90686D01*
X90209Y64094D01*
X89843Y63728D01*
X89645Y63251D01*
Y62734D01*
X89843Y62256D01*
X90209Y61890D01*
X90686Y61692D01*
X91203D01*
X91681Y61890D01*
X92047Y62256D01*
X92245Y62734D01*
Y63251D01*
X92047Y63728D01*
X91681Y64094D01*
X91203Y64292D01*
D02*
G37*
G36*
X88054D02*
X87537D01*
X87059Y64094D01*
X86693Y63728D01*
X86495Y63251D01*
Y62734D01*
X86693Y62256D01*
X87059Y61890D01*
X87537Y61692D01*
X88054D01*
X88532Y61890D01*
X88897Y62256D01*
X89095Y62734D01*
Y63251D01*
X88897Y63728D01*
X88532Y64094D01*
X88054Y64292D01*
D02*
G37*
G36*
X84904D02*
X84387D01*
X83909Y64094D01*
X83544Y63728D01*
X83346Y63251D01*
Y62734D01*
X83544Y62256D01*
X83909Y61890D01*
X84387Y61692D01*
X84904D01*
X85382Y61890D01*
X85748Y62256D01*
X85946Y62734D01*
Y63251D01*
X85748Y63728D01*
X85382Y64094D01*
X84904Y64292D01*
D02*
G37*
G36*
X81755D02*
X81238D01*
X80760Y64094D01*
X80394Y63728D01*
X80196Y63251D01*
Y62734D01*
X80394Y62256D01*
X80760Y61890D01*
X81238Y61692D01*
X81755D01*
X82232Y61890D01*
X82598Y62256D01*
X82796Y62734D01*
Y63251D01*
X82598Y63728D01*
X82232Y64094D01*
X81755Y64292D01*
D02*
G37*
G36*
X78605D02*
X78088D01*
X77610Y64094D01*
X77244Y63728D01*
X77047Y63251D01*
Y62734D01*
X77244Y62256D01*
X77610Y61890D01*
X78088Y61692D01*
X78605D01*
X79083Y61890D01*
X79448Y62256D01*
X79646Y62734D01*
Y63251D01*
X79448Y63728D01*
X79083Y64094D01*
X78605Y64292D01*
D02*
G37*
G36*
X69156D02*
X68639D01*
X68161Y64094D01*
X67795Y63728D01*
X67598Y63251D01*
Y62734D01*
X67795Y62256D01*
X68161Y61890D01*
X68639Y61692D01*
X69156D01*
X69634Y61890D01*
X70000Y62256D01*
X70198Y62734D01*
Y63251D01*
X70000Y63728D01*
X69634Y64094D01*
X69156Y64292D01*
D02*
G37*
G36*
X66007D02*
X65489D01*
X65012Y64094D01*
X64646Y63728D01*
X64448Y63251D01*
Y62734D01*
X64646Y62256D01*
X65012Y61890D01*
X65489Y61692D01*
X66007D01*
X66484Y61890D01*
X66850Y62256D01*
X67048Y62734D01*
Y63251D01*
X66850Y63728D01*
X66484Y64094D01*
X66007Y64292D01*
D02*
G37*
G36*
X62857D02*
X62340D01*
X61862Y64094D01*
X61496Y63728D01*
X61298Y63251D01*
Y62734D01*
X61496Y62256D01*
X61862Y61890D01*
X62340Y61692D01*
X62857D01*
X63335Y61890D01*
X63700Y62256D01*
X63898Y62734D01*
Y63251D01*
X63700Y63728D01*
X63335Y64094D01*
X62857Y64292D01*
D02*
G37*
G36*
X56558D02*
X56041D01*
X55563Y64094D01*
X55197Y63728D01*
X54999Y63251D01*
Y62734D01*
X55197Y62256D01*
X55563Y61890D01*
X56041Y61692D01*
X56558D01*
X57036Y61890D01*
X57401Y62256D01*
X57599Y62734D01*
Y63251D01*
X57401Y63728D01*
X57036Y64094D01*
X56558Y64292D01*
D02*
G37*
G36*
X53408D02*
X52891D01*
X52413Y64094D01*
X52047Y63728D01*
X51850Y63251D01*
Y62734D01*
X52047Y62256D01*
X52413Y61890D01*
X52891Y61692D01*
X53408D01*
X53886Y61890D01*
X54252Y62256D01*
X54450Y62734D01*
Y63251D01*
X54252Y63728D01*
X53886Y64094D01*
X53408Y64292D01*
D02*
G37*
G36*
X47109D02*
X46592D01*
X46114Y64094D01*
X45748Y63728D01*
X45550Y63251D01*
Y62734D01*
X45748Y62256D01*
X46114Y61890D01*
X46592Y61692D01*
X47109D01*
X47587Y61890D01*
X47952Y62256D01*
X48150Y62734D01*
Y63251D01*
X47952Y63728D01*
X47587Y64094D01*
X47109Y64292D01*
D02*
G37*
G36*
X84904Y61142D02*
X84387D01*
X83909Y60945D01*
X83544Y60579D01*
X83346Y60101D01*
Y59584D01*
X83544Y59106D01*
X83909Y58740D01*
X84387Y58543D01*
X84904D01*
X85382Y58740D01*
X85748Y59106D01*
X85946Y59584D01*
Y60101D01*
X85748Y60579D01*
X85382Y60945D01*
X84904Y61142D01*
D02*
G37*
G36*
X81755D02*
X81238D01*
X80760Y60945D01*
X80394Y60579D01*
X80196Y60101D01*
Y59584D01*
X80394Y59106D01*
X80760Y58740D01*
X81238Y58543D01*
X81755D01*
X82232Y58740D01*
X82598Y59106D01*
X82796Y59584D01*
Y60101D01*
X82598Y60579D01*
X82232Y60945D01*
X81755Y61142D01*
D02*
G37*
G36*
X72306D02*
X71789D01*
X71311Y60945D01*
X70945Y60579D01*
X70747Y60101D01*
Y59584D01*
X70945Y59106D01*
X71311Y58740D01*
X71789Y58543D01*
X72306D01*
X72784Y58740D01*
X73149Y59106D01*
X73347Y59584D01*
Y60101D01*
X73149Y60579D01*
X72784Y60945D01*
X72306Y61142D01*
D02*
G37*
G36*
X69156D02*
X68639D01*
X68161Y60945D01*
X67795Y60579D01*
X67598Y60101D01*
Y59584D01*
X67795Y59106D01*
X68161Y58740D01*
X68639Y58543D01*
X69156D01*
X69634Y58740D01*
X70000Y59106D01*
X70198Y59584D01*
Y60101D01*
X70000Y60579D01*
X69634Y60945D01*
X69156Y61142D01*
D02*
G37*
G36*
X66007D02*
X65489D01*
X65012Y60945D01*
X64646Y60579D01*
X64448Y60101D01*
Y59584D01*
X64646Y59106D01*
X65012Y58740D01*
X65489Y58543D01*
X66007D01*
X66484Y58740D01*
X66850Y59106D01*
X67048Y59584D01*
Y60101D01*
X66850Y60579D01*
X66484Y60945D01*
X66007Y61142D01*
D02*
G37*
G36*
X62857D02*
X62340D01*
X61862Y60945D01*
X61496Y60579D01*
X61298Y60101D01*
Y59584D01*
X61496Y59106D01*
X61862Y58740D01*
X62340Y58543D01*
X62857D01*
X63335Y58740D01*
X63700Y59106D01*
X63898Y59584D01*
Y60101D01*
X63700Y60579D01*
X63335Y60945D01*
X62857Y61142D01*
D02*
G37*
G36*
X56558D02*
X56041D01*
X55563Y60945D01*
X55197Y60579D01*
X54999Y60101D01*
Y59584D01*
X55197Y59106D01*
X55563Y58740D01*
X56041Y58543D01*
X56558D01*
X57036Y58740D01*
X57401Y59106D01*
X57599Y59584D01*
Y60101D01*
X57401Y60579D01*
X57036Y60945D01*
X56558Y61142D01*
D02*
G37*
G36*
X53408D02*
X52891D01*
X52413Y60945D01*
X52047Y60579D01*
X51850Y60101D01*
Y59584D01*
X52047Y59106D01*
X52413Y58740D01*
X52891Y58543D01*
X53408D01*
X53886Y58740D01*
X54252Y59106D01*
X54450Y59584D01*
Y60101D01*
X54252Y60579D01*
X53886Y60945D01*
X53408Y61142D01*
D02*
G37*
G36*
X47109D02*
X46592D01*
X46114Y60945D01*
X45748Y60579D01*
X45550Y60101D01*
Y59584D01*
X45748Y59106D01*
X46114Y58740D01*
X46592Y58543D01*
X47109D01*
X47587Y58740D01*
X47952Y59106D01*
X48150Y59584D01*
Y60101D01*
X47952Y60579D01*
X47587Y60945D01*
X47109Y61142D01*
D02*
G37*
G36*
X69156Y57993D02*
X68639D01*
X68161Y57795D01*
X67795Y57429D01*
X67598Y56951D01*
Y56434D01*
X67795Y55957D01*
X68161Y55591D01*
X68639Y55393D01*
X69156D01*
X69634Y55591D01*
X70000Y55957D01*
X70198Y56434D01*
Y56951D01*
X70000Y57429D01*
X69634Y57795D01*
X69156Y57993D01*
D02*
G37*
G36*
X66007D02*
X65489D01*
X65012Y57795D01*
X64646Y57429D01*
X64448Y56951D01*
Y56434D01*
X64646Y55957D01*
X65012Y55591D01*
X65489Y55393D01*
X66007D01*
X66484Y55591D01*
X66850Y55957D01*
X67048Y56434D01*
Y56951D01*
X66850Y57429D01*
X66484Y57795D01*
X66007Y57993D01*
D02*
G37*
G36*
X62857D02*
X62340D01*
X61862Y57795D01*
X61496Y57429D01*
X61298Y56951D01*
Y56434D01*
X61496Y55957D01*
X61862Y55591D01*
X62340Y55393D01*
X62857D01*
X63335Y55591D01*
X63700Y55957D01*
X63898Y56434D01*
Y56951D01*
X63700Y57429D01*
X63335Y57795D01*
X62857Y57993D01*
D02*
G37*
G36*
X56558D02*
X56041D01*
X55563Y57795D01*
X55197Y57429D01*
X54999Y56951D01*
Y56434D01*
X55197Y55957D01*
X55563Y55591D01*
X56041Y55393D01*
X56558D01*
X57036Y55591D01*
X57401Y55957D01*
X57599Y56434D01*
Y56951D01*
X57401Y57429D01*
X57036Y57795D01*
X56558Y57993D01*
D02*
G37*
G36*
X53408D02*
X52891D01*
X52413Y57795D01*
X52047Y57429D01*
X51850Y56951D01*
Y56434D01*
X52047Y55957D01*
X52413Y55591D01*
X52891Y55393D01*
X53408D01*
X53886Y55591D01*
X54252Y55957D01*
X54450Y56434D01*
Y56951D01*
X54252Y57429D01*
X53886Y57795D01*
X53408Y57993D01*
D02*
G37*
G36*
X51833Y54843D02*
X51316D01*
X50838Y54645D01*
X50473Y54280D01*
X50275Y53802D01*
Y53285D01*
X50473Y52807D01*
X50838Y52441D01*
X51316Y52243D01*
X51833D01*
X52311Y52441D01*
X52677Y52807D01*
X52875Y53285D01*
Y53802D01*
X52677Y54280D01*
X52311Y54645D01*
X51833Y54843D01*
D02*
G37*
G36*
X69156Y51694D02*
X68639D01*
X68161Y51496D01*
X67795Y51130D01*
X67598Y50652D01*
Y50135D01*
X67795Y49657D01*
X68161Y49292D01*
X68639Y49094D01*
X69156D01*
X69634Y49292D01*
X70000Y49657D01*
X70198Y50135D01*
Y50652D01*
X70000Y51130D01*
X69634Y51496D01*
X69156Y51694D01*
D02*
G37*
G36*
X66007D02*
X65489D01*
X65012Y51496D01*
X64646Y51130D01*
X64448Y50652D01*
Y50135D01*
X64646Y49657D01*
X65012Y49292D01*
X65489Y49094D01*
X66007D01*
X66484Y49292D01*
X66850Y49657D01*
X67048Y50135D01*
Y50652D01*
X66850Y51130D01*
X66484Y51496D01*
X66007Y51694D01*
D02*
G37*
G36*
X62857D02*
X62340D01*
X61862Y51496D01*
X61496Y51130D01*
X61298Y50652D01*
Y50135D01*
X61496Y49657D01*
X61862Y49292D01*
X62340Y49094D01*
X62857D01*
X63335Y49292D01*
X63700Y49657D01*
X63898Y50135D01*
Y50652D01*
X63700Y51130D01*
X63335Y51496D01*
X62857Y51694D01*
D02*
G37*
G36*
X56558D02*
X56041D01*
X55563Y51496D01*
X55197Y51130D01*
X54999Y50652D01*
Y50135D01*
X55197Y49657D01*
X55563Y49292D01*
X56041Y49094D01*
X56558D01*
X57036Y49292D01*
X57401Y49657D01*
X57599Y50135D01*
Y50652D01*
X57401Y51130D01*
X57036Y51496D01*
X56558Y51694D01*
D02*
G37*
G36*
X53408D02*
X52891D01*
X52413Y51496D01*
X52047Y51130D01*
X51850Y50652D01*
Y50135D01*
X52047Y49657D01*
X52413Y49292D01*
X52891Y49094D01*
X53408D01*
X53886Y49292D01*
X54252Y49657D01*
X54450Y50135D01*
Y50652D01*
X54252Y51130D01*
X53886Y51496D01*
X53408Y51694D01*
D02*
G37*
G36*
X47109D02*
X46592D01*
X46114Y51496D01*
X45748Y51130D01*
X45550Y50652D01*
Y50135D01*
X45748Y49657D01*
X46114Y49292D01*
X46592Y49094D01*
X47109D01*
X47587Y49292D01*
X47952Y49657D01*
X48150Y50135D01*
Y50652D01*
X47952Y51130D01*
X47587Y51496D01*
X47109Y51694D01*
D02*
G37*
G36*
X69156Y48544D02*
X68639D01*
X68161Y48346D01*
X67795Y47980D01*
X67598Y47503D01*
Y46986D01*
X67795Y46508D01*
X68161Y46142D01*
X68639Y45944D01*
X69156D01*
X69634Y46142D01*
X70000Y46508D01*
X70198Y46986D01*
Y47503D01*
X70000Y47980D01*
X69634Y48346D01*
X69156Y48544D01*
D02*
G37*
G36*
X66007D02*
X65489D01*
X65012Y48346D01*
X64646Y47980D01*
X64448Y47503D01*
Y46986D01*
X64646Y46508D01*
X65012Y46142D01*
X65489Y45944D01*
X66007D01*
X66484Y46142D01*
X66850Y46508D01*
X67048Y46986D01*
Y47503D01*
X66850Y47980D01*
X66484Y48346D01*
X66007Y48544D01*
D02*
G37*
G36*
X62857D02*
X62340D01*
X61862Y48346D01*
X61496Y47980D01*
X61298Y47503D01*
Y46986D01*
X61496Y46508D01*
X61862Y46142D01*
X62340Y45944D01*
X62857D01*
X63335Y46142D01*
X63700Y46508D01*
X63898Y46986D01*
Y47503D01*
X63700Y47980D01*
X63335Y48346D01*
X62857Y48544D01*
D02*
G37*
G36*
X56558D02*
X56041D01*
X55563Y48346D01*
X55197Y47980D01*
X54999Y47503D01*
Y46986D01*
X55197Y46508D01*
X55563Y46142D01*
X56041Y45944D01*
X56558D01*
X57036Y46142D01*
X57401Y46508D01*
X57599Y46986D01*
Y47503D01*
X57401Y47980D01*
X57036Y48346D01*
X56558Y48544D01*
D02*
G37*
G36*
X53408D02*
X52891D01*
X52413Y48346D01*
X52047Y47980D01*
X51850Y47503D01*
Y46986D01*
X52047Y46508D01*
X52413Y46142D01*
X52891Y45944D01*
X53408D01*
X53886Y46142D01*
X54252Y46508D01*
X54450Y46986D01*
Y47503D01*
X54252Y47980D01*
X53886Y48346D01*
X53408Y48544D01*
D02*
G37*
G36*
X47109D02*
X46592D01*
X46114Y48346D01*
X45748Y47980D01*
X45550Y47503D01*
Y46986D01*
X45748Y46508D01*
X46114Y46142D01*
X46592Y45944D01*
X47109D01*
X47587Y46142D01*
X47952Y46508D01*
X48150Y46986D01*
Y47503D01*
X47952Y47980D01*
X47587Y48346D01*
X47109Y48544D01*
D02*
G37*
G36*
X69156Y42245D02*
X68639D01*
X68161Y42047D01*
X67795Y41681D01*
X67598Y41203D01*
Y40686D01*
X67795Y40209D01*
X68161Y39843D01*
X68639Y39645D01*
X69156D01*
X69634Y39843D01*
X70000Y40209D01*
X70198Y40686D01*
Y41203D01*
X70000Y41681D01*
X69634Y42047D01*
X69156Y42245D01*
D02*
G37*
G36*
X66007D02*
X65489D01*
X65012Y42047D01*
X64646Y41681D01*
X64448Y41203D01*
Y40686D01*
X64646Y40209D01*
X65012Y39843D01*
X65489Y39645D01*
X66007D01*
X66484Y39843D01*
X66850Y40209D01*
X67048Y40686D01*
Y41203D01*
X66850Y41681D01*
X66484Y42047D01*
X66007Y42245D01*
D02*
G37*
G36*
X56558D02*
X56041D01*
X55563Y42047D01*
X55197Y41681D01*
X54999Y41203D01*
Y40686D01*
X55197Y40209D01*
X55563Y39843D01*
X56041Y39645D01*
X56558D01*
X57036Y39843D01*
X57401Y40209D01*
X57599Y40686D01*
Y41203D01*
X57401Y41681D01*
X57036Y42047D01*
X56558Y42245D01*
D02*
G37*
G36*
X53408D02*
X52891D01*
X52413Y42047D01*
X52047Y41681D01*
X51850Y41203D01*
Y40686D01*
X52047Y40209D01*
X52413Y39843D01*
X52891Y39645D01*
X53408D01*
X53886Y39843D01*
X54252Y40209D01*
X54450Y40686D01*
Y41203D01*
X54252Y41681D01*
X53886Y42047D01*
X53408Y42245D01*
D02*
G37*
%LPD*%
D98*
X99665Y203425D02*
D03*
X20413D02*
D03*
D112*
X91378Y11673D02*
D03*
X51378Y15673D02*
D03*
Y7673D02*
D03*
D120*
X110236Y9843D02*
D03*
X104331Y157480D02*
D03*
X9843Y9843D02*
D03*
D121*
X8900Y52300D02*
D03*
X64567Y222835D02*
D03*
X71260Y220472D02*
D03*
X21366Y50787D02*
D03*
X5600Y41200D02*
D03*
X95200Y57500D02*
D03*
X112200Y103900D02*
D03*
Y111900D02*
D03*
X112000Y119800D02*
D03*
X70600Y210600D02*
D03*
X66000Y210800D02*
D03*
X68300Y213200D02*
D03*
X74800Y212300D02*
D03*
X70790Y215146D02*
D03*
X77900Y212300D02*
D03*
X11100Y173100D02*
D03*
X58800Y195063D02*
D03*
X10500Y224100D02*
D03*
X12700Y177300D02*
D03*
X14800Y179400D02*
D03*
X99700Y145400D02*
D03*
X85000Y158800D02*
D03*
X106169Y147983D02*
D03*
X97000Y150100D02*
D03*
X88600Y141100D02*
D03*
X95700Y141600D02*
D03*
X98900Y139100D02*
D03*
X76900Y140200D02*
D03*
X79700Y143100D02*
D03*
X21300Y159100D02*
D03*
X41800Y132687D02*
D03*
X23600Y138500D02*
D03*
X73003Y134425D02*
D03*
X15500Y125300D02*
D03*
X105755Y103925D02*
D03*
X15719Y144825D02*
D03*
X19500Y183100D02*
D03*
X60236Y222835D02*
D03*
X55905D02*
D03*
X34100Y217900D02*
D03*
X51575Y222835D02*
D03*
X46457D02*
D03*
X10600Y219400D02*
D03*
X42126Y222835D02*
D03*
X31600Y221700D02*
D03*
X11442Y192158D02*
D03*
X12500Y161600D02*
D03*
X21251Y172851D02*
D03*
X21100Y169000D02*
D03*
X11700Y55500D02*
D03*
X10400Y58700D02*
D03*
X20925Y100200D02*
D03*
X11800Y92500D02*
D03*
X26800Y98300D02*
D03*
X26400Y102900D02*
D03*
X22800Y118000D02*
D03*
X22100Y115000D02*
D03*
X22500Y111900D02*
D03*
X22000Y108800D02*
D03*
X27100Y126500D02*
D03*
X27953Y123228D02*
D03*
X22441Y121653D02*
D03*
X12100Y149400D02*
D03*
X15800Y162000D02*
D03*
X23800Y146900D02*
D03*
X22100Y64800D02*
D03*
X42200Y163483D02*
D03*
X41800Y151000D02*
D03*
Y147900D02*
D03*
Y144500D02*
D03*
Y141200D02*
D03*
Y137600D02*
D03*
X40551Y159055D02*
D03*
X48200Y19000D02*
D03*
X25300Y175100D02*
D03*
X28400Y175200D02*
D03*
X12700Y20000D02*
D03*
X98000Y166200D02*
D03*
X89800Y98700D02*
D03*
X93800Y98800D02*
D03*
X96000Y100700D02*
D03*
X99900Y99100D02*
D03*
X9570Y30670D02*
D03*
X37200Y13500D02*
D03*
X46700Y14900D02*
D03*
X57700Y20800D02*
D03*
X31000Y15900D02*
D03*
X101793Y210399D02*
D03*
X107900Y199100D02*
D03*
X96850Y8268D02*
D03*
X113100Y28500D02*
D03*
X115800Y30600D02*
D03*
X115700Y33800D02*
D03*
X112600Y35900D02*
D03*
X108800Y22700D02*
D03*
X80000Y19300D02*
D03*
X71590Y165914D02*
D03*
X91732Y221260D02*
D03*
X81544Y218311D02*
D03*
X60236Y213654D02*
D03*
X44457Y213796D02*
D03*
X101073Y224016D02*
D03*
X116535Y206693D02*
D03*
X105905Y201969D02*
D03*
X108455Y188770D02*
D03*
X108661Y195669D02*
D03*
X99575Y131306D02*
D03*
X100766Y43722D02*
D03*
X80378Y222277D02*
D03*
X96456Y216141D02*
D03*
X96850Y212992D02*
D03*
X93701Y218504D02*
D03*
X92886Y215382D02*
D03*
X81496Y172835D02*
D03*
X89370Y173301D02*
D03*
X114746Y195783D02*
D03*
X94095Y201575D02*
D03*
X103321Y197730D02*
D03*
X105702Y107087D02*
D03*
X100102Y107663D02*
D03*
X98277Y103395D02*
D03*
X81934Y98469D02*
D03*
X8268Y38583D02*
D03*
X4331Y217717D02*
D03*
Y211417D02*
D03*
Y214567D02*
D03*
X12598Y200000D02*
D03*
X27165Y200661D02*
D03*
X16535Y183858D02*
D03*
X111811Y132677D02*
D03*
X102362Y30709D02*
D03*
X95669Y24409D02*
D03*
X57874Y118110D02*
D03*
X58268Y114961D02*
D03*
X52250Y117784D02*
D03*
X79465Y159055D02*
D03*
X78347Y190354D02*
D03*
X76378Y187992D02*
D03*
X80315D02*
D03*
X113044Y48425D02*
D03*
X112992Y60630D02*
D03*
X109843Y148031D02*
D03*
X62598Y174409D02*
D03*
X67716Y168110D02*
D03*
X73601Y168597D02*
D03*
X75197Y171260D02*
D03*
X65863Y89485D02*
D03*
X47539Y195560D02*
D03*
X74016Y101325D02*
D03*
X76772Y102362D02*
D03*
X96215Y125421D02*
D03*
X113266Y81890D02*
D03*
X70866Y107480D02*
D03*
X57480Y107874D02*
D03*
X105905Y29921D02*
D03*
X87795Y196063D02*
D03*
X48701Y167723D02*
D03*
X51181Y169291D02*
D03*
X48962Y171403D02*
D03*
X45276Y170079D02*
D03*
X21654Y91339D02*
D03*
X21260Y94488D02*
D03*
X96063Y128347D02*
D03*
X86221Y4331D02*
D03*
X61024Y152022D02*
D03*
X61811Y138583D02*
D03*
X61417Y142913D02*
D03*
X24016Y190945D02*
D03*
X47638Y189370D02*
D03*
X110630Y168110D02*
D03*
X82677Y170079D02*
D03*
X56331Y129528D02*
D03*
X57087Y126378D02*
D03*
X73555Y2322D02*
D03*
X53937Y2756D02*
D03*
X111417Y88583D02*
D03*
X79134Y155905D02*
D03*
X80315Y151181D02*
D03*
X79921Y146850D02*
D03*
X65354Y162992D02*
D03*
X61024Y155118D02*
D03*
X62992Y157874D02*
D03*
X70866Y169685D02*
D03*
X102967Y111458D02*
D03*
X89370Y219291D02*
D03*
X96457Y188189D02*
D03*
X71260Y197638D02*
D03*
X74803D02*
D03*
X66535Y195669D02*
D03*
X61024Y164173D02*
D03*
Y160236D02*
D03*
X44882Y173622D02*
D03*
X26772Y17323D02*
D03*
X3937Y24016D02*
D03*
X4331Y27559D02*
D03*
X43701Y101181D02*
D03*
X43307Y98032D02*
D03*
X91032Y129614D02*
D03*
X88981Y127564D02*
D03*
X56693Y104724D02*
D03*
X39370Y99213D02*
D03*
X22835Y84252D02*
D03*
X22047Y71260D02*
D03*
X74016Y98425D02*
D03*
X95669Y83071D02*
D03*
X97638Y133465D02*
D03*
X114800Y41893D02*
D03*
X113779Y38583D02*
D03*
X94898Y69291D02*
D03*
X72441Y122047D02*
D03*
X71260Y124803D02*
D03*
X100787Y20472D02*
D03*
X34646Y15748D02*
D03*
X99980Y88728D02*
D03*
X96457Y38189D02*
D03*
X56783Y97502D02*
D03*
X57008Y100394D02*
D03*
X58661Y110630D02*
D03*
X24016Y44094D02*
D03*
X107677Y129134D02*
D03*
X60236Y91732D02*
D03*
X71653Y117717D02*
D03*
X68650Y117601D02*
D03*
X66535Y140157D02*
D03*
X75984Y4331D02*
D03*
X70472Y3937D02*
D03*
X58268D02*
D03*
X64173Y19291D02*
D03*
X76378D02*
D03*
X86221D02*
D03*
X110236Y32283D02*
D03*
X96850Y31890D02*
D03*
X98713Y136158D02*
D03*
X67716Y188189D02*
D03*
X103543Y172047D02*
D03*
X79921Y133858D02*
D03*
X60630Y133465D02*
D03*
X100394Y113779D02*
D03*
X104331Y114567D02*
D03*
X103937Y117717D02*
D03*
X46659Y126054D02*
D03*
X80709Y127165D02*
D03*
X82759Y129216D02*
D03*
X38473Y127843D02*
D03*
X36422Y125792D02*
D03*
X44882Y128347D02*
D03*
X72047Y112205D02*
D03*
X69291Y114173D02*
D03*
D122*
X37402Y31496D02*
D03*
Y34646D02*
D03*
X81500Y47300D02*
D03*
X92200Y56600D02*
D03*
X34252Y34646D02*
D03*
Y31496D02*
D03*
X31102Y34646D02*
D03*
Y31496D02*
D03*
X34252Y25197D02*
D03*
Y28346D02*
D03*
X93100Y75834D02*
D03*
X26600Y36000D02*
D03*
X28200Y40900D02*
D03*
X34252Y40945D02*
D03*
X94564Y47144D02*
D03*
X88976Y88976D02*
D03*
X78445Y75689D02*
D03*
X26403Y86577D02*
D03*
X27049Y83071D02*
D03*
X26772Y64567D02*
D03*
X55512Y23622D02*
D03*
X25984Y72441D02*
D03*
X61811Y21260D02*
D03*
X69291D02*
D03*
X34646Y88976D02*
D03*
X37402Y66142D02*
D03*
X94882Y44488D02*
D03*
X87795Y75590D02*
D03*
X84646Y72441D02*
D03*
X59449Y28346D02*
D03*
X31102Y81890D02*
D03*
X30315Y59842D02*
D03*
X31102Y47244D02*
D03*
Y44094D02*
D03*
X68898Y25197D02*
D03*
X31102Y53543D02*
D03*
X65748Y81890D02*
D03*
X51575Y53543D02*
D03*
X90945Y85039D02*
D03*
X31102D02*
D03*
X90945Y25197D02*
D03*
X31102D02*
D03*
X87795Y85039D02*
D03*
X90945Y81890D02*
D03*
Y28346D02*
D03*
X87795Y25197D02*
D03*
X31102Y28346D02*
D03*
Y78740D02*
D03*
X37402Y25197D02*
D03*
X34252Y81890D02*
D03*
X87795Y28346D02*
D03*
X40551Y85039D02*
D03*
X90945Y34646D02*
D03*
X31102Y75590D02*
D03*
X40551Y25197D02*
D03*
X34252Y78740D02*
D03*
X87795Y31496D02*
D03*
X37402Y28346D02*
D03*
X78347Y25197D02*
D03*
X31102Y37795D02*
D03*
X43701Y25197D02*
D03*
X81496Y78740D02*
D03*
X40551Y81890D02*
D03*
X87795Y34646D02*
D03*
X40551Y28346D02*
D03*
X46850Y85039D02*
D03*
X90945Y40945D02*
D03*
X31102Y69291D02*
D03*
X75197Y25197D02*
D03*
X46850D02*
D03*
X72047Y85039D02*
D03*
X90945Y66142D02*
D03*
X50000Y85039D02*
D03*
X90945Y44094D02*
D03*
X72047Y25197D02*
D03*
X50000D02*
D03*
X43701Y81890D02*
D03*
X78347Y28346D02*
D03*
X34252Y37795D02*
D03*
X43701Y28346D02*
D03*
X68898Y85039D02*
D03*
X53150D02*
D03*
X90945Y62992D02*
D03*
Y47244D02*
D03*
X40551Y78740D02*
D03*
X31102Y62992D02*
D03*
X84646Y34646D02*
D03*
X53150Y28346D02*
D03*
X40551Y31496D02*
D03*
X65748Y85039D02*
D03*
X56299D02*
D03*
X90945Y50394D02*
D03*
X31102D02*
D03*
X65748Y25197D02*
D03*
X62598Y85039D02*
D03*
X31102Y56693D02*
D03*
X87795Y69291D02*
D03*
X46850Y81890D02*
D03*
X87795Y40945D02*
D03*
X75197Y28346D02*
D03*
X46850D02*
D03*
X43701Y78740D02*
D03*
X37402Y37795D02*
D03*
X43701Y31496D02*
D03*
X72047Y81890D02*
D03*
X50000D02*
D03*
X87795Y44094D02*
D03*
X34252Y66142D02*
D03*
X50000Y28346D02*
D03*
X40551Y75590D02*
D03*
Y34646D02*
D03*
X68898Y81890D02*
D03*
X53150D02*
D03*
X87795Y62992D02*
D03*
Y47244D02*
D03*
X34252Y62992D02*
D03*
X56299Y81890D02*
D03*
X84646Y69291D02*
D03*
X87795Y50394D02*
D03*
X34252Y59842D02*
D03*
X75197Y31496D02*
D03*
X65748Y28346D02*
D03*
X37402Y40945D02*
D03*
X46850Y31496D02*
D03*
X62598Y81890D02*
D03*
X34252Y56693D02*
D03*
X81496Y72441D02*
D03*
X43701Y75590D02*
D03*
X40551Y37795D02*
D03*
X43701Y34646D02*
D03*
X72047Y78740D02*
D03*
X84646Y66142D02*
D03*
X50000Y78740D02*
D03*
X84646Y44094D02*
D03*
X72047Y31496D02*
D03*
X50000D02*
D03*
X68898Y78740D02*
D03*
X84646Y62992D02*
D03*
X53150Y78740D02*
D03*
X84646Y47244D02*
D03*
X37402Y62992D02*
D03*
X75197Y75590D02*
D03*
X81496Y69291D02*
D03*
X40551D02*
D03*
X75197Y34646D02*
D03*
X40551Y40945D02*
D03*
X46850Y34646D02*
D03*
X78347Y72441D02*
D03*
X84646Y59842D02*
D03*
X56299Y78740D02*
D03*
X43701Y72441D02*
D03*
X84646Y50394D02*
D03*
X78347Y37795D02*
D03*
X37402Y59842D02*
D03*
X65748Y31496D02*
D03*
X43701Y37795D02*
D03*
X62598Y78740D02*
D03*
X84646Y56693D02*
D03*
X37402D02*
D03*
X62598Y31496D02*
D03*
X72047Y75590D02*
D03*
X81496Y66142D02*
D03*
X50000Y75590D02*
D03*
X81496Y44094D02*
D03*
X40551Y66142D02*
D03*
X50000Y34646D02*
D03*
X75197Y72441D02*
D03*
X78347Y69291D02*
D03*
X46850Y72441D02*
D03*
X43701Y69291D02*
D03*
X78347Y40945D02*
D03*
X75197Y37795D02*
D03*
X43701Y40945D02*
D03*
X46850Y37795D02*
D03*
X68898Y75590D02*
D03*
X53150D02*
D03*
X81496Y62992D02*
D03*
X56299Y75590D02*
D03*
X81496Y59842D02*
D03*
Y50394D02*
D03*
X40551Y59842D02*
D03*
X62598Y75590D02*
D03*
X81496Y56693D02*
D03*
X40551D02*
D03*
X59449Y34646D02*
D03*
X72047Y72441D02*
D03*
X78347Y66142D02*
D03*
X50000Y72441D02*
D03*
X78347Y44094D02*
D03*
X43701Y66142D02*
D03*
X72047Y37795D02*
D03*
X43701Y44094D02*
D03*
X50000Y37795D02*
D03*
X75197Y69291D02*
D03*
X46850D02*
D03*
X75197Y40945D02*
D03*
X46850D02*
D03*
X68898Y72441D02*
D03*
X78347Y62992D02*
D03*
X53150Y72441D02*
D03*
X78347Y47244D02*
D03*
X43701Y62992D02*
D03*
X68898Y37795D02*
D03*
X43701Y47244D02*
D03*
X53150Y37795D02*
D03*
X78347Y59842D02*
D03*
X56299Y72441D02*
D03*
X78347Y50394D02*
D03*
X43701Y59842D02*
D03*
X65748Y37795D02*
D03*
X43701Y50394D02*
D03*
X56299Y37795D02*
D03*
X72047Y69291D02*
D03*
X75197Y66142D02*
D03*
X62598Y72441D02*
D03*
X50000Y69291D02*
D03*
X78347Y56693D02*
D03*
X75197Y44094D02*
D03*
X46850Y66142D02*
D03*
X72047Y40945D02*
D03*
X43701Y56693D02*
D03*
X46850Y44094D02*
D03*
X50000Y40945D02*
D03*
X59449Y37795D02*
D03*
X68898Y69291D02*
D03*
X53150D02*
D03*
X72047Y59842D02*
D03*
X75197Y47244D02*
D03*
X46850Y62992D02*
D03*
X68898Y40945D02*
D03*
X46850Y47244D02*
D03*
X53150Y40945D02*
D03*
X65748Y69291D02*
D03*
X72047Y56693D02*
D03*
X56299Y69291D02*
D03*
X75197Y50394D02*
D03*
X46850Y59842D02*
D03*
X65748Y40945D02*
D03*
X46850Y50394D02*
D03*
X56299Y40945D02*
D03*
X62598Y69291D02*
D03*
X75197Y56693D02*
D03*
X46850D02*
D03*
X59449Y40945D02*
D03*
X68898Y62992D02*
D03*
X53150D02*
D03*
X68898Y47244D02*
D03*
X53150D02*
D03*
X65748Y62992D02*
D03*
X68898Y59842D02*
D03*
X56299Y62992D02*
D03*
X68898Y50394D02*
D03*
X53150Y59842D02*
D03*
X65748Y47244D02*
D03*
X53150Y50394D02*
D03*
X56299Y47244D02*
D03*
X62598Y62992D02*
D03*
X68898Y56693D02*
D03*
X53150D02*
D03*
X62598Y47244D02*
D03*
X65748Y59842D02*
D03*
X56299D02*
D03*
X65748Y50394D02*
D03*
X56299D02*
D03*
X62598Y59842D02*
D03*
X65748Y56693D02*
D03*
X56299D02*
D03*
X62598Y50394D02*
D03*
Y56693D02*
D03*
D123*
X81102Y112992D02*
D03*
X90551D02*
D03*
X85827Y117717D02*
D03*
Y112992D02*
D03*
Y108268D02*
D03*
X31496Y112992D02*
D03*
X40945D02*
D03*
X36220Y117717D02*
D03*
Y112992D02*
D03*
Y108268D02*
D03*
M02*
