G04*
G04 #@! TF.GenerationSoftware,Altium Limited,Altium Designer,21.0.9 (235)*
G04*
G04 Layer_Color=65535*
%FSLAX25Y25*%
%MOIN*%
G70*
G04*
G04 #@! TF.SameCoordinates,4C2DBE1E-8494-471D-9509-704978DB3033*
G04*
G04*
G04 #@! TF.FilePolarity,Positive*
G04*
G01*
G75*
%ADD10C,0.00787*%
%ADD11C,0.00700*%
%ADD12C,0.00984*%
%ADD13C,0.00394*%
%ADD14C,0.00598*%
%ADD15C,0.01968*%
%ADD16C,0.00551*%
%ADD17C,0.00600*%
%ADD18C,0.00500*%
%ADD19C,0.00591*%
%ADD20C,0.01000*%
%ADD21C,0.00800*%
%ADD22C,0.00669*%
%ADD23C,0.00492*%
%ADD24R,0.00295X0.00886*%
%ADD25R,0.00295X0.00591*%
D10*
X9995Y40014D02*
G03*
X9995Y40014I-394J0D01*
G01*
X12165Y200512D02*
G03*
X12165Y200512I-394J0D01*
G01*
X29528Y86614D02*
X92520D01*
Y23622D02*
Y86614D01*
X29528Y23622D02*
X92520D01*
X29528D02*
Y86614D01*
X17324Y30706D02*
Y31494D01*
X20276Y30706D02*
Y31494D01*
X104429Y208703D02*
Y209490D01*
X107382Y208703D02*
Y209490D01*
X15354Y124311D02*
X16142D01*
X15354Y121358D02*
X16142D01*
X108268Y191142D02*
Y195472D01*
X102756Y191142D02*
Y195472D01*
X12205Y61820D02*
X24016D01*
Y73613D01*
X12205D02*
X24016D01*
X12205Y61820D02*
Y73613D01*
X95866Y102953D02*
Y104134D01*
Y121850D02*
Y123031D01*
X75787D02*
X76968D01*
X94685D02*
X95866D01*
X75787Y102953D02*
Y104134D01*
Y121850D02*
Y123031D01*
Y102953D02*
X76968D01*
X94685D02*
X95866D01*
X46260D02*
Y104134D01*
Y121850D02*
Y123031D01*
X26181D02*
X27362D01*
X45079D02*
X46260D01*
X26181Y102953D02*
Y104134D01*
Y121850D02*
Y123031D01*
Y102953D02*
X27362D01*
X45079D02*
X46260D01*
X71653Y184252D02*
X73819D01*
X82874D02*
X85039D01*
X82874Y197638D02*
X85039D01*
X71653D02*
X73819D01*
X71653Y197008D02*
Y197638D01*
Y184252D02*
Y184882D01*
X85039Y184252D02*
Y184882D01*
Y197008D02*
Y197638D01*
X77362Y202165D02*
X77756D01*
X77362Y204921D02*
X77756D01*
X113689Y195587D02*
Y195980D01*
X110933Y195587D02*
Y195980D01*
X89173Y172244D02*
X89567D01*
X89173Y169488D02*
X89567D01*
X23122Y24903D02*
Y25297D01*
X25878Y24903D02*
Y25297D01*
X25000Y206890D02*
Y207283D01*
X27756Y206890D02*
Y207283D01*
X51662Y176783D02*
Y177176D01*
X54418Y176783D02*
Y177176D01*
X47047Y186811D02*
X47441D01*
X47047Y184055D02*
X47441D01*
X45866Y196260D02*
X62795D01*
Y213189D01*
X45866D02*
X62795D01*
X45866Y196260D02*
Y213189D01*
X64173Y124311D02*
X64961D01*
X64173Y121358D02*
X64961D01*
X70755Y131496D02*
Y132283D01*
X67802Y131496D02*
Y132283D01*
X63779Y107776D02*
X64567D01*
X63779Y104823D02*
X64567D01*
X30006Y140576D02*
X30794D01*
X30006Y137624D02*
X30794D01*
X15354Y107776D02*
X16142D01*
X15354Y104823D02*
X16142D01*
X14676Y30706D02*
Y31494D01*
X11724Y30706D02*
Y31494D01*
X57874Y193209D02*
X58661D01*
X57874Y190256D02*
X58661D01*
X111516Y182283D02*
Y183071D01*
X114469Y182283D02*
Y183071D01*
X46850Y190650D02*
X47638D01*
X46850Y193602D02*
X47638D01*
X44783Y200000D02*
Y200787D01*
X41831Y200000D02*
Y200787D01*
X34252Y211713D02*
X35039D01*
X34252Y208760D02*
X35039D01*
X34252Y206594D02*
X35039D01*
X34252Y203642D02*
X35039D01*
X6424Y196306D02*
Y197094D01*
X9376Y196306D02*
Y197094D01*
X89764Y162697D02*
X90551D01*
X89764Y165650D02*
X90551D01*
X14272Y205512D02*
Y206299D01*
X17224Y205512D02*
Y206299D01*
X7698Y160731D02*
Y164669D01*
X19902Y160731D02*
Y164669D01*
X7698Y160731D02*
X19902D01*
X7698Y164669D02*
X19902D01*
X100000Y48425D02*
X111024D01*
X100000Y61811D02*
X111024D01*
X29672Y14702D02*
X38728D01*
X29672Y2498D02*
X38728D01*
X29672D02*
Y14702D01*
X38728Y2498D02*
Y14702D01*
X96260Y72047D02*
X96752D01*
X106398D02*
X106890D01*
Y81398D02*
Y84646D01*
Y72047D02*
Y75295D01*
X96260Y84646D02*
X96752D01*
X106398D02*
X106890D01*
X96260Y72047D02*
Y84646D01*
D11*
X82158Y206530D02*
G03*
X82158Y206530I-100J0D01*
G01*
X11400Y84200D02*
G03*
X11400Y84200I-100J0D01*
G01*
X103500Y221000D02*
G03*
X103500Y221000I-100J0D01*
G01*
X88682Y89801D02*
G03*
X88682Y89801I-100J0D01*
G01*
X33528Y178909D02*
G03*
X33528Y178909I-100J0D01*
G01*
X68567Y112373D02*
G03*
X68567Y112373I-100J0D01*
G01*
Y116310D02*
G03*
X68567Y116310I-100J0D01*
G01*
X83509Y97601D02*
G03*
X83509Y97601I-100J0D01*
G01*
X110000Y19722D02*
G03*
X110000Y19722I-100J0D01*
G01*
X103812D02*
G03*
X103812Y19722I-100J0D01*
G01*
X110969Y45050D02*
G03*
X110969Y45050I-100J0D01*
G01*
X111087Y36389D02*
G03*
X111087Y36389I-100J0D01*
G01*
X102032Y63554D02*
G03*
X102032Y63554I-100J0D01*
G01*
X106830Y65917D02*
G03*
X106830Y65917I-100J0D01*
G01*
X107617Y87233D02*
G03*
X107617Y87233I-100J0D01*
G01*
X84295Y89801D02*
G03*
X84295Y89801I-100J0D01*
G01*
X70010Y97601D02*
G03*
X70010Y97601I-100J0D01*
G01*
X53024Y89013D02*
G03*
X53024Y89013I-100J0D01*
G01*
X101843Y89801D02*
G03*
X101843Y89801I-100J0D01*
G01*
X97456D02*
G03*
X97456Y89801I-100J0D01*
G01*
X93069D02*
G03*
X93069Y89801I-100J0D01*
G01*
X79122Y97601D02*
G03*
X79122Y97601I-100J0D01*
G01*
X71135Y89801D02*
G03*
X71135Y89801I-100J0D01*
G01*
X35477Y89013D02*
G03*
X35477Y89013I-100J0D01*
G01*
X48637D02*
G03*
X48637Y89013I-100J0D01*
G01*
X39863D02*
G03*
X39863Y89013I-100J0D01*
G01*
X34183Y96813D02*
G03*
X34183Y96813I-100J0D01*
G01*
X22709Y89013D02*
G03*
X22709Y89013I-100J0D01*
G01*
X44251D02*
G03*
X44251Y89013I-100J0D01*
G01*
X58011Y102981D02*
G03*
X58011Y102981I-100J0D01*
G01*
X20929Y116310D02*
G03*
X20929Y116310I-100J0D01*
G01*
Y112373D02*
G03*
X20929Y112373I-100J0D01*
G01*
X19400Y94800D02*
G03*
X19400Y94800I-100J0D01*
G01*
X11800Y102200D02*
G03*
X11800Y102200I-100J0D01*
G01*
X7355Y93738D02*
G03*
X7355Y93738I-100J0D01*
G01*
X67985Y141887D02*
G03*
X67985Y141887I-100J0D01*
G01*
X72710D02*
G03*
X72710Y141887I-100J0D01*
G01*
X53418D02*
G03*
X53418Y141887I-100J0D01*
G01*
X49481Y141769D02*
G03*
X49481Y141769I-100J0D01*
G01*
X38514Y149452D02*
G03*
X38514Y149452I-100J0D01*
G01*
X33790D02*
G03*
X33790Y149452I-100J0D01*
G01*
X90089Y149569D02*
G03*
X90089Y149569I-100J0D01*
G01*
X94613D02*
G03*
X94613Y149569I-100J0D01*
G01*
X106568Y178384D02*
G03*
X106568Y178384I-100J0D01*
G01*
X115443Y170335D02*
G03*
X115443Y170335I-100J0D01*
G01*
X68379Y172084D02*
G03*
X68379Y172084I-100J0D01*
G01*
X90089Y214330D02*
G03*
X90089Y214330I-100J0D01*
G01*
X70535Y205680D02*
G03*
X70535Y205680I-100J0D01*
G01*
X21600Y147000D02*
G03*
X21600Y147000I-100J0D01*
G01*
X11300Y154500D02*
G03*
X11300Y154500I-100J0D01*
G01*
X30303Y96813D02*
G03*
X30303Y96813I-100J0D01*
G01*
X7355Y74053D02*
G03*
X7355Y74053I-100J0D01*
G01*
X7749Y60273D02*
G03*
X7749Y60273I-100J0D01*
G01*
X18173Y36946D02*
G03*
X18173Y36946I-100J0D01*
G01*
X16804Y85076D02*
G03*
X16804Y85076I-100J0D01*
G01*
X7355Y84200D02*
G03*
X7355Y84200I-100J0D01*
G01*
X65811Y94657D02*
G03*
X65811Y94657I-100J0D01*
G01*
X900Y174100D02*
X11300D01*
Y191100D01*
X900D02*
X11300D01*
X900Y174100D02*
Y191100D01*
X29900Y215500D02*
Y225900D01*
X12900D02*
X29900D01*
X12900Y215500D02*
Y225900D01*
Y215500D02*
X29900D01*
X94063Y185877D02*
X98063D01*
X94063Y179477D02*
X98063D01*
X109261Y174535D02*
X110442D01*
X109252Y171135D02*
X110433D01*
X30449Y170578D02*
X29949Y171078D01*
X28949D01*
X28449Y170578D01*
Y168579D01*
X28949Y168079D01*
X29949D01*
X30449Y168579D01*
Y169578D01*
X29449D01*
X31449Y168079D02*
Y171078D01*
X32948D01*
X33448Y170578D01*
Y169578D01*
X32948Y169079D01*
X31449D01*
X34448Y171078D02*
X35447D01*
X34947D01*
Y168079D01*
X34448D01*
X35447D01*
X38446Y171078D02*
X37446D01*
X36947Y170578D01*
Y168579D01*
X37446Y168079D01*
X38446D01*
X38946Y168579D01*
Y170578D01*
X38446Y171078D01*
X28699Y162800D02*
X26700D01*
X28699Y164799D01*
Y165299D01*
X28199Y165799D01*
X27200D01*
X26700Y165299D01*
X29699D02*
X30199Y165799D01*
X31199D01*
X31698Y165299D01*
Y164799D01*
X31199Y164299D01*
X31698Y163800D01*
Y163300D01*
X31199Y162800D01*
X30199D01*
X29699Y163300D01*
Y163800D01*
X30199Y164299D01*
X29699Y164799D01*
Y165299D01*
X30199Y164299D02*
X31199D01*
X32698D02*
X34697D01*
X37696Y162800D02*
X35697D01*
X37696Y164799D01*
Y165299D01*
X37197Y165799D01*
X36197D01*
X35697Y165299D01*
X38696Y163300D02*
X39196Y162800D01*
X40196D01*
X40696Y163300D01*
Y165299D01*
X40196Y165799D01*
X39196D01*
X38696Y165299D01*
Y164799D01*
X39196Y164299D01*
X40696D01*
X7601Y217100D02*
X9600D01*
X10600Y218100D01*
X9600Y219099D01*
X7601D01*
Y220099D02*
Y221099D01*
Y220599D01*
X10600D01*
Y220099D01*
Y221099D01*
Y222598D02*
X7601D01*
X10600Y224598D01*
X7601D01*
X2301Y194699D02*
X1801Y194200D01*
Y193200D01*
X2301Y192700D01*
X4300D01*
X4800Y193200D01*
Y194200D01*
X4300Y194699D01*
X3300D01*
Y193700D01*
X4800Y195699D02*
X1801D01*
X4800Y197698D01*
X1801D01*
Y198698D02*
X4800D01*
Y200198D01*
X4300Y200697D01*
X2301D01*
X1801Y200198D01*
Y198698D01*
X1813Y99156D02*
Y97157D01*
X4812D01*
Y99156D01*
X3312Y97157D02*
Y98156D01*
X2313Y102155D02*
X1813Y101655D01*
Y100656D01*
X2313Y100156D01*
X4312D01*
X4812Y100656D01*
Y101655D01*
X4312Y102155D01*
X4812Y103155D02*
X2812D01*
X1813Y104154D01*
X2812Y105154D01*
X4812D01*
X3312D01*
Y103155D01*
X1813Y106154D02*
Y108153D01*
Y107153D01*
X4812D01*
Y112152D02*
X1813D01*
X4812Y114151D01*
X1813D01*
X4812Y115651D02*
Y116650D01*
X4312Y117150D01*
X3312D01*
X2812Y116650D01*
Y115651D01*
X3312Y115151D01*
X4312D01*
X4812Y115651D01*
X1813Y120149D02*
X4812D01*
Y118650D01*
X4312Y118150D01*
X3312D01*
X2812Y118650D01*
Y120149D01*
X4812Y122649D02*
Y121649D01*
X4312Y121149D01*
X3312D01*
X2812Y121649D01*
Y122649D01*
X3312Y123148D01*
X3812D01*
Y121149D01*
X4812Y127147D02*
X1813D01*
Y128647D01*
X2313Y129146D01*
X3312D01*
X3812Y128647D01*
Y127147D01*
Y128147D02*
X4812Y129146D01*
Y130146D02*
Y131146D01*
Y130646D01*
X1813D01*
X2313Y130146D01*
X4812Y132645D02*
X4312D01*
Y133145D01*
X4812D01*
Y132645D01*
Y135144D02*
Y136144D01*
Y135644D01*
X1813D01*
X2313Y135144D01*
X4812Y142642D02*
Y140643D01*
X2812Y142642D01*
X2313D01*
X1813Y142142D01*
Y141142D01*
X2313Y140643D01*
Y143642D02*
X1813Y144141D01*
Y145141D01*
X2313Y145641D01*
X4312D01*
X4812Y145141D01*
Y144141D01*
X4312Y143642D01*
X2313D01*
X4812Y148640D02*
Y146641D01*
X2812Y148640D01*
X2313D01*
X1813Y148140D01*
Y147141D01*
X2313Y146641D01*
X4812Y149640D02*
Y150639D01*
Y150140D01*
X1813D01*
X2313Y149640D01*
X1813Y155138D02*
Y156138D01*
Y155638D01*
X4812D01*
Y155138D01*
Y156138D01*
X1813Y157637D02*
X4812D01*
X3312D01*
Y159636D01*
X1813D01*
X4812D01*
Y160636D02*
X1813D01*
X2812Y161636D01*
X1813Y162636D01*
X4812D01*
X2313Y165635D02*
X1813Y165135D01*
Y164135D01*
X2313Y163635D01*
X4312D01*
X4812Y164135D01*
Y165135D01*
X4312Y165635D01*
X115201Y132999D02*
Y131000D01*
X118200D01*
Y132999D01*
X116700Y131000D02*
Y132000D01*
X115201Y135998D02*
Y133999D01*
X118200D01*
Y135998D01*
X116700Y133999D02*
Y134999D01*
X118200Y136998D02*
X115201D01*
Y138498D01*
X115701Y138997D01*
X116700D01*
X117200Y138498D01*
Y136998D01*
X118200Y139997D02*
X115201D01*
Y141497D01*
X115701Y141996D01*
X116700D01*
X117200Y141497D01*
Y139997D01*
Y140997D02*
X118200Y141996D01*
X115201Y144496D02*
Y143496D01*
X115701Y142996D01*
X117700D01*
X118200Y143496D01*
Y144496D01*
X117700Y144995D01*
X115701D01*
X115201Y144496D01*
X118200Y145995D02*
X115201D01*
X116201Y146995D01*
X115201Y147994D01*
X118200D01*
X105400Y99800D02*
Y101799D01*
X106400Y102799D01*
X107399Y101799D01*
Y99800D01*
Y101300D01*
X105400D01*
X108399Y99800D02*
Y102799D01*
X109399Y101799D01*
X110398Y102799D01*
Y99800D01*
X111398Y102799D02*
Y99800D01*
X112898D01*
X113397Y100300D01*
Y100800D01*
X112898Y101300D01*
X111398D01*
X112898D01*
X113397Y101799D01*
Y102299D01*
X112898Y102799D01*
X111398D01*
X117396D02*
X119395D01*
X118396D01*
Y99800D01*
X119000Y71700D02*
X116001D01*
Y73199D01*
X116501Y73699D01*
X117500D01*
X118000Y73199D01*
Y71700D01*
Y72700D02*
X119000Y73699D01*
X116001Y76698D02*
Y74699D01*
X119000D01*
Y76698D01*
X117500Y74699D02*
Y75699D01*
X116501Y79697D02*
X116001Y79198D01*
Y78198D01*
X116501Y77698D01*
X117001D01*
X117500Y78198D01*
Y79198D01*
X118000Y79697D01*
X118500D01*
X119000Y79198D01*
Y78198D01*
X118500Y77698D01*
X116001Y82696D02*
Y80697D01*
X119000D01*
Y82696D01*
X117500Y80697D02*
Y81697D01*
X116001Y83696D02*
Y85695D01*
Y84696D01*
X119000D01*
X92799Y4499D02*
X91800D01*
X92299D01*
Y2000D01*
X91800Y1500D01*
X91300D01*
X90800Y2000D01*
X93799Y4499D02*
X95798D01*
X94799D01*
Y1500D01*
X96798D02*
Y3499D01*
X97798Y4499D01*
X98797Y3499D01*
Y1500D01*
Y2999D01*
X96798D01*
X101796Y3999D02*
X101297Y4499D01*
X100297D01*
X99797Y3999D01*
Y2000D01*
X100297Y1500D01*
X101297D01*
X101796Y2000D01*
Y2999D01*
X100797D01*
X69200Y163000D02*
Y165999D01*
X70700D01*
X71199Y165499D01*
Y164499D01*
X70700Y164000D01*
X69200D01*
X72199Y163000D02*
X73199D01*
X72699D01*
Y165999D01*
X72199Y165499D01*
X50100Y162800D02*
Y165799D01*
X51600D01*
X52099Y165299D01*
Y164299D01*
X51600Y163800D01*
X50100D01*
X53099Y165299D02*
X53599Y165799D01*
X54599D01*
X55098Y165299D01*
Y163300D01*
X54599Y162800D01*
X53599D01*
X53099Y163300D01*
Y165299D01*
X97000Y166600D02*
Y169599D01*
X98500D01*
X98999Y169099D01*
Y168099D01*
X98500Y167600D01*
X97000D01*
X98000D02*
X98999Y166600D01*
X99999Y168599D02*
Y167100D01*
X100499Y166600D01*
X101998D01*
Y168599D01*
X102998Y166600D02*
Y168599D01*
X104498D01*
X104997Y168099D01*
Y166600D01*
X105997D02*
X107996Y168599D01*
X110995Y169599D02*
X108996D01*
Y166600D01*
X110995D01*
X108996Y168099D02*
X109996D01*
X111995Y168599D02*
Y166600D01*
Y167600D01*
X112495Y168099D01*
X112995Y168599D01*
X113495D01*
X114994D02*
Y166600D01*
Y167600D01*
X115494Y168099D01*
X115994Y168599D01*
X116494D01*
X55699Y170299D02*
X55199Y170799D01*
X54200D01*
X53700Y170299D01*
Y169799D01*
X54200Y169299D01*
X55199D01*
X55699Y168800D01*
Y168300D01*
X55199Y167800D01*
X54200D01*
X53700Y168300D01*
X57199Y170299D02*
Y169799D01*
X56699D01*
X57699D01*
X57199D01*
Y168300D01*
X57699Y167800D01*
X59698Y169799D02*
X60698D01*
X61198Y169299D01*
Y167800D01*
X59698D01*
X59198Y168300D01*
X59698Y168800D01*
X61198D01*
X62697Y170299D02*
Y169799D01*
X62197D01*
X63197D01*
X62697D01*
Y168300D01*
X63197Y167800D01*
X64696Y169799D02*
Y168300D01*
X65196Y167800D01*
X66696D01*
Y169799D01*
X67695Y167800D02*
X69195D01*
X69695Y168300D01*
X69195Y168800D01*
X68195D01*
X67695Y169299D01*
X68195Y169799D01*
X69695D01*
X44019Y212236D02*
X41020D01*
Y210236D01*
Y209237D02*
Y208237D01*
Y208737D01*
X44019D01*
X43519Y209237D01*
D12*
X28051Y83465D02*
G03*
X28051Y83465I-492J0D01*
G01*
X106004Y188287D02*
G03*
X106004Y188287I-492J0D01*
G01*
X14764Y50787D02*
G03*
X14764Y50787I-492J0D01*
G01*
X99114Y106102D02*
G03*
X99114Y106102I-492J0D01*
G01*
X49508D02*
G03*
X49508Y106102I-492J0D01*
G01*
X54823Y193701D02*
G03*
X54823Y193701I-492J0D01*
G01*
X7107Y156893D02*
G03*
X7107Y156893I-492J0D01*
G01*
X95571Y58858D02*
G03*
X95571Y58858I-492J0D01*
G01*
X43058Y1710D02*
G03*
X43058Y1710I-492J0D01*
G01*
X87160Y187177D02*
G03*
X87160Y187177I-197J0D01*
G01*
D13*
X114319Y212351D02*
G03*
X114319Y212351I-197J0D01*
G01*
X70276Y197008D02*
G03*
X70276Y197008I-197J0D01*
G01*
D14*
X48878Y19673D02*
G03*
X46378Y17173I0J-2500D01*
G01*
Y6173D02*
G03*
X48878Y3673I2500J0D01*
G01*
X95478Y9273D02*
G03*
X95478Y14073I-1800J2400D01*
G01*
X87878Y19173D02*
G03*
X86378Y19673I-1500J-2000D01*
G01*
Y3673D02*
G03*
X87878Y4173I0J2500D01*
G01*
D15*
X16142Y64773D02*
G03*
X16142Y64773I-984J0D01*
G01*
D16*
X111102Y146831D02*
G03*
X111102Y146831I-276J0D01*
G01*
D17*
X49144Y139333D02*
G03*
X49144Y139333I-100J0D01*
G01*
X88514D02*
G03*
X88514Y139333I-100J0D01*
G01*
X53024Y214604D02*
G03*
X53024Y214604I-100J0D01*
G01*
X61686D02*
G03*
X61686Y214604I-100J0D01*
G01*
X94420Y214330D02*
G03*
X94420Y214330I-100J0D01*
G01*
X48694Y214604D02*
G03*
X48694Y214604I-100J0D01*
G01*
X44757D02*
G03*
X44757Y214604I-100J0D01*
G01*
X41869Y182509D02*
G03*
X41869Y182509I-100J0D01*
G01*
X40400Y214600D02*
G03*
X40400Y214600I-100J0D01*
G01*
X36100D02*
G03*
X36100Y214600I-100J0D01*
G01*
X66017Y214604D02*
G03*
X66017Y214604I-100J0D01*
G01*
X57355D02*
G03*
X57355Y214604I-100J0D01*
G01*
X87878Y19173D02*
X95378Y14173D01*
X87878Y4173D02*
X95378Y9173D01*
X48878Y19673D02*
X86378D01*
X48878Y3673D02*
X86378D01*
X46378Y6173D02*
Y17173D01*
D18*
X83058Y210430D02*
X84658D01*
X12299Y88100D02*
X13899D01*
X100801Y217100D02*
X102401D01*
X89582Y93701D02*
X91182D01*
X29527Y179908D02*
Y181508D01*
X19878Y201220D02*
X32090D01*
X19878Y183819D02*
X32090D01*
X64567Y113373D02*
Y114973D01*
Y117310D02*
Y118910D01*
X80809Y93700D02*
X82409D01*
X110899Y23622D02*
X112499D01*
X104711D02*
X106311D01*
X106969Y46050D02*
Y47650D01*
X107086Y37388D02*
Y38988D01*
X98031Y64554D02*
Y66154D01*
X110630Y63317D02*
Y64917D01*
X111418Y84634D02*
Y86234D01*
X85195Y93701D02*
X86795D01*
X67311Y93700D02*
X68911D01*
X53924Y92914D02*
X55524D01*
X102743Y93701D02*
X104343D01*
X98356D02*
X99956D01*
X93969D02*
X95569D01*
X76422Y93700D02*
X78022D01*
X72034Y93701D02*
X73634D01*
X36376Y92914D02*
X37976D01*
X49537D02*
X51137D01*
X40763D02*
X42363D01*
X31484Y92913D02*
X33084D01*
X23609Y92914D02*
X25209D01*
X45150D02*
X46750D01*
X61811Y100382D02*
Y101982D01*
X16929Y117310D02*
Y118910D01*
Y113373D02*
Y114973D01*
X15400Y95799D02*
Y97399D01*
X15600Y99601D02*
Y101201D01*
X8254Y97638D02*
X9854D01*
X68884Y145787D02*
X70484D01*
X73609D02*
X75209D01*
X54317D02*
X55918D01*
X50380Y145670D02*
X51981D01*
X46444Y135433D02*
X48044D01*
X35815Y145551D02*
X37415D01*
X31090D02*
X32690D01*
X87390Y145669D02*
X88990D01*
X91914D02*
X93514D01*
X85814Y135433D02*
X87414D01*
X107467Y182284D02*
X109067D01*
X69278Y175985D02*
X70878D01*
X53924Y218504D02*
X55524D01*
X62586D02*
X64186D01*
X91720Y210430D02*
X93320D01*
X87390D02*
X88990D01*
X66535Y206680D02*
Y208280D01*
X49593Y218504D02*
X51193D01*
X45656D02*
X47256D01*
X45670Y179909D02*
Y181509D01*
X17600Y147999D02*
Y149599D01*
X8601Y150600D02*
X10201D01*
X27603Y92913D02*
X29203D01*
X8254Y77953D02*
X9854D01*
X8648Y64174D02*
X10248D01*
X14173Y37945D02*
Y39545D01*
X17703Y88977D02*
X19303D01*
X8254Y88100D02*
X9854D01*
X61811Y95656D02*
Y97256D01*
X41300Y218500D02*
X42900D01*
X37000D02*
X38600D01*
X66916Y218504D02*
X68516D01*
X58255D02*
X59855D01*
D19*
X110039Y207185D02*
X112795D01*
X111417Y207087D02*
X112795Y205709D01*
X110039D02*
X111417Y207087D01*
X110039Y205709D02*
X112795D01*
D20*
X85039Y177165D02*
X118504D01*
X82284Y179921D02*
X85039Y177165D01*
X66929Y179921D02*
X82284D01*
X64173Y177165D02*
X66929Y179921D01*
X56693Y177165D02*
X64173D01*
X15682D02*
X49213D01*
D21*
X106692Y111405D02*
Y116205D01*
X109692D01*
X116292D02*
X119292D01*
Y111405D02*
Y116205D01*
X106692Y111405D02*
Y116205D01*
X109692D01*
X116292D02*
X119292D01*
Y111405D02*
Y116205D01*
D22*
X77165Y160925D02*
X81102D01*
X77165Y167421D02*
X81102D01*
X29646Y150394D02*
Y161417D01*
X37520Y150394D02*
Y161417D01*
X86102Y150394D02*
Y161417D01*
X93976Y150394D02*
Y161417D01*
X67546Y150394D02*
Y161417D01*
X75420Y150394D02*
Y161417D01*
X48202Y150394D02*
Y161417D01*
X56076Y150394D02*
Y161417D01*
D23*
X32598Y156398D02*
X34567D01*
X33583Y156201D02*
X34468Y155315D01*
X32697D02*
X34468D01*
X32697D02*
X33583Y156201D01*
X89055Y156398D02*
X91024D01*
X90039Y156201D02*
X90925Y155315D01*
X89153D02*
X90925D01*
X89153D02*
X90039Y156201D01*
X70499Y156398D02*
X72467D01*
X71483Y156201D02*
X72369Y155315D01*
X70597D02*
X72369D01*
X70597D02*
X71483Y156201D01*
X51155Y156398D02*
X53123D01*
X52139Y156201D02*
X53025Y155315D01*
X51253D02*
X53025D01*
X51253D02*
X52139Y156201D01*
D24*
X33435Y155758D02*
D03*
X89892D02*
D03*
X71335D02*
D03*
X51991D02*
D03*
D25*
X33730Y155610D02*
D03*
X90187D02*
D03*
X71631D02*
D03*
X52287D02*
D03*
M02*
