G04*
G04 #@! TF.GenerationSoftware,Altium Limited,Altium Designer,21.0.9 (235)*
G04*
G04 Layer_Color=32896*
%FSLAX25Y25*%
%MOIN*%
G70*
G04*
G04 #@! TF.SameCoordinates,4C2DBE1E-8494-471D-9509-704978DB3033*
G04*
G04*
G04 #@! TF.FilePolarity,Positive*
G04*
G01*
G75*
%ADD10C,0.00787*%
%ADD11C,0.00700*%
%ADD12C,0.00984*%
%ADD17C,0.00600*%
%ADD18C,0.00500*%
%ADD22C,0.00669*%
%ADD146C,0.00100*%
%ADD147C,0.00040*%
D10*
X24016Y48825D02*
G03*
X24016Y48825I-394J0D01*
G01*
X7249Y200328D02*
Y203872D01*
X13351Y200328D02*
Y203872D01*
X10827Y69488D02*
Y69882D01*
X13583Y69488D02*
Y69882D01*
X112205Y211319D02*
X112992D01*
X112205Y208366D02*
X112992D01*
X33606Y21676D02*
X34394D01*
X33606Y18724D02*
X34394D01*
X29302Y13513D02*
X30090D01*
X29302Y10560D02*
X30090D01*
X41506Y10676D02*
X42294D01*
X41506Y7724D02*
X42294D01*
X14469Y31496D02*
Y32283D01*
X11516Y31496D02*
Y32283D01*
X37008Y50689D02*
X37795D01*
X37008Y47736D02*
X37795D01*
X98819Y54626D02*
X99606D01*
X98819Y51673D02*
X99606D01*
X64173Y124311D02*
X64961D01*
X64173Y121358D02*
X64961D01*
X23417Y226181D02*
X23827D01*
Y214764D02*
Y226181D01*
X23417Y214764D02*
Y226181D01*
Y214764D02*
X23827D01*
X80897Y226181D02*
X81308D01*
Y214764D02*
Y226181D01*
X80897Y214764D02*
Y226181D01*
Y214764D02*
X81308D01*
X102244Y206909D02*
Y207421D01*
X90608D02*
X102244D01*
Y178405D02*
Y199941D01*
X90608Y178405D02*
X102244D01*
X17835Y207421D02*
X29471D01*
X17835Y206909D02*
Y207421D01*
Y178405D02*
Y199941D01*
Y178405D02*
X29471D01*
X109055Y65059D02*
X109843D01*
X109055Y68012D02*
X109843D01*
X98524Y123622D02*
Y124409D01*
X101476Y123622D02*
Y124409D01*
X64173Y104823D02*
X64961D01*
X64173Y107776D02*
X64961D01*
X50098Y125591D02*
Y126378D01*
X53051Y125591D02*
Y126378D01*
X19276Y107806D02*
Y108594D01*
X16324Y107806D02*
Y108594D01*
X22424Y131906D02*
Y132694D01*
X25376Y131906D02*
Y132694D01*
X73327Y91339D02*
Y92126D01*
X76279Y91339D02*
Y92126D01*
X83957Y98425D02*
Y99213D01*
X86910Y98425D02*
Y99213D01*
X92913Y222539D02*
X93701D01*
X92913Y225492D02*
X93701D01*
X106488Y133268D02*
X106898D01*
X106488D02*
Y144685D01*
X106898D01*
Y133268D02*
Y144685D01*
X99213Y81890D02*
X110236D01*
X99213Y68504D02*
X110236D01*
D11*
X44000Y214604D02*
G03*
X44000Y214604I-100J0D01*
G01*
X11981Y64530D02*
G03*
X11981Y64530I-100J0D01*
G01*
X16623D02*
G03*
X16623Y64530I-100J0D01*
G01*
X48357Y214604D02*
G03*
X48357Y214604I-100J0D01*
G01*
X52294D02*
G03*
X52294Y214604I-100J0D01*
G01*
X56624D02*
G03*
X56624Y214604I-100J0D01*
G01*
X6900Y28300D02*
G03*
X6900Y28300I-100J0D01*
G01*
X40614Y46682D02*
G03*
X40614Y46682I-100J0D01*
G01*
X94363Y93664D02*
G03*
X94363Y93664I-100J0D01*
G01*
X77302Y121428D02*
G03*
X77302Y121428I-100J0D01*
G01*
X60955Y214604D02*
G03*
X60955Y214604I-100J0D01*
G01*
X65286D02*
G03*
X65286Y214604I-100J0D01*
G01*
X69617D02*
G03*
X69617Y214604I-100J0D01*
G01*
X39700D02*
G03*
X39700Y214604I-100J0D01*
G01*
X112530Y120116D02*
G03*
X112530Y120116I-100J0D01*
G01*
X107412D02*
G03*
X107412Y120116I-100J0D01*
G01*
X29665Y120641D02*
G03*
X29665Y120641I-100J0D01*
G01*
X81371Y27916D02*
G03*
X81371Y27916I-100J0D01*
G01*
X39113Y17491D02*
G03*
X39113Y17491I-100J0D01*
G01*
X61161Y2137D02*
G03*
X61161Y2137I-100J0D01*
G01*
X49700Y29799D02*
X47701D01*
Y29299D01*
X49700Y27300D01*
Y26800D01*
X47701D01*
X33100Y29699D02*
X31101Y26700D01*
Y29699D02*
X33100Y26700D01*
X46000Y43499D02*
Y42999D01*
X45000Y42000D01*
X44001Y42999D01*
Y43499D01*
X45000Y42000D02*
Y40500D01*
X18800Y55199D02*
X17800D01*
X18300D01*
Y52200D01*
X18800D01*
X17800D01*
X16301D02*
Y55199D01*
X15301Y54199D01*
X14301Y55199D01*
Y52200D01*
X13302Y55199D02*
Y52700D01*
X12802Y52200D01*
X11802D01*
X11302Y52700D01*
Y55199D01*
D12*
X32788Y224213D02*
G03*
X32788Y224213I-492J0D01*
G01*
X90268D02*
G03*
X90268Y224213I-492J0D01*
G01*
X89153Y174587D02*
G03*
X89153Y174587I-492J0D01*
G01*
X98511Y135236D02*
G03*
X98511Y135236I-492J0D01*
G01*
X94784Y71457D02*
G03*
X94784Y71457I-492J0D01*
G01*
D17*
X46459Y28200D02*
G03*
X46459Y28200I-1500J0D01*
G01*
X65336Y130000D02*
G03*
X65336Y130000I-100J0D01*
G01*
X83934D02*
G03*
X83934Y130000I-100J0D01*
G01*
X46439D02*
G03*
X46439Y130000I-100J0D01*
G01*
X28328D02*
G03*
X28328Y130000I-100J0D01*
G01*
X72935Y152323D02*
G03*
X72935Y152323I-100J0D01*
G01*
X90651D02*
G03*
X90651Y152323I-100J0D01*
G01*
X35533D02*
G03*
X35533Y152323I-100J0D01*
G01*
X53643D02*
G03*
X53643Y152323I-100J0D01*
G01*
X44959Y39400D02*
X46177Y38064D01*
X43777D02*
X44959Y39400D01*
X33664Y28182D02*
X35000Y27000D01*
X33664Y28182D02*
X35000Y29400D01*
X33759Y28200D02*
X44959D01*
Y39400D01*
D18*
X41301Y218504D02*
X42901D01*
X12880Y60630D02*
X14480D01*
X17522D02*
X19122D01*
X45657Y218504D02*
X47257D01*
X49594D02*
X51194D01*
X53925D02*
X55525D01*
X7799Y24400D02*
X9399D01*
X19646Y50597D02*
X21654D01*
X19646Y40754D02*
X21654D01*
X9843Y50597D02*
X11850D01*
X9843Y40754D02*
X11850D01*
X36614Y44082D02*
Y45682D01*
X95262Y89763D02*
X96862D01*
X81103Y122428D02*
Y124028D01*
X58256Y218504D02*
X59856D01*
X62586D02*
X64187D01*
X66917D02*
X68517D01*
X37001D02*
X38601D01*
X14961Y18898D02*
Y33858D01*
X27559Y18898D02*
Y33858D01*
X109831Y124016D02*
X111431D01*
X104712D02*
X106312D01*
X33465Y121640D02*
Y123240D01*
X82270Y24015D02*
X83870D01*
X42914Y18491D02*
Y20091D01*
X64961Y3136D02*
Y4736D01*
D22*
X104823Y215361D02*
Y219298D01*
X98327Y215361D02*
Y219298D01*
X77067Y88976D02*
Y92913D01*
X83563Y88976D02*
Y92913D01*
X76457Y137559D02*
Y145905D01*
X64567D02*
X76457D01*
X64567Y137559D02*
X76457D01*
X64567D02*
Y145905D01*
X95054Y137559D02*
Y145905D01*
X83165D02*
X95054D01*
X83165Y137559D02*
X95054D01*
X83165D02*
Y145905D01*
X57559Y137559D02*
Y145905D01*
X45669D02*
X57559D01*
X45669Y137559D02*
Y145905D01*
Y137559D02*
X57559D01*
X39449D02*
Y145905D01*
X27559D02*
X39449D01*
X27559Y137559D02*
Y145905D01*
Y137559D02*
X39449D01*
X70354Y154764D02*
Y163425D01*
X78405Y154724D02*
Y163386D01*
X96122Y154724D02*
Y163386D01*
X88071Y154764D02*
Y163425D01*
X32953Y154764D02*
Y163425D01*
X41004Y154724D02*
Y163386D01*
X59114Y154724D02*
Y163386D01*
X51063Y154764D02*
Y163425D01*
D146*
X21100Y144900D02*
Y145600D01*
X21000Y144800D02*
Y145700D01*
X20900Y144600D02*
Y145900D01*
Y153600D02*
Y154700D01*
X20800Y144500D02*
Y146000D01*
Y153500D02*
Y154800D01*
X20700Y144400D02*
Y146100D01*
Y153500D02*
Y154800D01*
X20600Y144400D02*
Y146200D01*
Y153500D02*
Y154800D01*
X20500Y144300D02*
Y146200D01*
Y153500D02*
Y154800D01*
X20400Y144300D02*
Y146200D01*
Y153500D02*
Y154800D01*
X20300Y144200D02*
Y146300D01*
Y153500D02*
Y154800D01*
X20200Y144200D02*
Y146300D01*
Y153500D02*
Y154800D01*
X20100Y144200D02*
Y146300D01*
Y153500D02*
Y154800D01*
X20000Y144200D02*
Y146300D01*
Y153500D02*
Y154800D01*
X19900Y144200D02*
Y146300D01*
Y153500D02*
Y154800D01*
X19800Y144200D02*
Y146300D01*
Y153500D02*
Y154800D01*
X19700Y144300D02*
Y146200D01*
Y153500D02*
Y154800D01*
X19600Y144300D02*
Y146200D01*
Y150900D02*
Y152100D01*
Y153500D02*
Y154800D01*
X19500Y144400D02*
Y146100D01*
Y150900D02*
Y152200D01*
Y153500D02*
Y154800D01*
X19400Y144500D02*
Y146000D01*
Y150900D02*
Y152100D01*
Y153500D02*
Y154800D01*
X19300Y144600D02*
Y146000D01*
Y147900D02*
Y148100D01*
Y150900D02*
Y152100D01*
Y153500D02*
Y154800D01*
X19200Y144700D02*
Y145800D01*
Y147800D02*
Y148200D01*
Y150900D02*
Y152100D01*
Y153500D02*
Y154800D01*
X19100Y144900D02*
Y145600D01*
Y147700D02*
Y148300D01*
Y150900D02*
Y152100D01*
Y153500D02*
Y154800D01*
X19000Y147600D02*
Y148400D01*
Y150900D02*
Y152100D01*
Y153500D02*
Y154800D01*
X18900Y147500D02*
Y148400D01*
Y150900D02*
Y152100D01*
Y153500D02*
Y154800D01*
X18800Y147300D02*
Y148500D01*
Y150900D02*
Y152100D01*
Y153500D02*
Y154800D01*
X18700Y147200D02*
Y148600D01*
Y150900D02*
Y152100D01*
Y153500D02*
Y154800D01*
X18600Y146900D02*
Y148700D01*
Y150900D02*
Y152100D01*
Y153500D02*
Y154800D01*
X18500Y143300D02*
Y144800D01*
Y146600D02*
Y148800D01*
Y150900D02*
Y152100D01*
Y153500D02*
Y154800D01*
X18400Y142800D02*
Y148800D01*
Y150900D02*
Y152100D01*
Y153500D02*
Y154800D01*
X18300Y142600D02*
Y148700D01*
Y150900D02*
Y152100D01*
Y153500D02*
Y154800D01*
X18200Y142400D02*
Y148600D01*
Y150900D02*
Y152200D01*
Y153500D02*
Y154800D01*
X18100Y142200D02*
Y148600D01*
Y153500D02*
Y154800D01*
X18000Y142000D02*
Y148500D01*
Y153500D02*
Y154800D01*
X17900Y141900D02*
Y148400D01*
Y153500D02*
Y154800D01*
X17800Y141700D02*
Y148300D01*
Y153500D02*
Y154800D01*
X17700Y141600D02*
Y148200D01*
Y153500D02*
Y154800D01*
X17600Y141500D02*
Y148000D01*
Y153500D02*
Y154800D01*
X17500Y141600D02*
Y147800D01*
Y153500D02*
Y154800D01*
X17400Y141700D02*
Y147700D01*
Y153500D02*
Y154800D01*
X17300Y141700D02*
Y147400D01*
Y153500D02*
Y154800D01*
X17200Y141800D02*
Y147100D01*
Y153500D02*
Y154800D01*
X17100Y141900D02*
Y143300D01*
Y144500D02*
Y146600D01*
Y153500D02*
Y154800D01*
Y155500D02*
Y156800D01*
Y161200D02*
Y162600D01*
Y164300D02*
Y165700D01*
Y169600D02*
Y171200D01*
X17000Y141900D02*
Y143000D01*
Y144500D02*
Y146000D01*
Y150900D02*
Y152100D01*
Y153500D02*
Y154800D01*
Y155300D02*
Y157000D01*
Y159200D02*
Y160500D01*
Y161000D02*
Y162800D01*
Y164100D02*
Y165900D01*
Y169400D02*
Y171400D01*
X16900Y142000D02*
Y142800D01*
Y144500D02*
Y145900D01*
Y150900D02*
Y152100D01*
Y153500D02*
Y154800D01*
Y155100D02*
Y157200D01*
Y159200D02*
Y160500D01*
Y160800D02*
Y162900D01*
Y163900D02*
Y166100D01*
Y169100D02*
Y171600D01*
X16800Y142100D02*
Y142700D01*
Y144500D02*
Y146000D01*
Y150900D02*
Y152100D01*
Y153500D02*
Y154800D01*
Y155000D02*
Y157400D01*
Y159200D02*
Y160500D01*
Y160700D02*
Y163100D01*
Y163800D02*
Y166300D01*
Y169000D02*
Y171800D01*
X16700Y142200D02*
Y142500D01*
Y144500D02*
Y146000D01*
Y150900D02*
Y152100D01*
Y153500D02*
Y154800D01*
Y154900D02*
Y157500D01*
Y159200D02*
Y160500D01*
Y160600D02*
Y163200D01*
Y163600D02*
Y166400D01*
Y168800D02*
Y172000D01*
X16600Y142200D02*
Y142400D01*
Y144500D02*
Y145900D01*
Y150900D02*
Y152100D01*
Y153500D02*
Y154700D01*
Y154800D02*
Y157600D01*
Y159200D02*
Y163300D01*
Y163500D02*
Y166500D01*
Y168700D02*
Y172100D01*
X16500Y144500D02*
Y145900D01*
Y150900D02*
Y152100D01*
Y153500D02*
Y157600D01*
Y159200D02*
Y163300D01*
Y163400D02*
Y166500D01*
Y168600D02*
Y172200D01*
X16400Y144500D02*
Y145900D01*
Y150900D02*
Y152100D01*
Y153500D02*
Y157700D01*
Y159200D02*
Y166600D01*
Y168500D02*
Y172300D01*
X16300Y144500D02*
Y145900D01*
Y150900D02*
Y152100D01*
Y153500D02*
Y157800D01*
Y159200D02*
Y166600D01*
Y168400D02*
Y172400D01*
X16200Y144500D02*
Y145900D01*
Y150900D02*
Y152100D01*
Y153500D02*
Y157800D01*
Y159200D02*
Y166700D01*
Y168300D02*
Y172500D01*
X16100Y144500D02*
Y145900D01*
Y150900D02*
Y152100D01*
Y153500D02*
Y157900D01*
Y159200D02*
Y166700D01*
Y168300D02*
Y172600D01*
X16000Y144500D02*
Y145900D01*
Y150900D02*
Y152100D01*
Y153500D02*
Y155600D01*
Y156200D02*
Y157900D01*
Y159200D02*
Y161200D01*
Y161900D02*
Y164400D01*
Y165100D02*
Y166700D01*
Y168200D02*
Y170000D01*
Y170800D02*
Y172600D01*
X15900Y144500D02*
Y145900D01*
Y150900D02*
Y152100D01*
Y153500D02*
Y155400D01*
Y156400D02*
Y157900D01*
Y159200D02*
Y161000D01*
Y162100D02*
Y164200D01*
Y165300D02*
Y166800D01*
Y168100D02*
Y169800D01*
Y171000D02*
Y172600D01*
X15800Y144500D02*
Y145900D01*
Y150900D02*
Y152100D01*
Y153500D02*
Y155200D01*
Y156500D02*
Y157900D01*
Y159200D02*
Y160800D01*
Y162200D02*
Y164000D01*
Y165400D02*
Y166800D01*
Y168100D02*
Y169600D01*
Y171200D02*
Y172400D01*
X15700Y144500D02*
Y145900D01*
Y150900D02*
Y152100D01*
Y153500D02*
Y155100D01*
Y156600D02*
Y158000D01*
Y159200D02*
Y160800D01*
Y162300D02*
Y163900D01*
Y165500D02*
Y166800D01*
Y168000D02*
Y169500D01*
Y171400D02*
Y172300D01*
X15600Y144500D02*
Y145900D01*
Y150900D02*
Y152100D01*
Y153500D02*
Y155000D01*
Y156600D02*
Y158000D01*
Y159200D02*
Y160700D01*
Y162300D02*
Y163800D01*
Y165500D02*
Y166800D01*
Y168000D02*
Y169400D01*
Y171500D02*
Y172200D01*
X15500Y144500D02*
Y145900D01*
Y150900D02*
Y152100D01*
Y153500D02*
Y154900D01*
Y156700D02*
Y158000D01*
Y159200D02*
Y160600D01*
Y162400D02*
Y163800D01*
Y165500D02*
Y166800D01*
Y167900D02*
Y169300D01*
Y171600D02*
Y172000D01*
X15400Y144500D02*
Y145900D01*
Y150900D02*
Y152100D01*
Y153500D02*
Y154900D01*
Y156700D02*
Y158000D01*
Y159200D02*
Y160600D01*
Y162400D02*
Y163700D01*
Y165500D02*
Y166800D01*
Y167900D02*
Y169300D01*
Y171700D02*
Y171900D01*
X15300Y144400D02*
Y145900D01*
Y150900D02*
Y152100D01*
Y153500D02*
Y154900D01*
Y156800D02*
Y158000D01*
Y159200D02*
Y160500D01*
Y162400D02*
Y163700D01*
Y165600D02*
Y166800D01*
Y167900D02*
Y169200D01*
X15200Y144400D02*
Y145900D01*
Y150900D02*
Y152100D01*
Y153500D02*
Y154800D01*
Y156800D02*
Y158000D01*
Y159200D02*
Y160500D01*
Y162400D02*
Y163700D01*
Y165600D02*
Y166800D01*
Y167800D02*
Y169200D01*
X15100Y144400D02*
Y147100D01*
Y150900D02*
Y152100D01*
Y153500D02*
Y154800D01*
Y156800D02*
Y158000D01*
Y159200D02*
Y160500D01*
Y162400D02*
Y163700D01*
Y165600D02*
Y166800D01*
Y167800D02*
Y169100D01*
X15000Y144400D02*
Y147500D01*
Y150900D02*
Y152100D01*
Y153500D02*
Y154800D01*
Y156800D02*
Y158000D01*
Y159200D02*
Y160500D01*
Y162400D02*
Y163700D01*
Y165600D02*
Y166800D01*
Y167800D02*
Y169100D01*
X14900Y144400D02*
Y147700D01*
Y150900D02*
Y152100D01*
Y153500D02*
Y154800D01*
Y156800D02*
Y158000D01*
Y159200D02*
Y160500D01*
Y162400D02*
Y163700D01*
Y165600D02*
Y166800D01*
Y167800D02*
Y169100D01*
X14800Y144300D02*
Y147800D01*
Y150900D02*
Y152100D01*
Y153500D02*
Y154800D01*
Y156800D02*
Y158000D01*
Y159200D02*
Y160500D01*
Y162400D02*
Y163700D01*
Y165600D02*
Y166800D01*
Y167800D02*
Y169100D01*
X14700Y144300D02*
Y147900D01*
Y150900D02*
Y152100D01*
Y153500D02*
Y154800D01*
Y156800D02*
Y158000D01*
Y159200D02*
Y160500D01*
Y162400D02*
Y163700D01*
Y165600D02*
Y166800D01*
Y167700D02*
Y169000D01*
X14600Y144400D02*
Y147900D01*
Y150900D02*
Y152100D01*
Y153500D02*
Y154800D01*
Y156800D02*
Y158000D01*
Y159200D02*
Y160500D01*
Y162400D02*
Y163700D01*
Y165600D02*
Y166800D01*
Y167700D02*
Y169000D01*
X14500Y144300D02*
Y148000D01*
Y150900D02*
Y152100D01*
Y153500D02*
Y154800D01*
Y156800D02*
Y158000D01*
Y159200D02*
Y160500D01*
Y162400D02*
Y163700D01*
Y165600D02*
Y166800D01*
Y167700D02*
Y169000D01*
X14400Y144300D02*
Y148000D01*
Y150900D02*
Y152100D01*
Y153500D02*
Y154800D01*
Y156800D02*
Y158000D01*
Y159200D02*
Y160500D01*
Y162400D02*
Y163700D01*
Y165600D02*
Y166800D01*
Y167700D02*
Y169000D01*
X14300Y144200D02*
Y148100D01*
Y150900D02*
Y152100D01*
Y153500D02*
Y154800D01*
Y156800D02*
Y158000D01*
Y159200D02*
Y160500D01*
Y162400D02*
Y163700D01*
Y165600D02*
Y166800D01*
Y167700D02*
Y169000D01*
X14200Y144200D02*
Y148100D01*
Y150900D02*
Y152100D01*
Y153500D02*
Y154800D01*
Y156800D02*
Y158000D01*
Y159200D02*
Y160500D01*
Y162400D02*
Y163700D01*
Y165600D02*
Y166800D01*
Y167800D02*
Y169100D01*
X14100Y144200D02*
Y148100D01*
Y150900D02*
Y152100D01*
Y153500D02*
Y154800D01*
Y156800D02*
Y158000D01*
Y159200D02*
Y160500D01*
Y162400D02*
Y163700D01*
Y165600D02*
Y166800D01*
Y167800D02*
Y169100D01*
X14000Y144100D02*
Y148100D01*
Y150900D02*
Y152100D01*
Y153500D02*
Y154800D01*
Y156800D02*
Y158000D01*
Y159200D02*
Y160500D01*
Y162400D02*
Y163700D01*
Y165600D02*
Y166800D01*
Y167800D02*
Y169100D01*
X13900Y144100D02*
Y148200D01*
Y150900D02*
Y152100D01*
Y153500D02*
Y154800D01*
Y156800D02*
Y158000D01*
Y159200D02*
Y160500D01*
Y162400D02*
Y163700D01*
Y165600D02*
Y166800D01*
Y167800D02*
Y169100D01*
X13800Y143900D02*
Y148200D01*
Y150900D02*
Y152100D01*
Y153500D02*
Y154800D01*
Y156800D02*
Y158000D01*
Y159200D02*
Y160500D01*
Y162400D02*
Y163700D01*
Y165600D02*
Y166800D01*
Y167800D02*
Y169200D01*
X13700Y143700D02*
Y145800D01*
Y146600D02*
Y148200D01*
Y150900D02*
Y152100D01*
Y153500D02*
Y154800D01*
Y156800D02*
Y158000D01*
Y159200D02*
Y160500D01*
Y162400D02*
Y163700D01*
Y165600D02*
Y166800D01*
Y167900D02*
Y169200D01*
X13600Y143500D02*
Y145600D01*
Y146700D02*
Y148200D01*
Y150900D02*
Y152100D01*
Y153500D02*
Y154800D01*
Y156800D02*
Y158000D01*
Y159200D02*
Y160500D01*
Y162400D02*
Y163700D01*
Y165600D02*
Y166800D01*
Y167900D02*
Y169200D01*
Y171800D02*
Y172000D01*
X13500Y143200D02*
Y145500D01*
Y146800D02*
Y148200D01*
Y150900D02*
Y152100D01*
Y153500D02*
Y154800D01*
Y156800D02*
Y158000D01*
Y159200D02*
Y160500D01*
Y162400D02*
Y163700D01*
Y165600D02*
Y166800D01*
Y167900D02*
Y169300D01*
Y171700D02*
Y172200D01*
X13400Y142900D02*
Y145400D01*
Y146800D02*
Y148200D01*
Y150900D02*
Y152100D01*
Y153500D02*
Y154800D01*
Y156800D02*
Y158000D01*
Y159200D02*
Y160500D01*
Y162400D02*
Y163700D01*
Y165600D02*
Y166800D01*
Y167900D02*
Y169400D01*
Y171600D02*
Y172300D01*
X13300Y142500D02*
Y145400D01*
Y146800D02*
Y148200D01*
Y150900D02*
Y152100D01*
Y153500D02*
Y154800D01*
Y156800D02*
Y158000D01*
Y159200D02*
Y160500D01*
Y162400D02*
Y163700D01*
Y165600D02*
Y166800D01*
Y168000D02*
Y169400D01*
Y171500D02*
Y172400D01*
X13200Y142300D02*
Y145300D01*
Y146800D02*
Y148200D01*
Y150900D02*
Y152100D01*
Y153500D02*
Y154800D01*
Y156800D02*
Y158000D01*
Y159200D02*
Y160500D01*
Y162400D02*
Y163700D01*
Y165600D02*
Y166800D01*
Y168000D02*
Y169600D01*
Y171300D02*
Y172600D01*
X13100Y142300D02*
Y145200D01*
Y146900D02*
Y148300D01*
Y150900D02*
Y152100D01*
Y153500D02*
Y154800D01*
Y156800D02*
Y158000D01*
Y159200D02*
Y160500D01*
Y162400D02*
Y163700D01*
Y165600D02*
Y166800D01*
Y168100D02*
Y169700D01*
Y171200D02*
Y172700D01*
X13000Y142300D02*
Y145100D01*
Y146900D02*
Y148300D01*
Y150900D02*
Y152100D01*
Y153500D02*
Y154800D01*
Y156800D02*
Y158000D01*
Y159200D02*
Y160500D01*
Y162400D02*
Y163700D01*
Y165600D02*
Y166800D01*
Y168100D02*
Y170000D01*
Y170900D02*
Y172700D01*
X12900Y142300D02*
Y145000D01*
Y146900D02*
Y148300D01*
Y150900D02*
Y152100D01*
Y153500D02*
Y154800D01*
Y156800D02*
Y158000D01*
Y159200D02*
Y160500D01*
Y162400D02*
Y163700D01*
Y165600D02*
Y166800D01*
Y168200D02*
Y172700D01*
X12800Y142300D02*
Y144900D01*
Y146900D02*
Y148300D01*
Y150900D02*
Y152100D01*
Y153500D02*
Y154800D01*
Y156800D02*
Y158000D01*
Y159200D02*
Y160500D01*
Y162400D02*
Y163700D01*
Y165600D02*
Y166800D01*
Y168300D02*
Y172600D01*
X12700Y142300D02*
Y144800D01*
Y146900D02*
Y148300D01*
Y150900D02*
Y152100D01*
Y153500D02*
Y154800D01*
Y156800D02*
Y158000D01*
Y159200D02*
Y160500D01*
Y162400D02*
Y163700D01*
Y165600D02*
Y166800D01*
Y168300D02*
Y172500D01*
X12600Y142300D02*
Y144700D01*
Y146900D02*
Y148300D01*
Y150900D02*
Y152100D01*
Y153500D02*
Y154800D01*
Y156800D02*
Y158000D01*
Y159200D02*
Y160500D01*
Y162400D02*
Y163700D01*
Y165600D02*
Y166800D01*
Y168400D02*
Y172400D01*
X12500Y142300D02*
Y144600D01*
Y146900D02*
Y148300D01*
Y150900D02*
Y152100D01*
Y153500D02*
Y154800D01*
Y156800D02*
Y158000D01*
Y159200D02*
Y160500D01*
Y162400D02*
Y163700D01*
Y165600D02*
Y166800D01*
Y168500D02*
Y172300D01*
X12400Y142300D02*
Y144400D01*
Y147000D02*
Y148300D01*
Y150900D02*
Y152100D01*
Y153500D02*
Y154800D01*
Y156800D02*
Y158000D01*
Y159200D02*
Y160500D01*
Y162400D02*
Y163700D01*
Y165600D02*
Y166800D01*
Y168600D02*
Y172100D01*
X12300Y142300D02*
Y144200D01*
Y147000D02*
Y148300D01*
Y150900D02*
Y152100D01*
Y153500D02*
Y154800D01*
Y156800D02*
Y158000D01*
Y159200D02*
Y160500D01*
Y162400D02*
Y163700D01*
Y165600D02*
Y166800D01*
Y168700D02*
Y172000D01*
X12200Y142300D02*
Y143900D01*
Y147000D02*
Y148300D01*
Y150900D02*
Y152100D01*
Y153500D02*
Y154800D01*
Y156800D02*
Y158000D01*
Y159200D02*
Y160500D01*
Y162400D02*
Y163700D01*
Y165600D02*
Y166800D01*
Y168900D02*
Y171900D01*
X12100Y142300D02*
Y143600D01*
Y147000D02*
Y148300D01*
Y150900D02*
Y152100D01*
Y153500D02*
Y154800D01*
Y156800D02*
Y158000D01*
Y159200D02*
Y160500D01*
Y162400D02*
Y163700D01*
Y165600D02*
Y166800D01*
Y169000D02*
Y171700D01*
X12000Y142300D02*
Y143200D01*
Y150900D02*
Y152100D01*
Y153500D02*
Y154800D01*
Y156800D02*
Y158000D01*
Y159200D02*
Y160500D01*
Y162400D02*
Y163700D01*
Y165500D02*
Y166800D01*
Y169200D02*
Y171500D01*
X11900Y142300D02*
Y142500D01*
Y150900D02*
Y152100D01*
Y153500D02*
Y154700D01*
Y156800D02*
Y158000D01*
Y159300D02*
Y160500D01*
Y162500D02*
Y163600D01*
Y165600D02*
Y166800D01*
Y169500D02*
Y171300D01*
X11800Y169800D02*
Y170900D01*
X10700Y142100D02*
Y142500D01*
Y142600D02*
Y142800D01*
Y142900D02*
Y143100D01*
Y143200D02*
Y143900D01*
Y144000D02*
Y144200D01*
Y144300D02*
Y144500D01*
Y144600D02*
Y144800D01*
Y144900D02*
Y145600D01*
Y145700D02*
Y145900D01*
Y146000D02*
Y146200D01*
Y146300D02*
Y146500D01*
Y146600D02*
Y147300D01*
Y147400D02*
Y147600D01*
Y147700D02*
Y147900D01*
Y148000D02*
Y148200D01*
Y148300D02*
Y148500D01*
Y148600D02*
Y149600D01*
Y149700D02*
Y149900D01*
Y150000D02*
Y150200D01*
Y150300D02*
Y151000D01*
Y151100D02*
Y151300D01*
Y151400D02*
Y151600D01*
Y151700D02*
Y151900D01*
Y152000D02*
Y152200D01*
Y152300D02*
Y153000D01*
Y153100D02*
Y153300D01*
Y153400D02*
Y153600D01*
Y153700D02*
Y153900D01*
Y154000D02*
Y154700D01*
Y154800D02*
Y155000D01*
Y155100D02*
Y155300D01*
Y155400D02*
Y155600D01*
Y155700D02*
Y155900D01*
Y156000D02*
Y156400D01*
Y156500D02*
Y157000D01*
Y157100D02*
Y157300D01*
Y157400D02*
Y157600D01*
Y157700D02*
Y158700D01*
Y158800D02*
Y159000D01*
Y159100D02*
Y159300D01*
Y159400D02*
Y160100D01*
Y160200D02*
Y160400D01*
Y160500D02*
Y160700D01*
Y160800D02*
Y161000D01*
Y161100D02*
Y161300D01*
Y161400D02*
Y162100D01*
Y162200D02*
Y162400D01*
Y162500D02*
Y162700D01*
Y162800D02*
Y163000D01*
Y163100D02*
Y163800D01*
Y163900D02*
Y164100D01*
Y164200D02*
Y164400D01*
Y164500D02*
Y164700D01*
Y164800D02*
Y165000D01*
Y165100D02*
Y165500D01*
Y165600D02*
Y166100D01*
Y166200D02*
Y166400D01*
Y166500D02*
Y166700D01*
Y166800D02*
Y167800D01*
Y167900D02*
Y168100D01*
Y168200D02*
Y168400D01*
Y168500D02*
Y169200D01*
Y169300D02*
Y169500D01*
Y169600D02*
Y169800D01*
Y169900D02*
Y170100D01*
Y170200D02*
Y170400D01*
Y170500D02*
Y171200D01*
Y171300D02*
Y171500D01*
Y171600D02*
Y171800D01*
Y171900D02*
Y172100D01*
Y172200D02*
Y172400D01*
X10600Y142100D02*
Y142200D01*
Y142300D02*
Y142500D01*
Y142600D02*
Y142800D01*
Y142900D02*
Y143600D01*
Y143700D02*
Y143900D01*
Y144000D02*
Y144200D01*
Y144300D02*
Y144800D01*
Y144900D02*
Y145300D01*
Y145400D02*
Y145600D01*
Y145700D02*
Y145900D01*
Y146000D02*
Y146500D01*
Y146600D02*
Y147300D01*
Y147400D02*
Y147600D01*
Y147700D02*
Y147900D01*
Y148000D02*
Y148200D01*
Y148300D02*
Y149000D01*
Y149100D02*
Y149300D01*
Y149400D02*
Y149600D01*
Y149700D02*
Y150200D01*
Y150300D02*
Y151000D01*
Y151100D02*
Y151300D01*
Y151400D02*
Y151600D01*
Y151700D02*
Y151900D01*
Y152000D02*
Y152700D01*
Y152800D02*
Y153000D01*
Y153100D02*
Y153300D01*
Y153400D02*
Y153900D01*
Y154000D02*
Y154700D01*
Y154800D02*
Y155000D01*
Y155100D02*
Y155600D01*
Y155700D02*
Y156400D01*
Y156500D02*
Y156700D01*
Y156800D02*
Y157000D01*
Y157100D02*
Y157300D01*
Y157400D02*
Y158100D01*
Y158200D02*
Y158700D01*
Y158800D02*
Y159300D01*
Y159400D02*
Y160100D01*
Y160200D02*
Y160400D01*
Y160500D02*
Y160700D01*
Y160800D02*
Y161000D01*
Y161100D02*
Y161800D01*
Y161900D02*
Y162100D01*
Y162200D02*
Y162400D01*
Y162500D02*
Y163000D01*
Y163100D02*
Y163800D01*
Y163900D02*
Y164100D01*
Y164200D02*
Y164700D01*
Y164800D02*
Y165500D01*
Y165600D02*
Y165800D01*
Y165900D02*
Y166100D01*
Y166200D02*
Y166400D01*
Y166500D02*
Y167200D01*
Y167300D02*
Y167800D01*
Y167900D02*
Y168400D01*
Y168500D02*
Y169200D01*
Y169300D02*
Y169500D01*
Y169600D02*
Y169800D01*
Y169900D02*
Y170100D01*
Y170200D02*
Y170900D01*
Y171000D02*
Y171200D01*
Y171300D02*
Y171500D01*
Y171600D02*
Y172100D01*
Y172200D02*
Y172400D01*
X9700Y148800D02*
Y148900D01*
Y156700D02*
Y156800D01*
Y167000D02*
Y167100D01*
X9600Y147700D02*
Y148100D01*
Y148800D02*
Y149200D01*
Y156400D02*
Y156800D01*
Y157500D02*
Y158000D01*
Y165800D02*
Y166300D01*
Y167000D02*
Y167400D01*
X9500Y147400D02*
Y148100D01*
Y148700D02*
Y149400D01*
Y156200D02*
Y156900D01*
Y157500D02*
Y158200D01*
Y165600D02*
Y166300D01*
Y166900D02*
Y167600D01*
X9400Y147400D02*
Y149500D01*
Y156100D02*
Y158300D01*
Y165500D02*
Y167700D01*
X9300Y147400D02*
Y149500D01*
Y156200D02*
Y158200D01*
Y165600D02*
Y167600D01*
Y170100D02*
Y171100D01*
X9200Y142400D02*
Y145000D01*
Y147400D02*
Y149400D01*
Y151200D02*
Y153700D01*
Y156200D02*
Y158200D01*
Y159400D02*
Y163100D01*
Y163400D02*
Y163900D01*
Y165600D02*
Y167600D01*
Y169800D02*
Y171500D01*
X9100Y142400D02*
Y145300D01*
Y147400D02*
Y149500D01*
Y151100D02*
Y154000D01*
Y156200D02*
Y158300D01*
Y159400D02*
Y163100D01*
Y163400D02*
Y163900D01*
Y165600D02*
Y167700D01*
Y169600D02*
Y171700D01*
X9000Y142400D02*
Y145400D01*
Y147200D02*
Y149700D01*
Y151100D02*
Y154100D01*
Y156000D02*
Y158400D01*
Y159400D02*
Y163100D01*
Y163400D02*
Y163900D01*
Y165400D02*
Y167900D01*
Y169500D02*
Y171800D01*
X8900Y142400D02*
Y145500D01*
Y146700D02*
Y146800D01*
Y147100D02*
Y149800D01*
Y150000D02*
Y150200D01*
Y151100D02*
Y154200D01*
Y155500D02*
Y155600D01*
Y155800D02*
Y158500D01*
Y158800D02*
Y158900D01*
Y159400D02*
Y163100D01*
Y163400D02*
Y163900D01*
Y164900D02*
Y165000D01*
Y165300D02*
Y168000D01*
Y168200D02*
Y168300D01*
Y169400D02*
Y171900D01*
X8800Y142400D02*
Y142900D01*
Y144600D02*
Y145600D01*
Y146600D02*
Y146900D01*
Y147000D02*
Y147800D01*
Y149100D02*
Y150200D01*
Y151100D02*
Y151600D01*
Y153300D02*
Y154300D01*
Y155400D02*
Y155700D01*
Y155800D02*
Y156600D01*
Y157800D02*
Y159000D01*
Y161000D02*
Y161500D01*
Y163400D02*
Y163900D01*
Y164800D02*
Y165100D01*
Y165200D02*
Y166100D01*
Y167200D02*
Y168400D01*
Y169300D02*
Y170000D01*
Y171200D02*
Y172000D01*
X8700Y142400D02*
Y142900D01*
Y145000D02*
Y145700D01*
Y146600D02*
Y147600D01*
Y149300D02*
Y150300D01*
Y151100D02*
Y151700D01*
Y153700D02*
Y154400D01*
Y155300D02*
Y156400D01*
Y158000D02*
Y159000D01*
Y161000D02*
Y161500D01*
Y163400D02*
Y163900D01*
Y164700D02*
Y165900D01*
Y167400D02*
Y168500D01*
Y169200D02*
Y169800D01*
Y171400D02*
Y172100D01*
X8600Y142400D02*
Y142900D01*
Y145100D02*
Y145700D01*
Y146500D02*
Y147500D01*
Y149400D02*
Y150300D01*
Y151100D02*
Y151700D01*
Y153800D02*
Y154500D01*
Y155300D02*
Y156200D01*
Y158200D02*
Y159100D01*
Y161000D02*
Y161500D01*
Y163400D02*
Y163900D01*
Y164700D02*
Y165700D01*
Y167600D02*
Y168500D01*
Y169200D02*
Y169700D01*
Y171500D02*
Y172200D01*
X8500Y142400D02*
Y142900D01*
Y145200D02*
Y145800D01*
Y146400D02*
Y147300D01*
Y149500D02*
Y150400D01*
Y151100D02*
Y151700D01*
Y153900D02*
Y154500D01*
Y155200D02*
Y156100D01*
Y158300D02*
Y159200D01*
Y161000D02*
Y161500D01*
Y163400D02*
Y163900D01*
Y164600D02*
Y165600D01*
Y167700D02*
Y168600D01*
Y169100D02*
Y169700D01*
Y171600D02*
Y172200D01*
X8400Y142400D02*
Y142900D01*
Y145300D02*
Y145800D01*
Y146400D02*
Y147300D01*
Y149600D02*
Y150500D01*
Y151100D02*
Y151700D01*
Y154000D02*
Y154500D01*
Y155100D02*
Y156000D01*
Y158400D02*
Y159200D01*
Y161000D02*
Y161500D01*
Y163400D02*
Y163900D01*
Y164600D02*
Y165500D01*
Y167800D02*
Y168700D01*
Y169100D02*
Y169600D01*
Y171700D02*
Y172200D01*
X8300Y142400D02*
Y142900D01*
Y145300D02*
Y145800D01*
Y146300D02*
Y147200D01*
Y149700D02*
Y150500D01*
Y151100D02*
Y151700D01*
Y154000D02*
Y154500D01*
Y155100D02*
Y155900D01*
Y158500D02*
Y159300D01*
Y161000D02*
Y161500D01*
Y163400D02*
Y163900D01*
Y164500D02*
Y165400D01*
Y167800D02*
Y168700D01*
Y169100D02*
Y169600D01*
Y171700D02*
Y172300D01*
X8200Y142400D02*
Y142900D01*
Y145300D02*
Y145800D01*
Y146400D02*
Y147100D01*
Y149700D02*
Y150400D01*
Y151100D02*
Y151700D01*
Y154000D02*
Y154600D01*
Y155200D02*
Y155900D01*
Y158500D02*
Y159200D01*
Y161000D02*
Y161500D01*
Y163400D02*
Y163900D01*
Y164600D02*
Y165400D01*
Y167900D02*
Y168600D01*
Y169000D02*
Y169600D01*
Y171800D02*
Y172300D01*
X8100Y142400D02*
Y142900D01*
Y145300D02*
Y145800D01*
Y146500D02*
Y147100D01*
Y149800D02*
Y150300D01*
Y151100D02*
Y151700D01*
Y154000D02*
Y154600D01*
Y155300D02*
Y155800D01*
Y158600D02*
Y159100D01*
Y161000D02*
Y161500D01*
Y163400D02*
Y163900D01*
Y164700D02*
Y165300D01*
Y167900D02*
Y168500D01*
Y169000D02*
Y169600D01*
Y171800D02*
Y172300D01*
X8000Y142400D02*
Y142900D01*
Y145300D02*
Y145800D01*
Y146500D02*
Y147000D01*
Y149900D02*
Y150400D01*
Y151100D02*
Y151700D01*
Y154000D02*
Y154600D01*
Y155200D02*
Y155800D01*
Y158600D02*
Y159200D01*
Y161000D02*
Y161500D01*
Y163400D02*
Y163900D01*
Y164700D02*
Y165300D01*
Y168000D02*
Y168500D01*
Y169000D02*
Y169600D01*
Y171800D02*
Y172300D01*
X7900Y142400D02*
Y142900D01*
Y145300D02*
Y145800D01*
Y146400D02*
Y146900D01*
Y149900D02*
Y150500D01*
Y151100D02*
Y151700D01*
Y154000D02*
Y154500D01*
Y155200D02*
Y155700D01*
Y158600D02*
Y159200D01*
Y161000D02*
Y161500D01*
Y163400D02*
Y163900D01*
Y164700D02*
Y165200D01*
Y168000D02*
Y168500D01*
Y169000D02*
Y169600D01*
Y171800D02*
Y172300D01*
X7800Y142400D02*
Y142900D01*
Y145300D02*
Y145800D01*
Y146400D02*
Y146900D01*
Y149900D02*
Y150500D01*
Y151100D02*
Y151700D01*
Y154000D02*
Y154500D01*
Y155100D02*
Y155700D01*
Y158700D02*
Y159200D01*
Y161000D02*
Y161500D01*
Y163400D02*
Y163900D01*
Y164600D02*
Y165200D01*
Y169100D02*
Y169600D01*
X7700Y142400D02*
Y142900D01*
Y145300D02*
Y145800D01*
Y146400D02*
Y146900D01*
Y149900D02*
Y150500D01*
Y151100D02*
Y151700D01*
Y154000D02*
Y154400D01*
Y155100D02*
Y155700D01*
Y158700D02*
Y159200D01*
Y161000D02*
Y161500D01*
Y163400D02*
Y163900D01*
Y164600D02*
Y165200D01*
Y169100D02*
Y169700D01*
X7600Y142400D02*
Y142900D01*
Y145300D02*
Y145800D01*
Y146400D02*
Y146900D01*
Y150000D02*
Y150500D01*
Y151100D02*
Y151700D01*
Y153900D02*
Y154400D01*
Y155100D02*
Y155700D01*
Y158800D02*
Y159300D01*
Y161000D02*
Y161500D01*
Y163400D02*
Y163900D01*
Y164600D02*
Y165100D01*
Y169100D02*
Y169800D01*
X7500Y142400D02*
Y142900D01*
Y145200D02*
Y145700D01*
Y146300D02*
Y146800D01*
Y150000D02*
Y150500D01*
Y151100D02*
Y151700D01*
Y153800D02*
Y154300D01*
Y155100D02*
Y155600D01*
Y158800D02*
Y159300D01*
Y161000D02*
Y161500D01*
Y163400D02*
Y163900D01*
Y164600D02*
Y165100D01*
Y169200D02*
Y170000D01*
X7400Y142400D02*
Y142900D01*
Y145100D02*
Y145700D01*
Y146100D02*
Y146800D01*
Y150000D02*
Y150800D01*
Y151100D02*
Y151700D01*
Y153600D02*
Y154200D01*
Y154800D02*
Y155600D01*
Y158800D02*
Y159600D01*
Y161000D02*
Y161500D01*
Y163400D02*
Y163900D01*
Y164200D02*
Y165100D01*
Y169300D02*
Y170400D01*
X7300Y142400D02*
Y142900D01*
Y145000D02*
Y145600D01*
Y146000D02*
Y146800D01*
Y150000D02*
Y150800D01*
Y151100D02*
Y154100D01*
Y154800D02*
Y155600D01*
Y158800D02*
Y159600D01*
Y161000D02*
Y161500D01*
Y163400D02*
Y163900D01*
Y164200D02*
Y165100D01*
Y169400D02*
Y170700D01*
X7200Y142400D02*
Y142900D01*
Y144700D02*
Y145500D01*
Y146000D02*
Y146800D01*
Y150100D02*
Y150800D01*
Y151100D02*
Y154000D01*
Y154800D02*
Y155600D01*
Y158800D02*
Y159600D01*
Y161000D02*
Y161500D01*
Y163400D02*
Y163900D01*
Y164200D02*
Y165100D01*
Y169500D02*
Y171200D01*
X7100Y142400D02*
Y145400D01*
Y146000D02*
Y146800D01*
Y150100D02*
Y150800D01*
Y151100D02*
Y154000D01*
Y154800D02*
Y155600D01*
Y158800D02*
Y159600D01*
Y161000D02*
Y161500D01*
Y163400D02*
Y163900D01*
Y164200D02*
Y165100D01*
Y169600D02*
Y171500D01*
X7000Y142400D02*
Y145300D01*
Y146000D02*
Y146800D01*
Y150100D02*
Y150800D01*
Y151100D02*
Y154200D01*
Y154800D02*
Y155600D01*
Y158800D02*
Y159600D01*
Y161000D02*
Y161500D01*
Y163400D02*
Y163900D01*
Y164200D02*
Y165100D01*
Y169900D02*
Y171800D01*
X6900Y142400D02*
Y145100D01*
Y146000D02*
Y146800D01*
Y150100D02*
Y150800D01*
Y151100D02*
Y154300D01*
Y154800D02*
Y155600D01*
Y158800D02*
Y159600D01*
Y161000D02*
Y161500D01*
Y163400D02*
Y163900D01*
Y164200D02*
Y165100D01*
Y170200D02*
Y171900D01*
X6800Y142400D02*
Y145400D01*
Y146000D02*
Y146800D01*
Y150100D02*
Y150800D01*
Y151100D02*
Y151600D01*
Y153700D02*
Y154400D01*
Y154800D02*
Y155600D01*
Y158800D02*
Y159600D01*
Y161000D02*
Y161500D01*
Y163400D02*
Y163900D01*
Y164200D02*
Y165100D01*
Y170700D02*
Y172100D01*
X6700Y142400D02*
Y145500D01*
Y146000D02*
Y146800D01*
Y150100D02*
Y150800D01*
Y151100D02*
Y151700D01*
Y153800D02*
Y154500D01*
Y154800D02*
Y155600D01*
Y158800D02*
Y159600D01*
Y161000D02*
Y161500D01*
Y163400D02*
Y163900D01*
Y164200D02*
Y165100D01*
Y171000D02*
Y172200D01*
X6600Y142400D02*
Y142900D01*
Y144900D02*
Y145600D01*
Y146300D02*
Y146800D01*
Y150000D02*
Y150500D01*
Y151100D02*
Y151700D01*
Y154000D02*
Y154600D01*
Y155100D02*
Y155600D01*
Y158800D02*
Y159300D01*
Y161000D02*
Y161500D01*
Y163400D02*
Y163900D01*
Y164600D02*
Y165100D01*
Y171400D02*
Y172300D01*
X6500Y142400D02*
Y142900D01*
Y145000D02*
Y145600D01*
Y146300D02*
Y146800D01*
Y150000D02*
Y150500D01*
Y151100D02*
Y151700D01*
Y154100D02*
Y154600D01*
Y155100D02*
Y155600D01*
Y158800D02*
Y159300D01*
Y161000D02*
Y161500D01*
Y163400D02*
Y163900D01*
Y164600D02*
Y165100D01*
Y171600D02*
Y172400D01*
X6400Y142400D02*
Y142900D01*
Y145100D02*
Y145700D01*
Y146400D02*
Y146900D01*
Y150000D02*
Y150500D01*
Y151100D02*
Y151700D01*
Y154100D02*
Y154700D01*
Y155100D02*
Y155700D01*
Y158800D02*
Y159300D01*
Y161000D02*
Y161500D01*
Y163400D02*
Y163900D01*
Y164600D02*
Y165100D01*
Y168100D02*
Y168600D01*
Y171800D02*
Y172400D01*
X6300Y142400D02*
Y142900D01*
Y145200D02*
Y145700D01*
Y146400D02*
Y146900D01*
Y150000D02*
Y150500D01*
Y151100D02*
Y151700D01*
Y154200D02*
Y154700D01*
Y155100D02*
Y155700D01*
Y158700D02*
Y159200D01*
Y161000D02*
Y161500D01*
Y163400D02*
Y163900D01*
Y164600D02*
Y165100D01*
Y168100D02*
Y168600D01*
Y171800D02*
Y172400D01*
X6200Y142400D02*
Y142900D01*
Y145200D02*
Y145700D01*
Y146400D02*
Y146900D01*
Y149900D02*
Y150500D01*
Y151100D02*
Y151700D01*
Y154200D02*
Y154700D01*
Y155100D02*
Y155700D01*
Y158700D02*
Y159200D01*
Y161000D02*
Y161500D01*
Y163400D02*
Y163900D01*
Y164600D02*
Y165200D01*
Y168000D02*
Y168500D01*
Y168900D02*
Y169400D01*
Y171900D02*
Y172400D01*
X6100Y142400D02*
Y142900D01*
Y145200D02*
Y145800D01*
Y146400D02*
Y147000D01*
Y149900D02*
Y150500D01*
Y151100D02*
Y151700D01*
Y154200D02*
Y154700D01*
Y155200D02*
Y155700D01*
Y158700D02*
Y159200D01*
Y161000D02*
Y161500D01*
Y163400D02*
Y163900D01*
Y164700D02*
Y165200D01*
Y168000D02*
Y168500D01*
Y168900D02*
Y169400D01*
Y171900D02*
Y172500D01*
X6000Y142400D02*
Y142900D01*
Y145300D02*
Y145800D01*
Y146500D02*
Y147000D01*
Y149900D02*
Y150400D01*
Y151100D02*
Y151700D01*
Y154200D02*
Y154700D01*
Y155200D02*
Y155800D01*
Y158600D02*
Y159200D01*
Y161000D02*
Y161500D01*
Y163400D02*
Y163900D01*
Y164700D02*
Y165200D01*
Y167900D02*
Y168500D01*
Y168900D02*
Y169400D01*
Y172000D02*
Y172500D01*
X5900Y142400D02*
Y142900D01*
Y145300D02*
Y145800D01*
Y146400D02*
Y147100D01*
Y149800D02*
Y150400D01*
Y151100D02*
Y151700D01*
Y154200D02*
Y154700D01*
Y155200D02*
Y155800D01*
Y158600D02*
Y159200D01*
Y161000D02*
Y161500D01*
Y163400D02*
Y163900D01*
Y164600D02*
Y165300D01*
Y167900D02*
Y168600D01*
Y168900D02*
Y169400D01*
Y172000D02*
Y172500D01*
X5800Y142400D02*
Y142900D01*
Y145300D02*
Y145800D01*
Y146300D02*
Y147100D01*
Y149700D02*
Y150500D01*
Y151100D02*
Y151700D01*
Y154200D02*
Y154700D01*
Y155100D02*
Y155900D01*
Y158500D02*
Y159300D01*
Y161000D02*
Y161500D01*
Y163400D02*
Y163900D01*
Y164500D02*
Y165300D01*
Y167900D02*
Y168700D01*
Y168900D02*
Y169500D01*
Y172000D02*
Y172500D01*
X5700Y142400D02*
Y142900D01*
Y145300D02*
Y145800D01*
Y146400D02*
Y147200D01*
Y149700D02*
Y150500D01*
Y151100D02*
Y151700D01*
Y154200D02*
Y154700D01*
Y155100D02*
Y155900D01*
Y158400D02*
Y159200D01*
Y161000D02*
Y161500D01*
Y163400D02*
Y163900D01*
Y164600D02*
Y165400D01*
Y167800D02*
Y168700D01*
Y168900D02*
Y169500D01*
Y171900D02*
Y172500D01*
X5600Y142400D02*
Y142900D01*
Y145300D02*
Y145800D01*
Y146400D02*
Y147300D01*
Y149600D02*
Y150400D01*
Y151100D02*
Y151700D01*
Y154100D02*
Y154600D01*
Y155200D02*
Y156000D01*
Y158400D02*
Y159200D01*
Y161000D02*
Y161500D01*
Y163400D02*
Y163900D01*
Y164600D02*
Y165500D01*
Y167800D02*
Y168600D01*
Y169000D02*
Y169600D01*
Y171900D02*
Y172400D01*
X5500Y142400D02*
Y142900D01*
Y145300D02*
Y145800D01*
Y146500D02*
Y147400D01*
Y149500D02*
Y150300D01*
Y151100D02*
Y151700D01*
Y154000D02*
Y154600D01*
Y155300D02*
Y156100D01*
Y158200D02*
Y159100D01*
Y161000D02*
Y161500D01*
Y163400D02*
Y163900D01*
Y164700D02*
Y165600D01*
Y167700D02*
Y168500D01*
Y169000D02*
Y169600D01*
Y171800D02*
Y172400D01*
X5400Y142400D02*
Y142900D01*
Y145300D02*
Y145800D01*
Y146600D02*
Y147500D01*
Y149400D02*
Y150300D01*
Y151100D02*
Y151700D01*
Y153900D02*
Y154600D01*
Y155300D02*
Y156200D01*
Y158100D02*
Y159000D01*
Y161000D02*
Y161500D01*
Y163400D02*
Y163900D01*
Y164700D02*
Y165700D01*
Y167500D02*
Y168500D01*
Y169100D02*
Y169700D01*
Y171700D02*
Y172400D01*
X5300Y142400D02*
Y142900D01*
Y145300D02*
Y145800D01*
Y146600D02*
Y147700D01*
Y149200D02*
Y150200D01*
Y151100D02*
Y151700D01*
Y153800D02*
Y154500D01*
Y155400D02*
Y156400D01*
Y157900D02*
Y159000D01*
Y161000D02*
Y161500D01*
Y163400D02*
Y163900D01*
Y164800D02*
Y165800D01*
Y167400D02*
Y168400D01*
Y169100D02*
Y169800D01*
Y171600D02*
Y172300D01*
X5200Y142400D02*
Y142900D01*
Y145300D02*
Y145800D01*
Y146700D02*
Y146800D01*
Y147000D02*
Y147800D01*
Y149000D02*
Y149900D01*
Y150000D02*
Y150200D01*
Y151100D02*
Y151600D01*
Y153500D02*
Y154400D01*
Y155500D02*
Y155600D01*
Y155700D02*
Y156600D01*
Y157800D02*
Y158700D01*
Y158800D02*
Y158900D01*
Y161000D02*
Y161500D01*
Y163400D02*
Y163900D01*
Y164900D02*
Y165000D01*
Y165200D02*
Y166000D01*
Y167200D02*
Y168100D01*
Y168200D02*
Y168300D01*
Y169200D02*
Y170000D01*
Y171400D02*
Y172200D01*
X5100Y142400D02*
Y142900D01*
Y145300D02*
Y145800D01*
Y147100D02*
Y149800D01*
Y151100D02*
Y154300D01*
Y155900D02*
Y158500D01*
Y161000D02*
Y161500D01*
Y163400D02*
Y163900D01*
Y165300D02*
Y167900D01*
Y169300D02*
Y170600D01*
Y171000D02*
Y172100D01*
X5000Y142400D02*
Y142900D01*
Y145300D02*
Y145900D01*
Y147200D02*
Y149700D01*
Y151100D02*
Y154200D01*
Y156000D02*
Y158400D01*
Y161000D02*
Y161500D01*
Y163400D02*
Y163900D01*
Y165400D02*
Y167800D01*
Y169400D02*
Y172000D01*
X4900Y142400D02*
Y142900D01*
Y145400D02*
Y145900D01*
Y147400D02*
Y149500D01*
Y151100D02*
Y154000D01*
Y156200D02*
Y158200D01*
Y161000D02*
Y161500D01*
Y163400D02*
Y163900D01*
Y165600D02*
Y167700D01*
Y169600D02*
Y171900D01*
X4800Y142400D02*
Y142900D01*
Y145400D02*
Y146000D01*
Y147400D02*
Y149400D01*
Y151100D02*
Y153800D01*
Y156200D02*
Y158200D01*
Y161000D02*
Y161500D01*
Y163400D02*
Y163900D01*
Y165600D02*
Y167600D01*
Y169700D02*
Y171700D01*
X4700Y147400D02*
Y149500D01*
Y156100D02*
Y158300D01*
Y165500D02*
Y167700D01*
Y170100D02*
Y171300D01*
X4600Y147400D02*
Y148100D01*
Y148700D02*
Y149500D01*
Y156200D02*
Y156900D01*
Y157500D02*
Y158200D01*
Y165600D02*
Y166300D01*
Y166900D02*
Y167700D01*
X4500Y147700D02*
Y148100D01*
Y148800D02*
Y149200D01*
Y156500D02*
Y156800D01*
Y157500D02*
Y157900D01*
Y165900D02*
Y166300D01*
Y167000D02*
Y167300D01*
X4400Y147900D02*
Y148000D01*
Y148800D02*
Y149000D01*
Y156700D02*
Y156800D01*
Y157600D02*
Y157700D01*
Y166100D02*
Y166200D01*
Y167000D02*
Y167100D01*
X73000Y50700D02*
X120200D01*
X73000Y50600D02*
X120200D01*
X73000Y50500D02*
X120200D01*
X73000Y50400D02*
X120200D01*
X73000Y50300D02*
X120200D01*
X73000Y50200D02*
X120200D01*
X73000Y50100D02*
X120200D01*
X73000Y50000D02*
X120200D01*
X73000Y49900D02*
X120200D01*
X73000Y49800D02*
X120200D01*
X73000Y49700D02*
X120200D01*
X73000Y49600D02*
X120200D01*
X73000Y49500D02*
X120200D01*
X73000Y49400D02*
X120200D01*
X104400Y49300D02*
X120200D01*
X73000D02*
X104200D01*
X104700Y49200D02*
X120200D01*
X73000D02*
X103700D01*
X105000Y49100D02*
X120200D01*
X73000D02*
X103300D01*
X105200Y49000D02*
X120200D01*
X73000D02*
X102800D01*
X105300Y48900D02*
X120200D01*
X73000D02*
X102400D01*
X105400Y48800D02*
X120200D01*
X73000D02*
X101700D01*
X105500Y48700D02*
X120200D01*
X73000D02*
X101200D01*
X105600Y48600D02*
X120200D01*
X73000D02*
X100500D01*
X105600Y48500D02*
X120200D01*
X73000D02*
X100000D01*
X105700Y48400D02*
X120200D01*
X73000D02*
X99700D01*
X105700Y48300D02*
X120200D01*
X73000D02*
X99100D01*
X105800Y48200D02*
X120200D01*
X73000D02*
X98700D01*
X105800Y48100D02*
X120200D01*
X73000D02*
X98300D01*
X105800Y48000D02*
X120200D01*
X73000D02*
X97700D01*
X105800Y47900D02*
X120200D01*
X73000D02*
X97200D01*
X105800Y47800D02*
X120200D01*
X73000D02*
X96600D01*
X105800Y47700D02*
X120200D01*
X73000D02*
X95900D01*
X105800Y47600D02*
X120200D01*
X73000D02*
X95500D01*
X105700Y47500D02*
X120200D01*
X73000D02*
X95000D01*
X105700Y47400D02*
X120200D01*
X73000D02*
X94500D01*
X105700Y47300D02*
X120200D01*
X73000D02*
X94200D01*
X105600Y47200D02*
X120200D01*
X73000D02*
X93600D01*
X105500Y47100D02*
X120200D01*
X73000D02*
X93100D01*
X105500Y47000D02*
X120200D01*
X73000D02*
X92600D01*
X105400Y46900D02*
X120200D01*
X73000D02*
X91900D01*
X105300Y46800D02*
X120200D01*
X73000D02*
X91400D01*
X105300Y46700D02*
X120200D01*
X73000D02*
X90900D01*
X105200Y46600D02*
X120200D01*
X73000D02*
X90400D01*
X105100Y46500D02*
X120200D01*
X73000D02*
X90000D01*
X105000Y46400D02*
X120200D01*
X73000D02*
X89400D01*
X104900Y46300D02*
X120200D01*
X73000D02*
X88900D01*
X104800Y46200D02*
X120200D01*
X81000D02*
X88500D01*
X73000D02*
X80800D01*
X104700Y46100D02*
X120200D01*
X81100D02*
X88000D01*
X73000D02*
X80700D01*
X104700Y46000D02*
X120200D01*
X81100D02*
X87300D01*
X73000D02*
X80600D01*
X104600Y45900D02*
X120200D01*
X81100D02*
X86800D01*
X73000D02*
X80500D01*
X104600Y45800D02*
X120200D01*
X81100D02*
X86200D01*
X73000D02*
X80400D01*
X104500Y45700D02*
X120200D01*
X81100D02*
X85800D01*
X73000D02*
X80300D01*
X104400Y45600D02*
X120200D01*
X81100D02*
X85300D01*
X73000D02*
X80300D01*
X104300Y45500D02*
X120200D01*
X81100D02*
X84800D01*
X73000D02*
X80200D01*
X104200Y45400D02*
X120200D01*
X81100D02*
X84400D01*
X73000D02*
X80100D01*
X104100Y45300D02*
X120200D01*
X81100D02*
X83800D01*
X73000D02*
X80000D01*
X104100Y45200D02*
X120200D01*
X81100D02*
X83300D01*
X73000D02*
X79900D01*
X104000Y45100D02*
X120200D01*
X81100D02*
X82700D01*
X73000D02*
X79800D01*
X103900Y45000D02*
X120200D01*
X81100D02*
X82100D01*
X73000D02*
X79700D01*
X103800Y44900D02*
X120200D01*
X81100D02*
X81600D01*
X73000D02*
X79700D01*
X103800Y44800D02*
X120200D01*
X81100D02*
X81200D01*
X73000D02*
X79600D01*
X103700Y44700D02*
X120200D01*
X97600D02*
X98300D01*
X73000D02*
X79500D01*
X103700Y44600D02*
X120200D01*
X96800D02*
X98300D01*
X73000D02*
X79400D01*
X103600Y44500D02*
X120200D01*
X96000D02*
X98300D01*
X73000D02*
X79300D01*
X103500Y44400D02*
X120200D01*
X95000D02*
X98300D01*
X73000D02*
X79200D01*
X103400Y44300D02*
X120200D01*
X93800D02*
X98200D01*
X73000D02*
X79200D01*
X103300Y44200D02*
X120200D01*
X92900D02*
X98200D01*
X73000D02*
X79100D01*
X103300Y44100D02*
X120200D01*
X92400D02*
X98100D01*
X73000D02*
X79000D01*
X103200Y44000D02*
X120200D01*
X91600D02*
X98100D01*
X73000D02*
X78900D01*
X103100Y43900D02*
X120200D01*
X90600D02*
X98000D01*
X73000D02*
X78800D01*
X103000Y43800D02*
X120200D01*
X90000D02*
X97900D01*
X73000D02*
X78700D01*
X103000Y43700D02*
X120200D01*
X89300D02*
X97900D01*
X73000D02*
X78600D01*
X102900Y43600D02*
X120200D01*
X88200D02*
X97800D01*
X73000D02*
X78600D01*
X102800Y43500D02*
X120200D01*
X87400D02*
X97800D01*
X73000D02*
X78600D01*
X102700Y43400D02*
X120200D01*
X86100D02*
X97700D01*
X73000D02*
X78700D01*
X102600Y43300D02*
X120200D01*
X85400D02*
X97700D01*
X73000D02*
X78900D01*
X102600Y43200D02*
X120200D01*
X84700D02*
X97600D01*
X73000D02*
X79000D01*
X102500Y43100D02*
X120200D01*
X83800D02*
X97600D01*
X73000D02*
X79100D01*
X102400Y43000D02*
X120200D01*
X83200D02*
X97500D01*
X73000D02*
X79300D01*
X102300Y42900D02*
X120200D01*
X82400D02*
X97500D01*
X73000D02*
X79300D01*
X102200Y42800D02*
X120200D01*
X81400D02*
X97500D01*
X73000D02*
X79500D01*
X102100Y42700D02*
X120200D01*
X81400D02*
X97400D01*
X73000D02*
X79600D01*
X102100Y42600D02*
X120200D01*
X81400D02*
X97300D01*
X73000D02*
X79800D01*
X102000Y42500D02*
X120200D01*
X81400D02*
X97300D01*
X73000D02*
X79900D01*
X101900Y42400D02*
X120200D01*
X81400D02*
X97200D01*
X73000D02*
X80000D01*
X101900Y42300D02*
X120200D01*
X81400D02*
X97200D01*
X73000D02*
X80100D01*
X101800Y42200D02*
X120200D01*
X81400D02*
X97100D01*
X73000D02*
X80200D01*
X101700Y42100D02*
X120200D01*
X81400D02*
X97000D01*
X73000D02*
X80400D01*
X101700Y42000D02*
X120200D01*
X81400D02*
X97000D01*
X73000D02*
X80500D01*
X101600Y41900D02*
X120200D01*
X81400D02*
X96900D01*
X73000D02*
X80600D01*
X101500Y41800D02*
X120200D01*
X81400D02*
X96800D01*
X73000D02*
X80700D01*
X101400Y41700D02*
X120200D01*
X81400D02*
X96800D01*
X73000D02*
X80900D01*
X101300Y41600D02*
X120200D01*
X81400D02*
X96700D01*
X73000D02*
X81000D01*
X101200Y41500D02*
X120200D01*
X73000D02*
X96700D01*
X101200Y41400D02*
X120200D01*
X73000D02*
X96700D01*
X101100Y41300D02*
X120200D01*
X73000D02*
X96600D01*
X101000Y41200D02*
X120200D01*
X73000D02*
X96600D01*
X101000Y41100D02*
X120200D01*
X73000D02*
X96500D01*
X100900Y41000D02*
X120200D01*
X73000D02*
X96400D01*
X100800Y40900D02*
X120200D01*
X73000D02*
X96300D01*
X100700Y40800D02*
X120200D01*
X73000D02*
X96300D01*
X96400Y40700D02*
X120200D01*
X73000D02*
X96300D01*
X112300Y40600D02*
X120200D01*
X73000D02*
X112200D01*
X118200Y40500D02*
X120200D01*
X112300D02*
X115100D01*
X73000D02*
X111600D01*
X118200Y40400D02*
X120200D01*
X112300D02*
X115100D01*
X73000D02*
X111600D01*
X118200Y40300D02*
X120200D01*
X112300D02*
X115100D01*
X73000D02*
X111600D01*
X118200Y40200D02*
X120200D01*
X114300D02*
X115100D01*
X112300D02*
X113700D01*
X101500D02*
X111600D01*
X86200D02*
X100200D01*
X77400D02*
X85200D01*
X73000D02*
X76100D01*
X118200Y40100D02*
X120200D01*
X114300D02*
X115100D01*
X112300D02*
X113700D01*
X101800D02*
X111600D01*
X98500D02*
X99700D01*
X95400D02*
X96700D01*
X92200D02*
X93800D01*
X86700D02*
X89700D01*
X83800D02*
X84700D01*
X81000D02*
X82000D01*
X77800D02*
X79000D01*
X73000D02*
X75600D01*
X118200Y40000D02*
X120200D01*
X114300D02*
X115100D01*
X112300D02*
X113700D01*
X102000D02*
X111600D01*
X98500D02*
X99400D01*
X95400D02*
X96600D01*
X92200D02*
X93800D01*
X86900D02*
X89600D01*
X83800D02*
X84500D01*
X81100D02*
X82000D01*
X78000D02*
X79000D01*
X73000D02*
X75400D01*
X118200Y39900D02*
X120200D01*
X114300D02*
X117500D01*
X112300D02*
X113700D01*
X102300D02*
X111600D01*
X98500D02*
X99200D01*
X95400D02*
X96600D01*
X92200D02*
X93800D01*
X87100D02*
X89600D01*
X83800D02*
X84200D01*
X81100D02*
X82000D01*
X78200D02*
X79100D01*
X73000D02*
X75100D01*
X118200Y39800D02*
X120200D01*
X114300D02*
X117500D01*
X112300D02*
X113700D01*
X102400D02*
X111600D01*
X98500D02*
X99200D01*
X95400D02*
X96500D01*
X92200D02*
X93800D01*
X87300D02*
X89500D01*
X83800D02*
X84200D01*
X81200D02*
X82000D01*
X78300D02*
X79200D01*
X73000D02*
X75100D01*
X118200Y39700D02*
X120200D01*
X114300D02*
X117500D01*
X112300D02*
X113700D01*
X102500D02*
X111600D01*
X98500D02*
X99200D01*
X95400D02*
X96500D01*
X92300D02*
X93800D01*
X87400D02*
X89500D01*
X83800D02*
X84100D01*
X81200D02*
X82000D01*
X78400D02*
X79200D01*
X73000D02*
X75100D01*
X118200Y39600D02*
X120200D01*
X114300D02*
X117500D01*
X112300D02*
X113700D01*
X102600D02*
X111600D01*
X98500D02*
X99200D01*
X95400D02*
X96400D01*
X92300D02*
X93800D01*
X87600D02*
X89500D01*
X83800D02*
X84200D01*
X81300D02*
X82000D01*
X78500D02*
X79300D01*
X73000D02*
X75100D01*
X118200Y39500D02*
X120200D01*
X114300D02*
X117500D01*
X112300D02*
X113700D01*
X102600D02*
X111600D01*
X98500D02*
X99200D01*
X95400D02*
X96400D01*
X92300D02*
X93800D01*
X87700D02*
X89500D01*
X83800D02*
X84200D01*
X81400D02*
X82000D01*
X78600D02*
X79400D01*
X73000D02*
X75100D01*
X118200Y39400D02*
X120200D01*
X114300D02*
X117500D01*
X112300D02*
X113700D01*
X102700D02*
X111600D01*
X98500D02*
X99200D01*
X95400D02*
X96300D01*
X92400D02*
X93800D01*
X87800D02*
X89500D01*
X83800D02*
X84200D01*
X81400D02*
X82000D01*
X78600D02*
X79400D01*
X73000D02*
X75100D01*
X118200Y39300D02*
X120200D01*
X114300D02*
X117500D01*
X112300D02*
X113700D01*
X110800D02*
X111600D01*
X107300D02*
X110400D01*
X103400D02*
X106800D01*
X102700D02*
X103000D01*
X98500D02*
X99200D01*
X95400D02*
X96300D01*
X92400D02*
X93800D01*
X87900D02*
X89400D01*
X83800D02*
X84200D01*
X81500D02*
X82000D01*
X78700D02*
X79500D01*
X73000D02*
X75100D01*
X118200Y39200D02*
X120200D01*
X114300D02*
X117500D01*
X112300D02*
X113700D01*
X111000D02*
X111600D01*
X107600D02*
X110100D01*
X104700D02*
X106500D01*
X104300D02*
X104600D01*
X103600D02*
X104200D01*
X102800D02*
X103000D01*
X98500D02*
X99200D01*
X95400D02*
X96200D01*
X92400D02*
X93800D01*
X87900D02*
X89400D01*
X83800D02*
X84200D01*
X81600D02*
X82000D01*
X78700D02*
X79500D01*
X73000D02*
X75100D01*
X118200Y39100D02*
X120200D01*
X114900D02*
X117500D01*
X112300D02*
X112900D01*
X111200D02*
X111600D01*
X107800D02*
X110000D01*
X104800D02*
X106300D01*
X103800D02*
X104200D01*
X102800D02*
X103000D01*
X98500D02*
X99200D01*
X95400D02*
X96100D01*
X92500D02*
X93800D01*
X88000D02*
X89400D01*
X83800D02*
X84200D01*
X81600D02*
X82000D01*
X78700D02*
X79600D01*
X73000D02*
X75100D01*
X118200Y39000D02*
X120200D01*
X114900D02*
X117500D01*
X112300D02*
X112900D01*
X111300D02*
X111600D01*
X107900D02*
X109800D01*
X104800D02*
X106200D01*
X103900D02*
X104200D01*
X102800D02*
X103000D01*
X98500D02*
X99300D01*
X95400D02*
X96100D01*
X92500D02*
X93800D01*
X88100D02*
X89400D01*
X83800D02*
X84200D01*
X81700D02*
X82000D01*
X78800D02*
X79700D01*
X73000D02*
X75100D01*
X118200Y38900D02*
X120200D01*
X114900D02*
X117500D01*
X112300D02*
X112900D01*
X111400D02*
X111600D01*
X108100D02*
X109700D01*
X104800D02*
X106100D01*
X103900D02*
X104200D01*
X102800D02*
X103000D01*
X98500D02*
X99300D01*
X95400D02*
X96000D01*
X92500D02*
X93800D01*
X88100D02*
X89300D01*
X83800D02*
X84200D01*
X81800D02*
X82000D01*
X78800D02*
X79700D01*
X73000D02*
X75100D01*
X118200Y38800D02*
X120200D01*
X114900D02*
X117500D01*
X112300D02*
X112900D01*
X111500D02*
X111600D01*
X108100D02*
X109700D01*
X104800D02*
X106000D01*
X104000D02*
X104200D01*
X102900D02*
X103000D01*
X98500D02*
X99300D01*
X95400D02*
X96000D01*
X92500D02*
X93800D01*
X88200D02*
X89300D01*
X83800D02*
X84200D01*
X81800D02*
X82000D01*
X78800D02*
X79800D01*
X73000D02*
X75100D01*
X118200Y38700D02*
X120200D01*
X114900D02*
X117500D01*
X112300D02*
X112900D01*
X108200D02*
X109600D01*
X104800D02*
X105900D01*
X104100D02*
X104200D01*
X102900D02*
X103000D01*
X100200D02*
X101000D01*
X98500D02*
X99300D01*
X95400D02*
X95900D01*
X92600D02*
X93800D01*
X88200D02*
X89300D01*
X85100D02*
X85800D01*
X83800D02*
X84200D01*
X81900D02*
X82000D01*
X78800D02*
X79800D01*
X76200D02*
X76900D01*
X73000D02*
X75200D01*
X118200Y38600D02*
X120200D01*
X114300D02*
X117500D01*
X112300D02*
X113700D01*
X110400D02*
X111000D01*
X108300D02*
X109500D01*
X106700D02*
X107400D01*
X104800D02*
X105800D01*
X104100D02*
X104200D01*
X102900D02*
X103000D01*
X99800D02*
X101100D01*
X98500D02*
X99300D01*
X95400D02*
X95900D01*
X92600D02*
X93800D01*
X88200D02*
X89300D01*
X84700D02*
X86100D01*
X83800D02*
X84300D01*
X81900D02*
X82000D01*
X78900D02*
X79900D01*
X75700D02*
X77000D01*
X73000D02*
X75200D01*
X118200Y38500D02*
X120200D01*
X114300D02*
X117500D01*
X112300D02*
X113700D01*
X110300D02*
X111200D01*
X108400D02*
X109500D01*
X106500D02*
X107600D01*
X104800D02*
X105800D01*
X102900D02*
X103500D01*
X99500D02*
X101000D01*
X98500D02*
X99300D01*
X95400D02*
X95800D01*
X92600D02*
X93800D01*
X88300D02*
X89200D01*
X84500D02*
X86200D01*
X83800D02*
X84300D01*
X78900D02*
X80000D01*
X75400D02*
X76900D01*
X73000D02*
X75200D01*
X118200Y38400D02*
X120200D01*
X114300D02*
X117500D01*
X112300D02*
X113700D01*
X110200D02*
X111200D01*
X108400D02*
X109500D01*
X106500D02*
X107600D01*
X104800D02*
X105700D01*
X102900D02*
X103600D01*
X98500D02*
X100800D01*
X95400D02*
X95800D01*
X92600D02*
X93800D01*
X90900D02*
X91000D01*
X88300D02*
X89200D01*
X83800D02*
X86300D01*
X78900D02*
X80100D01*
X73000D02*
X76700D01*
X118200Y38300D02*
X120200D01*
X117400D02*
X117500D01*
X114300D02*
X115700D01*
X112300D02*
X113700D01*
X110100D02*
X111300D01*
X108500D02*
X109400D01*
X106400D02*
X107700D01*
X104800D02*
X105700D01*
X102900D02*
X103800D01*
X98500D02*
X100500D01*
X95400D02*
X95800D01*
X92700D02*
X93800D01*
X90900D02*
X91000D01*
X88300D02*
X89200D01*
X83800D02*
X86400D01*
X78800D02*
X80100D01*
X73000D02*
X76400D01*
X118200Y38200D02*
X120200D01*
X114300D02*
X115600D01*
X112300D02*
X113700D01*
X110100D02*
X111400D01*
X108500D02*
X109400D01*
X106400D02*
X107800D01*
X104800D02*
X105600D01*
X102900D02*
X103900D01*
X98500D02*
X100200D01*
X95400D02*
X95700D01*
X92700D02*
X93800D01*
X90800D02*
X91000D01*
X88300D02*
X89100D01*
X83800D02*
X86500D01*
X78800D02*
X80200D01*
X73000D02*
X76200D01*
X118200Y38100D02*
X120200D01*
X114300D02*
X115600D01*
X112300D02*
X113700D01*
X110100D02*
X111400D01*
X108600D02*
X109400D01*
X106300D02*
X107800D01*
X104800D02*
X105600D01*
X102800D02*
X103900D01*
X98500D02*
X100000D01*
X95400D02*
X95700D01*
X92700D02*
X93800D01*
X90800D02*
X91000D01*
X88300D02*
X89100D01*
X83800D02*
X86500D01*
X78800D02*
X80300D01*
X73000D02*
X76000D01*
X118200Y38000D02*
X120200D01*
X114300D02*
X115600D01*
X112300D02*
X113700D01*
X110100D02*
X111400D01*
X108600D02*
X109400D01*
X106300D02*
X107900D01*
X104800D02*
X105600D01*
X102800D02*
X104000D01*
X98500D02*
X99800D01*
X95400D02*
X95600D01*
X92800D02*
X93800D01*
X90800D02*
X91100D01*
X88400D02*
X89100D01*
X83800D02*
X86500D01*
X78800D02*
X80300D01*
X73000D02*
X75800D01*
X118200Y37900D02*
X120200D01*
X114300D02*
X115600D01*
X112300D02*
X113700D01*
X110100D02*
X111500D01*
X108600D02*
X109400D01*
X106300D02*
X107900D01*
X104800D02*
X105600D01*
X102800D02*
X104000D01*
X98500D02*
X99700D01*
X95400D02*
X95600D01*
X92800D02*
X93800D01*
X90800D02*
X91100D01*
X88400D02*
X89000D01*
X83800D02*
X86600D01*
X78700D02*
X80400D01*
X73000D02*
X75600D01*
X118200Y37800D02*
X120200D01*
X114300D02*
X115600D01*
X112300D02*
X113700D01*
X110100D02*
X111500D01*
X108600D02*
X109400D01*
X106200D02*
X107900D01*
X104800D02*
X105600D01*
X102800D02*
X104000D01*
X98500D02*
X99500D01*
X95400D02*
X95500D01*
X92800D02*
X93800D01*
X90700D02*
X91100D01*
X88400D02*
X89000D01*
X83800D02*
X86600D01*
X78700D02*
X80400D01*
X73000D02*
X75500D01*
X118200Y37700D02*
X120200D01*
X114300D02*
X115600D01*
X112300D02*
X113700D01*
X110100D02*
X111500D01*
X108700D02*
X109400D01*
X106200D02*
X107900D01*
X104800D02*
X105500D01*
X102700D02*
X104100D01*
X98500D02*
X99400D01*
X95400D02*
X95500D01*
X92800D02*
X93800D01*
X90700D02*
X91100D01*
X88400D02*
X89000D01*
X83800D02*
X86600D01*
X78700D02*
X80500D01*
X73000D02*
X75300D01*
X118200Y37600D02*
X120200D01*
X114300D02*
X115600D01*
X112300D02*
X113700D01*
X110100D02*
X111500D01*
X108700D02*
X109400D01*
X106200D02*
X108000D01*
X104800D02*
X105500D01*
X102700D02*
X104100D01*
X98500D02*
X99300D01*
X92800D02*
X93800D01*
X90700D02*
X91100D01*
X88400D02*
X89000D01*
X83800D02*
X86600D01*
X78600D02*
X80400D01*
X73000D02*
X75200D01*
X118200Y37500D02*
X120200D01*
X114300D02*
X117500D01*
X112300D02*
X113700D01*
X110100D02*
X111500D01*
X108700D02*
X109400D01*
X104800D02*
X105500D01*
X102600D02*
X104100D01*
X98500D02*
X99200D01*
X92900D02*
X93800D01*
X90700D02*
X91200D01*
X88400D02*
X88900D01*
X83800D02*
X86600D01*
X78500D02*
X80400D01*
X73000D02*
X75100D01*
X118200Y37400D02*
X120200D01*
X114300D02*
X117500D01*
X112300D02*
X113700D01*
X110100D02*
X111600D01*
X108700D02*
X109400D01*
X104800D02*
X105500D01*
X102500D02*
X104100D01*
X98500D02*
X99100D01*
X92900D02*
X93800D01*
X90700D02*
X91200D01*
X88400D02*
X88900D01*
X83800D02*
X86600D01*
X78500D02*
X80300D01*
X73000D02*
X75100D01*
X118200Y37300D02*
X120200D01*
X114300D02*
X117500D01*
X112300D02*
X113700D01*
X110100D02*
X111600D01*
X108700D02*
X109400D01*
X104800D02*
X105500D01*
X102400D02*
X104100D01*
X98500D02*
X99100D01*
X96800D02*
X96900D01*
X92900D02*
X93800D01*
X90600D02*
X91200D01*
X88400D02*
X88900D01*
X83800D02*
X86600D01*
X78400D02*
X80300D01*
X73000D02*
X75000D01*
X118200Y37200D02*
X120200D01*
X114300D02*
X117500D01*
X112300D02*
X113700D01*
X110100D02*
X111600D01*
X108700D02*
X109400D01*
X104800D02*
X105500D01*
X102300D02*
X104100D01*
X98500D02*
X99000D01*
X96800D02*
X96900D01*
X92900D02*
X93800D01*
X88400D02*
X88900D01*
X83800D02*
X86600D01*
X78300D02*
X80200D01*
X73000D02*
X75000D01*
X118200Y37100D02*
X120200D01*
X114300D02*
X117500D01*
X112300D02*
X113700D01*
X110100D02*
X111600D01*
X108800D02*
X109400D01*
X104800D02*
X105500D01*
X102200D02*
X104100D01*
X98500D02*
X99000D01*
X96700D02*
X96900D01*
X93000D02*
X93800D01*
X88400D02*
X88800D01*
X83800D02*
X86600D01*
X78100D02*
X80100D01*
X73000D02*
X74900D01*
X118200Y37000D02*
X120200D01*
X114300D02*
X117500D01*
X112300D02*
X113700D01*
X110100D02*
X111600D01*
X108700D02*
X109400D01*
X104800D02*
X105500D01*
X102000D02*
X104100D01*
X98500D02*
X99000D01*
X96700D02*
X96900D01*
X93000D02*
X93800D01*
X88400D02*
X88800D01*
X83800D02*
X86500D01*
X77900D02*
X80100D01*
X73000D02*
X74900D01*
X118200Y36900D02*
X120200D01*
X114300D02*
X117500D01*
X112300D02*
X113700D01*
X110100D02*
X111600D01*
X108700D02*
X109400D01*
X104800D02*
X108000D01*
X101700D02*
X104100D01*
X98500D02*
X98900D01*
X96600D02*
X96900D01*
X93000D02*
X93800D01*
X88300D02*
X88700D01*
X83800D02*
X86500D01*
X81900D02*
X82000D01*
X77600D02*
X80000D01*
X73000D02*
X74900D01*
X118200Y36800D02*
X120200D01*
X114300D02*
X117500D01*
X112300D02*
X113700D01*
X110100D02*
X111600D01*
X108700D02*
X109400D01*
X104800D02*
X108000D01*
X101500D02*
X104100D01*
X98500D02*
X98900D01*
X96600D02*
X96900D01*
X93000D02*
X93800D01*
X88300D02*
X88700D01*
X83800D02*
X86400D01*
X81900D02*
X82000D01*
X77400D02*
X80000D01*
X73000D02*
X74900D01*
X118200Y36700D02*
X120200D01*
X114300D02*
X117500D01*
X112300D02*
X113700D01*
X110100D02*
X111600D01*
X108700D02*
X109400D01*
X104800D02*
X108000D01*
X101200D02*
X104100D01*
X98500D02*
X98900D01*
X96500D02*
X96900D01*
X93000D02*
X93800D01*
X88300D02*
X88700D01*
X83800D02*
X86300D01*
X81900D02*
X82000D01*
X78700D02*
X79900D01*
X77100D02*
X78600D01*
X73000D02*
X74900D01*
X118200Y36600D02*
X120200D01*
X114300D02*
X117500D01*
X112300D02*
X113700D01*
X110100D02*
X111600D01*
X108700D02*
X109400D01*
X104800D02*
X108000D01*
X102800D02*
X104100D01*
X100900D02*
X102500D01*
X98500D02*
X98900D01*
X96500D02*
X96900D01*
X93100D02*
X93800D01*
X88300D02*
X88700D01*
X84400D02*
X86300D01*
X83800D02*
X84300D01*
X81800D02*
X82000D01*
X78700D02*
X79800D01*
X76800D02*
X78400D01*
X73000D02*
X74900D01*
X118200Y36500D02*
X120200D01*
X114300D02*
X117500D01*
X112300D02*
X113700D01*
X110100D02*
X111600D01*
X108700D02*
X109400D01*
X104800D02*
X108000D01*
X102800D02*
X104100D01*
X100800D02*
X102300D01*
X98500D02*
X98900D01*
X96500D02*
X96900D01*
X93100D02*
X93800D01*
X88300D02*
X88700D01*
X84500D02*
X86100D01*
X83800D02*
X84200D01*
X81800D02*
X82000D01*
X78700D02*
X79700D01*
X76700D02*
X78200D01*
X73000D02*
X74900D01*
X118200Y36400D02*
X120200D01*
X114300D02*
X117500D01*
X112300D02*
X113700D01*
X110100D02*
X111600D01*
X108700D02*
X109400D01*
X104800D02*
X107900D01*
X102800D02*
X104100D01*
X100700D02*
X101900D01*
X98500D02*
X98900D01*
X96400D02*
X96900D01*
X93100D02*
X93800D01*
X88300D02*
X88600D01*
X84900D02*
X85900D01*
X83800D02*
X84200D01*
X81700D02*
X82000D01*
X78700D02*
X79700D01*
X76700D02*
X77900D01*
X73000D02*
X74900D01*
X118200Y36300D02*
X120200D01*
X114300D02*
X117500D01*
X112300D02*
X113700D01*
X110100D02*
X111600D01*
X108600D02*
X109400D01*
X106200D02*
X107900D01*
X104800D02*
X105800D01*
X102800D02*
X104100D01*
X98500D02*
X98900D01*
X96400D02*
X96900D01*
X93200D02*
X93800D01*
X88200D02*
X88600D01*
X83800D02*
X84200D01*
X81700D02*
X82000D01*
X78700D02*
X79600D01*
X73000D02*
X74900D01*
X118200Y36200D02*
X120200D01*
X114300D02*
X117500D01*
X112300D02*
X113700D01*
X110100D02*
X111600D01*
X108600D02*
X109400D01*
X106200D02*
X107900D01*
X104800D02*
X105600D01*
X102800D02*
X104100D01*
X98500D02*
X98900D01*
X96300D02*
X96900D01*
X93200D02*
X93800D01*
X88200D02*
X88600D01*
X83800D02*
X84200D01*
X81600D02*
X82000D01*
X78700D02*
X79600D01*
X73000D02*
X74900D01*
X118200Y36100D02*
X120200D01*
X114300D02*
X117500D01*
X112300D02*
X113700D01*
X110100D02*
X111600D01*
X108600D02*
X109400D01*
X106300D02*
X107800D01*
X104800D02*
X105600D01*
X102800D02*
X104100D01*
X98500D02*
X98900D01*
X96300D02*
X96900D01*
X93200D02*
X93800D01*
X88100D02*
X88600D01*
X83800D02*
X84200D01*
X81500D02*
X82000D01*
X78700D02*
X79500D01*
X73000D02*
X74900D01*
X118200Y36000D02*
X120200D01*
X114300D02*
X117500D01*
X112300D02*
X113700D01*
X110100D02*
X111600D01*
X108500D02*
X109400D01*
X106300D02*
X107800D01*
X104800D02*
X105600D01*
X102800D02*
X104100D01*
X98500D02*
X99000D01*
X96200D02*
X96900D01*
X93300D02*
X93800D01*
X88100D02*
X88600D01*
X83800D02*
X84200D01*
X81500D02*
X82000D01*
X78700D02*
X79500D01*
X73000D02*
X74900D01*
X118200Y35900D02*
X120200D01*
X114300D02*
X117500D01*
X112300D02*
X113700D01*
X110100D02*
X111600D01*
X108500D02*
X109400D01*
X106400D02*
X107700D01*
X104800D02*
X105600D01*
X102800D02*
X104100D01*
X98500D02*
X99000D01*
X96200D02*
X96900D01*
X93300D02*
X93800D01*
X88000D02*
X88500D01*
X83800D02*
X84200D01*
X81400D02*
X82000D01*
X78700D02*
X79400D01*
X73000D02*
X74900D01*
X118200Y35800D02*
X120200D01*
X114300D02*
X117500D01*
X112300D02*
X113600D01*
X110100D02*
X111600D01*
X108400D02*
X109400D01*
X106500D02*
X107600D01*
X104800D02*
X105700D01*
X102800D02*
X104100D01*
X98500D02*
X99000D01*
X96100D02*
X96900D01*
X93300D02*
X93800D01*
X87900D02*
X88500D01*
X83800D02*
X84100D01*
X81400D02*
X82000D01*
X78800D02*
X79300D01*
X73000D02*
X75000D01*
X118200Y35700D02*
X120200D01*
X114300D02*
X115100D01*
X112300D02*
X113500D01*
X110100D02*
X111600D01*
X108400D02*
X109400D01*
X106600D02*
X107400D01*
X104800D02*
X105800D01*
X102800D02*
X104100D01*
X98500D02*
X99000D01*
X96100D02*
X96900D01*
X93300D02*
X93800D01*
X90300D02*
X91500D01*
X87800D02*
X88500D01*
X83800D02*
X84100D01*
X81300D02*
X82000D01*
X78800D02*
X79300D01*
X73000D02*
X75000D01*
X118200Y35600D02*
X120200D01*
X114200D02*
X115000D01*
X112300D02*
X112700D01*
X110100D02*
X111600D01*
X108300D02*
X109400D01*
X104800D02*
X105800D01*
X102800D02*
X104100D01*
X98500D02*
X99100D01*
X96000D02*
X96900D01*
X93400D02*
X93800D01*
X90300D02*
X91500D01*
X87800D02*
X88500D01*
X83800D02*
X84200D01*
X81200D02*
X82000D01*
X78800D02*
X79200D01*
X73000D02*
X75000D01*
X118200Y35500D02*
X120200D01*
X114200D02*
X115000D01*
X112300D02*
X112700D01*
X110100D02*
X111600D01*
X108200D02*
X109400D01*
X104800D02*
X105900D01*
X102900D02*
X104100D01*
X98500D02*
X99200D01*
X95900D02*
X96900D01*
X93400D02*
X93800D01*
X90300D02*
X91500D01*
X87600D02*
X88400D01*
X83800D02*
X84200D01*
X81200D02*
X82000D01*
X78800D02*
X79100D01*
X73000D02*
X75100D01*
X118200Y35400D02*
X120200D01*
X114100D02*
X115000D01*
X112300D02*
X112700D01*
X110100D02*
X111600D01*
X108200D02*
X109400D01*
X104800D02*
X106000D01*
X102900D02*
X104100D01*
X98500D02*
X99300D01*
X95900D02*
X96900D01*
X93400D02*
X93800D01*
X90300D02*
X91500D01*
X87500D02*
X88400D01*
X83800D02*
X84100D01*
X81100D02*
X82000D01*
X78800D02*
X79000D01*
X73000D02*
X75200D01*
X118200Y35300D02*
X120200D01*
X114100D02*
X115000D01*
X112300D02*
X112700D01*
X110100D02*
X111600D01*
X108000D02*
X109400D01*
X104800D02*
X106100D01*
X102900D02*
X104100D01*
X98500D02*
X99400D01*
X95800D02*
X96900D01*
X93500D02*
X93800D01*
X90200D02*
X91600D01*
X87400D02*
X88400D01*
X83800D02*
X84100D01*
X81100D02*
X82000D01*
X78800D02*
X79000D01*
X73000D02*
X75300D01*
X118200Y35200D02*
X120200D01*
X113900D02*
X115000D01*
X112300D02*
X112700D01*
X110100D02*
X111600D01*
X107900D02*
X109400D01*
X104800D02*
X106200D01*
X102900D02*
X104100D01*
X98500D02*
X99500D01*
X95700D02*
X96900D01*
X93500D02*
X93800D01*
X90200D02*
X91600D01*
X87300D02*
X88300D01*
X83800D02*
X84100D01*
X81000D02*
X82000D01*
X78800D02*
X78900D01*
X73000D02*
X75400D01*
X118200Y35100D02*
X120200D01*
X113800D02*
X115000D01*
X112200D02*
X112700D01*
X110100D02*
X111600D01*
X107700D02*
X109400D01*
X104800D02*
X106500D01*
X102700D02*
X104100D01*
X98500D02*
X99600D01*
X95700D02*
X96900D01*
X93500D02*
X93800D01*
X90200D02*
X91600D01*
X87100D02*
X88300D01*
X83800D02*
X84200D01*
X81000D02*
X82000D01*
X78600D02*
X78800D01*
X73000D02*
X75700D01*
X113500Y35000D02*
X120200D01*
X107300D02*
X112900D01*
X102300D02*
X106800D01*
X98500D02*
X99900D01*
X95700D02*
X96900D01*
X93600D02*
X93800D01*
X90100D02*
X91600D01*
X86800D02*
X88300D01*
X83800D02*
X84600D01*
X80900D02*
X82000D01*
X78200D02*
X78700D01*
X73000D02*
X75900D01*
X101900Y34900D02*
X120200D01*
X86400D02*
X100200D01*
X77900D02*
X84900D01*
X73000D02*
X76100D01*
X73000Y34800D02*
X120200D01*
X73000Y34700D02*
X120200D01*
X73000Y34600D02*
X120200D01*
X95700Y34500D02*
X120200D01*
X73000D02*
X92600D01*
X95700Y34400D02*
X120200D01*
X73000D02*
X92500D01*
X95600Y34300D02*
X120200D01*
X73000D02*
X92400D01*
X95500Y34200D02*
X120200D01*
X73000D02*
X92400D01*
X95500Y34100D02*
X120200D01*
X73000D02*
X92300D01*
X95400Y34000D02*
X120200D01*
X73000D02*
X92300D01*
X95300Y33900D02*
X120200D01*
X73000D02*
X92200D01*
X95300Y33800D02*
X120200D01*
X73000D02*
X92200D01*
X95200Y33700D02*
X120200D01*
X73000D02*
X92100D01*
X95100Y33600D02*
X120200D01*
X73000D02*
X92000D01*
X95000Y33500D02*
X120200D01*
X73000D02*
X92000D01*
X94900Y33400D02*
X120200D01*
X73000D02*
X91900D01*
X94800Y33300D02*
X120200D01*
X73000D02*
X91900D01*
X94700Y33200D02*
X120200D01*
X73000D02*
X91800D01*
X94700Y33100D02*
X120200D01*
X73000D02*
X91700D01*
X94600Y33000D02*
X120200D01*
X73000D02*
X91700D01*
X94600Y32900D02*
X120200D01*
X73000D02*
X91600D01*
X94500Y32800D02*
X120200D01*
X73000D02*
X91600D01*
X94400Y32700D02*
X120200D01*
X73000D02*
X91500D01*
X94300Y32600D02*
X120200D01*
X73000D02*
X91400D01*
X94300Y32500D02*
X120200D01*
X73000D02*
X91400D01*
X94200Y32400D02*
X120200D01*
X73000D02*
X91300D01*
X94100Y32300D02*
X120200D01*
X73000D02*
X91300D01*
X94000Y32200D02*
X120200D01*
X73000D02*
X91200D01*
X93900Y32100D02*
X120200D01*
X73000D02*
X91200D01*
X93900Y32000D02*
X120200D01*
X73000D02*
X91100D01*
X93800Y31900D02*
X120200D01*
X73000D02*
X91100D01*
X93700Y31800D02*
X120200D01*
X73000D02*
X91100D01*
X73000Y31700D02*
X120200D01*
X73000Y31600D02*
X120200D01*
X73000Y31500D02*
X120200D01*
X73000Y31400D02*
X120200D01*
X73000Y31300D02*
X120200D01*
X73000Y31200D02*
X120200D01*
X73000Y31100D02*
X120200D01*
X73000Y31000D02*
X120200D01*
X73000Y30900D02*
X120200D01*
X73000Y30800D02*
X120200D01*
X73000Y30700D02*
X120200D01*
X73000Y30600D02*
X120200D01*
X73000Y30500D02*
X120200D01*
D147*
X111020Y199800D02*
X112220D01*
X110780Y199760D02*
X112500D01*
X110540Y199720D02*
X112700D01*
X110380Y199680D02*
X112860D01*
X110260Y199640D02*
X113020D01*
X110100Y199600D02*
X113140D01*
X109980Y199560D02*
X113260D01*
X109860Y199520D02*
X113380D01*
X109780Y199480D02*
X113460D01*
X109700Y199440D02*
X113580D01*
X109580Y199400D02*
X113660D01*
X109500Y199360D02*
X113740D01*
X112020Y199320D02*
X113820D01*
X109420D02*
X111220D01*
X112340Y199280D02*
X113900D01*
X109340D02*
X110900D01*
X112580Y199240D02*
X113980D01*
X109260D02*
X110700D01*
X112740Y199200D02*
X114060D01*
X109180D02*
X110500D01*
X112900Y199160D02*
X114140D01*
X109140D02*
X110380D01*
X113020Y199120D02*
X114220D01*
X109060D02*
X110220D01*
X113140Y199080D02*
X114260D01*
X108980D02*
X110100D01*
X113260Y199040D02*
X114340D01*
X108940D02*
X110020D01*
X113340Y199000D02*
X114380D01*
X108860D02*
X109900D01*
X113420Y198960D02*
X114460D01*
X108820D02*
X109820D01*
X113540Y198920D02*
X114500D01*
X108740D02*
X109740D01*
X113620Y198880D02*
X114580D01*
X108700D02*
X109660D01*
X113700Y198840D02*
X114620D01*
X108620D02*
X109580D01*
X113740Y198800D02*
X114660D01*
X108580D02*
X109500D01*
X113820Y198760D02*
X114700D01*
X108540D02*
X109420D01*
X113900Y198720D02*
X114780D01*
X108500D02*
X109340D01*
X113980Y198680D02*
X114820D01*
X108420D02*
X109300D01*
X114020Y198640D02*
X114860D01*
X108380D02*
X109220D01*
X114100Y198600D02*
X114900D01*
X108340D02*
X109180D01*
X114140Y198560D02*
X114940D01*
X108300D02*
X109100D01*
X114220Y198520D02*
X114980D01*
X108260D02*
X109060D01*
X114260Y198480D02*
X115060D01*
X108220D02*
X108980D01*
X114300Y198440D02*
X115100D01*
X108180D02*
X108940D01*
X114380Y198400D02*
X115140D01*
X108140D02*
X108900D01*
X114420Y198360D02*
X115180D01*
X108100D02*
X108820D01*
X114460Y198320D02*
X115220D01*
X108060D02*
X108780D01*
X114500Y198280D02*
X115260D01*
X111300D02*
X112060D01*
X111220D02*
X111260D01*
X108020D02*
X108740D01*
X114580Y198240D02*
X115260D01*
X110900D02*
X112340D01*
X107980D02*
X108700D01*
X114620Y198200D02*
X115300D01*
X110740D02*
X112540D01*
X107940D02*
X108660D01*
X114660Y198160D02*
X115340D01*
X110540D02*
X112700D01*
X107900D02*
X108580D01*
X114700Y198120D02*
X115380D01*
X110380D02*
X112860D01*
X107860D02*
X108540D01*
X114740Y198080D02*
X115420D01*
X110260D02*
X112980D01*
X107820D02*
X108500D01*
X114780Y198040D02*
X115460D01*
X110140D02*
X113060D01*
X107820D02*
X108460D01*
X114820Y198000D02*
X115500D01*
X110020D02*
X113180D01*
X107780D02*
X108420D01*
X114860Y197960D02*
X115500D01*
X109940D02*
X113260D01*
X107740D02*
X108380D01*
X114900Y197920D02*
X115540D01*
X111780D02*
X113340D01*
X109820D02*
X111260D01*
X107700D02*
X108340D01*
X114940Y197880D02*
X115580D01*
X111820D02*
X113420D01*
X109740D02*
X111300D01*
X107660D02*
X108340D01*
X114980Y197840D02*
X115620D01*
X111820D02*
X113500D01*
X110820D02*
X111300D01*
X109660D02*
X110660D01*
X107660D02*
X108300D01*
X115020Y197800D02*
X115620D01*
X111860D02*
X113580D01*
X110860D02*
X111340D01*
X109580D02*
X110500D01*
X107620D02*
X108260D01*
X115020Y197760D02*
X115660D01*
X111860D02*
X113620D01*
X110900D02*
X111340D01*
X109540D02*
X110380D01*
X107580D02*
X108220D01*
X115060Y197720D02*
X115700D01*
X111900D02*
X113700D01*
X110900D02*
X111380D01*
X109460D02*
X110260D01*
X107540D02*
X108180D01*
X115100Y197680D02*
X115740D01*
X111900D02*
X113740D01*
X110940D02*
X111420D01*
X109420D02*
X110140D01*
X107540D02*
X108140D01*
X115140Y197640D02*
X115740D01*
X111940D02*
X113820D01*
X110940D02*
X111420D01*
X109340D02*
X110020D01*
X107500D02*
X108100D01*
X115180Y197600D02*
X115780D01*
X111940D02*
X113860D01*
X110980D02*
X111460D01*
X109300D02*
X109940D01*
X107460D02*
X108100D01*
X115180Y197560D02*
X115820D01*
X111980D02*
X113940D01*
X110980D02*
X111460D01*
X109220D02*
X109860D01*
X107460D02*
X108060D01*
X115220Y197520D02*
X115820D01*
X111980D02*
X113980D01*
X111020D02*
X111500D01*
X109180D02*
X109780D01*
X107420D02*
X108020D01*
X115260Y197480D02*
X115860D01*
X112020D02*
X114020D01*
X111020D02*
X111500D01*
X109140D02*
X109700D01*
X107380D02*
X107980D01*
X115300Y197440D02*
X115860D01*
X112060D02*
X114060D01*
X111060D02*
X111540D01*
X109100D02*
X109660D01*
X107380D02*
X107980D01*
X115300Y197400D02*
X115900D01*
X112060D02*
X114100D01*
X111060D02*
X111540D01*
X109060D02*
X109580D01*
X107340D02*
X107940D01*
X115340Y197360D02*
X115940D01*
X112100D02*
X114140D01*
X111100D02*
X111580D01*
X109020D02*
X109540D01*
X107340D02*
X107900D01*
X115380Y197320D02*
X115940D01*
X112100D02*
X114180D01*
X111100D02*
X111580D01*
X108980D02*
X109460D01*
X107300D02*
X107900D01*
X115380Y197280D02*
X115980D01*
X112140D02*
X114220D01*
X111140D02*
X111620D01*
X108940D02*
X109420D01*
X107300D02*
X107860D01*
X115420Y197240D02*
X115980D01*
X112140D02*
X114260D01*
X111140D02*
X111660D01*
X108900D02*
X109380D01*
X107260D02*
X107860D01*
X115460Y197200D02*
X116020D01*
X112180D02*
X114300D01*
X111180D02*
X111660D01*
X108860D02*
X109340D01*
X107260D02*
X107820D01*
X115460Y197160D02*
X116020D01*
X112180D02*
X114340D01*
X111220D02*
X111700D01*
X108820D02*
X109340D01*
X107220D02*
X107780D01*
X115500Y197120D02*
X116060D01*
X112220D02*
X114380D01*
X111220D02*
X111700D01*
X108780D02*
X109340D01*
X107180D02*
X107780D01*
X115500Y197080D02*
X116060D01*
X112220D02*
X114380D01*
X111260D02*
X111740D01*
X108780D02*
X109380D01*
X107180D02*
X107740D01*
X115540Y197040D02*
X116100D01*
X112260D02*
X114420D01*
X111260D02*
X111740D01*
X108740D02*
X109380D01*
X107180D02*
X107740D01*
X115540Y197000D02*
X116100D01*
X112260D02*
X114460D01*
X111300D02*
X111780D01*
X108700D02*
X109420D01*
X107140D02*
X107700D01*
X115580Y196960D02*
X116140D01*
X112300D02*
X114460D01*
X111300D02*
X111780D01*
X108700D02*
X109420D01*
X107140D02*
X107700D01*
X115580Y196920D02*
X116140D01*
X112300D02*
X114500D01*
X111340D02*
X111820D01*
X108660D02*
X109460D01*
X107100D02*
X107660D01*
X115620Y196880D02*
X116180D01*
X112340D02*
X114500D01*
X111340D02*
X111820D01*
X108660D02*
X109460D01*
X107100D02*
X107660D01*
X115620Y196840D02*
X116180D01*
X112380D02*
X114540D01*
X111380D02*
X111860D01*
X108620D02*
X109500D01*
X107060D02*
X107620D01*
X115660Y196800D02*
X116180D01*
X112380D02*
X114540D01*
X111380D02*
X111860D01*
X108620D02*
X109500D01*
X107060D02*
X107620D01*
X115660Y196760D02*
X116220D01*
X112420D02*
X114580D01*
X111420D02*
X111900D01*
X108580D02*
X109540D01*
X107020D02*
X107580D01*
X115700Y196720D02*
X116220D01*
X112420D02*
X114580D01*
X111420D02*
X111940D01*
X108580D02*
X109580D01*
X107020D02*
X107580D01*
X115700Y196680D02*
X116260D01*
X112460D02*
X114620D01*
X111460D02*
X111940D01*
X108540D02*
X109580D01*
X107020D02*
X107540D01*
X115740Y196640D02*
X116260D01*
X112460D02*
X114620D01*
X111500D02*
X111980D01*
X108540D02*
X109620D01*
X106980D02*
X107540D01*
X115740Y196600D02*
X116260D01*
X112500D02*
X114660D01*
X111500D02*
X111980D01*
X108540D02*
X109620D01*
X106980D02*
X107500D01*
X115740Y196560D02*
X116300D01*
X112500D02*
X114660D01*
X111540D02*
X112020D01*
X108500D02*
X109660D01*
X106980D02*
X107500D01*
X115780Y196520D02*
X116300D01*
X112540D02*
X114660D01*
X111540D02*
X112020D01*
X108500D02*
X109660D01*
X106940D02*
X107460D01*
X115780Y196480D02*
X116300D01*
X112580D02*
X114700D01*
X111580D02*
X112060D01*
X108500D02*
X109700D01*
X106940D02*
X107460D01*
X115820Y196440D02*
X116340D01*
X112580D02*
X114700D01*
X111580D02*
X112060D01*
X108460D02*
X109700D01*
X106940D02*
X107460D01*
X115820Y196400D02*
X116340D01*
X112580D02*
X114700D01*
X111620D02*
X112100D01*
X108460D02*
X109740D01*
X106900D02*
X107420D01*
X115820Y196360D02*
X116340D01*
X112620D02*
X114700D01*
X111620D02*
X112100D01*
X108460D02*
X109740D01*
X106900D02*
X107420D01*
X115860Y196320D02*
X116380D01*
X112660D02*
X114740D01*
X111660D02*
X112140D01*
X108420D02*
X109780D01*
X106900D02*
X107420D01*
X115860Y196280D02*
X116380D01*
X112660D02*
X114740D01*
X111660D02*
X112140D01*
X108420D02*
X109780D01*
X106860D02*
X107380D01*
X115860Y196240D02*
X116380D01*
X112700D02*
X114740D01*
X111700D02*
X112180D01*
X108420D02*
X109820D01*
X106860D02*
X107380D01*
X115900Y196200D02*
X116420D01*
X112700D02*
X114740D01*
X111700D02*
X112180D01*
X108420D02*
X109860D01*
X106860D02*
X107380D01*
X115900Y196160D02*
X116420D01*
X112740D02*
X114740D01*
X111740D02*
X112220D01*
X108420D02*
X109860D01*
X106860D02*
X107340D01*
X115900Y196120D02*
X116420D01*
X112740D02*
X114780D01*
X111740D02*
X112260D01*
X108380D02*
X109900D01*
X106820D02*
X107340D01*
X115900Y196080D02*
X116420D01*
X112780D02*
X114780D01*
X111780D02*
X112260D01*
X108380D02*
X109900D01*
X106820D02*
X107340D01*
X115940Y196040D02*
X116460D01*
X112780D02*
X114780D01*
X111820D02*
X112300D01*
X108380D02*
X109940D01*
X106820D02*
X107340D01*
X115940Y196000D02*
X116460D01*
X112820D02*
X114780D01*
X111820D02*
X112300D01*
X108380D02*
X109940D01*
X106820D02*
X107300D01*
X115940Y195960D02*
X116460D01*
X112820D02*
X114780D01*
X111860D02*
X112340D01*
X108380D02*
X109980D01*
X106780D02*
X107300D01*
X115940Y195920D02*
X116460D01*
X112860D02*
X114780D01*
X111860D02*
X112340D01*
X108380D02*
X109980D01*
X106780D02*
X107300D01*
X115980Y195880D02*
X116460D01*
X112900D02*
X114780D01*
X111900D02*
X112380D01*
X108380D02*
X110020D01*
X106780D02*
X107300D01*
X115980Y195840D02*
X116500D01*
X112900D02*
X114780D01*
X111900D02*
X112380D01*
X108380D02*
X110020D01*
X106780D02*
X107300D01*
X115980Y195800D02*
X116500D01*
X112940D02*
X114780D01*
X111940D02*
X112420D01*
X108380D02*
X110060D01*
X106780D02*
X107260D01*
X115980Y195760D02*
X116500D01*
X112940D02*
X114780D01*
X111940D02*
X112420D01*
X108380D02*
X110060D01*
X106740D02*
X107260D01*
X115980Y195720D02*
X116500D01*
X112980D02*
X114780D01*
X111980D02*
X112460D01*
X108380D02*
X110100D01*
X106740D02*
X107260D01*
X116020Y195680D02*
X116500D01*
X112980D02*
X114780D01*
X111980D02*
X112460D01*
X108380D02*
X110100D01*
X106740D02*
X107260D01*
X116020Y195640D02*
X116500D01*
X113020D02*
X114780D01*
X112020D02*
X112500D01*
X108380D02*
X110140D01*
X106740D02*
X107260D01*
X116020Y195600D02*
X116540D01*
X113020D02*
X114780D01*
X112060D02*
X112540D01*
X108380D02*
X110180D01*
X106740D02*
X107220D01*
X116020Y195560D02*
X116540D01*
X113060D02*
X114780D01*
X112060D02*
X112540D01*
X108380D02*
X110180D01*
X106740D02*
X107220D01*
X116020Y195520D02*
X116540D01*
X113060D02*
X114780D01*
X112100D02*
X112580D01*
X108380D02*
X110220D01*
X106740D02*
X107220D01*
X116020Y195480D02*
X116540D01*
X113100D02*
X114780D01*
X112100D02*
X112580D01*
X108380D02*
X110220D01*
X106700D02*
X107220D01*
X116020Y195440D02*
X116540D01*
X113100D02*
X114740D01*
X112140D02*
X112620D01*
X108420D02*
X110260D01*
X106700D02*
X107220D01*
X116060Y195400D02*
X116540D01*
X113140D02*
X114740D01*
X112140D02*
X112620D01*
X108420D02*
X110260D01*
X106700D02*
X107220D01*
X116060Y195360D02*
X116540D01*
X113140D02*
X114740D01*
X112180D02*
X112660D01*
X108420D02*
X110300D01*
X106700D02*
X107220D01*
X116060Y195320D02*
X116540D01*
X113180D02*
X114740D01*
X112180D02*
X112660D01*
X108420D02*
X110300D01*
X106700D02*
X107220D01*
X116060Y195280D02*
X116540D01*
X113220D02*
X114700D01*
X112220D02*
X112700D01*
X108460D02*
X110340D01*
X106700D02*
X107220D01*
X116060Y195240D02*
X116540D01*
X113220D02*
X114700D01*
X112220D02*
X112700D01*
X108460D02*
X110340D01*
X106700D02*
X107220D01*
X116060Y195200D02*
X116540D01*
X113260D02*
X114700D01*
X112260D02*
X112740D01*
X108460D02*
X110380D01*
X106700D02*
X107180D01*
X116060Y195160D02*
X116580D01*
X113260D02*
X114660D01*
X112260D02*
X112740D01*
X108500D02*
X110380D01*
X106700D02*
X107180D01*
X116060Y195120D02*
X116580D01*
X113300D02*
X114660D01*
X112300D02*
X112780D01*
X108500D02*
X110420D01*
X106700D02*
X107180D01*
X116060Y195080D02*
X116580D01*
X113300D02*
X114620D01*
X112300D02*
X112820D01*
X108540D02*
X110420D01*
X106700D02*
X107180D01*
X116060Y195040D02*
X116580D01*
X113340D02*
X114620D01*
X110940D02*
X112820D01*
X108540D02*
X110460D01*
X106700D02*
X107180D01*
X116060Y195000D02*
X116580D01*
X113340D02*
X114580D01*
X110620D02*
X112860D01*
X108580D02*
X110500D01*
X106700D02*
X107180D01*
X116060Y194960D02*
X116580D01*
X113380D02*
X114580D01*
X108580D02*
X113020D01*
X106700D02*
X107180D01*
X116060Y194920D02*
X116580D01*
X108620D02*
X114540D01*
X106700D02*
X107180D01*
X116060Y194880D02*
X116580D01*
X108660D02*
X114500D01*
X106700D02*
X107180D01*
X116060Y194840D02*
X116580D01*
X108700D02*
X114460D01*
X106700D02*
X107180D01*
X116060Y194800D02*
X116580D01*
X108740D02*
X114420D01*
X106700D02*
X107180D01*
X116060Y194760D02*
X116580D01*
X108780D02*
X114340D01*
X106700D02*
X107180D01*
X116060Y194720D02*
X116540D01*
X112100D02*
X114260D01*
X108860D02*
X111220D01*
X106700D02*
X107220D01*
X116060Y194680D02*
X116540D01*
X112540D02*
X114140D01*
X108940D02*
X110740D01*
X106700D02*
X107220D01*
X116060Y194640D02*
X116540D01*
X112860D02*
X114020D01*
X109020D02*
X110460D01*
X106700D02*
X107220D01*
X116060Y194600D02*
X116540D01*
X113140D02*
X113860D01*
X109180D02*
X110100D01*
X106700D02*
X107220D01*
X116060Y194560D02*
X116540D01*
X106700D02*
X107220D01*
X116020Y194520D02*
X116540D01*
X106700D02*
X107220D01*
X116020Y194480D02*
X116540D01*
X106700D02*
X107220D01*
X116020Y194440D02*
X116540D01*
X106700D02*
X107220D01*
X116020Y194400D02*
X116540D01*
X106740D02*
X107220D01*
X116020Y194360D02*
X116540D01*
X106740D02*
X107220D01*
X116020Y194320D02*
X116500D01*
X106740D02*
X107260D01*
X115980Y194280D02*
X116500D01*
X106740D02*
X107260D01*
X115980Y194240D02*
X116500D01*
X106740D02*
X107260D01*
X115980Y194200D02*
X116500D01*
X106740D02*
X107260D01*
X115980Y194160D02*
X116500D01*
X106780D02*
X107260D01*
X115980Y194120D02*
X116460D01*
X106780D02*
X107300D01*
X115940Y194080D02*
X116460D01*
X106780D02*
X107300D01*
X115940Y194040D02*
X116460D01*
X106780D02*
X107300D01*
X115940Y194000D02*
X116460D01*
X106820D02*
X107300D01*
X115900Y193960D02*
X116420D01*
X106820D02*
X107340D01*
X115900Y193920D02*
X116420D01*
X106820D02*
X107340D01*
X115900Y193880D02*
X116420D01*
X106820D02*
X107340D01*
X115860Y193840D02*
X116380D01*
X106860D02*
X107380D01*
X115860Y193800D02*
X116380D01*
X106860D02*
X107380D01*
X115860Y193760D02*
X116380D01*
X106860D02*
X107420D01*
X115820Y193720D02*
X116340D01*
X106900D02*
X107420D01*
X115820Y193680D02*
X116340D01*
X106900D02*
X107420D01*
X115780Y193640D02*
X116340D01*
X106900D02*
X107460D01*
X115780Y193600D02*
X116300D01*
X106940D02*
X107460D01*
X115740Y193560D02*
X116300D01*
X106940D02*
X107500D01*
X115700Y193520D02*
X116260D01*
X106980D02*
X107500D01*
X115700Y193480D02*
X116260D01*
X106980D02*
X107540D01*
X115660Y193440D02*
X116260D01*
X106980D02*
X107580D01*
X115660Y193400D02*
X116220D01*
X107020D02*
X107580D01*
X115620Y193360D02*
X116180D01*
X107060D02*
X107620D01*
X115580Y193320D02*
X116180D01*
X107060D02*
X107660D01*
X115540Y193280D02*
X116140D01*
X107100D02*
X107660D01*
X115500Y193240D02*
X116140D01*
X107100D02*
X107700D01*
X115500Y193200D02*
X116100D01*
X107140D02*
X107740D01*
X115460Y193160D02*
X116060D01*
X107140D02*
X107780D01*
X115420Y193120D02*
X116060D01*
X107180D02*
X107820D01*
X115380Y193080D02*
X116020D01*
X107220D02*
X107860D01*
X115340Y193040D02*
X115980D01*
X107220D02*
X107900D01*
X115300Y193000D02*
X115980D01*
X107260D02*
X107940D01*
X115220Y192960D02*
X115940D01*
X107300D02*
X107980D01*
X115180Y192920D02*
X115900D01*
X107340D02*
X108020D01*
X115140Y192880D02*
X115860D01*
X107340D02*
X108060D01*
X115060Y192840D02*
X115820D01*
X107380D02*
X108140D01*
X115020Y192800D02*
X115780D01*
X107420D02*
X108180D01*
X114940Y192760D02*
X115740D01*
X107460D02*
X108260D01*
X114900Y192720D02*
X115700D01*
X107500D02*
X108300D01*
X114820Y192680D02*
X115660D01*
X107540D02*
X108380D01*
X114740Y192640D02*
X115620D01*
X107580D02*
X108460D01*
X114660Y192600D02*
X115580D01*
X107620D02*
X108540D01*
X114580Y192560D02*
X115540D01*
X107660D02*
X108620D01*
X114500Y192520D02*
X115500D01*
X107740D02*
X108700D01*
X114380Y192480D02*
X115420D01*
X107780D02*
X108780D01*
X114260Y192440D02*
X115380D01*
X107820D02*
X108900D01*
X114140Y192400D02*
X115340D01*
X107900D02*
X109020D01*
X114020Y192360D02*
X115260D01*
X107940D02*
X109140D01*
X113860Y192320D02*
X115180D01*
X108020D02*
X109300D01*
X113700Y192280D02*
X115140D01*
X108020D02*
X109460D01*
X113500Y192240D02*
X115100D01*
X107980D02*
X109660D01*
X113260Y192200D02*
X115140D01*
X107940D02*
X109900D01*
X112940Y192160D02*
X115180D01*
X107900D02*
X110180D01*
X112500Y192120D02*
X115220D01*
X107860D02*
X110660D01*
X107820Y192080D02*
X115260D01*
X107780Y192040D02*
X115300D01*
X107740Y192000D02*
X115340D01*
X107700Y191960D02*
X115340D01*
X107660Y191920D02*
X115380D01*
X107660Y191880D02*
X115420D01*
X107620Y191840D02*
X115460D01*
X107580Y191800D02*
X115460D01*
X107580Y191760D02*
X115500D01*
X107540Y191720D02*
X115540D01*
X107500Y191680D02*
X115540D01*
X107500Y191640D02*
X115580D01*
X107380Y191600D02*
X115660D01*
X107300Y191560D02*
X115740D01*
X107220Y191520D02*
X115820D01*
X107140Y191480D02*
X115900D01*
X107100Y191440D02*
X115980D01*
X107020Y191400D02*
X116020D01*
X106980Y191360D02*
X116100D01*
X106940Y191320D02*
X116140D01*
X106860Y191280D02*
X116180D01*
X106820Y191240D02*
X116220D01*
X106780Y191200D02*
X116260D01*
X106740Y191160D02*
X116300D01*
X106700Y191120D02*
X116340D01*
X106660Y191080D02*
X116380D01*
X106620Y191040D02*
X116420D01*
X106580Y191000D02*
X116460D01*
X107300Y190960D02*
X116500D01*
X106540D02*
X107260D01*
X115820Y190920D02*
X116540D01*
X107300D02*
X115780D01*
X106540D02*
X107220D01*
X115900Y190880D02*
X116540D01*
X107300D02*
X115780D01*
X106500D02*
X107180D01*
X115940Y190840D02*
X116580D01*
X107300D02*
X115780D01*
X106460D02*
X107140D01*
X115980Y190800D02*
X116620D01*
X107300D02*
X115780D01*
X106460D02*
X107100D01*
X116020Y190760D02*
X116660D01*
X107300D02*
X115780D01*
X106420D02*
X107060D01*
X116060Y190720D02*
X116660D01*
X107300D02*
X115780D01*
X106380D02*
X107020D01*
X116100Y190680D02*
X116700D01*
X107300D02*
X115780D01*
X106380D02*
X106980D01*
X116100Y190640D02*
X116700D01*
X107300D02*
X115780D01*
X106340D02*
X106940D01*
X116140Y190600D02*
X116740D01*
X107300D02*
X115780D01*
X106340D02*
X106900D01*
X116180Y190560D02*
X116740D01*
X107300D02*
X115780D01*
X106300D02*
X106900D01*
X116220Y190520D02*
X116780D01*
X107300D02*
X115780D01*
X106300D02*
X106860D01*
X116220Y190480D02*
X116780D01*
X107300D02*
X115780D01*
X106260D02*
X106820D01*
X116260Y190440D02*
X116820D01*
X107300D02*
X115780D01*
X106260D02*
X106820D01*
X116260Y190400D02*
X116820D01*
X107300D02*
X115780D01*
X106220D02*
X106780D01*
X116300Y190360D02*
X116820D01*
X107300D02*
X115780D01*
X106220D02*
X106780D01*
X116300Y190320D02*
X116860D01*
X107300D02*
X115740D01*
X106220D02*
X106740D01*
X116340Y190280D02*
X116860D01*
X107300D02*
X115740D01*
X106180D02*
X106740D01*
X116340Y190240D02*
X116860D01*
X107300D02*
X115740D01*
X106180D02*
X106700D01*
X116380Y190200D02*
X116900D01*
X107340D02*
X115740D01*
X106180D02*
X106700D01*
X116380Y190160D02*
X116900D01*
X107340D02*
X115740D01*
X106140D02*
X106660D01*
X116380Y190120D02*
X116900D01*
X114220D02*
X115740D01*
X108940D02*
X114140D01*
X107340D02*
X108860D01*
X106140D02*
X106660D01*
X116420Y190080D02*
X116940D01*
X114260D02*
X115700D01*
X109020D02*
X114060D01*
X107340D02*
X108780D01*
X106140D02*
X106660D01*
X116420Y190040D02*
X116940D01*
X114300D02*
X115700D01*
X109060D02*
X113980D01*
X107340D02*
X108740D01*
X106140D02*
X106620D01*
X116420Y190000D02*
X116940D01*
X114340D02*
X115700D01*
X109100D02*
X113940D01*
X107380D02*
X108740D01*
X106100D02*
X106620D01*
X116460Y189960D02*
X116940D01*
X114340D02*
X115700D01*
X109140D02*
X113900D01*
X107380D02*
X108740D01*
X106100D02*
X106620D01*
X116460Y189920D02*
X116940D01*
X114340D02*
X115700D01*
X109180D02*
X113860D01*
X107380D02*
X108740D01*
X106100D02*
X106620D01*
X116460Y189880D02*
X116980D01*
X114340D02*
X115660D01*
X109220D02*
X113860D01*
X107380D02*
X108700D01*
X106100D02*
X106620D01*
X116460Y189840D02*
X116980D01*
X114340D02*
X115660D01*
X109260D02*
X113820D01*
X107420D02*
X108700D01*
X106100D02*
X106580D01*
X116460Y189800D02*
X116980D01*
X114340D02*
X115660D01*
X109260D02*
X113780D01*
X107420D02*
X108700D01*
X106100D02*
X106580D01*
X116460Y189760D02*
X116980D01*
X114340D02*
X115620D01*
X109300D02*
X113780D01*
X107420D02*
X108740D01*
X106100D02*
X106580D01*
X116460Y189720D02*
X116980D01*
X114340D02*
X115620D01*
X109300D02*
X113740D01*
X107420D02*
X108740D01*
X106060D02*
X106580D01*
X116460Y189680D02*
X116980D01*
X114340D02*
X115620D01*
X109340D02*
X113740D01*
X107460D02*
X108740D01*
X106060D02*
X106580D01*
X116500Y189640D02*
X116980D01*
X114340D02*
X115580D01*
X109340D02*
X113700D01*
X107460D02*
X108740D01*
X106060D02*
X106580D01*
X116500Y189600D02*
X116980D01*
X114300D02*
X115580D01*
X109380D02*
X113700D01*
X107500D02*
X108740D01*
X106060D02*
X106580D01*
X116500Y189560D02*
X116980D01*
X114300D02*
X115540D01*
X109380D02*
X113660D01*
X107500D02*
X108740D01*
X106060D02*
X106580D01*
X116500Y189520D02*
X116980D01*
X114300D02*
X115540D01*
X109420D02*
X113660D01*
X107540D02*
X108780D01*
X106060D02*
X106580D01*
X116500Y189480D02*
X116980D01*
X114300D02*
X115540D01*
X109420D02*
X113620D01*
X107540D02*
X108780D01*
X106060D02*
X106580D01*
X116460Y189440D02*
X116980D01*
X114300D02*
X115500D01*
X109460D02*
X113620D01*
X107540D02*
X108780D01*
X106060D02*
X106580D01*
X116460Y189400D02*
X116980D01*
X114260D02*
X115500D01*
X109460D02*
X113580D01*
X107580D02*
X108780D01*
X106100D02*
X106580D01*
X116460Y189360D02*
X116980D01*
X114260D02*
X115460D01*
X109500D02*
X113580D01*
X107580D02*
X108780D01*
X106100D02*
X106580D01*
X116460Y189320D02*
X116980D01*
X114260D02*
X115460D01*
X109500D02*
X113580D01*
X107620D02*
X108820D01*
X106100D02*
X106580D01*
X116420Y189280D02*
X116980D01*
X114260D02*
X115420D01*
X109500D02*
X113540D01*
X107620D02*
X108820D01*
X106100D02*
X106620D01*
X116380Y189240D02*
X116940D01*
X114220D02*
X115420D01*
X109540D02*
X113540D01*
X107660D02*
X108820D01*
X106100D02*
X106660D01*
X116340Y189200D02*
X116940D01*
X114220D02*
X115380D01*
X109540D02*
X113500D01*
X107660D02*
X108820D01*
X106100D02*
X106700D01*
X116300Y189160D02*
X116940D01*
X114220D02*
X115380D01*
X109540D02*
X113500D01*
X107700D02*
X108860D01*
X106100D02*
X106740D01*
X116260Y189120D02*
X116940D01*
X114220D02*
X115340D01*
X109580D02*
X113500D01*
X107700D02*
X108860D01*
X106100D02*
X106780D01*
X116220Y189080D02*
X116940D01*
X114180D02*
X115340D01*
X109580D02*
X113460D01*
X107740D02*
X108860D01*
X106140D02*
X106820D01*
X116180Y189040D02*
X116900D01*
X114180D02*
X115300D01*
X109580D02*
X113460D01*
X107740D02*
X108860D01*
X106140D02*
X106900D01*
X116100Y189000D02*
X116900D01*
X114180D02*
X115300D01*
X109620D02*
X113460D01*
X107740D02*
X108900D01*
X106140D02*
X106940D01*
X116020Y188960D02*
X116900D01*
X114180D02*
X115300D01*
X109620D02*
X113420D01*
X107780D02*
X108900D01*
X106180D02*
X107020D01*
X115940Y188920D02*
X116860D01*
X114140D02*
X115260D01*
X109660D02*
X113420D01*
X107780D02*
X108900D01*
X106180D02*
X107140D01*
X115820Y188880D02*
X116860D01*
X114140D02*
X115260D01*
X109660D02*
X113420D01*
X107820D02*
X108900D01*
X106180D02*
X107260D01*
X115700Y188840D02*
X116860D01*
X114140D02*
X115220D01*
X109660D02*
X113380D01*
X107580D02*
X108940D01*
X106220D02*
X107540D01*
X114140Y188800D02*
X116820D01*
X109700D02*
X113380D01*
X106220D02*
X108940D01*
X114100Y188760D02*
X116820D01*
X109700D02*
X113380D01*
X106220D02*
X108940D01*
X114100Y188720D02*
X116820D01*
X109700D02*
X113340D01*
X106260D02*
X108940D01*
X114100Y188680D02*
X116780D01*
X109740D02*
X113340D01*
X106260D02*
X108980D01*
X114100Y188640D02*
X116740D01*
X109740D02*
X113300D01*
X106300D02*
X108980D01*
X114060Y188600D02*
X116740D01*
X109780D02*
X113300D01*
X106340D02*
X108980D01*
X114060Y188560D02*
X116700D01*
X109780D02*
X113300D01*
X106340D02*
X109020D01*
X114060Y188520D02*
X116700D01*
X109780D02*
X113260D01*
X106380D02*
X109020D01*
X114020Y188480D02*
X116660D01*
X109820D02*
X113260D01*
X106380D02*
X109020D01*
X114020Y188440D02*
X116620D01*
X109820D02*
X113220D01*
X106420D02*
X109020D01*
X116020Y188400D02*
X116620D01*
X114020D02*
X115980D01*
X109820D02*
X113220D01*
X107140D02*
X109060D01*
X106420D02*
X107020D01*
X116020Y188360D02*
X116580D01*
X114020D02*
X115820D01*
X109860D02*
X113220D01*
X108060D02*
X109060D01*
X107340D02*
X107900D01*
X106460D02*
X107060D01*
X115980Y188320D02*
X116580D01*
X115260D02*
X115500D01*
X113980D02*
X114980D01*
X109860D02*
X113180D01*
X108060D02*
X109060D01*
X106500D02*
X107060D01*
X115980Y188280D02*
X116540D01*
X113980D02*
X114980D01*
X109900D02*
X113180D01*
X108100D02*
X109100D01*
X106500D02*
X107100D01*
X115940Y188240D02*
X116500D01*
X113980D02*
X114940D01*
X109900D02*
X113140D01*
X108100D02*
X109100D01*
X106540D02*
X107100D01*
X115900Y188200D02*
X116500D01*
X113940D02*
X114940D01*
X109900D02*
X113140D01*
X108140D02*
X109100D01*
X106540D02*
X107140D01*
X115900Y188160D02*
X116460D01*
X113940D02*
X114900D01*
X109940D02*
X113140D01*
X108140D02*
X109100D01*
X106580D02*
X107180D01*
X115860Y188120D02*
X116460D01*
X113940D02*
X114900D01*
X109940D02*
X113100D01*
X108180D02*
X109140D01*
X106620D02*
X107180D01*
X115860Y188080D02*
X116420D01*
X113940D02*
X114860D01*
X109980D02*
X113100D01*
X108180D02*
X109140D01*
X106620D02*
X107220D01*
X115820Y188040D02*
X116420D01*
X113900D02*
X114860D01*
X109980D02*
X113060D01*
X108220D02*
X109140D01*
X106660D02*
X107220D01*
X115780Y188000D02*
X116380D01*
X113900D02*
X114860D01*
X109980D02*
X113060D01*
X108220D02*
X109180D01*
X106660D02*
X107260D01*
X115780Y187960D02*
X116340D01*
X113900D02*
X114820D01*
X110020D02*
X113060D01*
X108220D02*
X109180D01*
X106700D02*
X107300D01*
X115740Y187920D02*
X116340D01*
X113860D02*
X114820D01*
X110020D02*
X113020D01*
X108260D02*
X109180D01*
X106740D02*
X107300D01*
X115740Y187880D02*
X116300D01*
X113860D02*
X114780D01*
X110060D02*
X113020D01*
X108260D02*
X109180D01*
X106740D02*
X107340D01*
X115700Y187840D02*
X116300D01*
X113860D02*
X114780D01*
X110060D02*
X112980D01*
X108300D02*
X109220D01*
X106780D02*
X107340D01*
X115660Y187800D02*
X116260D01*
X113860D02*
X114740D01*
X110100D02*
X112980D01*
X108300D02*
X109220D01*
X106780D02*
X107380D01*
X115660Y187760D02*
X116220D01*
X113820D02*
X114740D01*
X110100D02*
X112980D01*
X108340D02*
X109220D01*
X106820D02*
X107420D01*
X115620Y187720D02*
X116220D01*
X113820D02*
X114700D01*
X110100D02*
X112940D01*
X108340D02*
X109260D01*
X106860D02*
X107420D01*
X115620Y187680D02*
X116180D01*
X113820D02*
X114700D01*
X110140D02*
X112940D01*
X108380D02*
X109260D01*
X106860D02*
X107460D01*
X115580Y187640D02*
X116180D01*
X113780D02*
X114660D01*
X110140D02*
X112900D01*
X108380D02*
X109260D01*
X106900D02*
X107460D01*
X115540Y187600D02*
X116140D01*
X113780D02*
X114660D01*
X110180D02*
X112900D01*
X108420D02*
X109260D01*
X106900D02*
X107500D01*
X115540Y187560D02*
X116100D01*
X113780D02*
X114620D01*
X110180D02*
X112900D01*
X108420D02*
X109300D01*
X106940D02*
X107540D01*
X115500Y187520D02*
X116100D01*
X113740D02*
X114620D01*
X110180D02*
X112860D01*
X108420D02*
X109300D01*
X106980D02*
X107540D01*
X115500Y187480D02*
X116060D01*
X113740D02*
X114620D01*
X110220D02*
X112860D01*
X108460D02*
X109300D01*
X106980D02*
X107580D01*
X115460Y187440D02*
X116060D01*
X113740D02*
X114580D01*
X110220D02*
X112820D01*
X108460D02*
X109340D01*
X107020D02*
X107580D01*
X115420Y187400D02*
X116020D01*
X113740D02*
X114580D01*
X110260D02*
X112820D01*
X108500D02*
X109340D01*
X107020D02*
X107620D01*
X115420Y187360D02*
X115980D01*
X113700D02*
X114540D01*
X110260D02*
X112780D01*
X108500D02*
X109340D01*
X107060D02*
X107660D01*
X115380Y187320D02*
X115980D01*
X113700D02*
X114540D01*
X110300D02*
X112780D01*
X108540D02*
X109380D01*
X107100D02*
X107660D01*
X115380Y187280D02*
X115940D01*
X113700D02*
X114500D01*
X110300D02*
X112780D01*
X108540D02*
X109380D01*
X107100D02*
X107700D01*
X115340Y187240D02*
X115940D01*
X113660D02*
X114500D01*
X110300D02*
X112740D01*
X108580D02*
X109380D01*
X107140D02*
X107700D01*
X115340Y187200D02*
X115900D01*
X113660D02*
X114460D01*
X110340D02*
X112740D01*
X108580D02*
X109420D01*
X107140D02*
X107740D01*
X115300Y187160D02*
X115860D01*
X113660D02*
X114460D01*
X110340D02*
X112700D01*
X108620D02*
X109420D01*
X107180D02*
X107780D01*
X115260Y187120D02*
X115860D01*
X113620D02*
X114420D01*
X110380D02*
X112700D01*
X108620D02*
X109420D01*
X107220D02*
X107780D01*
X115260Y187080D02*
X115820D01*
X113620D02*
X114420D01*
X110380D02*
X112660D01*
X108620D02*
X109420D01*
X107220D02*
X107820D01*
X115220Y187040D02*
X115820D01*
X113620D02*
X114460D01*
X110380D02*
X112660D01*
X108620D02*
X109460D01*
X107260D02*
X107820D01*
X115180Y187000D02*
X115780D01*
X113580D02*
X114420D01*
X110420D02*
X112660D01*
X108620D02*
X109460D01*
X107300D02*
X107860D01*
X115180Y186960D02*
X115740D01*
X113580D02*
X114460D01*
X110420D02*
X112620D01*
X108620D02*
X109460D01*
X107300D02*
X107900D01*
X115140Y186920D02*
X115740D01*
X113580D02*
X114460D01*
X110460D02*
X112620D01*
X108620D02*
X109500D01*
X107340D02*
X107900D01*
X115140Y186880D02*
X115700D01*
X113580D02*
X114420D01*
X110460D02*
X112580D01*
X108620D02*
X109500D01*
X107340D02*
X107940D01*
X115100Y186840D02*
X115700D01*
X113540D02*
X114420D01*
X110500D02*
X112580D01*
X108660D02*
X109500D01*
X107380D02*
X107940D01*
X115060Y186800D02*
X115660D01*
X113540D02*
X114420D01*
X110500D02*
X112540D01*
X108660D02*
X109540D01*
X107380D02*
X107980D01*
X115060Y186760D02*
X115620D01*
X113540D02*
X114380D01*
X110540D02*
X112540D01*
X108660D02*
X109540D01*
X107420D02*
X108020D01*
X115020Y186720D02*
X115620D01*
X113500D02*
X114340D01*
X110540D02*
X112540D01*
X108700D02*
X109540D01*
X107460D02*
X108020D01*
X115020Y186680D02*
X115580D01*
X113500D02*
X114340D01*
X110540D02*
X112500D01*
X108740D02*
X109580D01*
X107460D02*
X108060D01*
X114980Y186640D02*
X115580D01*
X113500D02*
X114260D01*
X110580D02*
X112500D01*
X108780D02*
X109580D01*
X107500D02*
X108060D01*
X114940Y186600D02*
X115540D01*
X113460D02*
X114220D01*
X110580D02*
X112460D01*
X108820D02*
X109580D01*
X107500D02*
X108100D01*
X114940Y186560D02*
X115500D01*
X113460D02*
X114140D01*
X110620D02*
X112460D01*
X108900D02*
X109580D01*
X107540D02*
X108140D01*
X114900Y186520D02*
X115500D01*
X113460D02*
X114020D01*
X110620D02*
X112420D01*
X109020D02*
X109620D01*
X107580D02*
X108140D01*
X114900Y186480D02*
X115460D01*
X113460D02*
X113820D01*
X110620D02*
X112420D01*
X109260D02*
X109620D01*
X107580D02*
X108180D01*
X114860Y186440D02*
X115460D01*
X110660D02*
X112420D01*
X107620D02*
X108180D01*
X114860Y186400D02*
X115420D01*
X110660D02*
X112380D01*
X107620D02*
X108220D01*
X114820Y186360D02*
X115380D01*
X110700D02*
X112380D01*
X107660D02*
X108260D01*
X114780Y186320D02*
X115380D01*
X110700D02*
X112340D01*
X107700D02*
X108260D01*
X114780Y186280D02*
X115340D01*
X110740D02*
X112340D01*
X107700D02*
X108300D01*
X114740Y186240D02*
X115340D01*
X110740D02*
X112300D01*
X107740D02*
X108300D01*
X114740Y186200D02*
X115300D01*
X110780D02*
X112300D01*
X107740D02*
X108340D01*
X114700Y186160D02*
X115260D01*
X110780D02*
X112300D01*
X107780D02*
X108380D01*
X114660Y186120D02*
X115260D01*
X110780D02*
X112260D01*
X107820D02*
X108380D01*
X114660Y186080D02*
X115220D01*
X110820D02*
X112260D01*
X107820D02*
X108420D01*
X114620Y186040D02*
X115220D01*
X110820D02*
X112220D01*
X107860D02*
X108420D01*
X114620Y186000D02*
X115180D01*
X110860D02*
X112220D01*
X107860D02*
X108460D01*
X114580Y185960D02*
X115140D01*
X110860D02*
X112180D01*
X107900D02*
X108460D01*
X114540Y185920D02*
X115140D01*
X110900D02*
X112180D01*
X107940D02*
X108500D01*
X114540Y185880D02*
X115100D01*
X110900D02*
X112140D01*
X107940D02*
X108540D01*
X114500Y185840D02*
X115100D01*
X110900D02*
X112140D01*
X107980D02*
X108540D01*
X114500Y185800D02*
X115060D01*
X110940D02*
X112140D01*
X107980D02*
X108580D01*
X114460Y185760D02*
X115060D01*
X110940D02*
X112100D01*
X108020D02*
X108580D01*
X114420Y185720D02*
X115020D01*
X110980D02*
X112100D01*
X108060D02*
X108620D01*
X114420Y185680D02*
X114980D01*
X110980D02*
X112060D01*
X108060D02*
X108660D01*
X114380Y185640D02*
X114980D01*
X111020D02*
X112060D01*
X108100D02*
X108660D01*
X114380Y185600D02*
X114940D01*
X111020D02*
X112020D01*
X108100D02*
X108700D01*
X114340Y185560D02*
X114940D01*
X111060D02*
X111980D01*
X108140D02*
X108700D01*
X114300Y185520D02*
X114900D01*
X111100D02*
X111940D01*
X108180D02*
X108740D01*
X114300Y185480D02*
X114860D01*
X111180D02*
X111900D01*
X108180D02*
X108780D01*
X114260Y185440D02*
X114860D01*
X111260D02*
X111780D01*
X108220D02*
X108780D01*
X114220Y185400D02*
X114820D01*
X108220D02*
X108820D01*
X114180Y185360D02*
X114820D01*
X108260D02*
X108860D01*
X114180Y185320D02*
X114780D01*
X108300D02*
X108900D01*
X114140Y185280D02*
X114740D01*
X108300D02*
X108940D01*
X114060Y185240D02*
X114740D01*
X108340D02*
X108980D01*
X114020Y185200D02*
X114700D01*
X108340D02*
X109020D01*
X113980Y185160D02*
X114660D01*
X112460D02*
X112580D01*
X110540D02*
X110620D01*
X108380D02*
X109100D01*
X113900Y185120D02*
X114660D01*
X112420D02*
X112660D01*
X110420D02*
X110660D01*
X108420D02*
X109140D01*
X113820Y185080D02*
X114620D01*
X112420D02*
X112820D01*
X110300D02*
X110660D01*
X108460D02*
X109220D01*
X113740Y185040D02*
X114580D01*
X112420D02*
X113020D01*
X110100D02*
X110660D01*
X108460D02*
X109300D01*
X113540Y185000D02*
X114540D01*
X112420D02*
X113420D01*
X109820D02*
X110660D01*
X109700D02*
X109780D01*
X108500D02*
X109500D01*
X112380Y184960D02*
X114500D01*
X108540D02*
X110700D01*
X112380Y184920D02*
X114460D01*
X108580D02*
X110700D01*
X112380Y184880D02*
X114420D01*
X108620D02*
X110700D01*
X112380Y184840D02*
X114380D01*
X108660D02*
X110740D01*
X112380Y184800D02*
X114340D01*
X108740D02*
X110740D01*
X112340Y184760D02*
X114260D01*
X108780D02*
X110740D01*
X112340Y184720D02*
X114220D01*
X108860D02*
X110740D01*
X112340Y184680D02*
X114140D01*
X108900D02*
X110780D01*
X112340Y184640D02*
X114060D01*
X108980D02*
X110780D01*
X112300Y184600D02*
X113980D01*
X109060D02*
X110780D01*
X112300Y184560D02*
X113860D01*
X109180D02*
X110820D01*
X112300Y184520D02*
X113740D01*
X109340D02*
X110820D01*
X112260Y184480D02*
X113700D01*
X109420D02*
X110820D01*
X112260Y184440D02*
X113700D01*
X109460D02*
X110820D01*
X112260Y184400D02*
X113660D01*
X109500D02*
X110860D01*
X112260Y184360D02*
X113620D01*
X109540D02*
X110860D01*
X112220Y184320D02*
X113580D01*
X109540D02*
X110860D01*
X112220Y184280D02*
X113540D01*
X109580D02*
X110860D01*
X112220Y184240D02*
X113540D01*
X109620D02*
X110900D01*
X112220Y184200D02*
X113500D01*
X109660D02*
X110900D01*
X112180Y184160D02*
X113460D01*
X109660D02*
X110900D01*
X112180Y184120D02*
X113420D01*
X109700D02*
X110900D01*
X112180Y184080D02*
X113380D01*
X109740D02*
X110940D01*
X112140Y184040D02*
X113380D01*
X109780D02*
X110940D01*
X112140Y184000D02*
X113340D01*
X109780D02*
X110940D01*
X112140Y183960D02*
X113300D01*
X109820D02*
X110940D01*
X112140Y183920D02*
X113260D01*
X109860D02*
X110980D01*
X112100Y183880D02*
X113220D01*
X109900D02*
X110980D01*
X112100Y183840D02*
X113220D01*
X109900D02*
X110980D01*
X112100Y183800D02*
X113180D01*
X109940D02*
X110980D01*
X112100Y183760D02*
X113140D01*
X109980D02*
X111020D01*
X112060Y183720D02*
X113100D01*
X110020D02*
X111020D01*
X112060Y183680D02*
X113060D01*
X110020D02*
X111020D01*
X112060Y183640D02*
X113060D01*
X110060D02*
X111020D01*
X112020Y183600D02*
X113020D01*
X110100D02*
X111060D01*
X112020Y183560D02*
X112980D01*
X110140D02*
X111060D01*
X112020Y183520D02*
X112940D01*
X110140D02*
X111060D01*
X112020Y183480D02*
X112900D01*
X110180D02*
X111060D01*
X111980Y183440D02*
X112900D01*
X110220D02*
X111100D01*
X111980Y183400D02*
X112860D01*
X110260D02*
X111100D01*
X111980Y183360D02*
X112820D01*
X110260D02*
X111100D01*
X111980Y183320D02*
X112780D01*
X110300D02*
X111100D01*
X111940Y183280D02*
X112740D01*
X110340D02*
X111140D01*
X111940Y183240D02*
X112740D01*
X110380D02*
X111140D01*
X111940Y183200D02*
X112700D01*
X110380D02*
X111140D01*
X111900Y183160D02*
X112660D01*
X110420D02*
X111140D01*
X111900Y183120D02*
X112620D01*
X110460D02*
X111180D01*
X111900Y183080D02*
X112580D01*
X110500D02*
X111180D01*
X111900Y183040D02*
X112580D01*
X110540D02*
X111180D01*
X111860Y183000D02*
X112540D01*
X110540D02*
X111180D01*
X111860Y182960D02*
X112500D01*
X110580D02*
X111220D01*
X111860Y182920D02*
X112460D01*
X110620D02*
X111220D01*
X111860Y182880D02*
X112420D01*
X110660D02*
X111220D01*
X111820Y182840D02*
X112420D01*
X110660D02*
X111220D01*
X111820Y182800D02*
X112380D01*
X110700D02*
X111260D01*
X111820Y182760D02*
X112340D01*
X110740D02*
X111260D01*
X111780Y182720D02*
X112300D01*
X110780D02*
X111260D01*
X111780Y182680D02*
X112300D01*
X110780D02*
X111260D01*
X111780Y182640D02*
X112260D01*
X110820D02*
X111300D01*
X111780Y182600D02*
X112220D01*
X110860D02*
X111300D01*
X111740Y182560D02*
X112180D01*
X110900D02*
X111300D01*
X111740Y182520D02*
X112140D01*
X110900D02*
X111300D01*
X111740Y182480D02*
X112140D01*
X110940D02*
X111340D01*
X111740Y182440D02*
X112100D01*
X110980D02*
X111340D01*
X111700Y182400D02*
X112060D01*
X111020D02*
X111340D01*
X111700Y182360D02*
X112020D01*
X111020D02*
X111340D01*
X111700Y182320D02*
X111980D01*
X111060D02*
X111380D01*
X111660Y182280D02*
X111980D01*
X111100D02*
X111380D01*
X111660Y182240D02*
X111940D01*
X111140D02*
X111380D01*
X111660Y182200D02*
X111900D01*
X111140D02*
X111380D01*
X111660Y182160D02*
X111860D01*
X111180D02*
X111420D01*
X111620Y182120D02*
X111820D01*
X111220D02*
X111420D01*
X111620Y182080D02*
X111820D01*
X111260D02*
X111420D01*
X111620Y182040D02*
X111780D01*
X111260D02*
X111420D01*
X111620Y182000D02*
X111740D01*
X111300D02*
X111460D01*
X111580Y181960D02*
X111700D01*
X111340D02*
X111460D01*
X111580Y181920D02*
X111660D01*
X111380D02*
X111460D01*
X111580Y181880D02*
X111660D01*
X111380D02*
X111460D01*
X111540Y181840D02*
X111620D01*
X111420D02*
X111500D01*
X111540Y181800D02*
X111580D01*
X111460D02*
X111500D01*
M02*
