G04*
G04 #@! TF.GenerationSoftware,Altium Limited,Altium Designer,21.0.9 (235)*
G04*
G04 Layer_Color=255*
%FSLAX25Y25*%
%MOIN*%
G70*
G04*
G04 #@! TF.SameCoordinates,4C2DBE1E-8494-471D-9509-704978DB3033*
G04*
G04*
G04 #@! TF.FilePolarity,Positive*
G04*
G01*
G75*
%ADD28R,0.02362X0.02520*%
%ADD29R,0.02520X0.02362*%
%ADD35R,0.01968X0.02165*%
%ADD36R,0.03740X0.03347*%
%ADD41R,0.02165X0.01968*%
%ADD42R,0.03347X0.03740*%
%ADD50R,0.03543X0.02953*%
%ADD56R,0.07301X0.02410*%
G04:AMPARAMS|DCode=57|XSize=73.01mil|YSize=24.1mil|CornerRadius=12.05mil|HoleSize=0mil|Usage=FLASHONLY|Rotation=0.000|XOffset=0mil|YOffset=0mil|HoleType=Round|Shape=RoundedRectangle|*
%AMROUNDEDRECTD57*
21,1,0.07301,0.00000,0,0,0.0*
21,1,0.04891,0.02410,0,0,0.0*
1,1,0.02410,0.02445,0.00000*
1,1,0.02410,-0.02445,0.00000*
1,1,0.02410,-0.02445,0.00000*
1,1,0.02410,0.02445,0.00000*
%
%ADD57ROUNDEDRECTD57*%
%ADD98C,0.04016*%
%ADD101R,0.02600X0.02300*%
%ADD105R,0.02300X0.02600*%
%ADD110C,0.06000*%
%ADD112C,0.03937*%
%ADD120C,0.15748*%
%ADD124R,0.06890X0.04724*%
%ADD125R,0.01098X0.08937*%
%ADD126R,0.05339X0.04545*%
G04:AMPARAMS|DCode=127|XSize=23.23mil|YSize=13.78mil|CornerRadius=3.45mil|HoleSize=0mil|Usage=FLASHONLY|Rotation=180.000|XOffset=0mil|YOffset=0mil|HoleType=Round|Shape=RoundedRectangle|*
%AMROUNDEDRECTD127*
21,1,0.02323,0.00689,0,0,180.0*
21,1,0.01634,0.01378,0,0,180.0*
1,1,0.00689,-0.00817,0.00345*
1,1,0.00689,0.00817,0.00345*
1,1,0.00689,0.00817,-0.00345*
1,1,0.00689,-0.00817,-0.00345*
%
%ADD127ROUNDEDRECTD127*%
G04:AMPARAMS|DCode=128|XSize=23.23mil|YSize=13.78mil|CornerRadius=3.45mil|HoleSize=0mil|Usage=FLASHONLY|Rotation=270.000|XOffset=0mil|YOffset=0mil|HoleType=Round|Shape=RoundedRectangle|*
%AMROUNDEDRECTD128*
21,1,0.02323,0.00689,0,0,270.0*
21,1,0.01634,0.01378,0,0,270.0*
1,1,0.00689,-0.00345,-0.00817*
1,1,0.00689,-0.00345,0.00817*
1,1,0.00689,0.00345,0.00817*
1,1,0.00689,0.00345,-0.00817*
%
%ADD128ROUNDEDRECTD128*%
%ADD129R,0.01614X0.04724*%
%ADD130R,0.01968X0.04724*%
%ADD131R,0.04745X0.02086*%
G04:AMPARAMS|DCode=132|XSize=47.45mil|YSize=20.86mil|CornerRadius=10.43mil|HoleSize=0mil|Usage=FLASHONLY|Rotation=180.000|XOffset=0mil|YOffset=0mil|HoleType=Round|Shape=RoundedRectangle|*
%AMROUNDEDRECTD132*
21,1,0.04745,0.00000,0,0,180.0*
21,1,0.02659,0.02086,0,0,180.0*
1,1,0.02086,-0.01330,0.00000*
1,1,0.02086,0.01330,0.00000*
1,1,0.02086,0.01330,0.00000*
1,1,0.02086,-0.01330,0.00000*
%
%ADD132ROUNDEDRECTD132*%
%ADD133R,0.18504X0.01693*%
%ADD134R,0.10000X0.01693*%
%ADD135R,0.04724X0.05906*%
%ADD136R,0.01575X0.03543*%
D28*
X25905Y55905D02*
D03*
X22126D02*
D03*
X23890Y35700D02*
D03*
X20110D02*
D03*
X23890Y38700D02*
D03*
X20110D02*
D03*
X43590Y14700D02*
D03*
X39810D02*
D03*
X67244Y127559D02*
D03*
X63465D02*
D03*
X61890Y117717D02*
D03*
X65669D02*
D03*
X61890Y110630D02*
D03*
X65669D02*
D03*
X15510Y117100D02*
D03*
X19290D02*
D03*
X22126Y61811D02*
D03*
X25905D02*
D03*
X22126Y67716D02*
D03*
X25905D02*
D03*
X66280Y66241D02*
D03*
X70060D02*
D03*
X24094Y89764D02*
D03*
X27874D02*
D03*
X59764Y53543D02*
D03*
X55984D02*
D03*
X99921Y61024D02*
D03*
X96142D02*
D03*
X48504Y90158D02*
D03*
X52284D02*
D03*
X84961Y53543D02*
D03*
X81181D02*
D03*
X99921Y28346D02*
D03*
X96142D02*
D03*
X57402Y44094D02*
D03*
X53622D02*
D03*
X68583Y53543D02*
D03*
X72362D02*
D03*
X68189Y44094D02*
D03*
X71969D02*
D03*
X37087Y53543D02*
D03*
X40866D02*
D03*
X52835Y66142D02*
D03*
X56614D02*
D03*
D29*
X112598Y146929D02*
D03*
Y150709D02*
D03*
X14095Y222362D02*
D03*
Y218583D02*
D03*
X88583Y123937D02*
D03*
Y120158D02*
D03*
X39370Y123543D02*
D03*
Y119764D02*
D03*
X19700Y134679D02*
D03*
Y130900D02*
D03*
X24803Y47323D02*
D03*
Y51102D02*
D03*
X50000Y56772D02*
D03*
Y60551D02*
D03*
X86221Y91654D02*
D03*
Y87874D02*
D03*
X69291Y93622D02*
D03*
Y89842D02*
D03*
X56299Y29921D02*
D03*
Y33701D02*
D03*
X68898Y30000D02*
D03*
Y33779D02*
D03*
X50000Y47953D02*
D03*
Y44173D02*
D03*
X62598Y40866D02*
D03*
Y37087D02*
D03*
X75197Y63307D02*
D03*
Y59527D02*
D03*
X65748Y76299D02*
D03*
Y72520D02*
D03*
D35*
X78839Y3937D02*
D03*
X82579D02*
D03*
X90551Y4331D02*
D03*
X94291D02*
D03*
X90551Y18898D02*
D03*
X94291D02*
D03*
X71555D02*
D03*
X67815D02*
D03*
D36*
X12992Y35039D02*
D03*
Y28740D02*
D03*
X100000Y127165D02*
D03*
Y120866D02*
D03*
X51575Y129134D02*
D03*
Y122835D02*
D03*
X17800Y105050D02*
D03*
Y111350D02*
D03*
X23900Y135450D02*
D03*
Y129150D02*
D03*
X74803Y94882D02*
D03*
Y88583D02*
D03*
X85433Y101969D02*
D03*
Y95669D02*
D03*
D41*
X52756Y19783D02*
D03*
Y23524D02*
D03*
X17240Y69034D02*
D03*
Y72774D02*
D03*
X91732Y119770D02*
D03*
Y123510D02*
D03*
X95276Y117900D02*
D03*
Y121640D02*
D03*
X46457Y119783D02*
D03*
Y123524D02*
D03*
X42913Y119783D02*
D03*
Y123524D02*
D03*
D42*
X109449Y209842D02*
D03*
X115748D02*
D03*
X37150Y20200D02*
D03*
X30850D02*
D03*
X32846Y12036D02*
D03*
X26546D02*
D03*
X45050Y9200D02*
D03*
X38750D02*
D03*
X40551Y49213D02*
D03*
X34252D02*
D03*
X96063Y53150D02*
D03*
X102362D02*
D03*
X67716Y122835D02*
D03*
X61417D02*
D03*
X106299Y66535D02*
D03*
X112598D02*
D03*
X61417Y106299D02*
D03*
X67716D02*
D03*
X90158Y224016D02*
D03*
X96457D02*
D03*
D50*
X12205Y72835D02*
D03*
Y66535D02*
D03*
D56*
X100196Y71457D02*
D03*
D57*
Y75197D02*
D03*
Y78937D02*
D03*
X109253D02*
D03*
Y75197D02*
D03*
Y71457D02*
D03*
D98*
X99665Y203425D02*
D03*
X20413D02*
D03*
D101*
X42100Y220404D02*
D03*
Y216604D02*
D03*
X13681Y58730D02*
D03*
Y62530D02*
D03*
X18323D02*
D03*
Y58730D02*
D03*
X46457Y220404D02*
D03*
Y216604D02*
D03*
X50394Y220404D02*
D03*
Y216604D02*
D03*
X54724D02*
D03*
Y220404D02*
D03*
X8600Y26300D02*
D03*
Y22500D02*
D03*
X96063Y91664D02*
D03*
Y87864D02*
D03*
X59055Y220404D02*
D03*
Y216604D02*
D03*
X63386Y220404D02*
D03*
Y216604D02*
D03*
X67716Y220404D02*
D03*
Y216604D02*
D03*
X37800Y220404D02*
D03*
Y216604D02*
D03*
X110630Y125916D02*
D03*
Y122116D02*
D03*
X105512Y125916D02*
D03*
Y122116D02*
D03*
X83071Y22116D02*
D03*
Y25916D02*
D03*
D105*
X38514Y44882D02*
D03*
X34714D02*
D03*
X79202Y123228D02*
D03*
X83002D02*
D03*
X35365Y122441D02*
D03*
X31565D02*
D03*
X44813Y19291D02*
D03*
X41013D02*
D03*
X66861Y3937D02*
D03*
X63061D02*
D03*
D110*
X80709Y12992D02*
D03*
X112205Y220472D02*
D03*
D112*
X91378Y11673D02*
D03*
X51378Y15673D02*
D03*
Y7673D02*
D03*
D120*
X110236Y9843D02*
D03*
X104331Y157480D02*
D03*
X9843Y9843D02*
D03*
D124*
X10300Y207809D02*
D03*
Y196391D02*
D03*
D125*
X88583Y181634D02*
D03*
X86614D02*
D03*
X84646D02*
D03*
Y204193D02*
D03*
X82677D02*
D03*
X86614D02*
D03*
X78740D02*
D03*
X76772D02*
D03*
X80709D02*
D03*
X88583D02*
D03*
X66929D02*
D03*
X64961D02*
D03*
X68898D02*
D03*
X61024D02*
D03*
X59055D02*
D03*
X62992D02*
D03*
X72835D02*
D03*
X70866D02*
D03*
X74803D02*
D03*
X78740Y181634D02*
D03*
X80709D02*
D03*
X82677D02*
D03*
X64961D02*
D03*
X62992D02*
D03*
X66929D02*
D03*
X59055D02*
D03*
X57087D02*
D03*
X61024D02*
D03*
X74803D02*
D03*
X72835D02*
D03*
X76772D02*
D03*
X68898D02*
D03*
X70866D02*
D03*
X49213Y204193D02*
D03*
X47244D02*
D03*
X51181D02*
D03*
X45276D02*
D03*
X55118D02*
D03*
X53150D02*
D03*
X57087D02*
D03*
X39370D02*
D03*
X37402D02*
D03*
X41339D02*
D03*
X33465D02*
D03*
X31496D02*
D03*
X35433D02*
D03*
X43307D02*
D03*
X49213Y181634D02*
D03*
X47244D02*
D03*
X51181D02*
D03*
X43307D02*
D03*
X45276D02*
D03*
X53150D02*
D03*
X55118D02*
D03*
X31496D02*
D03*
X33465D02*
D03*
X39370D02*
D03*
X37402D02*
D03*
X41339D02*
D03*
X35433D02*
D03*
D126*
X101575Y220187D02*
D03*
Y214471D02*
D03*
X80315Y88087D02*
D03*
Y93803D02*
D03*
D127*
X20335Y44691D02*
D03*
Y48628D02*
D03*
Y46660D02*
D03*
Y42723D02*
D03*
X11161Y48628D02*
D03*
Y46660D02*
D03*
Y44691D02*
D03*
Y42723D02*
D03*
D128*
X15748Y49278D02*
D03*
X17717D02*
D03*
Y42073D02*
D03*
X15748D02*
D03*
X13780Y49278D02*
D03*
Y42073D02*
D03*
D129*
X73228Y149567D02*
D03*
X75787D02*
D03*
X67716Y133898D02*
D03*
X65158D02*
D03*
X91826Y149567D02*
D03*
X94385D02*
D03*
X86314Y133898D02*
D03*
X83755D02*
D03*
X56890Y149567D02*
D03*
X54331D02*
D03*
X46260Y133898D02*
D03*
X48819D02*
D03*
X38780Y149567D02*
D03*
X36220D02*
D03*
X28150Y133898D02*
D03*
X30709D02*
D03*
D130*
X75787D02*
D03*
X65158Y149567D02*
D03*
X94385Y133898D02*
D03*
X83755Y149567D02*
D03*
X46260D02*
D03*
X56890Y133898D02*
D03*
X28150Y149567D02*
D03*
X38780Y133898D02*
D03*
D131*
X27758Y224213D02*
D03*
X85238D02*
D03*
X102557Y135236D02*
D03*
D132*
X27758Y216732D02*
D03*
Y220472D02*
D03*
X19486D02*
D03*
Y224213D02*
D03*
Y216732D02*
D03*
X85238D02*
D03*
Y220472D02*
D03*
X76967D02*
D03*
Y224213D02*
D03*
Y216732D02*
D03*
X102557Y138976D02*
D03*
Y142717D02*
D03*
X110829D02*
D03*
Y138976D02*
D03*
Y135236D02*
D03*
D133*
X72539Y192913D02*
D03*
X47539D02*
D03*
D134*
X91791D02*
D03*
X28287D02*
D03*
D135*
X24409Y30551D02*
D03*
X18110D02*
D03*
Y22205D02*
D03*
X24409D02*
D03*
D136*
X75984Y155709D02*
D03*
Y162402D02*
D03*
X72835D02*
D03*
Y155709D02*
D03*
X90551D02*
D03*
Y162402D02*
D03*
X93701D02*
D03*
Y155709D02*
D03*
X38583D02*
D03*
Y162402D02*
D03*
X35433D02*
D03*
Y155709D02*
D03*
X53543D02*
D03*
Y162402D02*
D03*
X56693D02*
D03*
Y155709D02*
D03*
M02*
