G04*
G04 #@! TF.GenerationSoftware,Altium Limited,Altium Designer,21.0.9 (235)*
G04*
G04 Layer_Physical_Order=1*
G04 Layer_Color=255*
%FSLAX25Y25*%
%MOIN*%
G70*
G04*
G04 #@! TF.SameCoordinates,4C2DBE1E-8494-471D-9509-704978DB3033*
G04*
G04*
G04 #@! TF.FilePolarity,Positive*
G04*
G01*
G75*
%ADD11C,0.00700*%
%ADD18C,0.00500*%
%ADD20C,0.01000*%
%ADD28R,0.02362X0.02520*%
%ADD29R,0.02520X0.02362*%
G04:AMPARAMS|DCode=30|XSize=43.31mil|YSize=39.37mil|CornerRadius=2.36mil|HoleSize=0mil|Usage=FLASHONLY|Rotation=180.000|XOffset=0mil|YOffset=0mil|HoleType=Round|Shape=RoundedRectangle|*
%AMROUNDEDRECTD30*
21,1,0.04331,0.03465,0,0,180.0*
21,1,0.03858,0.03937,0,0,180.0*
1,1,0.00472,-0.01929,0.01732*
1,1,0.00472,0.01929,0.01732*
1,1,0.00472,0.01929,-0.01732*
1,1,0.00472,-0.01929,-0.01732*
%
%ADD30ROUNDEDRECTD30*%
%ADD34C,0.01575*%
%ADD35R,0.01968X0.02165*%
%ADD36R,0.03740X0.03347*%
%ADD37R,0.03740X0.02953*%
%ADD40R,0.04545X0.05339*%
%ADD41R,0.02165X0.01968*%
%ADD42R,0.03347X0.03740*%
%ADD43R,0.02362X0.02165*%
G04:AMPARAMS|DCode=44|XSize=65.17mil|YSize=14.99mil|CornerRadius=7.5mil|HoleSize=0mil|Usage=FLASHONLY|Rotation=90.000|XOffset=0mil|YOffset=0mil|HoleType=Round|Shape=RoundedRectangle|*
%AMROUNDEDRECTD44*
21,1,0.06517,0.00000,0,0,90.0*
21,1,0.05018,0.01499,0,0,90.0*
1,1,0.01499,0.00000,0.02509*
1,1,0.01499,0.00000,-0.02509*
1,1,0.01499,0.00000,-0.02509*
1,1,0.01499,0.00000,0.02509*
%
%ADD44ROUNDEDRECTD44*%
%ADD45R,0.01499X0.06517*%
G04:AMPARAMS|DCode=46|XSize=9.84mil|YSize=23.62mil|CornerRadius=1.97mil|HoleSize=0mil|Usage=FLASHONLY|Rotation=180.000|XOffset=0mil|YOffset=0mil|HoleType=Round|Shape=RoundedRectangle|*
%AMROUNDEDRECTD46*
21,1,0.00984,0.01968,0,0,180.0*
21,1,0.00591,0.02362,0,0,180.0*
1,1,0.00394,-0.00295,0.00984*
1,1,0.00394,0.00295,0.00984*
1,1,0.00394,0.00295,-0.00984*
1,1,0.00394,-0.00295,-0.00984*
%
%ADD46ROUNDEDRECTD46*%
G04:AMPARAMS|DCode=47|XSize=23.62mil|YSize=9.84mil|CornerRadius=1.97mil|HoleSize=0mil|Usage=FLASHONLY|Rotation=180.000|XOffset=0mil|YOffset=0mil|HoleType=Round|Shape=RoundedRectangle|*
%AMROUNDEDRECTD47*
21,1,0.02362,0.00591,0,0,180.0*
21,1,0.01968,0.00984,0,0,180.0*
1,1,0.00394,-0.00984,0.00295*
1,1,0.00394,0.00984,0.00295*
1,1,0.00394,0.00984,-0.00295*
1,1,0.00394,-0.00984,-0.00295*
%
%ADD47ROUNDEDRECTD47*%
%ADD49R,0.02953X0.03543*%
%ADD50R,0.03543X0.02953*%
%ADD51R,0.03347X0.09055*%
%ADD52R,0.13386X0.03858*%
G04:AMPARAMS|DCode=53|XSize=57.09mil|YSize=11.02mil|CornerRadius=1.38mil|HoleSize=0mil|Usage=FLASHONLY|Rotation=0.000|XOffset=0mil|YOffset=0mil|HoleType=Round|Shape=RoundedRectangle|*
%AMROUNDEDRECTD53*
21,1,0.05709,0.00827,0,0,0.0*
21,1,0.05433,0.01102,0,0,0.0*
1,1,0.00276,0.02717,-0.00413*
1,1,0.00276,-0.02717,-0.00413*
1,1,0.00276,-0.02717,0.00413*
1,1,0.00276,0.02717,0.00413*
%
%ADD53ROUNDEDRECTD53*%
G04:AMPARAMS|DCode=54|XSize=27.95mil|YSize=10.63mil|CornerRadius=3.72mil|HoleSize=0mil|Usage=FLASHONLY|Rotation=270.000|XOffset=0mil|YOffset=0mil|HoleType=Round|Shape=RoundedRectangle|*
%AMROUNDEDRECTD54*
21,1,0.02795,0.00319,0,0,270.0*
21,1,0.02051,0.01063,0,0,270.0*
1,1,0.00744,-0.00160,-0.01026*
1,1,0.00744,-0.00160,0.01026*
1,1,0.00744,0.00160,0.01026*
1,1,0.00744,0.00160,-0.01026*
%
%ADD54ROUNDEDRECTD54*%
G04:AMPARAMS|DCode=55|XSize=25.59mil|YSize=47.24mil|CornerRadius=1.92mil|HoleSize=0mil|Usage=FLASHONLY|Rotation=180.000|XOffset=0mil|YOffset=0mil|HoleType=Round|Shape=RoundedRectangle|*
%AMROUNDEDRECTD55*
21,1,0.02559,0.04341,0,0,180.0*
21,1,0.02175,0.04724,0,0,180.0*
1,1,0.00384,-0.01088,0.02170*
1,1,0.00384,0.01088,0.02170*
1,1,0.00384,0.01088,-0.02170*
1,1,0.00384,-0.01088,-0.02170*
%
%ADD55ROUNDEDRECTD55*%
%ADD56R,0.07301X0.02410*%
G04:AMPARAMS|DCode=57|XSize=73.01mil|YSize=24.1mil|CornerRadius=12.05mil|HoleSize=0mil|Usage=FLASHONLY|Rotation=0.000|XOffset=0mil|YOffset=0mil|HoleType=Round|Shape=RoundedRectangle|*
%AMROUNDEDRECTD57*
21,1,0.07301,0.00000,0,0,0.0*
21,1,0.04891,0.02410,0,0,0.0*
1,1,0.02410,0.02445,0.00000*
1,1,0.02410,-0.02445,0.00000*
1,1,0.02410,-0.02445,0.00000*
1,1,0.02410,0.02445,0.00000*
%
%ADD57ROUNDEDRECTD57*%
G04:AMPARAMS|DCode=58|XSize=17.72mil|YSize=45.28mil|CornerRadius=1.95mil|HoleSize=0mil|Usage=FLASHONLY|Rotation=270.000|XOffset=0mil|YOffset=0mil|HoleType=Round|Shape=RoundedRectangle|*
%AMROUNDEDRECTD58*
21,1,0.01772,0.04138,0,0,270.0*
21,1,0.01382,0.04528,0,0,270.0*
1,1,0.00390,-0.02069,-0.00691*
1,1,0.00390,-0.02069,0.00691*
1,1,0.00390,0.02069,0.00691*
1,1,0.00390,0.02069,-0.00691*
%
%ADD58ROUNDEDRECTD58*%
%ADD59R,0.04331X0.03150*%
%ADD60R,0.06693X0.03150*%
%ADD61R,0.02559X0.03347*%
G04:AMPARAMS|DCode=79|XSize=114.17mil|YSize=114.17mil|CornerRadius=1.71mil|HoleSize=0mil|Usage=FLASHONLY|Rotation=180.000|XOffset=0mil|YOffset=0mil|HoleType=Round|Shape=RoundedRectangle|*
%AMROUNDEDRECTD79*
21,1,0.11417,0.11075,0,0,180.0*
21,1,0.11075,0.11417,0,0,180.0*
1,1,0.00343,-0.05537,0.05537*
1,1,0.00343,0.05537,0.05537*
1,1,0.00343,0.05537,-0.05537*
1,1,0.00343,-0.05537,-0.05537*
%
%ADD79ROUNDEDRECTD79*%
%ADD98C,0.04016*%
%ADD101R,0.02600X0.02300*%
%ADD102R,0.09000X0.15000*%
%ADD103R,0.15000X0.09000*%
%ADD104C,0.03150*%
%ADD105R,0.02300X0.02600*%
%ADD106R,0.03500X0.04900*%
G04:AMPARAMS|DCode=107|XSize=64.96mil|YSize=94.49mil|CornerRadius=1.95mil|HoleSize=0mil|Usage=FLASHONLY|Rotation=0.000|XOffset=0mil|YOffset=0mil|HoleType=Round|Shape=RoundedRectangle|*
%AMROUNDEDRECTD107*
21,1,0.06496,0.09059,0,0,0.0*
21,1,0.06106,0.09449,0,0,0.0*
1,1,0.00390,0.03053,-0.04530*
1,1,0.00390,-0.03053,-0.04530*
1,1,0.00390,-0.03053,0.04530*
1,1,0.00390,0.03053,0.04530*
%
%ADD107ROUNDEDRECTD107*%
G04:AMPARAMS|DCode=108|XSize=11.02mil|YSize=33.47mil|CornerRadius=1.98mil|HoleSize=0mil|Usage=FLASHONLY|Rotation=90.000|XOffset=0mil|YOffset=0mil|HoleType=Round|Shape=RoundedRectangle|*
%AMROUNDEDRECTD108*
21,1,0.01102,0.02950,0,0,90.0*
21,1,0.00706,0.03347,0,0,90.0*
1,1,0.00397,0.01475,0.00353*
1,1,0.00397,0.01475,-0.00353*
1,1,0.00397,-0.01475,-0.00353*
1,1,0.00397,-0.01475,0.00353*
%
%ADD108ROUNDEDRECTD108*%
%ADD109R,0.06500X0.11201*%
%ADD110C,0.06000*%
%ADD111R,0.05512X0.05118*%
%ADD112C,0.03937*%
%ADD113R,0.04764X0.07500*%
%ADD114R,0.03400X0.04000*%
%ADD115C,0.00625*%
%ADD116C,0.02000*%
%ADD117C,0.00900*%
%ADD118C,0.00400*%
%ADD119R,0.01102X0.02756*%
%ADD120C,0.15748*%
%ADD121C,0.02200*%
%ADD122C,0.01800*%
%ADD123C,0.01968*%
G36*
X65158Y212399D02*
X64980Y212326D01*
X64474Y211820D01*
X64200Y211158D01*
Y210442D01*
X64474Y209780D01*
X64980Y209274D01*
X65158Y209201D01*
Y196837D01*
X65009Y196689D01*
X64735Y196027D01*
Y195311D01*
X65009Y194650D01*
X65158Y194502D01*
Y181890D01*
X71653D01*
Y176772D01*
X47006D01*
X46457Y177321D01*
Y187370D01*
X46957Y187704D01*
X47280Y187570D01*
X47996D01*
X48657Y187844D01*
X49164Y188350D01*
X49231Y188512D01*
X49695Y188976D01*
X54508D01*
Y185059D01*
X58270D01*
Y188979D01*
X58110D01*
Y190276D01*
X57978Y190940D01*
X57874Y191096D01*
Y195669D01*
X59730D01*
X59806Y195594D01*
X59829Y195558D01*
X59829Y195558D01*
X59830Y195558D01*
X59952Y195476D01*
X60061Y195404D01*
X60061Y195404D01*
X60061Y195404D01*
X60198Y195376D01*
X60334Y195349D01*
X60334Y195349D01*
X60334Y195349D01*
X61417D01*
X61690Y195404D01*
X61922Y195558D01*
X62077Y195790D01*
X62131Y196063D01*
Y203543D01*
X62077Y203816D01*
X61922Y204048D01*
X61811Y204122D01*
Y204724D01*
X47638D01*
Y206693D01*
X47170D01*
X47116Y206966D01*
X46961Y207198D01*
X46730Y207352D01*
X46457Y207407D01*
X40168D01*
X39895Y207352D01*
X39664Y207198D01*
X39509Y206966D01*
X39455Y206693D01*
Y203281D01*
X38856Y202682D01*
X34646D01*
Y213779D01*
X42657D01*
Y213438D01*
X42931Y212776D01*
X43437Y212270D01*
X44099Y211996D01*
X44815D01*
X45476Y212270D01*
X45983Y212776D01*
X46257Y213438D01*
Y213779D01*
X58436D01*
Y213296D01*
X58710Y212634D01*
X59217Y212128D01*
X59878Y211854D01*
X60594D01*
X61256Y212128D01*
X61762Y212634D01*
X62036Y213296D01*
Y213779D01*
X65158D01*
Y212399D01*
D02*
G37*
G36*
X108268Y204724D02*
Y200906D01*
X108258Y200900D01*
X107542D01*
X106880Y200626D01*
X106374Y200120D01*
X106100Y199458D01*
Y198742D01*
X106374Y198080D01*
X106880Y197574D01*
X107187Y197447D01*
X107304Y196857D01*
X107135Y196689D01*
X106861Y196027D01*
Y195311D01*
X107135Y194650D01*
X107278Y194508D01*
X107120Y193966D01*
X107037Y193911D01*
X105562D01*
X105493Y193898D01*
X105422D01*
X105245Y193862D01*
X102362D01*
X102089Y193808D01*
X101857Y193653D01*
X101703Y193422D01*
X101648Y193149D01*
Y188903D01*
X98257D01*
X98121Y188876D01*
X97983Y189209D01*
X97638Y189553D01*
Y200000D01*
X95772D01*
X95565Y200500D01*
X95621Y200555D01*
X95894Y201217D01*
Y201933D01*
X95621Y202594D01*
X95114Y203101D01*
X94453Y203375D01*
X93736D01*
X93075Y203101D01*
X92568Y202594D01*
X92295Y201933D01*
Y201217D01*
X92546Y200609D01*
X92361Y200109D01*
X89457D01*
Y200000D01*
X86614D01*
Y209700D01*
X100134D01*
X100267Y209379D01*
X100774Y208873D01*
X101435Y208599D01*
X102151D01*
X102813Y208873D01*
X103319Y209379D01*
X103452Y209700D01*
X108268D01*
Y204724D01*
D02*
G37*
G36*
X6900Y222824D02*
Y216535D01*
X27953D01*
Y212700D01*
Y206113D01*
X23906D01*
Y205906D01*
X21533D01*
X21459Y205948D01*
X20770Y206133D01*
X20057D01*
X19368Y205948D01*
X19294Y205906D01*
X15748D01*
X14972Y205129D01*
X13178D01*
Y203335D01*
X10630Y200787D01*
Y198425D01*
X11697D01*
X12240Y198200D01*
X12957D01*
X13390Y198380D01*
X13595Y198339D01*
X14239D01*
X14437Y198207D01*
X14764Y198142D01*
X20197D01*
X20314Y198046D01*
Y196836D01*
X20197Y196740D01*
X14764D01*
X14572Y196702D01*
X1575D01*
Y220849D01*
X1866Y221808D01*
X2414Y222835D01*
X6890D01*
X6900Y222824D01*
D02*
G37*
G36*
X46457Y203543D02*
X61417D01*
Y196063D01*
X60334D01*
X60326Y196083D01*
X59820Y196589D01*
X59158Y196863D01*
X58442D01*
X57780Y196589D01*
X57274Y196083D01*
X57266Y196063D01*
X49279D01*
X49065Y196580D01*
X48559Y197086D01*
X47897Y197360D01*
X47181D01*
X46957Y197267D01*
X46457Y197601D01*
Y199213D01*
X45877D01*
Y199617D01*
X40737D01*
Y198217D01*
X39370Y196850D01*
X31600D01*
Y201969D01*
X40157D01*
Y202548D01*
X40168D01*
Y206693D01*
X46457D01*
Y203543D01*
D02*
G37*
G36*
X116142Y183858D02*
X111024D01*
Y182283D01*
X105512D01*
Y177498D01*
X105068Y177055D01*
X101280D01*
X101279Y177055D01*
X100870Y176973D01*
X100522Y176741D01*
X97611Y173830D01*
X95658D01*
Y170265D01*
X95669D01*
Y167323D01*
X89370D01*
Y171501D01*
X89728D01*
X90390Y171775D01*
X90896Y172282D01*
X91170Y172943D01*
Y173659D01*
X90896Y174321D01*
X90390Y174827D01*
X89728Y175101D01*
X89370D01*
Y177953D01*
X93307D01*
Y178227D01*
X93436D01*
Y186966D01*
X95135D01*
X95437Y186663D01*
X96099Y186389D01*
X96815D01*
X97476Y186663D01*
X97983Y187169D01*
X98257Y187831D01*
Y188189D01*
X102362D01*
Y193149D01*
X105315D01*
X105562Y193198D01*
X107393D01*
Y193307D01*
X108268D01*
Y193884D01*
X108303Y193869D01*
X109019D01*
X109681Y194143D01*
X109838Y194300D01*
X113684D01*
X113727Y194257D01*
X114388Y193983D01*
X115104D01*
X115766Y194257D01*
X115808Y194300D01*
X116142D01*
Y183858D01*
D02*
G37*
%LPC*%
G36*
X100022Y206133D02*
X99309D01*
X98620Y205948D01*
X98003Y205592D01*
X97499Y205088D01*
X97142Y204470D01*
X96957Y203782D01*
Y203069D01*
X97142Y202380D01*
X97499Y201763D01*
X98003Y201258D01*
X98620Y200902D01*
X99309Y200717D01*
X100022D01*
X100711Y200902D01*
X101328Y201258D01*
X101832Y201763D01*
X102189Y202380D01*
X102373Y203069D01*
Y203782D01*
X102189Y204470D01*
X101832Y205088D01*
X101328Y205592D01*
X100711Y205948D01*
X100022Y206133D01*
D02*
G37*
%LPD*%
D11*
X53832Y158780D02*
X57362D01*
X61024Y155118D01*
X97342Y172047D02*
Y172146D01*
X97977Y172780D01*
X98075D02*
X101279Y175984D01*
X105512D01*
X97977Y172780D02*
X98075D01*
X22102Y53688D02*
X23990Y51800D01*
Y51721D02*
Y51800D01*
X24821Y50890D02*
X24900D01*
X23990Y51721D02*
X24821Y50890D01*
X22102Y53688D02*
Y56440D01*
X21949Y56593D02*
X22102Y56440D01*
X7300Y60124D02*
X8499Y61323D01*
X7300Y53900D02*
X8900Y52300D01*
X7300Y53900D02*
Y60124D01*
X8499Y61473D02*
X9299Y62273D01*
X8499Y61323D02*
Y61473D01*
X9299Y62273D02*
X9449D01*
X9896Y49168D02*
X9994Y49266D01*
X9896Y49167D02*
Y49168D01*
X10126Y50884D02*
X10839Y50171D01*
X10900D01*
X63536Y220404D02*
X64336Y221204D01*
X63386Y220404D02*
X63536D01*
X64336Y221204D02*
Y222604D01*
X64567Y222835D01*
X67716Y220404D02*
X67785Y220472D01*
X71260D01*
X15310Y174221D02*
Y174300D01*
X14150Y172609D02*
Y173061D01*
X13800Y168507D02*
Y172259D01*
X14150Y173061D02*
X15310Y174221D01*
X13800Y172259D02*
X14150Y172609D01*
X11670Y193570D02*
X13573Y195473D01*
X17480D01*
X11442Y192158D02*
X11670Y192386D01*
Y193570D01*
X11373Y192227D02*
X11442Y192158D01*
X9223Y192227D02*
X11373D01*
X7900Y193550D02*
X9223Y192227D01*
X18400Y178900D02*
X25819D01*
X13000Y184300D02*
Y190525D01*
Y184300D02*
X18400Y178900D01*
X88326Y158800D02*
X88346Y158780D01*
X85000Y158800D02*
X88326D01*
X95300Y151800D02*
Y157062D01*
Y151800D02*
X97000Y150100D01*
X97000D01*
X88189Y143769D02*
X92713D01*
X91963Y148319D02*
Y148548D01*
Y148319D02*
X92713Y147569D01*
X91732Y148779D02*
Y153032D01*
Y148779D02*
X91963Y148548D01*
X88189Y147569D02*
Y152874D01*
X88346Y153032D01*
X88600Y141100D02*
Y143358D01*
X88189Y143769D02*
X88600Y143358D01*
X93652Y158711D02*
X95300Y157062D01*
X93364Y139337D02*
X96399D01*
X93275Y139248D02*
X93364Y139337D01*
X92568Y139248D02*
X93275D01*
X96488D02*
X98752D01*
X90653Y137333D02*
X92568Y139248D01*
X96399Y139337D02*
X96488Y139248D01*
X98752D02*
X98900Y139100D01*
X24632Y161600D02*
X30326Y155905D01*
X18174Y159874D02*
X19900Y161600D01*
X24632D01*
X18174Y157526D02*
Y159874D01*
X17540Y156893D02*
X18174Y157526D01*
X17540Y150910D02*
Y156893D01*
X36400Y139100D02*
X41800Y144500D01*
X33190Y138740D02*
X33550Y139100D01*
X36400D01*
X69379Y128740D02*
X69476D01*
X69279D02*
X69379D01*
X72894Y132894D02*
Y134316D01*
X73003Y134425D01*
X70799Y130799D02*
X72894Y132894D01*
X69476Y128740D02*
X70799Y130063D01*
Y130799D01*
X74114Y127559D02*
Y130709D01*
X65591Y128740D02*
X69279D01*
X64961Y128110D02*
X65591Y128740D01*
X69379D02*
X70560Y127559D01*
X74114D01*
X77026Y133711D02*
X79774D01*
X76878Y133563D02*
X77026Y133711D01*
X79774D02*
X79921Y133858D01*
X27100Y126500D02*
X27260D01*
X28260Y125500D01*
X32374D01*
X33202Y124672D01*
X24500Y128910D02*
X25331Y128079D01*
X25521D01*
X27100Y126500D01*
X33190Y134500D02*
X33301Y134611D01*
X33190Y134500D02*
Y138740D01*
X30413Y130807D02*
X31048Y131441D01*
X31146D01*
X32434Y132730D01*
Y133745D01*
X33190Y134500D01*
X30413Y130709D02*
Y130807D01*
Y127559D02*
Y130709D01*
X21430Y125564D02*
X25940D01*
X18898Y123031D02*
X21430Y125564D01*
X79921Y146850D02*
X82284Y149213D01*
X75882Y163779D02*
X77628Y162034D01*
X88779Y99958D02*
Y103543D01*
Y99958D02*
X89800Y98938D01*
X90731Y100820D02*
Y103526D01*
X90748Y103543D01*
X90731Y100820D02*
X92464Y99087D01*
X82732Y103401D02*
X82874Y103543D01*
X77815Y97391D02*
X82732Y102308D01*
Y103401D01*
X77815Y96194D02*
Y97391D01*
X77222Y95601D02*
X77815Y96194D01*
X84842Y101419D02*
Y103543D01*
X81934Y98510D02*
X84842Y101419D01*
X37172Y102302D02*
X37172Y102302D01*
Y103511D02*
X37205Y103543D01*
X37172Y100153D02*
Y102302D01*
X36614Y99595D02*
X37172Y100153D01*
X37172Y102302D02*
Y103511D01*
X31300Y101900D02*
Y103543D01*
X27087Y98587D02*
X27987D01*
X31300Y101900D01*
X31299Y103543D02*
X31300Y103543D01*
X26800Y98300D02*
X27087Y98587D01*
X54276Y104724D02*
X56693D01*
X50929Y108071D02*
X54276Y104724D01*
X46063Y108071D02*
X50929D01*
X46063Y110039D02*
X53261D01*
X55426Y107874D02*
X57480D01*
X53261Y110039D02*
X55426Y107874D01*
X57108Y113976D02*
X58092Y114961D01*
X58268D01*
X45669Y113976D02*
X57108D01*
X56933Y112008D02*
X58311Y110630D01*
X45669Y112008D02*
X56933D01*
X55164Y115400D02*
X57874Y118110D01*
X47879Y116009D02*
X48489Y115400D01*
X55164D01*
X45734Y116009D02*
X47879D01*
X100800Y103925D02*
X105755D01*
X96796Y107929D02*
X100800Y103925D01*
X81717Y124672D02*
X82732Y123657D01*
Y122583D02*
Y123657D01*
Y122583D02*
X82874Y122441D01*
X94769Y95601D02*
Y97697D01*
X93800Y98666D02*
X94769Y97697D01*
X93800Y98666D02*
Y98800D01*
X111461Y46850D02*
X113036Y48425D01*
X108869Y46850D02*
X111461D01*
X37611Y18489D02*
X37802Y18298D01*
X40230D01*
X35790Y16908D02*
Y18700D01*
X36001Y18489D01*
X37611D01*
X47040Y18200D02*
X47840Y19000D01*
X48200D01*
X43970Y18200D02*
X47040D01*
X31000Y15900D02*
X31179Y16079D01*
Y17869D01*
X32010Y18700D01*
X9429Y99911D02*
X10995D01*
X9055Y99538D02*
X9429Y99911D01*
X11484Y100400D02*
X13700D01*
X10995Y99911D02*
X11484Y100400D01*
X21400Y96700D02*
X23900Y99200D01*
Y103920D01*
X26083Y106102D01*
X22500Y104086D02*
Y105000D01*
X25429Y107929D01*
X21491Y103077D02*
X22500Y104086D01*
X25429Y107929D02*
X26630D01*
X26772Y108071D01*
X17540Y150910D02*
X19500Y148950D01*
X39370Y150330D02*
Y153530D01*
X36994Y155905D02*
X39370Y153530D01*
X30326Y155905D02*
X36994D01*
X95973Y164173D02*
X98000Y166200D01*
X93307Y164173D02*
X95973D01*
X34646Y15764D02*
X35790Y16908D01*
X34646Y15748D02*
Y15764D01*
X22520Y20266D02*
X24205Y21950D01*
X22520Y10290D02*
Y20266D01*
Y10290D02*
X22930Y9879D01*
X25834D01*
X60236Y223228D02*
X60236Y223228D01*
Y222835D02*
Y223228D01*
X59842Y221191D02*
X60236D01*
Y222835D01*
X59055Y220404D02*
X59842Y221191D01*
X55905Y221191D02*
Y222835D01*
X54724Y220404D02*
X55512Y221191D01*
X55905D01*
X34100Y217958D02*
X35903Y219762D01*
X34100Y217900D02*
Y217958D01*
X51575Y221191D02*
Y222835D01*
X51181Y221191D02*
X51575D01*
X50394Y220404D02*
X51181Y221191D01*
X46457Y222835D02*
Y223228D01*
Y220404D02*
Y222835D01*
X44170Y214083D02*
Y214530D01*
X43050Y215650D02*
X44170Y214530D01*
Y214083D02*
X44457Y213796D01*
X42100Y216600D02*
X42250D01*
X43050Y215800D01*
Y215650D02*
Y215800D01*
X37800Y216600D02*
X42100D01*
X35903Y219762D02*
X37162D01*
X37800Y220400D01*
X42126Y220426D02*
Y222835D01*
X42100Y220400D02*
X42126Y220426D01*
X31496Y205118D02*
Y210236D01*
X29700Y201400D02*
Y203188D01*
X27165Y200661D02*
X28961D01*
X30173Y203598D02*
X31496Y204921D01*
X30110Y203598D02*
X30173D01*
X29700Y203188D02*
X30110Y203598D01*
X31496Y204921D02*
Y205118D01*
X28961Y200661D02*
X29700Y201400D01*
X31496Y210236D02*
Y210433D01*
X14031Y201433D02*
X14425D01*
X12598Y200000D02*
X14031Y201433D01*
X14425D02*
X15748Y202756D01*
X25984Y209842D02*
X26378Y210236D01*
X22047Y209842D02*
X25984D01*
X12500Y161600D02*
X13800Y160300D01*
Y156893D02*
Y160300D01*
X20360Y170701D02*
X20360D01*
X19142Y171919D02*
X20360Y170701D01*
X16141Y173323D02*
X17545Y171919D01*
X16141Y173323D02*
Y173469D01*
X15310Y174300D02*
X16141Y173469D01*
X17545Y171919D02*
X19142D01*
X20173Y173138D02*
X20678D01*
X19090Y174221D02*
X20173Y173138D01*
X19090Y174221D02*
Y174300D01*
X20720Y173180D02*
X20922D01*
X20678Y173138D02*
X20720Y173180D01*
X20922D02*
X21251Y172851D01*
X20813Y169287D02*
X21100Y169000D01*
X20813Y169287D02*
Y170248D01*
X20360Y170701D02*
X20813Y170248D01*
X20720Y173180D02*
X21049Y172851D01*
X21251D01*
X21100Y169000D02*
Y169406D01*
X18470Y166807D02*
X29893D01*
X17540Y167737D02*
X18470Y166807D01*
X17540Y167737D02*
Y168507D01*
X17500Y100400D02*
X21100D01*
Y100375D02*
Y100400D01*
X20925Y100200D02*
X21100Y100375D01*
X17300Y96600D02*
Y96700D01*
X26083Y106102D02*
X26772D01*
X17300Y96700D02*
X21400D01*
X13700Y100400D02*
Y100550D01*
X16227Y103077D01*
X21491D01*
X12150Y90800D02*
X12950Y90000D01*
X13100D01*
X11800Y92094D02*
X12150Y91744D01*
Y90800D02*
Y91744D01*
X11800Y92094D02*
Y92500D01*
X9249Y90194D02*
Y95738D01*
X9055Y90000D02*
X9249Y90194D01*
X25218Y96540D02*
X26800Y98122D01*
Y98300D01*
X26806Y102900D02*
X27449Y103543D01*
X29331D01*
X26400Y102900D02*
X26806D01*
X25218Y95613D02*
Y96540D01*
X25205Y95601D02*
X25218Y95613D01*
X22887Y117913D02*
X26772D01*
X22800Y118000D02*
X22887Y117913D01*
X21897Y114797D02*
X22336Y115236D01*
X22500Y111900D02*
X22706D01*
X24782Y113976D01*
X19685Y106496D02*
X21989Y108800D01*
X22000D01*
X22287Y109087D01*
X26630Y111866D02*
X26772Y112008D01*
X25656Y111582D02*
X25941Y111866D01*
X22287Y109087D02*
X22776D01*
X25271Y111582D01*
X25941Y111866D02*
X26630D01*
X26876Y126500D02*
X27100D01*
X25940Y125564D02*
X26876Y126500D01*
X20633Y119915D02*
X21006D01*
X22441Y121350D01*
Y121367D02*
Y121653D01*
Y121350D02*
Y121367D01*
X23926Y119882D01*
X26772D01*
X22336Y115236D02*
X23504D01*
X24213Y115945D01*
X19453Y114797D02*
X21897D01*
X19500Y148800D02*
Y148950D01*
X10100Y149400D02*
X12100D01*
X9400Y148700D02*
X10100Y149400D01*
X35276Y158780D02*
Y161424D01*
X29893Y166807D02*
X35276Y161424D01*
X39370Y150330D02*
X41800Y147900D01*
X23822Y146922D02*
X26135D01*
X23800Y146900D02*
X23822Y146922D01*
X26135D02*
X26772Y147559D01*
X31890Y158780D02*
X31890Y158780D01*
X21813Y65087D02*
Y65859D01*
X21949Y56593D02*
Y64649D01*
X18380Y69291D02*
X21813Y65859D01*
X21949Y64649D02*
X22100Y64800D01*
X21813Y65087D02*
X22100Y64800D01*
X13000Y190525D02*
X14011Y191535D01*
X41700Y151100D02*
X41800Y151000D01*
X41700Y151100D02*
Y155086D01*
X45394Y158780D01*
X44028Y146728D02*
X44838D01*
X45669Y147559D01*
X41800Y144500D02*
X44028Y146728D01*
X36614Y143652D02*
X40640D01*
X44148Y142948D02*
X44917D01*
X42400Y141200D02*
X44148Y142948D01*
X44917D02*
X45669Y143701D01*
X41297Y137303D02*
X41594Y137600D01*
X42000D01*
X38583Y137303D02*
X41297D01*
X86614Y137333D02*
X90653D01*
X89800Y98700D02*
X89999Y98501D01*
X89800Y98700D02*
Y98938D01*
X89999Y95985D02*
Y98501D01*
X92464Y99087D02*
X93513D01*
X93800Y98800D01*
X94615Y100956D02*
X95744D01*
X96000Y100700D01*
X95971Y99030D02*
X99400Y95601D01*
X92859Y102712D02*
Y103401D01*
Y102712D02*
X94615Y100956D01*
X92716Y103543D02*
X92859Y103401D01*
X95971Y99030D02*
Y100541D01*
X95906Y100606D02*
X95971Y100541D01*
X18800Y34250D02*
X24850D01*
X25575Y34975D01*
X13200Y34250D02*
X18800D01*
X17180Y43459D02*
X21611D01*
X23125Y41945D01*
X25575D01*
X13663Y25637D02*
X17350Y21950D01*
X13663Y25637D02*
Y27488D01*
X13200Y27950D02*
X13663Y27488D01*
X17350Y21950D02*
X24205D01*
X25234Y28688D02*
X25575Y29029D01*
X24500Y28250D02*
X24795D01*
X24500Y28250D02*
X25575Y27175D01*
X56046Y14505D02*
Y19146D01*
X57700Y20800D01*
X56046Y14505D02*
X56378Y14173D01*
X27628Y180559D02*
Y180709D01*
X26828Y179759D02*
X27628Y180559D01*
X26678Y179759D02*
X26828D01*
X25819Y178900D02*
X26678Y179759D01*
X115800Y30600D02*
X118110Y32910D01*
Y101575D01*
X110905Y22495D02*
X111700Y21700D01*
X109005Y22495D02*
X110905D01*
X108800Y22700D02*
X109005Y22495D01*
X41732Y186221D02*
X43307D01*
X44094Y185433D01*
X38386Y189567D02*
X41732Y186221D01*
X34488Y189567D02*
X38386D01*
X116732Y102953D02*
Y108205D01*
Y102953D02*
X118110Y101575D01*
X71590Y165811D02*
Y165914D01*
Y165811D02*
X72970Y164432D01*
X66467Y118110D02*
X68898D01*
X80157Y217330D02*
X81138Y218311D01*
X79062Y217330D02*
X80157D01*
X78347Y216614D02*
X79062Y217330D01*
X81138Y218311D02*
X81544D01*
X60286Y213654D02*
X63236Y216604D01*
X60236Y213654D02*
X60286D01*
X63236Y216604D02*
X63386D01*
X67716D01*
X59205D02*
X60005Y215804D01*
Y213885D02*
Y215804D01*
X59055Y216604D02*
X59205D01*
X60005Y213885D02*
X60236Y213654D01*
X54724Y216604D02*
X59055D01*
X44744Y215041D02*
X46307Y216604D01*
X44744Y214083D02*
Y215041D01*
X46307Y216604D02*
X46457D01*
X44457Y213796D02*
X44744Y214083D01*
X46457Y216604D02*
X50394D01*
X111811Y210039D02*
X114871Y206980D01*
X116248D01*
X116535Y206693D01*
X106258Y211811D02*
X109487D01*
X111024Y210039D02*
X111417D01*
X105905Y211459D02*
X106258Y211811D01*
X109487D02*
X109897Y211401D01*
Y211166D02*
Y211401D01*
Y211166D02*
X111024Y210039D01*
X112205Y199039D02*
Y202953D01*
X111417Y203346D02*
X111811D01*
X112205Y202953D01*
Y199039D02*
X112311Y198933D01*
X85996Y88992D02*
Y91801D01*
X96636Y47144D02*
X97323Y46457D01*
X94564Y47144D02*
X96636D01*
X100102Y107663D02*
Y107772D01*
X105415Y107374D02*
X105702Y107087D01*
X97835Y110039D02*
X100102Y107772D01*
X104092Y107374D02*
X105415D01*
X96056Y105616D02*
X98277Y103395D01*
X95276Y108071D02*
X95418Y107929D01*
X96796D01*
X98277Y103395D02*
X99374Y102299D01*
X100226D02*
X103543Y98982D01*
X99374Y102299D02*
X100226D01*
X80763Y102327D02*
Y103401D01*
X80479Y102043D02*
Y102043D01*
X76862Y98425D02*
X80479Y102043D01*
X80763Y103401D02*
X80905Y103543D01*
X80479Y102043D02*
X80763Y102327D01*
X81890Y95882D02*
Y98425D01*
X81609Y95601D02*
X81890Y95882D01*
X94769Y88992D02*
Y91801D01*
X29540Y144190D02*
Y153925D01*
X26772Y143780D02*
X29130D01*
X29540Y144190D01*
X47979D02*
Y152756D01*
X45669Y154646D02*
X46500Y153815D01*
X46920D02*
X47979Y152756D01*
X46500Y153815D02*
X46920D01*
X47569Y143780D02*
X47979Y144190D01*
X45669Y143780D02*
X47569D01*
X14011Y191535D02*
X17480D01*
X13595Y199409D02*
X17480D01*
X12598Y200000D02*
X13004D01*
X13595Y199409D01*
X96485Y125151D02*
X97585D01*
X98086Y124552D02*
X98721Y123917D01*
X97585Y125151D02*
X98086Y124650D01*
X96215Y125421D02*
X96485Y125151D01*
X98721Y123917D02*
X98819D01*
X98086Y124552D02*
Y124650D01*
X103740Y117913D02*
X103937Y117717D01*
X95276Y117913D02*
X103740D01*
X95276Y119882D02*
X98524D01*
X98819Y120177D01*
X25984Y199213D02*
X27165Y200394D01*
Y200661D01*
X21385Y199239D02*
X26083Y203937D01*
X21385Y194168D02*
Y199239D01*
X26083Y203937D02*
X26378D01*
X20805Y193589D02*
X21385Y194168D01*
X17565Y193589D02*
X20805D01*
X17480Y193504D02*
X17565Y193589D01*
X25984Y192520D02*
Y199213D01*
X17116Y185429D02*
X17317Y185630D01*
X17480D01*
X17116Y184439D02*
Y185429D01*
X16535Y183858D02*
X17116Y184439D01*
X109449Y131102D02*
X112825Y127727D01*
Y126467D02*
X113386Y125906D01*
X109449Y131102D02*
Y133071D01*
X112825Y126467D02*
Y127727D01*
X108268Y89370D02*
Y91811D01*
Y89370D02*
X109055Y88583D01*
X111417D01*
X114250Y62412D02*
X115354Y61308D01*
Y56299D02*
Y61308D01*
X114224Y55169D02*
X115354Y56299D01*
X110040Y55118D02*
X110091Y55169D01*
X114224D01*
X113330Y63166D02*
X113480D01*
X114234Y62412D01*
X112530Y63967D02*
Y64117D01*
X114234Y62412D02*
X114250D01*
X112530Y63967D02*
X113330Y63166D01*
X56378Y5197D02*
Y9173D01*
X53937Y2756D02*
X56378Y5197D01*
X72614Y1787D02*
X73149Y2322D01*
X73555D01*
X68292Y1787D02*
X72614D01*
X66378Y3701D02*
X68292Y1787D01*
X66378Y3701D02*
Y9173D01*
X113036Y48425D02*
X113044D01*
X26850Y75276D02*
X27953Y74173D01*
X26772Y68110D02*
X27953Y69291D01*
Y74173D01*
X66467Y114173D02*
X69291D01*
X62273Y117717D02*
X62667Y118110D01*
X62273Y114567D02*
Y117717D01*
Y114567D02*
X62667Y114173D01*
X45669Y115945D02*
X45734Y116009D01*
X19779Y119060D02*
X20633Y119915D01*
X18829Y118260D02*
X19629Y119060D01*
X18829Y118110D02*
Y118260D01*
X18898Y122835D02*
Y123031D01*
X29331Y122441D02*
Y122799D01*
X29189Y122941D02*
X29331Y122799D01*
X28240Y122941D02*
X29189D01*
X27953Y123228D02*
X28240Y122941D01*
X33202Y122507D02*
Y124672D01*
X76018Y164432D02*
X76276Y164173D01*
X75882Y163779D02*
X76276Y164173D01*
X77628Y160892D02*
X79465Y159055D01*
X77628Y160892D02*
Y162034D01*
X72970Y164432D02*
X76018D01*
X113412Y48057D02*
X113779Y48425D01*
X54855Y90883D02*
X56755D01*
X58646Y88992D01*
X54724Y91013D02*
X54855Y90883D01*
X12702Y197403D02*
X12739Y197441D01*
X73176Y158780D02*
X76260D01*
X79134Y155905D01*
X61417Y142913D02*
Y147638D01*
X64051Y149956D02*
Y150035D01*
X62992Y149213D02*
X63307D01*
X64882Y150866D02*
X64961D01*
X64051Y150035D02*
X64882Y150866D01*
X63307Y149213D02*
X64051Y149956D01*
X61417Y147638D02*
X62992Y149213D01*
X45394Y158780D02*
X50446D01*
X112777Y85973D02*
X113317Y85433D01*
X111417Y88583D02*
X112777Y87223D01*
Y85973D02*
Y87223D01*
X26772Y64567D02*
Y68110D01*
X15816Y69291D02*
X18380D01*
X10005Y75103D02*
X15816Y69291D01*
X10005Y75103D02*
Y75253D01*
X45669Y117913D02*
X52122D01*
X52250Y117784D01*
X50195Y122102D02*
X50829Y122736D01*
Y122835D01*
X45669Y119882D02*
X47876D01*
X50096Y122102D01*
X50195D01*
X26772Y154646D02*
X28819D01*
X29540Y153925D01*
X31890Y153032D02*
X32109Y152813D01*
Y147670D02*
Y152813D01*
X31890Y147452D02*
X32109Y147670D01*
X35276Y152638D02*
X36614Y151299D01*
X35276Y152638D02*
Y153032D01*
X36614Y147452D02*
Y151299D01*
X83465Y149213D02*
Y150866D01*
Y147559D02*
Y149213D01*
X82284D02*
X83465D01*
X74410Y143887D02*
X76958D01*
X69685D02*
X74410D01*
X76958D02*
X79921Y146850D01*
X63061Y154059D02*
X64374D01*
X64961Y154646D01*
X61024Y152022D02*
X63061Y154059D01*
X65938Y153815D02*
X67335Y152418D01*
X65792Y153815D02*
X65938D01*
X64961Y154646D02*
X65792Y153815D01*
X65207Y144026D02*
X66860D01*
X67335Y144500D01*
Y152418D01*
X64961Y143780D02*
X65207Y144026D01*
X73176Y148921D02*
X73460Y148637D01*
X73176Y148921D02*
Y152638D01*
X73460Y148487D02*
X74260Y147687D01*
X73460Y148487D02*
Y148637D01*
X74260Y147687D02*
X74410D01*
X69685Y152927D02*
X69790Y153032D01*
X69685Y147687D02*
Y152927D01*
X62992Y157874D02*
X63247D01*
X64152Y158780D02*
X69790D01*
X63247Y157874D02*
X64152Y158780D01*
X77574Y168597D02*
X78347Y169370D01*
X73207Y168597D02*
X77574D01*
X91801Y158711D02*
X93652D01*
X91732Y158780D02*
X91801Y158711D01*
X24213Y115945D02*
X26772D01*
X24782Y113976D02*
X26772D01*
X18829Y114173D02*
X19453Y114797D01*
X19629Y119060D02*
X19779D01*
X58311Y110630D02*
X58661D01*
X47835Y106102D02*
X54724Y99213D01*
Y95601D02*
Y99213D01*
X45669Y106102D02*
X47835D01*
X45669Y108071D02*
X46063D01*
X44718Y97802D02*
X45950Y96569D01*
X43307Y98032D02*
X43537Y97802D01*
X44718D01*
X45950Y94813D02*
Y96569D01*
X50337Y94813D02*
Y96451D01*
X45607Y101181D02*
X50337Y96451D01*
X43701Y101181D02*
X45607D01*
X32283Y94813D02*
Y97244D01*
X35236Y100197D01*
Y103543D01*
X36614Y95376D02*
Y99595D01*
Y95376D02*
X37177Y94813D01*
X33268Y101647D02*
Y103543D01*
X28403Y96782D02*
X33268Y101647D01*
X28403Y94813D02*
Y96782D01*
X101835Y109630D02*
X104092Y107374D01*
X101000Y109630D02*
X101835D01*
X71151Y114173D02*
X72922Y115945D01*
X69291Y114173D02*
X71151D01*
X107677Y126476D02*
Y129419D01*
Y126476D02*
X108268Y125886D01*
X56496Y96435D02*
Y97215D01*
X54724Y95601D02*
X54737Y95613D01*
X55674D01*
X56496Y96435D01*
Y97215D02*
X56783Y97502D01*
X43414Y101468D02*
X43701Y101181D01*
X89999Y95985D02*
X90382Y95601D01*
X85996D02*
Y99227D01*
X86811Y100043D01*
X77178Y102362D02*
X77527Y102712D01*
X76772Y102362D02*
X77178D01*
X77527Y102712D02*
X78795D01*
X74016Y98425D02*
X76862D01*
X67360Y100934D02*
X74355Y107929D01*
X76236D01*
X64251Y100934D02*
X67360D01*
X63711Y100394D02*
X64251Y100934D01*
X67323Y106299D02*
X68504Y107480D01*
X70866D01*
X73753Y110367D01*
X76236Y111866D02*
X76378Y112008D01*
X74858Y111866D02*
X76236D01*
X74574Y111582D02*
X74858Y111866D01*
X74484Y111582D02*
X74574D01*
X73753Y110851D02*
X74484Y111582D01*
X73753Y110367D02*
Y110851D01*
X66063Y107559D02*
Y110236D01*
Y107559D02*
X67323Y106299D01*
X68110Y95601D02*
Y99595D01*
X74476Y105960D01*
X76236D01*
X18625Y90998D02*
Y92666D01*
X20160Y94201D01*
X18504Y90876D02*
X18625Y90998D01*
X20160Y94201D02*
X20973D01*
X21260Y94488D01*
X50052Y148304D02*
Y152638D01*
X50446Y153032D01*
X50052Y148304D02*
X50446D01*
X51181Y147569D01*
X53438Y149367D02*
Y152638D01*
X53832Y153032D01*
X53438Y149367D02*
X54168Y148637D01*
Y148487D02*
Y148637D01*
Y148487D02*
X54968Y147687D01*
X55118D01*
X45669Y147559D02*
Y150866D01*
X26969Y193504D02*
X34488D01*
X31496Y210433D02*
X32819Y211756D01*
X90329Y127277D02*
X91032Y126573D01*
X90890Y123272D02*
Y123540D01*
X91032Y123682D01*
Y126573D01*
X91319Y128267D02*
X92432Y127153D01*
Y123682D02*
Y127153D01*
X104298Y114600D02*
X104331Y114567D01*
X102723Y114600D02*
X104298D01*
X95276Y115945D02*
X101378D01*
X102723Y114600D01*
X72241Y125378D02*
X77157D01*
X86811Y100043D02*
Y103543D01*
X96893Y113834D02*
X96948Y113779D01*
X95276Y113976D02*
X95418Y113834D01*
X96893D01*
X96948Y113779D02*
X100394D01*
X68898Y118110D02*
X70669Y119882D01*
X68650Y117601D02*
Y117863D01*
X68898Y118110D01*
X95276Y106102D02*
X95571D01*
X96056Y105617D01*
Y105616D02*
Y105617D01*
X72047Y112205D02*
X73819Y113976D01*
X76378D01*
X72922Y115945D02*
X76378D01*
X92574Y123272D02*
Y123540D01*
X92432Y123682D02*
X92574Y123540D01*
X78795Y102712D02*
X78937Y102854D01*
Y103543D01*
X95276Y110039D02*
X97835D01*
X95276Y112008D02*
X98622D01*
X101000Y109630D01*
X70669Y119882D02*
X76378D01*
X90748Y122441D02*
X90890Y122583D01*
Y123272D01*
X71653Y117717D02*
X71752Y117815D01*
X76279D01*
X76378Y117913D01*
X76236Y105960D02*
X76378Y106102D01*
X72441Y122047D02*
X72707D01*
X73601Y122941D01*
X78795D01*
X78937Y122799D01*
Y122441D02*
Y122799D01*
X76236Y107929D02*
X76378Y108071D01*
X77157Y125378D02*
X77863Y124672D01*
X81717D01*
X92574Y122583D02*
X92716Y122441D01*
X92574Y122583D02*
Y123272D01*
X89268Y127277D02*
X90329D01*
X88981Y127564D02*
X89268Y127277D01*
X43414Y101468D02*
Y101874D01*
X43252Y102035D02*
Y103401D01*
Y102035D02*
X43414Y101874D01*
X43110Y103543D02*
X43252Y103401D01*
X43307Y98032D02*
Y98316D01*
X41220Y100403D02*
X43307Y98316D01*
X41220Y100403D02*
Y103465D01*
X91319Y128267D02*
Y129327D01*
X91198Y129449D02*
X91319Y129327D01*
X41142Y103543D02*
X41220Y103465D01*
X39173Y103543D02*
X39272Y103445D01*
Y99311D02*
Y103445D01*
Y99311D02*
X39370Y99213D01*
X33202Y122507D02*
X33268Y122441D01*
X25271Y111582D02*
X25656D01*
X45669Y110039D02*
X46063D01*
X74016Y98019D02*
Y98425D01*
X73705Y96401D02*
Y97709D01*
X72835Y95601D02*
X72905D01*
X73705Y96401D01*
Y97709D02*
X74016Y98019D01*
X103543Y132193D02*
Y133071D01*
Y132193D02*
X103543Y132193D01*
Y125886D02*
Y132193D01*
X105680Y131131D02*
X107393Y129419D01*
X105680Y131131D02*
Y132903D01*
X105512Y133071D02*
X105680Y132903D01*
X70030Y123573D02*
X71260Y124803D01*
X67716Y122835D02*
X68455Y123573D01*
X70030D01*
X100787Y20079D02*
Y20472D01*
X102037Y21722D02*
X105512D01*
X100787Y20472D02*
X102037Y21722D01*
X57796Y101181D02*
X59911D01*
X57008Y100394D02*
X57796Y101181D01*
X39302Y180709D02*
Y185502D01*
X37406Y187397D02*
X39302Y185502D01*
X34689Y187397D02*
X37406D01*
X103445Y125886D02*
X103543D01*
X102811Y126520D02*
X103445Y125886D01*
X96063Y128347D02*
X101083D01*
X102811Y126520D02*
Y126619D01*
X101083Y128347D02*
X102811Y126619D01*
X59911Y92058D02*
Y96457D01*
Y92058D02*
X60236Y91732D01*
X63711Y96457D02*
Y100394D01*
Y101181D01*
X101126Y51378D02*
X101511D01*
X100983D02*
X101126D01*
X97589Y133514D02*
X97638Y133465D01*
X94882Y133563D02*
X94931Y133514D01*
X97589D01*
X108121Y178594D02*
Y180237D01*
X105512Y175984D02*
X108121Y178594D01*
Y180237D02*
X108268Y180384D01*
X34689Y185831D02*
Y187397D01*
X34488Y185630D02*
X34689Y185831D01*
X40157Y192126D02*
X44094D01*
X34488Y191535D02*
X39567D01*
X40157Y192126D01*
X41377Y195473D02*
X41787Y195882D01*
X34488Y195473D02*
X41377D01*
X41787Y195882D02*
Y195921D01*
X43110Y197244D01*
X43307D01*
X64961Y147559D02*
Y150866D01*
X26772Y147559D02*
Y150866D01*
X57579Y133465D02*
X60630D01*
X57480Y133563D02*
X57579Y133465D01*
X103543Y96782D02*
Y98982D01*
D18*
X24800Y47010D02*
X25034Y47244D01*
X31102D01*
X20164Y47010D02*
X24800D01*
X19501Y46347D02*
X20164Y47010D01*
X13110Y46347D02*
X19501D01*
X10191Y49266D02*
X13110Y46347D01*
X8900Y49266D02*
X10191D01*
X9994Y50884D02*
X10126D01*
X81240Y47500D02*
X81300D01*
X81500Y47300D01*
X79921Y48819D02*
X81240Y47500D01*
X68300Y207616D02*
Y213200D01*
Y207616D02*
X68435Y207480D01*
X20201Y177300D02*
X27501Y170000D01*
X12700Y177300D02*
X20201D01*
X27501Y170000D02*
X35683D01*
X88346Y158780D02*
X89376Y157750D01*
X9100Y23600D02*
X12700Y20000D01*
X3500Y31289D02*
X9100Y25689D01*
Y23600D02*
Y25689D01*
X35683Y170000D02*
X42200Y163483D01*
X11359Y164100D02*
X26963D01*
X10060Y165399D02*
Y168507D01*
Y165399D02*
X11359Y164100D01*
X8350Y151450D02*
Y151600D01*
X3500Y146600D02*
X8350Y151450D01*
X3500Y31289D02*
Y146600D01*
X9250Y152500D02*
X9400D01*
X8350Y151600D02*
X9250Y152500D01*
X26963Y164100D02*
X30860Y160203D01*
X10060Y153160D02*
Y156893D01*
X9400Y152500D02*
X10060Y153160D01*
X31890Y158780D02*
Y159173D01*
X30860Y160203D02*
X31890Y159173D01*
X30860Y160203D02*
X30860D01*
D20*
X88189Y214796D02*
X88775Y215382D01*
X92886D01*
X88189Y212330D02*
Y214796D01*
X88239Y212330D02*
X92520D01*
X83858D02*
X88189D01*
X9896Y49167D02*
X10623Y49894D01*
X37402Y31496D02*
X38976Y33071D01*
X37402Y34646D02*
X38976Y36220D01*
X10093Y43459D02*
X11168Y42384D01*
X9896Y43459D02*
X10093D01*
X11168Y42187D02*
Y42384D01*
X15908Y50242D02*
Y50439D01*
X16983Y49167D02*
X17180D01*
X14272Y52076D02*
Y56593D01*
X15908Y50242D02*
X16983Y49167D01*
X14272Y52076D02*
X15908Y50439D01*
X73968Y208768D02*
X75775D01*
X68435Y207480D02*
X72680D01*
X75775Y208768D02*
X76063Y209055D01*
X72680Y207480D02*
X73968Y208768D01*
X6555Y71445D02*
X9449Y68551D01*
Y66073D02*
Y68551D01*
X6555Y71445D02*
Y77700D01*
X10497Y198676D02*
X11770Y197403D01*
X9073Y198676D02*
X10497D01*
X7900Y199850D02*
X9073Y198676D01*
X11770Y197403D02*
X12702D01*
X83858Y133465D02*
X86614D01*
X80020Y137303D02*
X83858Y133465D01*
X76878Y137303D02*
X80020D01*
X108268Y122146D02*
X108366D01*
X103543D02*
X108268D01*
X105512Y25522D02*
X111678D01*
X101982D02*
X105512D01*
X6555Y77700D02*
X8058Y79203D01*
X8405D01*
X9055Y79853D01*
X37200Y10513D02*
Y13500D01*
Y8900D02*
Y10513D01*
X38780Y7321D02*
X42566D01*
X37200Y8900D02*
X38780Y7321D01*
X45839Y12439D02*
X46661Y13262D01*
Y14862D02*
X46700Y14900D01*
X46661Y13262D02*
Y14862D01*
X42566Y12439D02*
X45839D01*
X14150Y95550D02*
Y95950D01*
X16004Y85135D02*
Y93696D01*
X14150Y95550D02*
X16004Y93696D01*
X13500Y96600D02*
X14150Y95950D01*
X42180Y7706D02*
X42566Y7321D01*
X26772Y16998D02*
Y17323D01*
X25886Y16112D02*
X26772Y16998D01*
X25886Y12824D02*
Y16112D01*
X25834Y12773D02*
X25886Y12824D01*
X25834Y12439D02*
Y12773D01*
X34252Y34646D02*
X35827Y36220D01*
X34252Y31496D02*
X35827Y33071D01*
X31102Y34646D02*
X32677Y36220D01*
X31102Y31496D02*
X32677Y33071D01*
X34252Y25197D02*
X35827Y26772D01*
X34252Y28346D02*
X35827Y29921D01*
X16004Y85135D02*
X19294Y81845D01*
Y78936D02*
Y81845D01*
Y78936D02*
X19390Y78840D01*
X18988Y84846D02*
Y86593D01*
X18504Y87076D02*
X18988Y86593D01*
X21853Y78936D02*
X21949Y78840D01*
X18988Y84846D02*
X21853Y81981D01*
Y78936D02*
Y81981D01*
X24695Y28346D02*
X25575D01*
X101954Y25494D02*
X101982Y25522D01*
X80000Y19300D02*
X80230Y19070D01*
Y18265D02*
X81246Y17248D01*
X80230Y18265D02*
Y19070D01*
X38583Y133563D02*
X38681D01*
X40105Y134987D01*
X43069D01*
X44591Y133465D01*
X47176D01*
X47244Y133533D01*
X70079Y174084D02*
X70546Y173617D01*
X77587D01*
X77695Y173508D01*
Y173126D02*
Y173508D01*
X72146Y184153D02*
Y186957D01*
Y184153D02*
X79134Y177165D01*
X85433D01*
X82409Y90426D02*
X85996Y86839D01*
X81102Y172835D02*
X81496D01*
X80787Y173150D02*
X81102Y172835D01*
X78347Y173150D02*
X80787D01*
X85433Y177165D02*
X89297Y173301D01*
X89370D01*
X11168Y42187D02*
X12252Y41104D01*
Y38767D02*
X12273Y38746D01*
X12252Y38767D02*
Y41104D01*
X17480Y185630D02*
Y187598D01*
X23047Y188698D02*
X25984Y191636D01*
X22163Y188698D02*
X23047D01*
X21063Y187598D02*
X22163Y188698D01*
X17480Y187598D02*
X21063D01*
X108366Y122146D02*
X108850Y122630D01*
Y122728D02*
X109824Y123702D01*
X109847D02*
X111370Y125224D01*
X108850Y122630D02*
Y122728D01*
X109824Y123702D02*
X109847D01*
X111370Y125224D02*
X112705D01*
X113386Y125906D01*
X100591Y122146D02*
X103543D01*
X99402Y123335D02*
X100591Y122146D01*
X98819Y123917D02*
X98917D01*
X99402Y123335D02*
Y123433D01*
X98917Y123917D02*
X99402Y123433D01*
X108268Y91811D02*
X108417Y91662D01*
X78970Y4560D02*
X81306Y6897D01*
Y9101D02*
X81378Y9173D01*
X81306Y6897D02*
Y9101D01*
X76214Y4560D02*
X78970D01*
X94898Y69291D02*
Y72457D01*
X99122Y76681D01*
Y83965D01*
X109021Y42520D02*
Y46816D01*
Y38223D02*
Y42520D01*
X105904Y63779D02*
X108393D01*
X108730Y64117D01*
X105885Y63760D02*
X105904Y63779D01*
X103180Y63760D02*
X105885D01*
X100983Y61563D02*
X103180Y63760D01*
X100983Y58858D02*
Y61563D01*
X12739Y197441D02*
X17480D01*
X67960Y91801D02*
X68110D01*
X28403Y84589D02*
Y91013D01*
X32283D01*
X62846Y187019D02*
X66772Y190945D01*
X60168Y187019D02*
X62846D01*
X66772Y190945D02*
X72539D01*
X99122Y83965D02*
X100197Y85039D01*
X101575D01*
X87629Y194158D02*
Y195897D01*
X87795Y196063D01*
X108987Y38189D02*
X109021Y38223D01*
X86378Y4488D02*
Y9173D01*
X86221Y4331D02*
X86378Y4488D01*
X75984Y4331D02*
X76214Y4560D01*
X66655Y89255D02*
X66934Y88976D01*
X66092Y89255D02*
X66655D01*
X65863Y89485D02*
X66092Y89255D01*
X65863Y89485D02*
X67310Y90932D01*
X85244Y169774D02*
X86192Y170723D01*
X83002Y170079D02*
X83306Y169774D01*
X82677Y170079D02*
X83002D01*
X86192Y170723D02*
Y170838D01*
X83306Y169774D02*
X85244D01*
X81246Y14305D02*
Y17248D01*
Y14305D02*
X81378Y14173D01*
X81759Y91801D02*
X82409Y91151D01*
Y90426D02*
Y91151D01*
X81609Y91801D02*
X81759D01*
X66934Y88976D02*
X76378D01*
X77138Y91717D02*
X77222Y91801D01*
X77138Y89737D02*
Y91717D01*
X76378Y88976D02*
X77138Y89737D01*
X67310Y91151D02*
X67960Y91801D01*
X67310Y90932D02*
Y91151D01*
X28403Y84589D02*
X31102Y81890D01*
X84153Y192913D02*
X84205Y192965D01*
X86435D01*
X87629Y194158D01*
X90835Y188976D02*
X91623Y188189D01*
X96457D01*
X84547Y188976D02*
X90835D01*
X70421Y192965D02*
X72488D01*
X68835Y194550D02*
X70421Y192965D01*
X68835Y194550D02*
Y197369D01*
X68799Y197405D02*
Y203543D01*
Y197405D02*
X68835Y197369D01*
X72488Y192965D02*
X72539Y192913D01*
X73620Y194933D02*
Y196452D01*
X74803Y197635D02*
Y197638D01*
X73620Y196452D02*
X74803Y197635D01*
X73569Y194882D02*
X73620Y194933D01*
X68829Y188976D02*
X72539D01*
X68041Y188189D02*
X68829Y188976D01*
X67716Y188189D02*
X68041D01*
X72146Y186957D02*
X72197Y187008D01*
X72539D01*
X84539Y194933D02*
Y196449D01*
X84488Y194882D02*
X84539Y194933D01*
X84153Y194882D02*
X84488D01*
X91831D02*
Y197252D01*
X90658Y198425D02*
X91831Y197252D01*
X86516Y198425D02*
X90658D01*
X84539Y196449D02*
X86516Y198425D01*
X84153Y188976D02*
X84547D01*
X90318Y183121D02*
X90354Y183158D01*
X85776Y183121D02*
X90318D01*
X83355Y185543D02*
X85776Y183121D01*
X83355Y185543D02*
X83374Y185561D01*
Y186957D01*
X83425Y187008D01*
X84153D01*
X68799Y203543D02*
X74410D01*
X74410Y203543D01*
X43769Y178278D02*
Y180709D01*
Y178278D02*
X47173Y174874D01*
X47244Y174803D02*
X51772D01*
X51842Y174732D02*
X52745Y173830D01*
X53040D01*
X39302Y180709D02*
X43769D01*
X16911Y43727D02*
X17180Y43459D01*
X16366Y43727D02*
X16911D01*
X16073Y43435D02*
X16366Y43727D01*
X16073Y38746D02*
Y43435D01*
X105187Y38189D02*
X105831Y37545D01*
X94898Y35827D02*
X102974D01*
X105187Y38039D01*
Y38189D01*
X9774Y65748D02*
X13780D01*
X16831Y56593D02*
Y62697D01*
X13780Y65748D02*
X16831Y62697D01*
X24512Y75382D02*
X25575D01*
X23512Y74381D02*
X24512Y75382D01*
X20647Y74381D02*
X23512D01*
X19485Y75543D02*
X20647Y74381D01*
X19485Y75543D02*
Y78745D01*
X19390Y78840D02*
X19485Y78745D01*
X86221Y19291D02*
X86378Y19134D01*
X71653Y5123D02*
Y8898D01*
X70472Y3942D02*
X71653Y5123D01*
X70472Y3937D02*
Y3942D01*
X71378Y9173D02*
X71653Y8898D01*
X61267Y6936D02*
Y9062D01*
X58268Y3937D02*
X61267Y6936D01*
Y9062D02*
X61378Y9173D01*
X64173Y16378D02*
Y19291D01*
Y16378D02*
X66378Y14173D01*
X76378D02*
Y19291D01*
X86378Y14173D02*
Y19134D01*
X86614Y133533D02*
X89045D01*
X92815Y137303D01*
X94882D01*
X54626D02*
X57480D01*
X50856Y133533D02*
X54626Y137303D01*
X47244Y133533D02*
X50856D01*
X103543Y172047D02*
X106043D01*
X101083D02*
X103543D01*
X106043D02*
X106831Y172835D01*
X37402Y25197D02*
X38976Y26772D01*
X37402Y28346D02*
X38976Y29921D01*
D28*
X16968Y110236D02*
D03*
X13189D02*
D03*
X32010Y18700D02*
D03*
X35790D02*
D03*
X39291Y180709D02*
D03*
X35512D02*
D03*
X33190Y134500D02*
D03*
X29410D02*
D03*
X19090Y174300D02*
D03*
X15310D02*
D03*
X105197Y42520D02*
D03*
X108976D02*
D03*
X97323Y46457D02*
D03*
X101102D02*
D03*
X108740Y68110D02*
D03*
X112520D02*
D03*
X62283Y110236D02*
D03*
X66063D02*
D03*
X109803Y72441D02*
D03*
X113583D02*
D03*
X79843Y209055D02*
D03*
X76063D02*
D03*
X56389Y187019D02*
D03*
X60168D02*
D03*
D29*
X24900Y47110D02*
D03*
Y50890D02*
D03*
X24500Y128910D02*
D03*
Y132690D02*
D03*
X78347Y216614D02*
D03*
Y220394D02*
D03*
X113386Y122126D02*
D03*
Y125906D02*
D03*
X64961Y128110D02*
D03*
Y131890D02*
D03*
X83465Y147559D02*
D03*
Y143780D02*
D03*
Y150866D02*
D03*
Y154646D02*
D03*
X64961Y150866D02*
D03*
Y154646D02*
D03*
Y147559D02*
D03*
Y143780D02*
D03*
X45669Y150866D02*
D03*
Y154646D02*
D03*
Y147559D02*
D03*
Y143780D02*
D03*
X26772Y147559D02*
D03*
Y143780D02*
D03*
Y150866D02*
D03*
Y154646D02*
D03*
X26772Y79055D02*
D03*
Y75276D02*
D03*
X108268Y95591D02*
D03*
Y91811D02*
D03*
X78347Y169370D02*
D03*
Y173150D02*
D03*
D30*
X17081Y49266D02*
D03*
X9994D02*
D03*
X17081Y43360D02*
D03*
X9994D02*
D03*
D34*
X32677Y83465D02*
D03*
X35827D02*
D03*
X38976D02*
D03*
X42126D02*
D03*
X45276D02*
D03*
X48425D02*
D03*
X51575D02*
D03*
X54724D02*
D03*
X57874D02*
D03*
X61024D02*
D03*
X64173D02*
D03*
X67323D02*
D03*
X70472D02*
D03*
X73622D02*
D03*
X76772D02*
D03*
X79921D02*
D03*
X83071D02*
D03*
X86221D02*
D03*
X89370D02*
D03*
X32677Y80315D02*
D03*
X35827D02*
D03*
X38976D02*
D03*
X42126D02*
D03*
X45276D02*
D03*
X48425D02*
D03*
X51575D02*
D03*
X54724D02*
D03*
X57874D02*
D03*
X61024D02*
D03*
X64173D02*
D03*
X67323D02*
D03*
X70472D02*
D03*
X73622D02*
D03*
X76772D02*
D03*
X79921D02*
D03*
X83071D02*
D03*
X86221D02*
D03*
X89370D02*
D03*
X32677Y77165D02*
D03*
X35827D02*
D03*
X38976D02*
D03*
X42126D02*
D03*
X45276D02*
D03*
X48425D02*
D03*
X51575D02*
D03*
X54724D02*
D03*
X57874D02*
D03*
X61024D02*
D03*
X64173D02*
D03*
X67323D02*
D03*
X70472D02*
D03*
X73622D02*
D03*
X76772D02*
D03*
X79921D02*
D03*
X83071D02*
D03*
X86221D02*
D03*
X89370D02*
D03*
X32677Y74016D02*
D03*
X35827D02*
D03*
X38976D02*
D03*
X42126D02*
D03*
X45276D02*
D03*
X48425D02*
D03*
X51575D02*
D03*
X54724D02*
D03*
X57874D02*
D03*
X61024D02*
D03*
X64173D02*
D03*
X67323D02*
D03*
X70472D02*
D03*
X73622D02*
D03*
X76772D02*
D03*
X79921D02*
D03*
X83071D02*
D03*
X86221D02*
D03*
X89370D02*
D03*
X32677Y70866D02*
D03*
X35827D02*
D03*
X38976D02*
D03*
X42126D02*
D03*
X45276D02*
D03*
X48425D02*
D03*
X51575D02*
D03*
X54724D02*
D03*
X57874D02*
D03*
X61024D02*
D03*
X64173D02*
D03*
X67323D02*
D03*
X70472D02*
D03*
X73622D02*
D03*
X76772D02*
D03*
X79921D02*
D03*
X83071D02*
D03*
X86221D02*
D03*
X89370D02*
D03*
X32677Y67716D02*
D03*
X35827D02*
D03*
X38976D02*
D03*
X42126D02*
D03*
X45276D02*
D03*
X48425D02*
D03*
X51575D02*
D03*
X54724D02*
D03*
X57874D02*
D03*
X61024D02*
D03*
X64173D02*
D03*
X67323D02*
D03*
X70472D02*
D03*
X73622D02*
D03*
X76772D02*
D03*
X79921D02*
D03*
X83071D02*
D03*
X86221D02*
D03*
X89370D02*
D03*
X32677Y64567D02*
D03*
X35827D02*
D03*
X38976D02*
D03*
X42126D02*
D03*
X45276D02*
D03*
X48425D02*
D03*
X73622D02*
D03*
X76772D02*
D03*
X79921D02*
D03*
X83071D02*
D03*
X86221D02*
D03*
X89370D02*
D03*
X32677Y61417D02*
D03*
X35827D02*
D03*
X38976D02*
D03*
X42126D02*
D03*
X45276D02*
D03*
X48425D02*
D03*
X54724D02*
D03*
X57874D02*
D03*
X61024D02*
D03*
X64173D02*
D03*
X67323D02*
D03*
X73622D02*
D03*
X76772D02*
D03*
X79921D02*
D03*
X83071D02*
D03*
X86221D02*
D03*
X89370D02*
D03*
X32677Y58268D02*
D03*
X35827D02*
D03*
X38976D02*
D03*
X42126D02*
D03*
X45276D02*
D03*
X48425D02*
D03*
X54724D02*
D03*
X57874D02*
D03*
X61024D02*
D03*
X64173D02*
D03*
X67323D02*
D03*
X73622D02*
D03*
X76772D02*
D03*
X79921D02*
D03*
X83071D02*
D03*
X86221D02*
D03*
X89370D02*
D03*
X32677Y55118D02*
D03*
X35827D02*
D03*
X38976D02*
D03*
X42126D02*
D03*
X45276D02*
D03*
X48425D02*
D03*
X54724D02*
D03*
X57874D02*
D03*
X61024D02*
D03*
X64173D02*
D03*
X67323D02*
D03*
X73622D02*
D03*
X76772D02*
D03*
X79921D02*
D03*
X83071D02*
D03*
X86221D02*
D03*
X89370D02*
D03*
X32677Y51968D02*
D03*
X35827D02*
D03*
X38976D02*
D03*
X42126D02*
D03*
X45276D02*
D03*
X48425D02*
D03*
X54724D02*
D03*
X57874D02*
D03*
X61024D02*
D03*
X64173D02*
D03*
X67323D02*
D03*
X73622D02*
D03*
X76772D02*
D03*
X79921D02*
D03*
X83071D02*
D03*
X86221D02*
D03*
X89370D02*
D03*
X32677Y48819D02*
D03*
X35827D02*
D03*
X38976D02*
D03*
X42126D02*
D03*
X45276D02*
D03*
X48425D02*
D03*
X54724D02*
D03*
X57874D02*
D03*
X61024D02*
D03*
X64173D02*
D03*
X67323D02*
D03*
X73622D02*
D03*
X76772D02*
D03*
X79921D02*
D03*
X83071D02*
D03*
X86221D02*
D03*
X89370D02*
D03*
X32677Y45669D02*
D03*
X35827D02*
D03*
X38976D02*
D03*
X42126D02*
D03*
X45276D02*
D03*
X48425D02*
D03*
X73622D02*
D03*
X76772D02*
D03*
X79921D02*
D03*
X83071D02*
D03*
X86221D02*
D03*
X89370D02*
D03*
X32677Y42520D02*
D03*
X35827D02*
D03*
X38976D02*
D03*
X42126D02*
D03*
X45276D02*
D03*
X48425D02*
D03*
X51575D02*
D03*
X54724D02*
D03*
X57874D02*
D03*
X61024D02*
D03*
X64173D02*
D03*
X67323D02*
D03*
X70472D02*
D03*
X73622D02*
D03*
X76772D02*
D03*
X79921D02*
D03*
X83071D02*
D03*
X86221D02*
D03*
X89370D02*
D03*
X32677Y39370D02*
D03*
X35827D02*
D03*
X38976D02*
D03*
X42126D02*
D03*
X45276D02*
D03*
X48425D02*
D03*
X51575D02*
D03*
X54724D02*
D03*
X57874D02*
D03*
X61024D02*
D03*
X64173D02*
D03*
X67323D02*
D03*
X70472D02*
D03*
X73622D02*
D03*
X76772D02*
D03*
X79921D02*
D03*
X83071D02*
D03*
X86221D02*
D03*
X89370D02*
D03*
X32677Y36220D02*
D03*
X35827D02*
D03*
X38976D02*
D03*
X42126D02*
D03*
X45276D02*
D03*
X48425D02*
D03*
X51575D02*
D03*
X54724D02*
D03*
X57874D02*
D03*
X61024D02*
D03*
X64173D02*
D03*
X67323D02*
D03*
X70472D02*
D03*
X73622D02*
D03*
X76772D02*
D03*
X79921D02*
D03*
X83071D02*
D03*
X86221D02*
D03*
X89370D02*
D03*
X32677Y33071D02*
D03*
X35827D02*
D03*
X38976D02*
D03*
X42126D02*
D03*
X45276D02*
D03*
X48425D02*
D03*
X51575D02*
D03*
X54724D02*
D03*
X57874D02*
D03*
X61024D02*
D03*
X64173D02*
D03*
X67323D02*
D03*
X70472D02*
D03*
X73622D02*
D03*
X76772D02*
D03*
X79921D02*
D03*
X83071D02*
D03*
X86221D02*
D03*
X89370D02*
D03*
X32677Y29921D02*
D03*
X35827D02*
D03*
X38976D02*
D03*
X42126D02*
D03*
X45276D02*
D03*
X48425D02*
D03*
X51575D02*
D03*
X54724D02*
D03*
X57874D02*
D03*
X61024D02*
D03*
X64173D02*
D03*
X67323D02*
D03*
X70472D02*
D03*
X73622D02*
D03*
X76772D02*
D03*
X79921D02*
D03*
X83071D02*
D03*
X86221D02*
D03*
X89370D02*
D03*
X32677Y26772D02*
D03*
X35827D02*
D03*
X38976D02*
D03*
X42126D02*
D03*
X45276D02*
D03*
X48425D02*
D03*
X51575D02*
D03*
X54724D02*
D03*
X57874D02*
D03*
X61024D02*
D03*
X64173D02*
D03*
X67323D02*
D03*
X70472D02*
D03*
X73622D02*
D03*
X76772D02*
D03*
X79921D02*
D03*
X83071D02*
D03*
X86221D02*
D03*
X89370D02*
D03*
D35*
X40230Y18200D02*
D03*
X43970D02*
D03*
X74114Y127559D02*
D03*
X77854D02*
D03*
X74114Y130709D02*
D03*
X77854D02*
D03*
X50829Y122835D02*
D03*
X54569D02*
D03*
X30413Y130709D02*
D03*
X34154D02*
D03*
X30413Y127559D02*
D03*
X34154D02*
D03*
X99902Y28740D02*
D03*
X96161D02*
D03*
X101083Y172047D02*
D03*
X97342D02*
D03*
X68799Y203543D02*
D03*
X65059D02*
D03*
D36*
X18800Y27950D02*
D03*
Y34250D02*
D03*
X105905Y205947D02*
D03*
Y212246D02*
D03*
X69279Y135039D02*
D03*
Y128740D02*
D03*
X13200Y34250D02*
D03*
Y27950D02*
D03*
X112992Y179528D02*
D03*
Y185827D02*
D03*
X43307Y203543D02*
D03*
Y197244D02*
D03*
X7900Y193550D02*
D03*
Y199850D02*
D03*
X15748Y202756D02*
D03*
Y209055D02*
D03*
D37*
X111417Y203346D02*
D03*
Y210039D02*
D03*
D40*
X76276Y164173D02*
D03*
X81992D02*
D03*
D41*
X76878Y137303D02*
D03*
Y133563D02*
D03*
X57480Y137303D02*
D03*
Y133563D02*
D03*
X108268Y125886D02*
D03*
Y122146D02*
D03*
X103543Y125886D02*
D03*
Y122146D02*
D03*
X94882Y137303D02*
D03*
Y133563D02*
D03*
X98819Y120177D02*
D03*
Y123917D02*
D03*
X38583Y133563D02*
D03*
Y137303D02*
D03*
D42*
X18898Y122835D02*
D03*
X12598D02*
D03*
X61417D02*
D03*
X67716D02*
D03*
X61024Y106299D02*
D03*
X67323D02*
D03*
X27250Y139100D02*
D03*
X33550D02*
D03*
X12598Y106299D02*
D03*
X18898D02*
D03*
X55118Y191732D02*
D03*
X61417D02*
D03*
X50394Y192126D02*
D03*
X44094D02*
D03*
X31496Y210236D02*
D03*
X37795D02*
D03*
X31496Y205118D02*
D03*
X37795D02*
D03*
X93307Y164173D02*
D03*
X87008D02*
D03*
D43*
X105512Y194980D02*
D03*
Y191634D02*
D03*
D44*
X14272Y78840D02*
D03*
X16831D02*
D03*
X19390D02*
D03*
X21949D02*
D03*
Y56593D02*
D03*
X19390D02*
D03*
X16831D02*
D03*
D45*
X14272D02*
D03*
D46*
X92716Y103543D02*
D03*
X90748D02*
D03*
X88779D02*
D03*
X86811D02*
D03*
X84842D02*
D03*
X82874D02*
D03*
X80905D02*
D03*
X78937D02*
D03*
Y122441D02*
D03*
X80905D02*
D03*
X82874D02*
D03*
X84842D02*
D03*
X86811D02*
D03*
X88779D02*
D03*
X90748D02*
D03*
X92716D02*
D03*
X43110Y103543D02*
D03*
X41142D02*
D03*
X39173D02*
D03*
X37205D02*
D03*
X35236D02*
D03*
X33268D02*
D03*
X31299D02*
D03*
X29331D02*
D03*
Y122441D02*
D03*
X31299D02*
D03*
X33268D02*
D03*
X35236D02*
D03*
X37205D02*
D03*
X39173D02*
D03*
X41142D02*
D03*
X43110D02*
D03*
D47*
X76378Y106102D02*
D03*
Y108071D02*
D03*
Y110039D02*
D03*
Y112008D02*
D03*
Y113976D02*
D03*
Y115945D02*
D03*
Y117913D02*
D03*
Y119882D02*
D03*
X95276D02*
D03*
Y117913D02*
D03*
Y115945D02*
D03*
Y113976D02*
D03*
Y112008D02*
D03*
Y110039D02*
D03*
Y108071D02*
D03*
Y106102D02*
D03*
X26772D02*
D03*
Y108071D02*
D03*
Y110039D02*
D03*
Y112008D02*
D03*
Y113976D02*
D03*
Y115945D02*
D03*
Y117913D02*
D03*
Y119882D02*
D03*
X45669D02*
D03*
Y117913D02*
D03*
Y115945D02*
D03*
Y113976D02*
D03*
Y112008D02*
D03*
Y110039D02*
D03*
Y108071D02*
D03*
Y106102D02*
D03*
D49*
X80709Y203543D02*
D03*
X74410D02*
D03*
X86221Y170866D02*
D03*
X92520D02*
D03*
X44094Y185433D02*
D03*
X50394D02*
D03*
D50*
X112311Y198933D02*
D03*
Y192634D02*
D03*
X24500Y21950D02*
D03*
Y28250D02*
D03*
X26378Y203937D02*
D03*
Y210236D02*
D03*
X53040Y173830D02*
D03*
Y180129D02*
D03*
D51*
X99508Y194882D02*
D03*
X91831D02*
D03*
D52*
X54331Y209390D02*
D03*
Y200059D02*
D03*
D53*
X17480Y199409D02*
D03*
Y197441D02*
D03*
Y195473D02*
D03*
Y193504D02*
D03*
Y191535D02*
D03*
Y189567D02*
D03*
Y187598D02*
D03*
Y185630D02*
D03*
X34488D02*
D03*
Y187598D02*
D03*
Y189567D02*
D03*
Y191535D02*
D03*
Y193504D02*
D03*
Y195473D02*
D03*
Y197441D02*
D03*
Y199409D02*
D03*
D54*
X109449Y144843D02*
D03*
X107480D02*
D03*
X105512D02*
D03*
X103543D02*
D03*
Y133071D02*
D03*
X105512D02*
D03*
X107480D02*
D03*
X109449D02*
D03*
D55*
X10060Y156893D02*
D03*
X13800D02*
D03*
X17540D02*
D03*
Y168507D02*
D03*
X13800D02*
D03*
X10060D02*
D03*
D56*
X100983Y58858D02*
D03*
D57*
Y55118D02*
D03*
Y51378D02*
D03*
X110040D02*
D03*
Y55118D02*
D03*
Y58858D02*
D03*
D58*
X25834Y12439D02*
D03*
Y9879D02*
D03*
Y7321D02*
D03*
Y4761D02*
D03*
X42566Y12439D02*
D03*
Y9879D02*
D03*
Y7321D02*
D03*
Y4761D02*
D03*
D59*
X108071Y78347D02*
D03*
D60*
X101575Y85039D02*
D03*
Y71653D02*
D03*
D61*
X35276Y158780D02*
D03*
X31890D02*
D03*
X35276Y153032D02*
D03*
X31890D02*
D03*
X91732Y158780D02*
D03*
X88346D02*
D03*
X91732Y153032D02*
D03*
X88346D02*
D03*
X73176Y158780D02*
D03*
X69790D02*
D03*
X73176Y153032D02*
D03*
X69790D02*
D03*
X53832Y158780D02*
D03*
X50446D02*
D03*
X53832Y153032D02*
D03*
X50446D02*
D03*
D79*
X85827Y112992D02*
D03*
X36220D02*
D03*
D98*
X99665Y203425D02*
D03*
X20413D02*
D03*
D101*
X83858Y212330D02*
D03*
Y208530D02*
D03*
X13100Y86200D02*
D03*
Y90000D02*
D03*
X101600Y215200D02*
D03*
Y219000D02*
D03*
X90382Y91801D02*
D03*
Y95601D02*
D03*
X81609Y95601D02*
D03*
Y91801D02*
D03*
X111700Y25522D02*
D03*
Y21722D02*
D03*
X105512Y25522D02*
D03*
Y21722D02*
D03*
X85996Y95601D02*
D03*
Y91801D02*
D03*
X68110Y95601D02*
D03*
Y91801D02*
D03*
X54724Y94813D02*
D03*
Y91013D02*
D03*
X103543Y95601D02*
D03*
Y91801D02*
D03*
X99156Y95601D02*
D03*
Y91801D02*
D03*
X94769Y95601D02*
D03*
Y91801D02*
D03*
X77222Y95601D02*
D03*
Y91801D02*
D03*
X72835Y95601D02*
D03*
Y91801D02*
D03*
X37177Y94813D02*
D03*
Y91013D02*
D03*
X50337Y94813D02*
D03*
Y91013D02*
D03*
X41563Y94813D02*
D03*
Y91013D02*
D03*
X32283Y94813D02*
D03*
Y91013D02*
D03*
X24409Y94813D02*
D03*
Y91013D02*
D03*
X45950Y94813D02*
D03*
Y91013D02*
D03*
X9055Y99538D02*
D03*
Y95738D02*
D03*
X69685Y147687D02*
D03*
Y143887D02*
D03*
X74410Y147687D02*
D03*
Y143887D02*
D03*
X55118Y147687D02*
D03*
Y143887D02*
D03*
X51181Y147569D02*
D03*
Y143769D02*
D03*
X47244Y133533D02*
D03*
Y137333D02*
D03*
X36614Y147452D02*
D03*
Y143652D02*
D03*
X31890Y147452D02*
D03*
Y143652D02*
D03*
X88189Y147569D02*
D03*
Y143769D02*
D03*
X92713Y147569D02*
D03*
Y143769D02*
D03*
X86614Y133533D02*
D03*
Y137333D02*
D03*
X108268Y184184D02*
D03*
Y180384D02*
D03*
X70079Y177884D02*
D03*
Y174084D02*
D03*
X54724Y220404D02*
D03*
Y216604D02*
D03*
X63386Y220404D02*
D03*
Y216604D02*
D03*
X92520Y212330D02*
D03*
Y208530D02*
D03*
X88189Y212330D02*
D03*
Y208530D02*
D03*
X50394Y220404D02*
D03*
Y216604D02*
D03*
X46457Y220404D02*
D03*
Y216604D02*
D03*
X9400Y148700D02*
D03*
Y152500D02*
D03*
X28403Y91013D02*
D03*
Y94813D02*
D03*
X9055Y79853D02*
D03*
Y76053D02*
D03*
X9449Y66073D02*
D03*
Y62273D02*
D03*
X18504Y90876D02*
D03*
Y87076D02*
D03*
X9055Y90000D02*
D03*
Y86200D02*
D03*
X42100Y220400D02*
D03*
Y216600D02*
D03*
X37800Y220400D02*
D03*
Y216600D02*
D03*
X67716Y216604D02*
D03*
Y220404D02*
D03*
X59055D02*
D03*
Y216604D02*
D03*
D102*
X6100Y182600D02*
D03*
D103*
X21400Y220700D02*
D03*
D104*
X66378Y9173D02*
D03*
Y14173D02*
D03*
X81378Y9173D02*
D03*
Y14173D02*
D03*
X86378D02*
D03*
X76378D02*
D03*
X71378D02*
D03*
X61378D02*
D03*
X56378D02*
D03*
Y9173D02*
D03*
X61378D02*
D03*
X71378D02*
D03*
X76378D02*
D03*
X86378D02*
D03*
D105*
X31428Y180709D02*
D03*
X27628D02*
D03*
X66467Y114173D02*
D03*
X62667D02*
D03*
X66467Y118110D02*
D03*
X62667D02*
D03*
X108869Y46850D02*
D03*
X105069D02*
D03*
X108987Y38189D02*
D03*
X105187D02*
D03*
X99932Y65354D02*
D03*
X96131D02*
D03*
X108730Y64117D02*
D03*
X112530D02*
D03*
X109517Y85433D02*
D03*
X113317D02*
D03*
X59911Y101181D02*
D03*
X63711D02*
D03*
X18829Y118110D02*
D03*
X15029D02*
D03*
X18829Y114173D02*
D03*
X15029D02*
D03*
X17300Y96600D02*
D03*
X13500D02*
D03*
X17500Y100400D02*
D03*
X13700D02*
D03*
X68435Y207480D02*
D03*
X64635D02*
D03*
X43769Y180709D02*
D03*
X47569D02*
D03*
X19500Y148800D02*
D03*
X15700D02*
D03*
X12273Y38746D02*
D03*
X16073D02*
D03*
X59911Y96457D02*
D03*
X63711D02*
D03*
D106*
X109252Y108205D02*
D03*
X116732D02*
D03*
X112992Y116205D02*
D03*
D107*
X78347Y190945D02*
D03*
D108*
X72539Y194882D02*
D03*
Y192913D02*
D03*
Y190945D02*
D03*
Y188976D02*
D03*
Y187008D02*
D03*
X84153D02*
D03*
Y188976D02*
D03*
Y190945D02*
D03*
Y192913D02*
D03*
Y194882D02*
D03*
D109*
X25984Y192520D02*
D03*
D110*
X112205Y220472D02*
D03*
X11811Y138976D02*
D03*
D111*
X106496Y138957D02*
D03*
D112*
X79921Y87795D02*
D03*
X91378Y11673D02*
D03*
X51378Y15673D02*
D03*
Y7673D02*
D03*
D113*
X101772Y182677D02*
D03*
X90354D02*
D03*
D114*
X112854Y172835D02*
D03*
X106831D02*
D03*
D115*
X43701Y37795D02*
X45276Y39370D01*
X32677Y42520D02*
X34252Y40945D01*
X32677Y42520D02*
X32677D01*
X112200Y111810D02*
Y111900D01*
X109252Y108205D02*
Y108905D01*
X110690Y110342D02*
X110732D01*
X112200Y111810D01*
X109252Y108905D02*
X110690Y110342D01*
X112992Y116205D02*
X113100Y116313D01*
Y121840D01*
X113386Y122126D01*
X85827Y146048D02*
Y152377D01*
X85144Y145366D02*
X85827Y146048D01*
X21601Y158033D02*
X21688Y157946D01*
X21300Y159100D02*
X21601Y158799D01*
Y158033D02*
Y158799D01*
X21688Y146606D02*
Y157946D01*
X70522Y98081D02*
X73228Y100787D01*
X70522Y92470D02*
Y98081D01*
X70963Y92029D02*
X72607D01*
X70522Y92470D02*
X70963Y92029D01*
X72607D02*
X72835Y91801D01*
X25000Y80748D02*
X26693Y79055D01*
X23622Y86614D02*
X25000Y85236D01*
Y80748D02*
Y85236D01*
X13100Y86200D02*
X13913Y85387D01*
Y84487D02*
Y85387D01*
Y84487D02*
X16831Y81569D01*
Y78840D02*
Y81569D01*
X13650Y81734D02*
X14272Y81113D01*
X9205Y86200D02*
X10043Y85362D01*
X14272Y78840D02*
Y81113D01*
X10043Y85212D02*
Y85362D01*
X13521Y81734D02*
X13650D01*
X10043Y85212D02*
X13521Y81734D01*
X9055Y86200D02*
X9205D01*
X6900Y83100D02*
X9690D01*
X6186Y83814D02*
X6900Y83100D01*
X9690D02*
X11400Y81390D01*
X6186Y83814D02*
Y122386D01*
X12100Y149400D02*
X15100D01*
X15700Y148800D01*
X19600Y135800D02*
Y144518D01*
X21688Y146606D01*
X6186Y122386D02*
X19600Y135800D01*
X11400Y76711D02*
X17457Y70654D01*
X11400Y76711D02*
Y81390D01*
X17457Y70654D02*
X19234D01*
X24213Y65675D01*
Y63583D02*
Y65675D01*
Y63583D02*
X31102Y56693D01*
X25575Y34975D02*
X26600Y36000D01*
X25575Y41945D02*
X27156D01*
X28200Y40900D01*
X27600Y31403D02*
Y34293D01*
X31102Y37795D01*
X25922Y29724D02*
X27600Y31403D01*
X25575Y29029D02*
X25922Y29376D01*
Y29724D01*
X31000Y22441D02*
X40945D01*
X25575Y27175D02*
X25626Y27123D01*
X26318D02*
X31000Y22441D01*
X25626Y27123D02*
X26318D01*
X40945Y22441D02*
X43701Y25197D01*
X25575Y28346D02*
X31102D01*
X31102Y28346D01*
X92646Y26645D02*
X100803D01*
X101954Y25494D01*
X85996Y86839D02*
X87795Y85039D01*
X85996Y86839D02*
Y88992D01*
X97323Y42441D02*
Y46457D01*
X78347Y220394D02*
X78425D01*
X80308Y222277D02*
X80378D01*
X78425Y220394D02*
X80308Y222277D01*
X79843Y209055D02*
Y209134D01*
X89370Y219291D02*
Y219528D01*
X104531Y92638D02*
X104531D01*
X105897Y94005D02*
X106682D01*
X104531Y92638D02*
X105897Y94005D01*
X103937Y92045D02*
X104531Y92638D01*
X106682Y94005D02*
X107320Y94643D01*
Y94722D02*
X108189Y95591D01*
X107320Y94643D02*
Y94722D01*
X94769Y88864D02*
Y88992D01*
X90945Y85039D02*
X94769Y88864D01*
X78110Y22441D02*
X83071D01*
X86221Y19291D01*
X72047Y25197D02*
X76350Y20895D01*
Y19320D02*
X76378Y19291D01*
X76350Y19320D02*
Y20895D01*
X102061Y30407D02*
X102362Y30709D01*
X90945Y31496D02*
X93701Y28740D01*
X96161D01*
X60504Y119830D02*
X61068Y120393D01*
X60504Y112094D02*
Y119830D01*
X61068Y122485D02*
X61811Y123228D01*
X61068Y120393D02*
Y122485D01*
X60504Y112094D02*
X62283Y110315D01*
Y110236D02*
Y110315D01*
X63911Y119504D02*
Y119830D01*
X62667Y118260D02*
X63911Y119504D01*
X62667Y118110D02*
Y118260D01*
X67716Y122745D02*
Y122835D01*
X66356Y121385D02*
X67716Y122745D01*
X65548Y121385D02*
X66356D01*
X64586Y120423D02*
X65548Y121385D01*
X64504Y120423D02*
X64586D01*
X63911Y119830D02*
X64504Y120423D01*
X61829Y119098D02*
X62667Y118260D01*
X112520Y68032D02*
Y68189D01*
X108730Y64117D02*
Y64267D01*
X109567Y65104D01*
X109607D01*
X110934Y66431D01*
Y66446D01*
X112520Y68032D01*
X54874Y91801D02*
X55193Y91482D01*
X58646Y88992D02*
X62598Y85039D01*
X50337Y91013D02*
X54724D01*
X98560Y41204D02*
X101373D01*
X97323Y42441D02*
X98560Y41204D01*
X94792Y55040D02*
X100905D01*
X93208Y53456D02*
X94792Y55040D01*
X101373Y41204D02*
X102689Y42520D01*
X105197D01*
X26665Y75382D02*
X26772Y75276D01*
X26850D01*
X25575Y75382D02*
X26665D01*
X9205Y76053D02*
X10005Y75253D01*
X73176Y152638D02*
Y153032D01*
X32752Y95282D02*
X33271Y94763D01*
X40867Y95510D02*
Y96535D01*
X39595Y97806D02*
Y98987D01*
X40867Y95510D02*
X41563Y94813D01*
X39595Y97806D02*
X40867Y96535D01*
X39370Y99213D02*
X39595Y98987D01*
X43701Y28346D02*
X45276Y29921D01*
X43701Y25197D02*
Y28346D01*
X101575Y28740D02*
X102061Y29226D01*
Y30407D01*
X99902Y28740D02*
X101575D01*
X87720Y53468D02*
X91818D01*
X91831Y53456D02*
X93208D01*
X91818Y53468D02*
X91831Y53456D01*
X86221Y51968D02*
X87720Y53468D01*
X109517Y82215D02*
Y85433D01*
Y82215D02*
X113583Y78149D01*
Y72441D02*
Y78149D01*
X73622Y101969D02*
X74016Y101575D01*
Y101325D02*
Y101575D01*
X112520Y68189D02*
X113583Y69252D01*
Y72441D01*
X101575Y85039D02*
X108268D01*
X79331Y185236D02*
Y189370D01*
X77362Y185236D02*
Y189370D01*
X90945Y28346D02*
X92646Y26645D01*
X21654Y91339D02*
X23422D01*
X23572Y91189D01*
X23622Y86614D02*
Y91013D01*
X90945Y62992D02*
X97719D01*
X99932Y65204D01*
Y65354D01*
X55118Y143887D02*
X55956Y143050D01*
X56472Y142913D02*
X61417D01*
X55956Y143050D02*
X56336D01*
X56472Y142913D01*
X24016Y190945D02*
X25591Y192520D01*
X25984D01*
X78347Y190945D02*
X78347Y190945D01*
X77362Y191929D02*
X78347Y190945D01*
X77362Y191929D02*
Y197047D01*
X77165Y197244D02*
X77362Y197047D01*
X78347Y190354D02*
X79331Y189370D01*
X79134Y185039D02*
X79331Y185236D01*
X77362Y189370D02*
X78347Y190354D01*
X77362Y185236D02*
X77559Y185039D01*
X78937Y190945D02*
X84153D01*
X85129Y145366D02*
X85144D01*
X83543Y143780D02*
X85129Y145366D01*
X84412Y153698D02*
Y153777D01*
Y153698D02*
X85050Y153060D01*
X85144D02*
X85827Y152377D01*
X83465Y154646D02*
X83543D01*
X84412Y153777D01*
X85050Y153060D02*
X85144D01*
X83465Y143780D02*
X83543D01*
X31890Y143652D02*
X36614D01*
X55000Y143769D02*
X55118Y143887D01*
X51181Y143769D02*
X55000D01*
X54569Y122835D02*
Y127682D01*
Y122736D02*
Y122835D01*
Y127682D02*
X56331Y129443D01*
Y129528D01*
X54569Y122736D02*
X55241Y122064D01*
X25984Y191636D02*
Y192520D01*
X26969Y193504D01*
X107480Y133071D02*
Y137972D01*
X106496Y138957D02*
X107480Y137972D01*
X73555Y6350D02*
X76378Y9173D01*
X73555Y2322D02*
Y6350D01*
X68898Y25197D02*
X71378Y22716D01*
Y14173D02*
Y22716D01*
X90945Y24852D02*
Y25197D01*
X94769Y91801D02*
X99156D01*
X103543D01*
X90382D02*
X94769D01*
X37964Y91013D02*
X41563D01*
X37177Y91801D02*
X37964Y91013D01*
X41563D02*
X45950D01*
X33858Y85039D02*
X37177Y88358D01*
Y91801D01*
X31102Y85039D02*
X33858D01*
X34252Y40945D02*
X34252D01*
X9055Y76053D02*
X9205D01*
X33271Y94763D02*
X33627D01*
X34646Y93745D01*
Y88976D02*
Y93745D01*
X95344Y66142D02*
X96131Y65354D01*
X90945Y66142D02*
X95344D01*
X90945Y69291D02*
X94898D01*
X37402Y66142D02*
X38976Y64567D01*
X75354Y25197D02*
X78110Y22441D01*
X70472Y26772D02*
X72047Y25197D01*
X75197D02*
X75354D01*
X92913Y35827D02*
X94898D01*
X89370Y39370D02*
X92913Y35827D01*
X64173Y70866D02*
X65748Y69291D01*
X86221Y74016D02*
X87795Y75590D01*
X83071Y70866D02*
X84646Y72441D01*
X59449Y28346D02*
X61024Y29921D01*
X31102Y81890D02*
X32677Y80315D01*
X31102Y44094D02*
X32677Y45669D01*
X31102Y47244D02*
X32677Y48819D01*
X89370Y83465D02*
X90945Y85039D01*
X31102D02*
X32677Y83465D01*
X89370Y26772D02*
X90945Y25197D01*
X31102D02*
X32677Y26772D01*
X86221Y83465D02*
X87795Y85039D01*
X89370Y80315D02*
X90945Y81890D01*
X89370Y29921D02*
X90945Y28346D01*
X86221Y26772D02*
X87795Y25197D01*
X31102Y28346D02*
X32677Y29921D01*
X31102Y78740D02*
X32677Y77165D01*
X89370Y33071D02*
X90945Y31496D01*
X34252Y81890D02*
X35827Y80315D01*
X86221Y29921D02*
X87795Y28346D01*
X40551Y85039D02*
X42126Y83465D01*
X89370Y36220D02*
X90945Y34646D01*
X31102Y75590D02*
X32677Y74016D01*
X40551Y25197D02*
X42126Y26772D01*
X34252Y78740D02*
X35827Y77165D01*
X86221Y33071D02*
X87795Y31496D01*
X76772Y26772D02*
X78347Y25197D01*
X31102Y37795D02*
X32677Y39370D01*
X43701Y25197D02*
X45276Y26772D01*
X79921Y80315D02*
X81496Y78740D01*
X40551Y81890D02*
X42126Y80315D01*
X86221Y36220D02*
X87795Y34646D01*
X40551Y28346D02*
X42126Y29921D01*
X89370Y67716D02*
X90945Y69291D01*
X46850Y85039D02*
X48425Y83465D01*
X89370Y42520D02*
X90945Y40945D01*
X31102Y69291D02*
X32677Y67716D01*
X73622Y26772D02*
X75197Y25197D01*
X46850D02*
X48425Y26772D01*
X70472Y83465D02*
X72047Y85039D01*
X89370Y64567D02*
X90945Y66142D01*
X50000Y85039D02*
X51575Y83465D01*
X89370Y45669D02*
X90945Y44094D01*
X50000Y25197D02*
X51575Y26772D01*
X43701Y81890D02*
X45276Y80315D01*
X76772Y29921D02*
X78347Y28346D01*
X34252Y37795D02*
X35827Y39370D01*
X67323Y83465D02*
X68898Y85039D01*
X53150D02*
X54724Y83465D01*
X89370Y61417D02*
X90945Y62992D01*
X89370Y48819D02*
X90945Y47244D01*
X40551Y78740D02*
X42126Y77165D01*
X31102Y62992D02*
X32677Y61417D01*
X83071Y36220D02*
X84646Y34646D01*
X53150Y28346D02*
X54724Y26772D01*
X40551Y31496D02*
X42126Y33071D01*
X64173Y83465D02*
X65748Y85039D01*
X56299D02*
X57874Y83465D01*
X89370Y51968D02*
X90945Y50394D01*
X31102D02*
X32677Y51968D01*
X64173Y26772D02*
X65748Y25197D01*
X61024Y83465D02*
X62598Y85039D01*
X31102Y56693D02*
X32677Y55118D01*
X86221Y67716D02*
X87795Y69291D01*
X46850Y81890D02*
X48425Y80315D01*
X86221Y42520D02*
X87795Y40945D01*
X73622Y29921D02*
X75197Y28346D01*
X34252Y40945D02*
X35827Y42520D01*
X46850Y28346D02*
X48425Y29921D01*
X43701Y78740D02*
X45276Y77165D01*
X37402Y37795D02*
X38976Y39370D01*
X43701Y31496D02*
X45276Y33071D01*
X70472Y80315D02*
X72047Y81890D01*
X50000D02*
X51575Y80315D01*
X86221Y45669D02*
X87795Y44094D01*
X34252Y66142D02*
X35827Y64567D01*
X50000Y28346D02*
X51575Y29921D01*
X40551Y75590D02*
X42126Y74016D01*
X40551Y34646D02*
X42126Y36220D01*
X67323Y80315D02*
X68898Y81890D01*
X53150D02*
X54724Y80315D01*
X86221Y61417D02*
X87795Y62992D01*
X86221Y48819D02*
X87795Y47244D01*
X34252Y62992D02*
X35827Y61417D01*
X56299Y81890D02*
X57874Y80315D01*
X83071Y67716D02*
X84646Y69291D01*
X86221Y51968D02*
X87795Y50394D01*
X34252Y59842D02*
X35827Y58268D01*
X73622Y33071D02*
X75197Y31496D01*
X64173Y29921D02*
X65748Y28346D01*
X37402Y40945D02*
X38976Y42520D01*
X46850Y31496D02*
X48425Y33071D01*
X61024Y80315D02*
X62598Y81890D01*
X34252Y56693D02*
X35827Y55118D01*
X79921Y70866D02*
X81496Y72441D01*
X43701Y75590D02*
X45276Y74016D01*
X40551Y37795D02*
X42126Y39370D01*
X43701Y34646D02*
X45276Y36220D01*
X70472Y77165D02*
X72047Y78740D01*
X83071Y64567D02*
X84646Y66142D01*
X50000Y78740D02*
X51575Y77165D01*
X83071Y45669D02*
X84646Y44094D01*
X70472Y33071D02*
X72047Y31496D01*
X50000D02*
X51575Y33071D01*
X67323Y77165D02*
X68898Y78740D01*
X83071Y61417D02*
X84646Y62992D01*
X53150Y78740D02*
X54724Y77165D01*
X83071Y48819D02*
X84646Y47244D01*
X37402Y62992D02*
X38976Y61417D01*
X73622Y74016D02*
X75197Y75590D01*
X79921Y67716D02*
X81496Y69291D01*
X40551D02*
X42126Y67716D01*
X73622Y36220D02*
X75197Y34646D01*
X40551Y40945D02*
X42126Y42520D01*
X46850Y34646D02*
X48425Y36220D01*
X76772Y70866D02*
X78347Y72441D01*
X83071Y58268D02*
X84646Y59842D01*
X56299Y78740D02*
X57874Y77165D01*
X43701Y72441D02*
X45276Y70866D01*
X83071Y51968D02*
X84646Y50394D01*
X76772Y39370D02*
X78347Y37795D01*
X37402Y59842D02*
X38976Y58268D01*
X64173Y33071D02*
X65748Y31496D01*
X61024Y77165D02*
X62598Y78740D01*
X83071Y55118D02*
X84646Y56693D01*
X37402D02*
X38976Y55118D01*
X61024Y33071D02*
X62598Y31496D01*
X70472Y74016D02*
X72047Y75590D01*
X79921Y64567D02*
X81496Y66142D01*
X50000Y75590D02*
X51575Y74016D01*
X79921Y45669D02*
X81496Y44094D01*
X40551Y66142D02*
X42126Y64567D01*
X50000Y34646D02*
X51575Y36220D01*
X73622Y70866D02*
X75197Y72441D01*
X76772Y67716D02*
X78347Y69291D01*
X46850Y72441D02*
X48425Y70866D01*
X43701Y69291D02*
X45276Y67716D01*
X76772Y42520D02*
X78347Y40945D01*
X73622Y39370D02*
X75197Y37795D01*
X43701Y40945D02*
X45276Y42520D01*
X46850Y37795D02*
X48425Y39370D01*
X67323Y74016D02*
X68898Y75590D01*
X53150D02*
X54724Y74016D01*
X79921Y61417D02*
X81496Y62992D01*
X56299Y75590D02*
X57874Y74016D01*
X79921Y58268D02*
X81496Y59842D01*
X79921Y51968D02*
X81496Y50394D01*
X40551Y59842D02*
X42126Y58268D01*
X61024Y74016D02*
X62598Y75590D01*
X79921Y55118D02*
X81496Y56693D01*
X40551D02*
X42126Y55118D01*
X59449Y34646D02*
X61024Y36220D01*
X70472Y70866D02*
X72047Y72441D01*
X76772Y64567D02*
X78347Y66142D01*
X50000Y72441D02*
X51575Y70866D01*
X76772Y45669D02*
X78347Y44094D01*
X43701Y66142D02*
X45276Y64567D01*
X70472Y39370D02*
X72047Y37795D01*
X43701Y44094D02*
X45276Y45669D01*
X50000Y37795D02*
X51575Y39370D01*
X73622Y67716D02*
X75197Y69291D01*
X46850D02*
X48425Y67716D01*
X73622Y42520D02*
X75197Y40945D01*
X46850D02*
X48425Y42520D01*
X67323Y70866D02*
X68898Y72441D01*
X76772Y61417D02*
X78347Y62992D01*
X53150Y72441D02*
X54724Y70866D01*
X76772Y48819D02*
X78347Y47244D01*
X43701Y62992D02*
X45276Y61417D01*
X67323Y39370D02*
X68898Y37795D01*
X43701Y47244D02*
X45276Y48819D01*
X53150Y37795D02*
X54724Y39370D01*
X76772Y58268D02*
X78347Y59842D01*
X56299Y72441D02*
X57874Y70866D01*
X76772Y51968D02*
X78347Y50394D01*
X43701Y59842D02*
X45276Y58268D01*
X64173Y39370D02*
X65748Y37795D01*
X43701Y50394D02*
X45276Y51968D01*
X56299Y37795D02*
X57874Y39370D01*
X70472Y67716D02*
X72047Y69291D01*
X73622Y64567D02*
X75197Y66142D01*
X61024Y70866D02*
X62598Y72441D01*
X50000Y69291D02*
X51575Y67716D01*
X76772Y55118D02*
X78347Y56693D01*
X73622Y45669D02*
X75197Y44094D01*
X46850Y66142D02*
X48425Y64567D01*
X70472Y42520D02*
X72047Y40945D01*
X43701Y56693D02*
X45276Y55118D01*
X46850Y44094D02*
X48425Y45669D01*
X50000Y40945D02*
X51575Y42520D01*
X59449Y37795D02*
X61024Y39370D01*
X67323Y67716D02*
X68898Y69291D01*
X53150D02*
X54724Y67716D01*
X72047Y59842D02*
X73622Y61417D01*
Y48819D02*
X75197Y47244D01*
X46850Y62992D02*
X48425Y61417D01*
X67323Y42520D02*
X68898Y40945D01*
X46850Y47244D02*
X48425Y48819D01*
X53150Y40945D02*
X54724Y42520D01*
X64173Y67716D02*
X65748Y69291D01*
X72047Y56693D02*
X73622Y58268D01*
X56299Y69291D02*
X57874Y67716D01*
X73622Y51968D02*
X75197Y50394D01*
X46850Y59842D02*
X48425Y58268D01*
X64173Y42520D02*
X65748Y40945D01*
X46850Y50394D02*
X48425Y51968D01*
X56299Y40945D02*
X57874Y42520D01*
X61024Y67716D02*
X62598Y69291D01*
X73622Y55118D02*
X75197Y56693D01*
X46850D02*
X48425Y55118D01*
X59449Y40945D02*
X61024Y42520D01*
X67323Y61417D02*
X68898Y62992D01*
X53150D02*
X54724Y61417D01*
X67323Y48819D02*
X68898Y47244D01*
X53150D02*
X54724Y48819D01*
X64173Y61417D02*
X65748Y62992D01*
X67323Y58268D02*
X68898Y59842D01*
X56299Y62992D02*
X57874Y61417D01*
X67323Y51968D02*
X68898Y50394D01*
X53150Y59842D02*
X54724Y58268D01*
X64173Y48819D02*
X65748Y47244D01*
X53150Y50394D02*
X54724Y51968D01*
X56299Y47244D02*
X57874Y48819D01*
X61024Y61417D02*
X62598Y62992D01*
X67323Y55118D02*
X68898Y56693D01*
X53150D02*
X54724Y55118D01*
X61024Y48819D02*
X62598Y47244D01*
X64173Y58268D02*
X65748Y59842D01*
X56299D02*
X57874Y58268D01*
X64173Y51968D02*
X65748Y50394D01*
X56299D02*
X57874Y51968D01*
X61024Y58268D02*
X62598Y59842D01*
X64173Y55118D02*
X65748Y56693D01*
X56299D02*
X57874Y55118D01*
X61024Y51968D02*
X62598Y50394D01*
X61024Y55118D02*
X62598Y56693D01*
D116*
X18815Y107169D02*
X19012D01*
X18224Y106972D02*
X18898Y106299D01*
X18224Y106972D02*
Y108901D01*
X16968Y110158D02*
X18224Y108901D01*
X16968Y110158D02*
Y110236D01*
X55260Y208461D02*
X62114D01*
X62307Y208268D02*
X63998D01*
X64485Y207780D02*
X64635D01*
X53484Y210236D02*
X55260Y208461D01*
X62114D02*
X62307Y208268D01*
X63998D02*
X64485Y207780D01*
X22243Y214372D02*
Y219857D01*
Y214372D02*
X25606Y211008D01*
Y210713D02*
X26083Y210236D01*
X26378D01*
X21400Y220700D02*
X22243Y219857D01*
X25606Y210713D02*
Y211008D01*
X9600Y190316D02*
X11442Y192158D01*
X9600Y186100D02*
Y190316D01*
X6100Y182600D02*
X9600Y186100D01*
X98900Y139100D02*
X98954D01*
X99078Y138976D01*
X105512D01*
X24240Y132871D02*
Y133402D01*
X24421Y132690D02*
X24500D01*
X24240Y132871D02*
X24421Y132690D01*
X23600Y134042D02*
X24240Y133402D01*
X23600Y134042D02*
Y138446D01*
X26772Y138490D02*
X27664D01*
X29229Y136924D01*
Y134681D02*
Y136924D01*
X23816Y138662D02*
X26812D01*
X27250Y139100D01*
X23654Y138500D02*
X23816Y138662D01*
X23600Y138500D02*
X23654D01*
X65169Y135039D02*
X69279D01*
X27250Y139100D02*
Y139679D01*
X26772Y140157D02*
X27250Y139679D01*
X29229Y134681D02*
X29410Y134500D01*
X13272Y124028D02*
X14505Y125262D01*
X15462D02*
X15500Y125300D01*
X13272Y123508D02*
Y124028D01*
X14505Y125262D02*
X15462D01*
X101102Y46850D02*
X105069D01*
X100921Y43931D02*
Y46669D01*
X26772Y140157D02*
Y143780D01*
X12598Y122835D02*
X13272Y123508D01*
X35502Y180449D02*
X35512Y180459D01*
Y180709D01*
X28400Y175200D02*
X31278Y178078D01*
Y180559D01*
X92520Y170571D02*
X92996Y170095D01*
X18800Y27950D02*
X18950Y28100D01*
X24350D01*
X24500Y28250D01*
X99296Y221304D02*
X101300Y219300D01*
X91830Y221304D02*
X99296D01*
X101450Y219000D02*
X101600D01*
X101300Y219150D02*
X101450Y219000D01*
X101300Y219150D02*
Y219300D01*
X91786Y221260D02*
X91830Y221304D01*
X91732Y221260D02*
X91786D01*
X101793Y210399D02*
Y215050D01*
X101600Y215200D02*
X101643D01*
X101793Y215050D01*
X105232Y212919D02*
X105905Y212246D01*
X80709Y205730D02*
X80909D01*
X83708Y208530D01*
X83858D01*
X78347Y190945D02*
Y201181D01*
X12598Y122384D02*
Y122835D01*
X12179Y111324D02*
X13007Y110496D01*
X12179Y121965D02*
X12598Y122384D01*
X12179Y111324D02*
Y121965D01*
X50311Y185350D02*
X50394Y185433D01*
X50311Y183450D02*
Y185350D01*
X47869Y181009D02*
X50311Y183450D01*
X47719Y181009D02*
X47869D01*
X47569Y180859D02*
X47719Y181009D01*
X47569Y180709D02*
Y180859D01*
X105905Y201969D02*
Y205160D01*
X100766Y43776D02*
X100921Y43931D01*
X100766Y43722D02*
Y43776D01*
X80709Y205730D02*
Y208110D01*
Y205269D02*
Y205730D01*
X103283Y197420D02*
Y197692D01*
X103253Y197390D02*
X103283Y197420D01*
X103253Y196126D02*
Y197390D01*
X103283Y197692D02*
X103321Y197730D01*
X102756Y195226D02*
Y195628D01*
X103253Y196126D01*
X45669Y138908D02*
Y143701D01*
X41495Y202870D02*
X42634D01*
X38034Y199409D02*
X41495Y202870D01*
X34488Y199409D02*
X38034D01*
X42634Y202870D02*
X43307Y203543D01*
X46129Y200722D02*
X53668D01*
X54331Y200059D01*
X44177Y202673D02*
X46129Y200722D01*
X16070Y111135D02*
X16968Y110236D01*
X81992Y163976D02*
Y164173D01*
Y163976D02*
X86811D01*
X87008Y164173D01*
X86811Y163976D02*
X87681Y164847D01*
X13007Y110417D02*
X13287Y110138D01*
X13007Y110417D02*
Y110496D01*
X100921Y46669D02*
X101102Y46850D01*
X31428Y180709D02*
X35502D01*
X31278Y180559D02*
X31428Y180709D01*
X62102Y107575D02*
Y110055D01*
X61024Y106496D02*
X62102Y107575D01*
X61024Y106299D02*
Y106496D01*
X62102Y110055D02*
X62283Y110236D01*
X15179Y113091D02*
Y114023D01*
Y113091D02*
X16070Y112200D01*
Y111135D02*
Y112200D01*
X15029Y114173D02*
X15179Y114023D01*
X13287Y106398D02*
Y110138D01*
Y106398D02*
X13386Y106299D01*
X15029Y114173D02*
Y118110D01*
X79921Y83465D02*
Y87795D01*
X56377Y187031D02*
Y190276D01*
Y187031D02*
X56389Y187019D01*
X55118Y191535D02*
X56377Y190276D01*
X55118Y191535D02*
Y191732D01*
X50394Y192126D02*
X50590Y191929D01*
X54921D01*
X55118Y191732D01*
X47638Y189370D02*
Y189370D01*
X49524Y191256D01*
X64635Y204034D02*
Y207480D01*
Y204034D02*
X65059Y203610D01*
Y203543D02*
Y203610D01*
X60350Y190468D02*
X61417Y191535D01*
X60350Y187200D02*
Y190468D01*
X60168Y187019D02*
X60350Y187200D01*
X61417Y191535D02*
Y191732D01*
Y191535D02*
Y192562D01*
X63735Y194880D02*
Y196829D01*
X61417Y192562D02*
X63735Y194880D01*
X65059Y198153D02*
Y203543D01*
X63735Y196829D02*
X65059Y198153D01*
X100803Y71079D02*
X103781D01*
X104953Y68110D02*
X108740D01*
X103781Y69282D02*
X104953Y68110D01*
X103781Y69282D02*
Y71079D01*
X109623Y72701D02*
X109803Y72520D01*
Y72441D02*
Y72520D01*
X109544Y72701D02*
X109623D01*
X108071Y74174D02*
X109544Y72701D01*
X108071Y74174D02*
Y78347D01*
X108740Y71299D02*
X109803Y72362D01*
Y72441D01*
X108740Y68110D02*
Y71299D01*
X100803Y69307D02*
Y71079D01*
X99932Y68435D02*
X100803Y69307D01*
X99932Y65354D02*
Y68435D01*
X112154Y172135D02*
X112854Y172835D01*
X110630Y168110D02*
X112154Y169635D01*
Y172135D01*
X112854Y172835D02*
X112992Y172972D01*
Y179528D01*
X105512Y139941D02*
X106496Y138957D01*
X105512Y139941D02*
Y144843D01*
X64961Y135039D02*
X65169D01*
X61849Y138151D02*
Y138544D01*
Y138151D02*
X64961Y135039D01*
X61811Y138583D02*
X61849Y138544D01*
X78347Y190354D02*
Y190945D01*
X80232Y202772D02*
X80709Y203248D01*
Y203543D01*
X79937Y202772D02*
X80232D01*
X78347Y201181D02*
X79937Y202772D01*
X81185Y204020D02*
Y205269D01*
X80709Y203543D02*
X81185Y204020D01*
X79843Y208976D02*
X80709Y208110D01*
X79843Y208976D02*
Y209055D01*
X47569Y180559D02*
X47719Y180409D01*
X47869D02*
X48149Y180129D01*
X53040D01*
X47569Y180559D02*
Y180709D01*
X47719Y180409D02*
X47869D01*
X37795Y210236D02*
X53484D01*
X37795Y205118D02*
Y210236D01*
X107480Y144843D02*
X109449D01*
X105512D02*
X107480D01*
X103543D02*
X105512D01*
X86314Y137483D02*
Y137633D01*
X83465Y140483D02*
Y143780D01*
Y140483D02*
X86314Y137633D01*
Y137483D02*
X86464Y137333D01*
X86614D01*
X61811Y123228D02*
Y130537D01*
X62983Y131709D01*
X64780D01*
X64961Y131890D01*
Y134831D01*
X65169Y135039D01*
X46944Y137483D02*
Y137633D01*
Y137483D02*
X47094Y137333D01*
X45669Y138908D02*
X46944Y137633D01*
X47094Y137333D02*
X47244D01*
X100905Y55040D02*
X100983Y55118D01*
X92520Y170571D02*
Y170866D01*
X87681Y164847D02*
Y166028D01*
X91748Y170095D01*
X92043D01*
X92520Y170571D01*
X102411Y194882D02*
X105315D01*
X99508D02*
X102411D01*
X102756Y195226D01*
X105413Y194980D02*
X105512D01*
X105315Y194882D02*
X105413Y194980D01*
X101102Y46850D02*
Y46929D01*
X101315Y47142D01*
Y51189D01*
X101126Y51378D02*
X101315Y51189D01*
X101511Y51378D02*
X110040D01*
Y55118D01*
D117*
X84296Y126902D02*
X86461D01*
X83008Y128189D02*
Y128967D01*
Y128189D02*
X84296Y126902D01*
X81267Y130709D02*
X83008Y128967D01*
X86461Y126902D02*
X88779Y124583D01*
Y122441D02*
Y124583D01*
X43110Y123130D02*
Y124213D01*
Y122441D02*
Y123130D01*
X44952Y126054D02*
X46659D01*
X43110Y124213D02*
X44952Y126054D01*
X41142Y125526D02*
X43714Y128098D01*
X44633D02*
X44882Y128347D01*
X43714Y128098D02*
X44633D01*
X41142Y122441D02*
Y125526D01*
X43110Y123130D02*
X43152Y123172D01*
X80512Y127362D02*
X80957Y126917D01*
X81735D01*
X83550Y125102D01*
X85716D01*
X86834Y123983D01*
Y122464D02*
Y123983D01*
X86811Y122441D02*
X86834Y122464D01*
X39173Y122441D02*
Y126365D01*
X38721Y126816D02*
X39173Y126365D01*
X38721Y126816D02*
Y127594D01*
X36422Y125447D02*
X37205Y124664D01*
X36422Y125447D02*
Y125792D01*
X37205Y122441D02*
Y124664D01*
X35961Y130355D02*
X38721Y127594D01*
X77854Y130709D02*
X81267D01*
X78051Y127362D02*
X80512D01*
X77854Y127559D02*
X78051Y127362D01*
X34507Y130355D02*
X35961D01*
X34154Y130709D02*
X34507Y130355D01*
X34688Y126926D02*
X34786D01*
X35672Y126041D02*
X36173D01*
X34154Y127461D02*
Y127559D01*
Y127461D02*
X34688Y126926D01*
X34786D02*
X35672Y126041D01*
X36173D02*
X36422Y125792D01*
D118*
X91198Y128176D02*
Y129449D01*
X92282Y123564D02*
Y127091D01*
X91198Y128176D02*
X92282Y127091D01*
X92716Y122441D02*
Y123130D01*
X90748Y122441D02*
Y123130D01*
X92282Y123564D02*
X92574Y123272D01*
X90890D02*
X90982Y123364D01*
X90748Y123130D02*
X90890Y123272D01*
X92574D02*
X92716Y123130D01*
X91032Y129614D02*
X91198Y129449D01*
D119*
X77362Y197047D02*
D03*
X79331D02*
D03*
Y184843D02*
D03*
X77362D02*
D03*
D120*
X110236Y9843D02*
D03*
X104331Y157480D02*
D03*
X9843Y9843D02*
D03*
D121*
X8900Y52300D02*
D03*
X64567Y222835D02*
D03*
X71260Y220472D02*
D03*
X21366Y50787D02*
D03*
X5600Y41200D02*
D03*
X95200Y57500D02*
D03*
X112200Y103900D02*
D03*
Y111900D02*
D03*
X112000Y119800D02*
D03*
X70600Y210600D02*
D03*
X66000Y210800D02*
D03*
X68300Y213200D02*
D03*
X74800Y212300D02*
D03*
X70790Y215146D02*
D03*
X77900Y212300D02*
D03*
X11100Y173100D02*
D03*
X58800Y195063D02*
D03*
X10500Y224100D02*
D03*
X12700Y177300D02*
D03*
X14800Y179400D02*
D03*
X99700Y145400D02*
D03*
X85000Y158800D02*
D03*
X106169Y147983D02*
D03*
X97000Y150100D02*
D03*
X88600Y141100D02*
D03*
X95700Y141600D02*
D03*
X98900Y139100D02*
D03*
X76900Y140200D02*
D03*
X79700Y143100D02*
D03*
X21300Y159100D02*
D03*
X41800Y132687D02*
D03*
X23600Y138500D02*
D03*
X73003Y134425D02*
D03*
X15500Y125300D02*
D03*
X105755Y103925D02*
D03*
X15719Y144825D02*
D03*
X19500Y183100D02*
D03*
X60236Y222835D02*
D03*
X55905D02*
D03*
X34100Y217900D02*
D03*
X51575Y222835D02*
D03*
X46457D02*
D03*
X10600Y219400D02*
D03*
X42126Y222835D02*
D03*
X31600Y221700D02*
D03*
X11442Y192158D02*
D03*
X12500Y161600D02*
D03*
X21251Y172851D02*
D03*
X21100Y169000D02*
D03*
X11700Y55500D02*
D03*
X10400Y58700D02*
D03*
X20925Y100200D02*
D03*
X11800Y92500D02*
D03*
X26800Y98300D02*
D03*
X26400Y102900D02*
D03*
X22800Y118000D02*
D03*
X22100Y115000D02*
D03*
X22500Y111900D02*
D03*
X22000Y108800D02*
D03*
X27100Y126500D02*
D03*
X27953Y123228D02*
D03*
X22441Y121653D02*
D03*
X12100Y149400D02*
D03*
X15800Y162000D02*
D03*
X23800Y146900D02*
D03*
X22100Y64800D02*
D03*
X42200Y163483D02*
D03*
X41800Y151000D02*
D03*
Y147900D02*
D03*
Y144500D02*
D03*
Y141200D02*
D03*
Y137600D02*
D03*
X40551Y159055D02*
D03*
X48200Y19000D02*
D03*
X25300Y175100D02*
D03*
X28400Y175200D02*
D03*
X12700Y20000D02*
D03*
X98000Y166200D02*
D03*
X89800Y98700D02*
D03*
X93800Y98800D02*
D03*
X96000Y100700D02*
D03*
X99900Y99100D02*
D03*
X9570Y30670D02*
D03*
X37200Y13500D02*
D03*
X46700Y14900D02*
D03*
X57700Y20800D02*
D03*
X31000Y15900D02*
D03*
X101793Y210399D02*
D03*
X107900Y199100D02*
D03*
X96850Y8268D02*
D03*
X113100Y28500D02*
D03*
X115800Y30600D02*
D03*
X115700Y33800D02*
D03*
X112600Y35900D02*
D03*
X108800Y22700D02*
D03*
X80000Y19300D02*
D03*
X71590Y165914D02*
D03*
X91732Y221260D02*
D03*
X81544Y218311D02*
D03*
X60236Y213654D02*
D03*
X44457Y213796D02*
D03*
X101073Y224016D02*
D03*
X116535Y206693D02*
D03*
X105905Y201969D02*
D03*
X108455Y188770D02*
D03*
X108661Y195669D02*
D03*
X99575Y131306D02*
D03*
X100766Y43722D02*
D03*
X80378Y222277D02*
D03*
X96456Y216141D02*
D03*
X96850Y212992D02*
D03*
X93701Y218504D02*
D03*
X92886Y215382D02*
D03*
X81496Y172835D02*
D03*
X89370Y173301D02*
D03*
X114746Y195783D02*
D03*
X94095Y201575D02*
D03*
X103321Y197730D02*
D03*
X105702Y107087D02*
D03*
X100102Y107663D02*
D03*
X98277Y103395D02*
D03*
X81934Y98469D02*
D03*
X8268Y38583D02*
D03*
X4331Y217717D02*
D03*
Y211417D02*
D03*
Y214567D02*
D03*
X12598Y200000D02*
D03*
X27165Y200661D02*
D03*
X16535Y183858D02*
D03*
X111811Y132677D02*
D03*
X102362Y30709D02*
D03*
X95669Y24409D02*
D03*
X57874Y118110D02*
D03*
X58268Y114961D02*
D03*
X52250Y117784D02*
D03*
X79465Y159055D02*
D03*
X78347Y190354D02*
D03*
X76378Y187992D02*
D03*
X80315D02*
D03*
X113044Y48425D02*
D03*
X112992Y60630D02*
D03*
X109843Y148031D02*
D03*
X62598Y174409D02*
D03*
X67716Y168110D02*
D03*
X73601Y168597D02*
D03*
X75197Y171260D02*
D03*
X65863Y89485D02*
D03*
X47539Y195560D02*
D03*
X74016Y101325D02*
D03*
X76772Y102362D02*
D03*
X96215Y125421D02*
D03*
X113266Y81890D02*
D03*
X70866Y107480D02*
D03*
X57480Y107874D02*
D03*
X105905Y29921D02*
D03*
X87795Y196063D02*
D03*
X48701Y167723D02*
D03*
X51181Y169291D02*
D03*
X48962Y171403D02*
D03*
X45276Y170079D02*
D03*
X21654Y91339D02*
D03*
X21260Y94488D02*
D03*
X96063Y128347D02*
D03*
X86221Y4331D02*
D03*
X61024Y152022D02*
D03*
X61811Y138583D02*
D03*
X61417Y142913D02*
D03*
X24016Y190945D02*
D03*
X47638Y189370D02*
D03*
X110630Y168110D02*
D03*
X82677Y170079D02*
D03*
X56331Y129528D02*
D03*
X57087Y126378D02*
D03*
X73555Y2322D02*
D03*
X53937Y2756D02*
D03*
X111417Y88583D02*
D03*
X79134Y155905D02*
D03*
X80315Y151181D02*
D03*
X79921Y146850D02*
D03*
X65354Y162992D02*
D03*
X61024Y155118D02*
D03*
X62992Y157874D02*
D03*
X70866Y169685D02*
D03*
X102967Y111458D02*
D03*
X89370Y219291D02*
D03*
X96457Y188189D02*
D03*
X71260Y197638D02*
D03*
X74803D02*
D03*
X66535Y195669D02*
D03*
X61024Y164173D02*
D03*
Y160236D02*
D03*
X44882Y173622D02*
D03*
X26772Y17323D02*
D03*
X3937Y24016D02*
D03*
X4331Y27559D02*
D03*
X43701Y101181D02*
D03*
X43307Y98032D02*
D03*
X91032Y129614D02*
D03*
X88981Y127564D02*
D03*
X56693Y104724D02*
D03*
X39370Y99213D02*
D03*
X22835Y84252D02*
D03*
X22047Y71260D02*
D03*
X74016Y98425D02*
D03*
X95669Y83071D02*
D03*
X97638Y133465D02*
D03*
X114800Y41893D02*
D03*
X113779Y38583D02*
D03*
X94898Y69291D02*
D03*
X72441Y122047D02*
D03*
X71260Y124803D02*
D03*
X100787Y20472D02*
D03*
X34646Y15748D02*
D03*
X99980Y88728D02*
D03*
X96457Y38189D02*
D03*
X56783Y97502D02*
D03*
X57008Y100394D02*
D03*
X58661Y110630D02*
D03*
X24016Y44094D02*
D03*
X107677Y129134D02*
D03*
X60236Y91732D02*
D03*
X71653Y117717D02*
D03*
X68650Y117601D02*
D03*
X66535Y140157D02*
D03*
X75984Y4331D02*
D03*
X70472Y3937D02*
D03*
X58268D02*
D03*
X64173Y19291D02*
D03*
X76378D02*
D03*
X86221D02*
D03*
X110236Y32283D02*
D03*
X96850Y31890D02*
D03*
X98713Y136158D02*
D03*
X67716Y188189D02*
D03*
X103543Y172047D02*
D03*
X79921Y133858D02*
D03*
X60630Y133465D02*
D03*
X100394Y113779D02*
D03*
X104331Y114567D02*
D03*
X103937Y117717D02*
D03*
X46659Y126054D02*
D03*
X80709Y127165D02*
D03*
X82759Y129216D02*
D03*
X38473Y127843D02*
D03*
X36422Y125792D02*
D03*
X44882Y128347D02*
D03*
X72047Y112205D02*
D03*
X69291Y114173D02*
D03*
D122*
X37402Y31496D02*
D03*
Y34646D02*
D03*
X81500Y47300D02*
D03*
X92200Y56600D02*
D03*
X34252Y34646D02*
D03*
Y31496D02*
D03*
X31102Y34646D02*
D03*
Y31496D02*
D03*
X34252Y25197D02*
D03*
Y28346D02*
D03*
X93100Y75834D02*
D03*
X26600Y36000D02*
D03*
X28200Y40900D02*
D03*
X34252Y40945D02*
D03*
X94564Y47144D02*
D03*
X88976Y88976D02*
D03*
X78445Y75689D02*
D03*
X26403Y86577D02*
D03*
X27049Y83071D02*
D03*
X26772Y64567D02*
D03*
X55512Y23622D02*
D03*
X25984Y72441D02*
D03*
X61811Y21260D02*
D03*
X69291D02*
D03*
X34646Y88976D02*
D03*
X37402Y66142D02*
D03*
X94882Y44488D02*
D03*
X87795Y75590D02*
D03*
X84646Y72441D02*
D03*
X59449Y28346D02*
D03*
X31102Y81890D02*
D03*
X30315Y59842D02*
D03*
X31102Y47244D02*
D03*
Y44094D02*
D03*
X68898Y25197D02*
D03*
X31102Y53543D02*
D03*
X65748Y81890D02*
D03*
X51575Y53543D02*
D03*
X90945Y85039D02*
D03*
X31102D02*
D03*
X90945Y25197D02*
D03*
X31102D02*
D03*
X87795Y85039D02*
D03*
X90945Y81890D02*
D03*
Y28346D02*
D03*
X87795Y25197D02*
D03*
X31102Y28346D02*
D03*
Y78740D02*
D03*
X37402Y25197D02*
D03*
X34252Y81890D02*
D03*
X87795Y28346D02*
D03*
X40551Y85039D02*
D03*
X90945Y34646D02*
D03*
X31102Y75590D02*
D03*
X40551Y25197D02*
D03*
X34252Y78740D02*
D03*
X87795Y31496D02*
D03*
X37402Y28346D02*
D03*
X78347Y25197D02*
D03*
X31102Y37795D02*
D03*
X43701Y25197D02*
D03*
X81496Y78740D02*
D03*
X40551Y81890D02*
D03*
X87795Y34646D02*
D03*
X40551Y28346D02*
D03*
X46850Y85039D02*
D03*
X90945Y40945D02*
D03*
X31102Y69291D02*
D03*
X75197Y25197D02*
D03*
X46850D02*
D03*
X72047Y85039D02*
D03*
X90945Y66142D02*
D03*
X50000Y85039D02*
D03*
X90945Y44094D02*
D03*
X72047Y25197D02*
D03*
X50000D02*
D03*
X43701Y81890D02*
D03*
X78347Y28346D02*
D03*
X34252Y37795D02*
D03*
X43701Y28346D02*
D03*
X68898Y85039D02*
D03*
X53150D02*
D03*
X90945Y62992D02*
D03*
Y47244D02*
D03*
X40551Y78740D02*
D03*
X31102Y62992D02*
D03*
X84646Y34646D02*
D03*
X53150Y28346D02*
D03*
X40551Y31496D02*
D03*
X65748Y85039D02*
D03*
X56299D02*
D03*
X90945Y50394D02*
D03*
X31102D02*
D03*
X65748Y25197D02*
D03*
X62598Y85039D02*
D03*
X31102Y56693D02*
D03*
X87795Y69291D02*
D03*
X46850Y81890D02*
D03*
X87795Y40945D02*
D03*
X75197Y28346D02*
D03*
X46850D02*
D03*
X43701Y78740D02*
D03*
X37402Y37795D02*
D03*
X43701Y31496D02*
D03*
X72047Y81890D02*
D03*
X50000D02*
D03*
X87795Y44094D02*
D03*
X34252Y66142D02*
D03*
X50000Y28346D02*
D03*
X40551Y75590D02*
D03*
Y34646D02*
D03*
X68898Y81890D02*
D03*
X53150D02*
D03*
X87795Y62992D02*
D03*
Y47244D02*
D03*
X34252Y62992D02*
D03*
X56299Y81890D02*
D03*
X84646Y69291D02*
D03*
X87795Y50394D02*
D03*
X34252Y59842D02*
D03*
X75197Y31496D02*
D03*
X65748Y28346D02*
D03*
X37402Y40945D02*
D03*
X46850Y31496D02*
D03*
X62598Y81890D02*
D03*
X34252Y56693D02*
D03*
X81496Y72441D02*
D03*
X43701Y75590D02*
D03*
X40551Y37795D02*
D03*
X43701Y34646D02*
D03*
X72047Y78740D02*
D03*
X84646Y66142D02*
D03*
X50000Y78740D02*
D03*
X84646Y44094D02*
D03*
X72047Y31496D02*
D03*
X50000D02*
D03*
X68898Y78740D02*
D03*
X84646Y62992D02*
D03*
X53150Y78740D02*
D03*
X84646Y47244D02*
D03*
X37402Y62992D02*
D03*
X75197Y75590D02*
D03*
X81496Y69291D02*
D03*
X40551D02*
D03*
X75197Y34646D02*
D03*
X40551Y40945D02*
D03*
X46850Y34646D02*
D03*
X78347Y72441D02*
D03*
X84646Y59842D02*
D03*
X56299Y78740D02*
D03*
X43701Y72441D02*
D03*
X84646Y50394D02*
D03*
X78347Y37795D02*
D03*
X37402Y59842D02*
D03*
X65748Y31496D02*
D03*
X43701Y37795D02*
D03*
X62598Y78740D02*
D03*
X84646Y56693D02*
D03*
X37402D02*
D03*
X62598Y31496D02*
D03*
X72047Y75590D02*
D03*
X81496Y66142D02*
D03*
X50000Y75590D02*
D03*
X81496Y44094D02*
D03*
X40551Y66142D02*
D03*
X50000Y34646D02*
D03*
X75197Y72441D02*
D03*
X78347Y69291D02*
D03*
X46850Y72441D02*
D03*
X43701Y69291D02*
D03*
X78347Y40945D02*
D03*
X75197Y37795D02*
D03*
X43701Y40945D02*
D03*
X46850Y37795D02*
D03*
X68898Y75590D02*
D03*
X53150D02*
D03*
X81496Y62992D02*
D03*
X56299Y75590D02*
D03*
X81496Y59842D02*
D03*
Y50394D02*
D03*
X40551Y59842D02*
D03*
X62598Y75590D02*
D03*
X81496Y56693D02*
D03*
X40551D02*
D03*
X59449Y34646D02*
D03*
X72047Y72441D02*
D03*
X78347Y66142D02*
D03*
X50000Y72441D02*
D03*
X78347Y44094D02*
D03*
X43701Y66142D02*
D03*
X72047Y37795D02*
D03*
X43701Y44094D02*
D03*
X50000Y37795D02*
D03*
X75197Y69291D02*
D03*
X46850D02*
D03*
X75197Y40945D02*
D03*
X46850D02*
D03*
X68898Y72441D02*
D03*
X78347Y62992D02*
D03*
X53150Y72441D02*
D03*
X78347Y47244D02*
D03*
X43701Y62992D02*
D03*
X68898Y37795D02*
D03*
X43701Y47244D02*
D03*
X53150Y37795D02*
D03*
X78347Y59842D02*
D03*
X56299Y72441D02*
D03*
X78347Y50394D02*
D03*
X43701Y59842D02*
D03*
X65748Y37795D02*
D03*
X43701Y50394D02*
D03*
X56299Y37795D02*
D03*
X72047Y69291D02*
D03*
X75197Y66142D02*
D03*
X62598Y72441D02*
D03*
X50000Y69291D02*
D03*
X78347Y56693D02*
D03*
X75197Y44094D02*
D03*
X46850Y66142D02*
D03*
X72047Y40945D02*
D03*
X43701Y56693D02*
D03*
X46850Y44094D02*
D03*
X50000Y40945D02*
D03*
X59449Y37795D02*
D03*
X68898Y69291D02*
D03*
X53150D02*
D03*
X72047Y59842D02*
D03*
X75197Y47244D02*
D03*
X46850Y62992D02*
D03*
X68898Y40945D02*
D03*
X46850Y47244D02*
D03*
X53150Y40945D02*
D03*
X65748Y69291D02*
D03*
X72047Y56693D02*
D03*
X56299Y69291D02*
D03*
X75197Y50394D02*
D03*
X46850Y59842D02*
D03*
X65748Y40945D02*
D03*
X46850Y50394D02*
D03*
X56299Y40945D02*
D03*
X62598Y69291D02*
D03*
X75197Y56693D02*
D03*
X46850D02*
D03*
X59449Y40945D02*
D03*
X68898Y62992D02*
D03*
X53150D02*
D03*
X68898Y47244D02*
D03*
X53150D02*
D03*
X65748Y62992D02*
D03*
X68898Y59842D02*
D03*
X56299Y62992D02*
D03*
X68898Y50394D02*
D03*
X53150Y59842D02*
D03*
X65748Y47244D02*
D03*
X53150Y50394D02*
D03*
X56299Y47244D02*
D03*
X62598Y62992D02*
D03*
X68898Y56693D02*
D03*
X53150D02*
D03*
X62598Y47244D02*
D03*
X65748Y59842D02*
D03*
X56299D02*
D03*
X65748Y50394D02*
D03*
X56299D02*
D03*
X62598Y59842D02*
D03*
X65748Y56693D02*
D03*
X56299D02*
D03*
X62598Y50394D02*
D03*
Y56693D02*
D03*
D123*
X81102Y112992D02*
D03*
X90551D02*
D03*
X85827Y117717D02*
D03*
Y112992D02*
D03*
Y108268D02*
D03*
X31496Y112992D02*
D03*
X40945D02*
D03*
X36220Y117717D02*
D03*
Y112992D02*
D03*
Y108268D02*
D03*
M02*
