G04*
G04 #@! TF.GenerationSoftware,Altium Limited,Altium Designer,22.8.2 (66)*
G04*
G04 Layer_Color=4175299*
%FSLAX25Y25*%
%MOIN*%
G70*
G04*
G04 #@! TF.SameCoordinates,FBB38BD8-B248-4C14-88E0-E7BD1AE39475*
G04*
G04*
G04 #@! TF.FilePolarity,Positive*
G04*
G01*
G75*
%ADD10C,0.00984*%
%ADD11C,0.00787*%
%ADD12C,0.00700*%
%ADD16C,0.00551*%
%ADD17C,0.00600*%
%ADD18C,0.00500*%
%ADD20C,0.01000*%
%ADD21C,0.00800*%
%ADD22C,0.00669*%
%ADD152C,0.00100*%
%ADD153C,0.00040*%
D10*
X32394Y224613D02*
G03*
X32394Y224613I-492J0D01*
G01*
X90268Y224213D02*
G03*
X90268Y224213I-492J0D01*
G01*
X89153Y174587D02*
G03*
X89153Y174587I-492J0D01*
G01*
X98511Y135236D02*
G03*
X98511Y135236I-492J0D01*
G01*
X94784Y71457D02*
G03*
X94784Y71457I-492J0D01*
G01*
D11*
X24016Y48825D02*
G03*
X24016Y48825I-394J0D01*
G01*
X4122Y69503D02*
Y69897D01*
X6878Y69503D02*
Y69897D01*
X3924Y195606D02*
Y196394D01*
X6876Y195606D02*
Y196394D01*
X23023Y215164D02*
X23434D01*
X23023D02*
Y226581D01*
X23434Y215164D02*
Y226581D01*
X23023D02*
X23434D01*
X18618Y69503D02*
Y69897D01*
X15862Y69503D02*
Y69897D01*
X13583Y69503D02*
Y69897D01*
X10827Y69503D02*
Y69897D01*
X112205Y211319D02*
X112992D01*
X112205Y208366D02*
X112992D01*
X33606Y21676D02*
X34394D01*
X33606Y18724D02*
X34394D01*
X29302Y13513D02*
X30090D01*
X29302Y10560D02*
X30090D01*
X41506Y10676D02*
X42294D01*
X41506Y7724D02*
X42294D01*
X14469Y31496D02*
Y32283D01*
X11516Y31496D02*
Y32283D01*
X37008Y50689D02*
X37795D01*
X37008Y47736D02*
X37795D01*
X98819Y54626D02*
X99606D01*
X98819Y51673D02*
X99606D01*
X64173Y124311D02*
X64961D01*
X64173Y121358D02*
X64961D01*
X80897Y226181D02*
X81308D01*
Y214764D02*
Y226181D01*
X80897Y214764D02*
Y226181D01*
Y214764D02*
X81308D01*
X102244Y206909D02*
Y207421D01*
X90608D02*
X102244D01*
Y178405D02*
Y199941D01*
X90608Y178405D02*
X102244D01*
X17835Y207421D02*
X29471D01*
X17835Y206909D02*
Y207421D01*
Y178405D02*
Y199941D01*
Y178405D02*
X29471D01*
X109055Y65059D02*
X109843D01*
X109055Y68012D02*
X109843D01*
X98524Y123622D02*
Y124409D01*
X101476Y123622D02*
Y124409D01*
X64173Y104823D02*
X64961D01*
X64173Y107776D02*
X64961D01*
X50098Y125591D02*
Y126378D01*
X53051Y125591D02*
Y126378D01*
X19276Y107806D02*
Y108594D01*
X16324Y107806D02*
Y108594D01*
X22424Y131906D02*
Y132694D01*
X25376Y131906D02*
Y132694D01*
X73327Y91339D02*
Y92126D01*
X76279Y91339D02*
Y92126D01*
X83957Y98425D02*
Y99213D01*
X86910Y98425D02*
Y99213D01*
X92913Y222539D02*
X93701D01*
X92913Y225492D02*
X93701D01*
X106488Y133268D02*
X106898D01*
X106488D02*
Y144685D01*
X106898D01*
Y133268D02*
Y144685D01*
X99213Y81890D02*
X110236D01*
X99213Y68504D02*
X110236D01*
D12*
X44000Y214604D02*
G03*
X44000Y214604I-100J0D01*
G01*
X11981Y64530D02*
G03*
X11981Y64530I-100J0D01*
G01*
X16623D02*
G03*
X16623Y64530I-100J0D01*
G01*
X48357Y214604D02*
G03*
X48357Y214604I-100J0D01*
G01*
X52294D02*
G03*
X52294Y214604I-100J0D01*
G01*
X56624D02*
G03*
X56624Y214604I-100J0D01*
G01*
X6900Y28300D02*
G03*
X6900Y28300I-100J0D01*
G01*
X40614Y46682D02*
G03*
X40614Y46682I-100J0D01*
G01*
X94363Y93664D02*
G03*
X94363Y93664I-100J0D01*
G01*
X77302Y121428D02*
G03*
X77302Y121428I-100J0D01*
G01*
X60955Y214604D02*
G03*
X60955Y214604I-100J0D01*
G01*
X65286D02*
G03*
X65286Y214604I-100J0D01*
G01*
X69617D02*
G03*
X69617Y214604I-100J0D01*
G01*
X39700D02*
G03*
X39700Y214604I-100J0D01*
G01*
X112530Y120116D02*
G03*
X112530Y120116I-100J0D01*
G01*
X107412D02*
G03*
X107412Y120116I-100J0D01*
G01*
X29665Y120641D02*
G03*
X29665Y120641I-100J0D01*
G01*
X81371Y27916D02*
G03*
X81371Y27916I-100J0D01*
G01*
X39113Y17491D02*
G03*
X39113Y17491I-100J0D01*
G01*
X61161Y2137D02*
G03*
X61161Y2137I-100J0D01*
G01*
X7799Y96699D02*
Y94700D01*
X4800D01*
Y96699D01*
X6300Y94700D02*
Y95700D01*
X7799Y99698D02*
Y97699D01*
X4800D01*
Y99698D01*
X6300Y97699D02*
Y98699D01*
X4800Y100698D02*
X7799D01*
Y102198D01*
X7299Y102697D01*
X6300D01*
X5800Y102198D01*
Y100698D01*
X4800Y103697D02*
X7799D01*
Y105197D01*
X7299Y105696D01*
X6300D01*
X5800Y105197D01*
Y103697D01*
Y104697D02*
X4800Y105696D01*
X7799Y108196D02*
Y107196D01*
X7299Y106696D01*
X5300D01*
X4800Y107196D01*
Y108196D01*
X5300Y108695D01*
X7299D01*
X7799Y108196D01*
X4800Y109695D02*
X7799D01*
X6799Y110695D01*
X7799Y111695D01*
X4800D01*
X49700Y29799D02*
X47701D01*
Y29299D01*
X49700Y27300D01*
Y26800D01*
X47701D01*
X33100Y29699D02*
X31101Y26700D01*
Y29699D02*
X33100Y26700D01*
X46000Y43499D02*
Y42999D01*
X45000Y42000D01*
X44001Y42999D01*
Y43499D01*
X45000Y42000D02*
Y40500D01*
X18800Y55199D02*
X17800D01*
X18300D01*
Y52200D01*
X18800D01*
X17800D01*
X16301D02*
Y55199D01*
X15301Y54199D01*
X14301Y55199D01*
Y52200D01*
X13302Y55199D02*
Y52700D01*
X12802Y52200D01*
X11802D01*
X11302Y52700D01*
Y55199D01*
D16*
X12022Y75740D02*
G03*
X12022Y75740I-276J0D01*
G01*
D17*
X46459Y28200D02*
G03*
X46459Y28200I-1500J0D01*
G01*
X65336Y130000D02*
G03*
X65336Y130000I-100J0D01*
G01*
X83934D02*
G03*
X83934Y130000I-100J0D01*
G01*
X46439D02*
G03*
X46439Y130000I-100J0D01*
G01*
X28328D02*
G03*
X28328Y130000I-100J0D01*
G01*
X72935Y152323D02*
G03*
X72935Y152323I-100J0D01*
G01*
X90651D02*
G03*
X90651Y152323I-100J0D01*
G01*
X35533D02*
G03*
X35533Y152323I-100J0D01*
G01*
X53643D02*
G03*
X53643Y152323I-100J0D01*
G01*
X44959Y39400D02*
X46177Y38064D01*
X43777D02*
X44959Y39400D01*
X33664Y28182D02*
X35000Y27000D01*
X33664Y28182D02*
X35000Y29400D01*
X33759Y28200D02*
X44959D01*
Y39400D01*
D18*
X41301Y218504D02*
X42901D01*
X12880Y60630D02*
X14480D01*
X17522D02*
X19122D01*
X45657Y218504D02*
X47257D01*
X49594D02*
X51194D01*
X53925D02*
X55525D01*
X7799Y24400D02*
X9399D01*
X19646Y50597D02*
X21654D01*
X19646Y40754D02*
X21654D01*
X9843Y50597D02*
X11850D01*
X9843Y40754D02*
X11850D01*
X36614Y44082D02*
Y45682D01*
X95262Y89763D02*
X96862D01*
X81103Y122428D02*
Y124028D01*
X58256Y218504D02*
X59856D01*
X62586D02*
X64187D01*
X66917D02*
X68517D01*
X37001D02*
X38601D01*
X14961Y18898D02*
Y33858D01*
X27559Y18898D02*
Y33858D01*
X109831Y124016D02*
X111431D01*
X104712D02*
X106312D01*
X33465Y121640D02*
Y123240D01*
X82270Y24015D02*
X83870D01*
X42914Y18491D02*
Y20091D01*
X64961Y3136D02*
Y4736D01*
D20*
X800Y201800D02*
G03*
X800Y201800I-100J0D01*
G01*
X27898Y200000D02*
X21900D01*
Y202999D01*
X22900Y203999D01*
X26898D01*
X27898Y202999D01*
Y200000D01*
X22900Y205998D02*
X21900Y206998D01*
Y208997D01*
X22900Y209997D01*
X26898D01*
X27898Y208997D01*
Y206998D01*
X26898Y205998D01*
X25899D01*
X24899Y206998D01*
Y209997D01*
D21*
X11000Y201900D02*
Y209500D01*
D22*
X104823Y215361D02*
Y219298D01*
X98327Y215361D02*
Y219298D01*
X77067Y88976D02*
Y92913D01*
X83563Y88976D02*
Y92913D01*
X76457Y137559D02*
Y145905D01*
X64567D02*
X76457D01*
X64567Y137559D02*
X76457D01*
X64567D02*
Y145905D01*
X95054Y137559D02*
Y145905D01*
X83165D02*
X95054D01*
X83165Y137559D02*
X95054D01*
X83165D02*
Y145905D01*
X57559Y137559D02*
Y145905D01*
X45669D02*
X57559D01*
X45669Y137559D02*
Y145905D01*
Y137559D02*
X57559D01*
X39449D02*
Y145905D01*
X27559D02*
X39449D01*
X27559Y137559D02*
Y145905D01*
Y137559D02*
X39449D01*
X70354Y154764D02*
Y163425D01*
X78405Y154724D02*
Y163386D01*
X96122Y154724D02*
Y163386D01*
X88071Y154764D02*
Y163425D01*
X32953Y154764D02*
Y163425D01*
X41004Y154724D02*
Y163386D01*
X59114Y154724D02*
Y163386D01*
X51063Y154764D02*
Y163425D01*
D152*
X114200Y51000D02*
X114900D01*
X114100Y50900D02*
X115000D01*
X113900Y50800D02*
X115200D01*
X105100D02*
X106200D01*
X113800Y50700D02*
X115300D01*
X105000D02*
X106300D01*
X113700Y50600D02*
X115400D01*
X105000D02*
X106300D01*
X113600Y50500D02*
X115400D01*
X105000D02*
X106300D01*
X113600Y50400D02*
X115500D01*
X105000D02*
X106300D01*
X113600Y50300D02*
X115500D01*
X105000D02*
X106300D01*
X113500Y50200D02*
X115600D01*
X105000D02*
X106300D01*
X113500Y50100D02*
X115600D01*
X105000D02*
X106300D01*
X113500Y50000D02*
X115600D01*
X105000D02*
X106300D01*
X113500Y49900D02*
X115600D01*
X105000D02*
X106300D01*
X113500Y49800D02*
X115600D01*
X105000D02*
X106300D01*
X113500Y49700D02*
X115600D01*
X105000D02*
X106300D01*
X113600Y49600D02*
X115500D01*
X105000D02*
X106300D01*
X113600Y49500D02*
X115500D01*
X107700D02*
X108900D01*
X105000D02*
X106300D01*
X113700Y49400D02*
X115400D01*
X107600D02*
X108900D01*
X105000D02*
X106300D01*
X113800Y49300D02*
X115300D01*
X107700D02*
X108900D01*
X105000D02*
X106300D01*
X113800Y49200D02*
X115200D01*
X111700D02*
X111900D01*
X107700D02*
X108900D01*
X105000D02*
X106300D01*
X114000Y49100D02*
X115100D01*
X111600D02*
X112000D01*
X107700D02*
X108900D01*
X105000D02*
X106300D01*
X114200Y49000D02*
X114900D01*
X111500D02*
X112100D01*
X107700D02*
X108900D01*
X105000D02*
X106300D01*
X111400Y48900D02*
X112200D01*
X107700D02*
X108900D01*
X105000D02*
X106300D01*
X111400Y48800D02*
X112300D01*
X107700D02*
X108900D01*
X105000D02*
X106300D01*
X111300Y48700D02*
X112500D01*
X107700D02*
X108900D01*
X105000D02*
X106300D01*
X111200Y48600D02*
X112600D01*
X107700D02*
X108900D01*
X105000D02*
X106300D01*
X111100Y48500D02*
X112900D01*
X107700D02*
X108900D01*
X105000D02*
X106300D01*
X115000Y48400D02*
X116500D01*
X111000D02*
X113200D01*
X107700D02*
X108900D01*
X105000D02*
X106300D01*
X111000Y48300D02*
X117000D01*
X107700D02*
X108900D01*
X105000D02*
X106300D01*
X111100Y48200D02*
X117200D01*
X107700D02*
X108900D01*
X105000D02*
X106300D01*
X111200Y48100D02*
X117400D01*
X107600D02*
X108900D01*
X105000D02*
X106300D01*
X111200Y48000D02*
X117600D01*
X105000D02*
X106300D01*
X111300Y47900D02*
X117800D01*
X105000D02*
X106300D01*
X111400Y47800D02*
X117900D01*
X105000D02*
X106300D01*
X111500Y47700D02*
X118100D01*
X105000D02*
X106300D01*
X111600Y47600D02*
X118200D01*
X105000D02*
X106300D01*
X111800Y47500D02*
X118300D01*
X105000D02*
X106300D01*
X112000Y47400D02*
X118200D01*
X105000D02*
X106300D01*
X112100Y47300D02*
X118100D01*
X105000D02*
X106300D01*
X112400Y47200D02*
X118100D01*
X105000D02*
X106300D01*
X112700Y47100D02*
X118000D01*
X105000D02*
X106300D01*
X116500Y47000D02*
X117900D01*
X113200D02*
X115300D01*
X105000D02*
X106300D01*
X103000D02*
X104300D01*
X97200D02*
X98600D01*
X94100D02*
X95500D01*
X88600D02*
X90200D01*
X116800Y46900D02*
X117900D01*
X113800D02*
X115300D01*
X107700D02*
X108900D01*
X105000D02*
X106300D01*
X102800D02*
X104500D01*
X99300D02*
X100600D01*
X97000D02*
X98800D01*
X93900D02*
X95700D01*
X88400D02*
X90400D01*
X117000Y46800D02*
X117800D01*
X113900D02*
X115300D01*
X107700D02*
X108900D01*
X105000D02*
X106300D01*
X102600D02*
X104700D01*
X99300D02*
X100600D01*
X96900D02*
X99000D01*
X93700D02*
X95900D01*
X88200D02*
X90700D01*
X117100Y46700D02*
X117700D01*
X113800D02*
X115300D01*
X107700D02*
X108900D01*
X105000D02*
X106300D01*
X102400D02*
X104800D01*
X99300D02*
X100600D01*
X96700D02*
X99100D01*
X93500D02*
X96000D01*
X88000D02*
X90800D01*
X117300Y46600D02*
X117600D01*
X113800D02*
X115300D01*
X107700D02*
X108900D01*
X105000D02*
X106300D01*
X102300D02*
X104900D01*
X99300D02*
X100600D01*
X96600D02*
X99200D01*
X93400D02*
X96200D01*
X87800D02*
X91000D01*
X117400Y46500D02*
X117600D01*
X113900D02*
X115300D01*
X107700D02*
X108900D01*
X105100D02*
X106300D01*
X102200D02*
X105000D01*
X96500D02*
X100600D01*
X93300D02*
X96300D01*
X87700D02*
X91100D01*
X113900Y46400D02*
X115300D01*
X107700D02*
X108900D01*
X102200D02*
X106300D01*
X96500D02*
X100600D01*
X93300D02*
X96400D01*
X87600D02*
X91200D01*
X113900Y46300D02*
X115300D01*
X107700D02*
X108900D01*
X102100D02*
X106300D01*
X93200D02*
X100600D01*
X87500D02*
X91300D01*
X113900Y46200D02*
X115300D01*
X107700D02*
X108900D01*
X102000D02*
X106300D01*
X93200D02*
X100600D01*
X87400D02*
X91400D01*
X113900Y46100D02*
X115300D01*
X107700D02*
X108900D01*
X102000D02*
X106300D01*
X93100D02*
X100600D01*
X87300D02*
X91500D01*
X113900Y46000D02*
X115300D01*
X107700D02*
X108900D01*
X101900D02*
X106300D01*
X93100D02*
X100600D01*
X87200D02*
X91500D01*
X113900Y45900D02*
X115300D01*
X107700D02*
X108900D01*
X104200D02*
X106300D01*
X101900D02*
X103600D01*
X98600D02*
X100600D01*
X95400D02*
X97900D01*
X93100D02*
X94700D01*
X89800D02*
X91600D01*
X87200D02*
X89000D01*
X113900Y45800D02*
X115300D01*
X107700D02*
X108900D01*
X104400D02*
X106300D01*
X101900D02*
X103400D01*
X98800D02*
X100600D01*
X95600D02*
X97700D01*
X93000D02*
X94500D01*
X90000D02*
X91700D01*
X87200D02*
X88800D01*
X113900Y45700D02*
X115300D01*
X107700D02*
X108900D01*
X104600D02*
X106300D01*
X101900D02*
X103300D01*
X99000D02*
X100600D01*
X95800D02*
X97600D01*
X93000D02*
X94400D01*
X90200D02*
X91700D01*
X87400D02*
X88600D01*
X113900Y45600D02*
X115300D01*
X107700D02*
X108900D01*
X104700D02*
X106300D01*
X101800D02*
X103200D01*
X99000D02*
X100600D01*
X95900D02*
X97500D01*
X93000D02*
X94300D01*
X90300D02*
X91800D01*
X87500D02*
X88400D01*
X113900Y45500D02*
X115300D01*
X107700D02*
X108900D01*
X104800D02*
X106300D01*
X101800D02*
X103200D01*
X99100D02*
X100600D01*
X96000D02*
X97500D01*
X93000D02*
X94300D01*
X90400D02*
X91800D01*
X87600D02*
X88300D01*
X113900Y45400D02*
X115300D01*
X107700D02*
X108900D01*
X104900D02*
X106300D01*
X101800D02*
X103100D01*
X99200D02*
X100600D01*
X96000D02*
X97400D01*
X93000D02*
X94300D01*
X90500D02*
X91900D01*
X87800D02*
X88200D01*
X113900Y45300D02*
X115300D01*
X107700D02*
X108900D01*
X104900D02*
X106300D01*
X101800D02*
X103100D01*
X99200D02*
X100600D01*
X96100D02*
X97400D01*
X93000D02*
X94300D01*
X90500D02*
X91900D01*
X87900D02*
X88100D01*
X113900Y45200D02*
X115400D01*
X107700D02*
X108900D01*
X104900D02*
X106300D01*
X101800D02*
X103000D01*
X99300D02*
X100600D01*
X96100D02*
X97400D01*
X93000D02*
X94200D01*
X90600D02*
X91900D01*
X113900Y45100D02*
X115400D01*
X107700D02*
X108900D01*
X105000D02*
X106300D01*
X101800D02*
X103000D01*
X99300D02*
X100600D01*
X96100D02*
X97400D01*
X93000D02*
X94200D01*
X90600D02*
X92000D01*
X112700Y45000D02*
X115400D01*
X107700D02*
X108900D01*
X105000D02*
X106300D01*
X101800D02*
X103000D01*
X99300D02*
X100600D01*
X96100D02*
X97400D01*
X93000D02*
X94200D01*
X90700D02*
X92000D01*
X112300Y44900D02*
X115400D01*
X107700D02*
X108900D01*
X105000D02*
X106300D01*
X101800D02*
X103000D01*
X99300D02*
X100600D01*
X96100D02*
X97400D01*
X93000D02*
X94200D01*
X90700D02*
X92000D01*
X112100Y44800D02*
X115400D01*
X107700D02*
X108900D01*
X105000D02*
X106300D01*
X101800D02*
X103000D01*
X99300D02*
X100600D01*
X96100D02*
X97400D01*
X93000D02*
X94200D01*
X90700D02*
X92000D01*
X112000Y44700D02*
X115500D01*
X107700D02*
X108900D01*
X105000D02*
X106300D01*
X101800D02*
X103000D01*
X99300D02*
X100600D01*
X96100D02*
X97400D01*
X93000D02*
X94200D01*
X90700D02*
X92000D01*
X111900Y44600D02*
X115500D01*
X107700D02*
X108900D01*
X105000D02*
X106300D01*
X101800D02*
X103000D01*
X99300D02*
X100600D01*
X96100D02*
X97400D01*
X93000D02*
X94200D01*
X90800D02*
X92100D01*
X111900Y44500D02*
X115400D01*
X107700D02*
X108900D01*
X105000D02*
X106300D01*
X101800D02*
X103000D01*
X99300D02*
X100600D01*
X96100D02*
X97400D01*
X93000D02*
X94200D01*
X90800D02*
X92100D01*
X111800Y44400D02*
X115500D01*
X107700D02*
X108900D01*
X105000D02*
X106300D01*
X101800D02*
X103000D01*
X99300D02*
X100600D01*
X96100D02*
X97400D01*
X93000D02*
X94200D01*
X90800D02*
X92100D01*
X111800Y44300D02*
X115500D01*
X107700D02*
X108900D01*
X105000D02*
X106300D01*
X101800D02*
X103000D01*
X99300D02*
X100600D01*
X96100D02*
X97400D01*
X93000D02*
X94200D01*
X90800D02*
X92100D01*
X111700Y44200D02*
X115600D01*
X107700D02*
X108900D01*
X105000D02*
X106300D01*
X101800D02*
X103000D01*
X99300D02*
X100600D01*
X96100D02*
X97400D01*
X93000D02*
X94200D01*
X90800D02*
X92100D01*
X111700Y44100D02*
X115600D01*
X107700D02*
X108900D01*
X105000D02*
X106300D01*
X101800D02*
X103000D01*
X99300D02*
X100600D01*
X96100D02*
X97400D01*
X93000D02*
X94200D01*
X90700D02*
X92000D01*
X111700Y44000D02*
X115600D01*
X107700D02*
X108900D01*
X105000D02*
X106300D01*
X101800D02*
X103000D01*
X99300D02*
X100600D01*
X96100D02*
X97400D01*
X93000D02*
X94200D01*
X90700D02*
X92000D01*
X111700Y43900D02*
X115700D01*
X107700D02*
X108900D01*
X105000D02*
X106300D01*
X101800D02*
X103000D01*
X99300D02*
X100600D01*
X96100D02*
X97400D01*
X93000D02*
X94200D01*
X90700D02*
X92000D01*
X111600Y43800D02*
X115700D01*
X107700D02*
X108900D01*
X105000D02*
X106300D01*
X101800D02*
X103000D01*
X99300D02*
X100600D01*
X96100D02*
X97400D01*
X93000D02*
X94200D01*
X90700D02*
X92000D01*
X111600Y43700D02*
X115900D01*
X107700D02*
X108900D01*
X105000D02*
X106300D01*
X101800D02*
X103000D01*
X99300D02*
X100600D01*
X96100D02*
X97400D01*
X93000D02*
X94200D01*
X90600D02*
X92000D01*
X114000Y43600D02*
X116100D01*
X111600D02*
X113200D01*
X107700D02*
X108900D01*
X105000D02*
X106300D01*
X101800D02*
X103000D01*
X99300D02*
X100600D01*
X96100D02*
X97400D01*
X93000D02*
X94200D01*
X90600D02*
X91900D01*
X114200Y43500D02*
X116300D01*
X111600D02*
X113100D01*
X107700D02*
X108900D01*
X105000D02*
X106300D01*
X101800D02*
X103000D01*
X99300D02*
X100600D01*
X96100D02*
X97400D01*
X93000D02*
X94200D01*
X90600D02*
X91900D01*
X87800D02*
X88000D01*
X114300Y43400D02*
X116600D01*
X111600D02*
X113000D01*
X107700D02*
X108900D01*
X105000D02*
X106300D01*
X101800D02*
X103000D01*
X99300D02*
X100600D01*
X96100D02*
X97400D01*
X93000D02*
X94200D01*
X90500D02*
X91900D01*
X87600D02*
X88100D01*
X114400Y43300D02*
X116900D01*
X111600D02*
X113000D01*
X107700D02*
X108900D01*
X105000D02*
X106300D01*
X101800D02*
X103000D01*
X99300D02*
X100600D01*
X96100D02*
X97400D01*
X93000D02*
X94200D01*
X90400D02*
X91900D01*
X87500D02*
X88200D01*
X114400Y43200D02*
X117300D01*
X111600D02*
X113000D01*
X107700D02*
X108900D01*
X105000D02*
X106300D01*
X101800D02*
X103000D01*
X99300D02*
X100600D01*
X96100D02*
X97400D01*
X93000D02*
X94200D01*
X90400D02*
X91800D01*
X87400D02*
X88300D01*
X114500Y43100D02*
X117500D01*
X111600D02*
X113000D01*
X107700D02*
X108900D01*
X105000D02*
X106300D01*
X101800D02*
X103000D01*
X99300D02*
X100600D01*
X96100D02*
X97400D01*
X93000D02*
X94200D01*
X90200D02*
X91800D01*
X87200D02*
X88500D01*
X114600Y43000D02*
X117500D01*
X111500D02*
X112900D01*
X107700D02*
X108900D01*
X105000D02*
X106300D01*
X101800D02*
X103000D01*
X99300D02*
X100600D01*
X96100D02*
X97400D01*
X93000D02*
X94200D01*
X90100D02*
X91700D01*
X87100D02*
X88600D01*
X114700Y42900D02*
X117500D01*
X111500D02*
X112900D01*
X107700D02*
X108900D01*
X105000D02*
X106300D01*
X101800D02*
X103000D01*
X99300D02*
X100600D01*
X96100D02*
X97400D01*
X93000D02*
X94200D01*
X89800D02*
X91700D01*
X87100D02*
X88900D01*
X114800Y42800D02*
X117500D01*
X111500D02*
X112900D01*
X107700D02*
X108900D01*
X105000D02*
X106300D01*
X101800D02*
X103000D01*
X99300D02*
X100600D01*
X96100D02*
X97400D01*
X93000D02*
X94200D01*
X87100D02*
X91600D01*
X114900Y42700D02*
X117500D01*
X111500D02*
X112900D01*
X107700D02*
X108900D01*
X105000D02*
X106300D01*
X101800D02*
X103000D01*
X99300D02*
X100600D01*
X96100D02*
X97400D01*
X93000D02*
X94200D01*
X87200D02*
X91500D01*
X115000Y42600D02*
X117500D01*
X111500D02*
X112900D01*
X107700D02*
X108900D01*
X105000D02*
X106300D01*
X101800D02*
X103000D01*
X99300D02*
X100600D01*
X96100D02*
X97400D01*
X93000D02*
X94200D01*
X87300D02*
X91500D01*
X115100Y42500D02*
X117500D01*
X111500D02*
X112900D01*
X107700D02*
X108900D01*
X105000D02*
X106300D01*
X101800D02*
X103000D01*
X99300D02*
X100600D01*
X96100D02*
X97400D01*
X93000D02*
X94200D01*
X87400D02*
X91400D01*
X115200Y42400D02*
X117500D01*
X111500D02*
X112900D01*
X107700D02*
X108900D01*
X105000D02*
X106300D01*
X101800D02*
X103000D01*
X99300D02*
X100600D01*
X96100D02*
X97400D01*
X93000D02*
X94200D01*
X87500D02*
X91300D01*
X115400Y42300D02*
X117500D01*
X111500D02*
X112800D01*
X107700D02*
X108900D01*
X105000D02*
X106300D01*
X101800D02*
X103000D01*
X99300D02*
X100600D01*
X96100D02*
X97400D01*
X93000D02*
X94200D01*
X87700D02*
X91200D01*
X115600Y42200D02*
X117500D01*
X111500D02*
X112800D01*
X107700D02*
X108900D01*
X105000D02*
X106300D01*
X101800D02*
X103000D01*
X99300D02*
X100600D01*
X96100D02*
X97400D01*
X93000D02*
X94200D01*
X87800D02*
X91100D01*
X115900Y42100D02*
X117500D01*
X111500D02*
X112800D01*
X107700D02*
X108900D01*
X105000D02*
X106300D01*
X101800D02*
X103000D01*
X99300D02*
X100600D01*
X96100D02*
X97400D01*
X93000D02*
X94200D01*
X87900D02*
X90900D01*
X116200Y42000D02*
X117500D01*
X111500D02*
X112800D01*
X107700D02*
X108900D01*
X105000D02*
X106300D01*
X101800D02*
X103000D01*
X99300D02*
X100600D01*
X96100D02*
X97400D01*
X93000D02*
X94200D01*
X88100D02*
X90800D01*
X116600Y41900D02*
X117500D01*
X107700D02*
X108900D01*
X105000D02*
X106300D01*
X101800D02*
X103000D01*
X99300D02*
X100600D01*
X96100D02*
X97400D01*
X93000D02*
X94300D01*
X88300D02*
X90600D01*
X117300Y41800D02*
X117500D01*
X107700D02*
X108900D01*
X105100D02*
X106300D01*
X101800D02*
X103000D01*
X99300D02*
X100500D01*
X96200D02*
X97300D01*
X93000D02*
X94200D01*
X88500D02*
X90300D01*
X88900Y41700D02*
X90000D01*
X117300Y40600D02*
X117700D01*
X117000D02*
X117200D01*
X116700D02*
X116900D01*
X115900D02*
X116600D01*
X115600D02*
X115800D01*
X115300D02*
X115500D01*
X115000D02*
X115200D01*
X114200D02*
X114900D01*
X113900D02*
X114100D01*
X113600D02*
X113800D01*
X113300D02*
X113500D01*
X112500D02*
X113200D01*
X112200D02*
X112400D01*
X111900D02*
X112100D01*
X111600D02*
X111800D01*
X111300D02*
X111500D01*
X110200D02*
X111200D01*
X109900D02*
X110100D01*
X109600D02*
X109800D01*
X108800D02*
X109500D01*
X108500D02*
X108700D01*
X108200D02*
X108400D01*
X107900D02*
X108100D01*
X107600D02*
X107800D01*
X106800D02*
X107500D01*
X106500D02*
X106700D01*
X106200D02*
X106400D01*
X105900D02*
X106100D01*
X105100D02*
X105800D01*
X104800D02*
X105000D01*
X104500D02*
X104700D01*
X104200D02*
X104400D01*
X103900D02*
X104100D01*
X103400D02*
X103800D01*
X102800D02*
X103300D01*
X102500D02*
X102700D01*
X102200D02*
X102400D01*
X101100D02*
X102100D01*
X100800D02*
X101000D01*
X100500D02*
X100700D01*
X99700D02*
X100400D01*
X99400D02*
X99600D01*
X99100D02*
X99300D01*
X98800D02*
X99000D01*
X98500D02*
X98700D01*
X97700D02*
X98400D01*
X97400D02*
X97600D01*
X97100D02*
X97300D01*
X96800D02*
X97000D01*
X96000D02*
X96700D01*
X95700D02*
X95900D01*
X95400D02*
X95600D01*
X95100D02*
X95300D01*
X94800D02*
X95000D01*
X94300D02*
X94700D01*
X93700D02*
X94200D01*
X93400D02*
X93600D01*
X93100D02*
X93300D01*
X92000D02*
X93000D01*
X91700D02*
X91900D01*
X91400D02*
X91600D01*
X90600D02*
X91300D01*
X90300D02*
X90500D01*
X90000D02*
X90200D01*
X89700D02*
X89900D01*
X89400D02*
X89600D01*
X88600D02*
X89300D01*
X88300D02*
X88500D01*
X88000D02*
X88200D01*
X87700D02*
X87900D01*
X87400D02*
X87600D01*
X117600Y40500D02*
X117700D01*
X117300D02*
X117500D01*
X117000D02*
X117200D01*
X116200D02*
X116900D01*
X115900D02*
X116100D01*
X115600D02*
X115800D01*
X115000D02*
X115500D01*
X114500D02*
X114900D01*
X114200D02*
X114400D01*
X113900D02*
X114100D01*
X113300D02*
X113800D01*
X112500D02*
X113200D01*
X112200D02*
X112400D01*
X111900D02*
X112100D01*
X111600D02*
X111800D01*
X110800D02*
X111500D01*
X110500D02*
X110700D01*
X110200D02*
X110400D01*
X109600D02*
X110100D01*
X108800D02*
X109500D01*
X108500D02*
X108700D01*
X108200D02*
X108400D01*
X107900D02*
X108100D01*
X107100D02*
X107800D01*
X106800D02*
X107000D01*
X106500D02*
X106700D01*
X105900D02*
X106400D01*
X105100D02*
X105800D01*
X104800D02*
X105000D01*
X104200D02*
X104700D01*
X103400D02*
X104100D01*
X103100D02*
X103300D01*
X102800D02*
X103000D01*
X102500D02*
X102700D01*
X101700D02*
X102400D01*
X101100D02*
X101600D01*
X100500D02*
X101000D01*
X99700D02*
X100400D01*
X99400D02*
X99600D01*
X99100D02*
X99300D01*
X98800D02*
X99000D01*
X98000D02*
X98700D01*
X97700D02*
X97900D01*
X97400D02*
X97600D01*
X96800D02*
X97300D01*
X96000D02*
X96700D01*
X95700D02*
X95900D01*
X95100D02*
X95600D01*
X94300D02*
X95000D01*
X94000D02*
X94200D01*
X93700D02*
X93900D01*
X93400D02*
X93600D01*
X92600D02*
X93300D01*
X92000D02*
X92500D01*
X91400D02*
X91900D01*
X90600D02*
X91300D01*
X90300D02*
X90500D01*
X90000D02*
X90200D01*
X89700D02*
X89900D01*
X88900D02*
X89600D01*
X88600D02*
X88800D01*
X88300D02*
X88500D01*
X87700D02*
X88200D01*
X87400D02*
X87600D01*
X110900Y39600D02*
X111000D01*
X103000D02*
X103100D01*
X92700D02*
X92800D01*
X111700Y39500D02*
X112100D01*
X110600D02*
X111000D01*
X103000D02*
X103400D01*
X101800D02*
X102300D01*
X93500D02*
X94000D01*
X92400D02*
X92800D01*
X111700Y39400D02*
X112400D01*
X110400D02*
X111100D01*
X102900D02*
X103600D01*
X101600D02*
X102300D01*
X93500D02*
X94200D01*
X92200D02*
X92900D01*
X110300Y39300D02*
X112400D01*
X101500D02*
X103700D01*
X92100D02*
X94300D01*
X110300Y39200D02*
X112400D01*
X101600D02*
X103600D01*
X92200D02*
X94200D01*
X88700D02*
X89700D01*
X114800Y39100D02*
X117400D01*
X110400D02*
X112400D01*
X106100D02*
X108600D01*
X101600D02*
X103600D01*
X96700D02*
X100400D01*
X95900D02*
X96400D01*
X92200D02*
X94200D01*
X88300D02*
X90000D01*
X114500Y39000D02*
X117400D01*
X110300D02*
X112400D01*
X105800D02*
X108700D01*
X101500D02*
X103600D01*
X96700D02*
X100400D01*
X95900D02*
X96400D01*
X92100D02*
X94200D01*
X88100D02*
X90200D01*
X114400Y38900D02*
X117400D01*
X110100D02*
X112600D01*
X105700D02*
X108700D01*
X101400D02*
X103800D01*
X96700D02*
X100400D01*
X95900D02*
X96400D01*
X91900D02*
X94400D01*
X88000D02*
X90300D01*
X114300Y38800D02*
X117400D01*
X113000D02*
X113100D01*
X110000D02*
X112700D01*
X109600D02*
X109800D01*
X105600D02*
X108700D01*
X104200D02*
X104300D01*
X101300D02*
X104000D01*
X100900D02*
X101000D01*
X96700D02*
X100400D01*
X95900D02*
X96400D01*
X94800D02*
X94900D01*
X91800D02*
X94500D01*
X91500D02*
X91600D01*
X87900D02*
X90400D01*
X116900Y38700D02*
X117400D01*
X114200D02*
X115200D01*
X112900D02*
X113200D01*
X112000D02*
X112800D01*
X109600D02*
X110700D01*
X108200D02*
X108700D01*
X105500D02*
X106500D01*
X104100D02*
X104400D01*
X103200D02*
X104000D01*
X100800D02*
X102000D01*
X98300D02*
X98800D01*
X95900D02*
X96400D01*
X94700D02*
X95000D01*
X93700D02*
X94600D01*
X91400D02*
X92600D01*
X89800D02*
X90500D01*
X87800D02*
X88600D01*
X116900Y38600D02*
X117400D01*
X114100D02*
X114800D01*
X112200D02*
X113200D01*
X109500D02*
X110500D01*
X108100D02*
X108700D01*
X105400D02*
X106100D01*
X103400D02*
X104500D01*
X100800D02*
X101800D01*
X98300D02*
X98800D01*
X95900D02*
X96400D01*
X93900D02*
X95100D01*
X91300D02*
X92400D01*
X90000D02*
X90600D01*
X87700D02*
X88400D01*
X116900Y38500D02*
X117400D01*
X114100D02*
X114700D01*
X112300D02*
X113300D01*
X109500D02*
X110400D01*
X108100D02*
X108700D01*
X105300D02*
X106000D01*
X103600D02*
X104500D01*
X100700D02*
X101600D01*
X98300D02*
X98800D01*
X95900D02*
X96400D01*
X94100D02*
X95100D01*
X91300D02*
X92200D01*
X90100D02*
X90600D01*
X87600D02*
X88300D01*
X116900Y38400D02*
X117400D01*
X114000D02*
X114600D01*
X112500D02*
X113400D01*
X109400D02*
X110300D01*
X108100D02*
X108700D01*
X105300D02*
X105900D01*
X103700D02*
X104600D01*
X100600D02*
X101500D01*
X98300D02*
X98800D01*
X95900D02*
X96400D01*
X94200D02*
X95200D01*
X91200D02*
X92100D01*
X90100D02*
X90700D01*
X87600D02*
X88200D01*
X116900Y38300D02*
X117400D01*
X114000D02*
X114500D01*
X112500D02*
X113400D01*
X109300D02*
X110200D01*
X108100D02*
X108700D01*
X105300D02*
X105800D01*
X103800D02*
X104700D01*
X100600D02*
X101400D01*
X98300D02*
X98800D01*
X95900D02*
X96400D01*
X94300D02*
X95200D01*
X91100D02*
X92000D01*
X90200D02*
X90700D01*
X87600D02*
X88100D01*
X116900Y38200D02*
X117400D01*
X114000D02*
X114500D01*
X112600D02*
X113500D01*
X109300D02*
X110100D01*
X108100D02*
X108700D01*
X105300D02*
X105800D01*
X103900D02*
X104700D01*
X100500D02*
X101300D01*
X98300D02*
X98800D01*
X95900D02*
X96400D01*
X94400D02*
X95300D01*
X91100D02*
X92000D01*
X90200D02*
X90700D01*
X87500D02*
X88100D01*
X116900Y38100D02*
X117400D01*
X114000D02*
X114500D01*
X112700D02*
X113400D01*
X109400D02*
X110100D01*
X108100D02*
X108700D01*
X105200D02*
X105800D01*
X103900D02*
X104600D01*
X100600D02*
X101300D01*
X98300D02*
X98800D01*
X95900D02*
X96400D01*
X94400D02*
X95200D01*
X91200D02*
X91900D01*
X90200D02*
X90800D01*
X87500D02*
X88000D01*
X116900Y38000D02*
X117400D01*
X114000D02*
X114500D01*
X112700D02*
X113300D01*
X109500D02*
X110000D01*
X108100D02*
X108700D01*
X105200D02*
X105800D01*
X104000D02*
X104500D01*
X100700D02*
X101200D01*
X98300D02*
X98800D01*
X95900D02*
X96400D01*
X94500D02*
X95100D01*
X91300D02*
X91900D01*
X90200D02*
X90800D01*
X87500D02*
X88000D01*
X116900Y37900D02*
X117400D01*
X114000D02*
X114500D01*
X112800D02*
X113300D01*
X109400D02*
X109900D01*
X108100D02*
X108700D01*
X105200D02*
X105800D01*
X104000D02*
X104600D01*
X100600D02*
X101200D01*
X98300D02*
X98800D01*
X95900D02*
X96400D01*
X94500D02*
X95100D01*
X91300D02*
X91800D01*
X90200D02*
X90800D01*
X87500D02*
X88000D01*
X116900Y37800D02*
X117400D01*
X114000D02*
X114500D01*
X112900D02*
X113400D01*
X109300D02*
X109900D01*
X108100D02*
X108700D01*
X105300D02*
X105800D01*
X104100D02*
X104600D01*
X100600D02*
X101200D01*
X98300D02*
X98800D01*
X95900D02*
X96400D01*
X94600D02*
X95100D01*
X91300D02*
X91800D01*
X90200D02*
X90800D01*
X87500D02*
X88000D01*
X116900Y37700D02*
X117400D01*
X114000D02*
X114500D01*
X112900D02*
X113400D01*
X109300D02*
X109900D01*
X108100D02*
X108700D01*
X105300D02*
X105800D01*
X104100D02*
X104700D01*
X100600D02*
X101100D01*
X98300D02*
X98800D01*
X95900D02*
X96400D01*
X94600D02*
X95200D01*
X90200D02*
X90700D01*
X116900Y37600D02*
X117400D01*
X114000D02*
X114500D01*
X112900D02*
X113400D01*
X109300D02*
X109900D01*
X108100D02*
X108700D01*
X105400D02*
X105800D01*
X104100D02*
X104700D01*
X100600D02*
X101100D01*
X98300D02*
X98800D01*
X95900D02*
X96400D01*
X94600D02*
X95200D01*
X90100D02*
X90700D01*
X116900Y37500D02*
X117400D01*
X114000D02*
X114500D01*
X112900D02*
X113400D01*
X109300D02*
X109800D01*
X108100D02*
X108700D01*
X105400D02*
X105900D01*
X104100D02*
X104700D01*
X100500D02*
X101000D01*
X98300D02*
X98800D01*
X95900D02*
X96400D01*
X94700D02*
X95200D01*
X90000D02*
X90700D01*
X116900Y37400D02*
X117400D01*
X114100D02*
X114600D01*
X113000D02*
X113500D01*
X109300D02*
X109800D01*
X108100D02*
X108700D01*
X105500D02*
X106000D01*
X104200D02*
X104700D01*
X100500D02*
X101000D01*
X98300D02*
X98800D01*
X95900D02*
X96400D01*
X94700D02*
X95200D01*
X89800D02*
X90600D01*
X116900Y37300D02*
X117400D01*
X114100D02*
X114700D01*
X113000D02*
X113700D01*
X109000D02*
X109800D01*
X108100D02*
X108700D01*
X105600D02*
X106200D01*
X104200D02*
X105000D01*
X100200D02*
X101000D01*
X98300D02*
X98800D01*
X95900D02*
X96400D01*
X94700D02*
X95600D01*
X89400D02*
X90500D01*
X116900Y37200D02*
X117400D01*
X114200D02*
X114800D01*
X113000D02*
X113800D01*
X109000D02*
X109800D01*
X105700D02*
X108700D01*
X104200D02*
X105000D01*
X100200D02*
X101000D01*
X98300D02*
X98800D01*
X95900D02*
X96400D01*
X94700D02*
X95600D01*
X89100D02*
X90400D01*
X116900Y37100D02*
X117400D01*
X114300D02*
X115100D01*
X113000D02*
X113800D01*
X109000D02*
X109700D01*
X105800D02*
X108700D01*
X104200D02*
X105000D01*
X100200D02*
X101000D01*
X98300D02*
X98800D01*
X95900D02*
X96400D01*
X94700D02*
X95600D01*
X88600D02*
X90300D01*
X114400Y37000D02*
X117400D01*
X113000D02*
X113800D01*
X109000D02*
X109700D01*
X105800D02*
X108700D01*
X104200D02*
X105000D01*
X100200D02*
X101000D01*
X98300D02*
X98800D01*
X95900D02*
X96400D01*
X94700D02*
X95600D01*
X88300D02*
X90200D01*
X114500Y36900D02*
X117400D01*
X113000D02*
X113800D01*
X109000D02*
X109700D01*
X105600D02*
X108700D01*
X104200D02*
X105000D01*
X100200D02*
X101000D01*
X98300D02*
X98800D01*
X95900D02*
X96400D01*
X94700D02*
X95600D01*
X88000D02*
X89900D01*
X114700Y36800D02*
X117400D01*
X113000D02*
X113800D01*
X109000D02*
X109700D01*
X105500D02*
X108700D01*
X104200D02*
X105000D01*
X100200D02*
X101000D01*
X98300D02*
X98800D01*
X95900D02*
X96400D01*
X94700D02*
X95600D01*
X87900D02*
X89600D01*
X114400Y36700D02*
X117400D01*
X113000D02*
X113800D01*
X109000D02*
X109700D01*
X108200D02*
X108700D01*
X105400D02*
X106100D01*
X104200D02*
X105000D01*
X100200D02*
X101000D01*
X98300D02*
X98800D01*
X95900D02*
X96400D01*
X94700D02*
X95600D01*
X87700D02*
X89100D01*
X114300Y36600D02*
X117400D01*
X113000D02*
X113800D01*
X109000D02*
X109700D01*
X108100D02*
X108700D01*
X105300D02*
X106000D01*
X104200D02*
X105000D01*
X100200D02*
X101000D01*
X98300D02*
X98800D01*
X95900D02*
X96400D01*
X94700D02*
X95600D01*
X87600D02*
X88800D01*
X116900Y36500D02*
X117400D01*
X114200D02*
X114900D01*
X113000D02*
X113500D01*
X109300D02*
X109800D01*
X108100D02*
X108700D01*
X105200D02*
X105800D01*
X104200D02*
X104700D01*
X100500D02*
X101000D01*
X98300D02*
X98800D01*
X95900D02*
X96400D01*
X94700D02*
X95200D01*
X87500D02*
X88400D01*
X116900Y36400D02*
X117400D01*
X114200D02*
X114800D01*
X113000D02*
X113500D01*
X109300D02*
X109800D01*
X108100D02*
X108700D01*
X105200D02*
X105700D01*
X104200D02*
X104700D01*
X100500D02*
X101000D01*
X98300D02*
X98800D01*
X95900D02*
X96400D01*
X94700D02*
X95200D01*
X87400D02*
X88200D01*
X116900Y36300D02*
X117400D01*
X114100D02*
X114700D01*
X112900D02*
X113400D01*
X109300D02*
X109800D01*
X108100D02*
X108700D01*
X105100D02*
X105700D01*
X104100D02*
X104700D01*
X100500D02*
X101000D01*
X98300D02*
X98800D01*
X95900D02*
X96400D01*
X94700D02*
X95200D01*
X91200D02*
X91700D01*
X87400D02*
X88000D01*
X116900Y36200D02*
X117400D01*
X114100D02*
X114600D01*
X112900D02*
X113400D01*
X109300D02*
X109800D01*
X108100D02*
X108700D01*
X105100D02*
X105600D01*
X104100D02*
X104700D01*
X100600D02*
X101100D01*
X98300D02*
X98800D01*
X95900D02*
X96400D01*
X94700D02*
X95200D01*
X91200D02*
X91700D01*
X87400D02*
X88000D01*
X116900Y36100D02*
X117400D01*
X114100D02*
X114600D01*
X112900D02*
X113400D01*
X109300D02*
X109900D01*
X108100D02*
X108700D01*
X105100D02*
X105600D01*
X104100D02*
X104700D01*
X100600D02*
X101100D01*
X98300D02*
X98800D01*
X95900D02*
X96400D01*
X94600D02*
X95200D01*
X91300D02*
X91800D01*
X90400D02*
X90900D01*
X87400D02*
X87900D01*
X116900Y36000D02*
X117400D01*
X114000D02*
X114600D01*
X112800D02*
X113400D01*
X109300D02*
X109900D01*
X108100D02*
X108700D01*
X105100D02*
X105600D01*
X104100D02*
X104600D01*
X100600D02*
X101100D01*
X98300D02*
X98800D01*
X95900D02*
X96400D01*
X94600D02*
X95100D01*
X91300D02*
X91800D01*
X90400D02*
X90900D01*
X87300D02*
X87900D01*
X116900Y35900D02*
X117400D01*
X114000D02*
X114500D01*
X112800D02*
X113300D01*
X109400D02*
X109900D01*
X108100D02*
X108700D01*
X105100D02*
X105600D01*
X104000D02*
X104600D01*
X100600D02*
X101200D01*
X98300D02*
X98800D01*
X95900D02*
X96400D01*
X94600D02*
X95100D01*
X91300D02*
X91900D01*
X90400D02*
X90900D01*
X87300D02*
X87800D01*
X116900Y35800D02*
X117400D01*
X114000D02*
X114500D01*
X112700D02*
X113400D01*
X109400D02*
X110000D01*
X108100D02*
X108700D01*
X105100D02*
X105600D01*
X104000D02*
X104600D01*
X100600D02*
X101200D01*
X98300D02*
X98800D01*
X95900D02*
X96400D01*
X94500D02*
X95200D01*
X91200D02*
X91900D01*
X90400D02*
X90900D01*
X87300D02*
X87800D01*
X116900Y35700D02*
X117400D01*
X114000D02*
X114500D01*
X112700D02*
X113500D01*
X109300D02*
X110100D01*
X108100D02*
X108700D01*
X105100D02*
X105600D01*
X103900D02*
X104700D01*
X100500D02*
X101300D01*
X98300D02*
X98800D01*
X95900D02*
X96400D01*
X94500D02*
X95300D01*
X91100D02*
X91900D01*
X90300D02*
X90900D01*
X87300D02*
X87800D01*
X116900Y35600D02*
X117400D01*
X114000D02*
X114500D01*
X112600D02*
X113400D01*
X109300D02*
X110100D01*
X108100D02*
X108700D01*
X105100D02*
X105600D01*
X103900D02*
X104700D01*
X100600D02*
X101400D01*
X98300D02*
X98800D01*
X95900D02*
X96400D01*
X94400D02*
X95200D01*
X91100D02*
X92000D01*
X90300D02*
X90900D01*
X87300D02*
X87900D01*
X116900Y35500D02*
X117400D01*
X114000D02*
X114500D01*
X112500D02*
X113400D01*
X109400D02*
X110200D01*
X108100D02*
X108700D01*
X105200D02*
X105700D01*
X103800D02*
X104600D01*
X100600D02*
X101400D01*
X98300D02*
X98800D01*
X95900D02*
X96400D01*
X94300D02*
X95200D01*
X91200D02*
X92000D01*
X90200D02*
X90800D01*
X87400D02*
X87900D01*
X116900Y35400D02*
X117400D01*
X114000D02*
X114500D01*
X112400D02*
X113300D01*
X109500D02*
X110300D01*
X108100D02*
X108700D01*
X105200D02*
X105800D01*
X103700D02*
X104500D01*
X100700D02*
X101600D01*
X98300D02*
X98800D01*
X95900D02*
X96400D01*
X94200D02*
X95100D01*
X91300D02*
X92100D01*
X90200D02*
X90800D01*
X87400D02*
X88000D01*
X116900Y35300D02*
X117400D01*
X114000D02*
X114500D01*
X112300D02*
X113200D01*
X109500D02*
X110400D01*
X108100D02*
X108700D01*
X105200D02*
X105900D01*
X103600D02*
X104500D01*
X100800D02*
X101700D01*
X98300D02*
X98800D01*
X95900D02*
X96400D01*
X94100D02*
X95100D01*
X91300D02*
X92300D01*
X90100D02*
X90700D01*
X87400D02*
X88100D01*
X116900Y35200D02*
X117400D01*
X114000D02*
X114500D01*
X112100D02*
X113200D01*
X109600D02*
X110600D01*
X108100D02*
X108700D01*
X105300D02*
X106000D01*
X103400D02*
X104400D01*
X100800D02*
X101900D01*
X98300D02*
X98800D01*
X95900D02*
X96400D01*
X94000D02*
X95000D01*
X91400D02*
X92400D01*
X90000D02*
X90700D01*
X87500D02*
X88200D01*
X116900Y35100D02*
X117400D01*
X114000D02*
X114500D01*
X113000D02*
X113100D01*
X112000D02*
X112800D01*
X109900D02*
X110800D01*
X109600D02*
X109800D01*
X108200D02*
X108700D01*
X105400D02*
X106300D01*
X104200D02*
X104300D01*
X103200D02*
X104100D01*
X101100D02*
X102000D01*
X100900D02*
X101000D01*
X98300D02*
X98800D01*
X95900D02*
X96400D01*
X94800D02*
X94900D01*
X93800D02*
X94600D01*
X91700D02*
X92600D01*
X91500D02*
X91600D01*
X89800D02*
X90600D01*
X87600D02*
X88400D01*
X116900Y35000D02*
X117400D01*
X114000D02*
X114500D01*
X110000D02*
X112700D01*
X105500D02*
X108700D01*
X101300D02*
X103900D01*
X98300D02*
X98800D01*
X95900D02*
X96400D01*
X91900D02*
X94500D01*
X89200D02*
X90500D01*
X87700D02*
X88800D01*
X116900Y34900D02*
X117400D01*
X113900D02*
X114500D01*
X110100D02*
X112600D01*
X105600D02*
X108700D01*
X101400D02*
X103800D01*
X98300D02*
X98800D01*
X95900D02*
X96400D01*
X92000D02*
X94400D01*
X87800D02*
X90400D01*
X116900Y34800D02*
X117400D01*
X113900D02*
X114400D01*
X110300D02*
X112400D01*
X105800D02*
X108700D01*
X101600D02*
X103600D01*
X98300D02*
X98800D01*
X95900D02*
X96400D01*
X92100D02*
X94200D01*
X87900D02*
X90200D01*
X116900Y34700D02*
X117400D01*
X113800D02*
X114400D01*
X110400D02*
X112400D01*
X106000D02*
X108700D01*
X101600D02*
X103600D01*
X98300D02*
X98800D01*
X95900D02*
X96400D01*
X92200D02*
X94200D01*
X88100D02*
X90100D01*
X110300Y34600D02*
X112400D01*
X101500D02*
X103700D01*
X92100D02*
X94300D01*
X88500D02*
X89700D01*
X111700Y34500D02*
X112400D01*
X110300D02*
X111100D01*
X102900D02*
X103600D01*
X101600D02*
X102300D01*
X93500D02*
X94200D01*
X92100D02*
X92900D01*
X111700Y34400D02*
X112100D01*
X110600D02*
X111000D01*
X103000D02*
X103300D01*
X101900D02*
X102300D01*
X93500D02*
X93900D01*
X92500D02*
X92800D01*
X111800Y34300D02*
X111900D01*
X110800D02*
X111000D01*
X103000D02*
X103100D01*
X102100D02*
X102200D01*
X93600D02*
X93700D01*
X92700D02*
X92800D01*
X20600Y130500D02*
Y177700D01*
X20500Y130500D02*
Y177700D01*
X20400Y130500D02*
Y177700D01*
X20300Y130500D02*
Y177700D01*
X20200Y130500D02*
Y177700D01*
X20100Y130500D02*
Y177700D01*
X20000Y130500D02*
Y177700D01*
X19900Y130500D02*
Y177700D01*
X19800Y130500D02*
Y177700D01*
X19700Y130500D02*
Y177700D01*
X19600Y130500D02*
Y177700D01*
X19500Y130500D02*
Y177700D01*
X19400Y130500D02*
Y177700D01*
X19300Y130500D02*
Y177700D01*
X19200Y130500D02*
Y146300D01*
Y146500D02*
Y177700D01*
X19100Y130500D02*
Y146000D01*
Y147000D02*
Y177700D01*
X19000Y130500D02*
Y145700D01*
Y147400D02*
Y177700D01*
X18900Y130500D02*
Y145500D01*
Y147900D02*
Y177700D01*
X18800Y130500D02*
Y145400D01*
Y148300D02*
Y177700D01*
X18700Y130500D02*
Y145300D01*
Y149000D02*
Y177700D01*
X18600Y130500D02*
Y145200D01*
Y149500D02*
Y177700D01*
X18500Y130500D02*
Y145100D01*
Y150200D02*
Y177700D01*
X18400Y130500D02*
Y145100D01*
Y150700D02*
Y177700D01*
X18300Y130500D02*
Y145000D01*
Y151000D02*
Y177700D01*
X18200Y130500D02*
Y145000D01*
Y151600D02*
Y177700D01*
X18100Y130500D02*
Y144900D01*
Y152000D02*
Y177700D01*
X18000Y130500D02*
Y144900D01*
Y152400D02*
Y177700D01*
X17900Y130500D02*
Y144900D01*
Y153000D02*
Y177700D01*
X17800Y130500D02*
Y144900D01*
Y153500D02*
Y177700D01*
X17700Y130500D02*
Y144900D01*
Y154100D02*
Y177700D01*
X17600Y130500D02*
Y144900D01*
Y154800D02*
Y177700D01*
X17500Y130500D02*
Y144900D01*
Y155200D02*
Y177700D01*
X17400Y130500D02*
Y145000D01*
Y155700D02*
Y177700D01*
X17300Y130500D02*
Y145000D01*
Y156200D02*
Y177700D01*
X17200Y130500D02*
Y145000D01*
Y156500D02*
Y177700D01*
X17100Y130500D02*
Y145100D01*
Y157100D02*
Y177700D01*
X17000Y130500D02*
Y145200D01*
Y157600D02*
Y177700D01*
X16900Y130500D02*
Y145200D01*
Y158100D02*
Y177700D01*
X16800Y130500D02*
Y145300D01*
Y158800D02*
Y177700D01*
X16700Y130500D02*
Y145400D01*
Y159300D02*
Y177700D01*
X16600Y130500D02*
Y145400D01*
Y159800D02*
Y177700D01*
X16500Y130500D02*
Y145500D01*
Y160300D02*
Y177700D01*
X16400Y130500D02*
Y145600D01*
Y160700D02*
Y177700D01*
X16300Y130500D02*
Y145700D01*
Y161300D02*
Y177700D01*
X16200Y130500D02*
Y145800D01*
Y161800D02*
Y177700D01*
X16100Y130500D02*
Y145900D01*
Y162200D02*
Y169700D01*
Y169900D02*
Y177700D01*
X16000Y130500D02*
Y146000D01*
Y162700D02*
Y169600D01*
Y170000D02*
Y177700D01*
X15900Y130500D02*
Y146000D01*
Y163400D02*
Y169600D01*
Y170100D02*
Y177700D01*
X15800Y130500D02*
Y146100D01*
Y163900D02*
Y169600D01*
Y170200D02*
Y177700D01*
X15700Y130500D02*
Y146100D01*
Y164500D02*
Y169600D01*
Y170300D02*
Y177700D01*
X15600Y130500D02*
Y146200D01*
Y164900D02*
Y169600D01*
Y170400D02*
Y177700D01*
X15500Y130500D02*
Y146300D01*
Y165400D02*
Y169600D01*
Y170400D02*
Y177700D01*
X15400Y130500D02*
Y146400D01*
Y165900D02*
Y169600D01*
Y170500D02*
Y177700D01*
X15300Y130500D02*
Y146500D01*
Y166300D02*
Y169600D01*
Y170600D02*
Y177700D01*
X15200Y130500D02*
Y146600D01*
Y166900D02*
Y169600D01*
Y170700D02*
Y177700D01*
X15100Y130500D02*
Y146600D01*
Y167400D02*
Y169600D01*
Y170800D02*
Y177700D01*
X15000Y130500D02*
Y146700D01*
Y168000D02*
Y169600D01*
Y170900D02*
Y177700D01*
X14900Y130500D02*
Y146800D01*
Y168600D02*
Y169600D01*
Y171000D02*
Y177700D01*
X14800Y130500D02*
Y146900D01*
Y169100D02*
Y169600D01*
Y171000D02*
Y177700D01*
X14700Y130500D02*
Y146900D01*
Y169500D02*
Y169600D01*
Y171100D02*
Y177700D01*
X14600Y130500D02*
Y147000D01*
Y152400D02*
Y153100D01*
Y171200D02*
Y177700D01*
X14500Y130500D02*
Y147000D01*
Y152400D02*
Y153900D01*
Y171300D02*
Y177700D01*
X14400Y130500D02*
Y147100D01*
Y152400D02*
Y154700D01*
Y171400D02*
Y177700D01*
X14300Y130500D02*
Y147200D01*
Y152400D02*
Y155700D01*
Y171500D02*
Y177700D01*
X14200Y130500D02*
Y147300D01*
Y152500D02*
Y156900D01*
Y171500D02*
Y177700D01*
X14100Y130500D02*
Y147400D01*
Y152500D02*
Y157800D01*
Y171600D02*
Y177700D01*
X14000Y130500D02*
Y147400D01*
Y152600D02*
Y158300D01*
Y171700D02*
Y177700D01*
X13900Y130500D02*
Y147500D01*
Y152600D02*
Y159100D01*
Y171800D02*
Y177700D01*
X13800Y130500D02*
Y147600D01*
Y152700D02*
Y160100D01*
Y171900D02*
Y177700D01*
X13700Y130500D02*
Y147700D01*
Y152800D02*
Y160700D01*
Y172000D02*
Y177700D01*
X13600Y130500D02*
Y147700D01*
Y152800D02*
Y161400D01*
Y172100D02*
Y177700D01*
X13500Y130500D02*
Y147800D01*
Y152900D02*
Y162500D01*
Y172100D02*
Y177700D01*
X13400Y130500D02*
Y147900D01*
Y152900D02*
Y163300D01*
Y172100D02*
Y177700D01*
X13300Y130500D02*
Y148000D01*
Y153000D02*
Y164600D01*
Y172000D02*
Y177700D01*
X13200Y130500D02*
Y148100D01*
Y153000D02*
Y165300D01*
Y171800D02*
Y177700D01*
X13100Y130500D02*
Y148100D01*
Y153100D02*
Y166000D01*
Y171700D02*
Y177700D01*
X13000Y130500D02*
Y148200D01*
Y153100D02*
Y166900D01*
Y171600D02*
Y177700D01*
X12900Y130500D02*
Y148300D01*
Y153200D02*
Y167500D01*
Y171400D02*
Y177700D01*
X12800Y130500D02*
Y148400D01*
Y153200D02*
Y168300D01*
Y171400D02*
Y177700D01*
X12700Y130500D02*
Y148500D01*
Y153200D02*
Y169300D01*
Y171200D02*
Y177700D01*
X12600Y130500D02*
Y148600D01*
Y153300D02*
Y169300D01*
Y171100D02*
Y177700D01*
X12500Y130500D02*
Y148600D01*
Y153400D02*
Y169300D01*
Y170900D02*
Y177700D01*
X12400Y130500D02*
Y148700D01*
Y153400D02*
Y169300D01*
Y170800D02*
Y177700D01*
X12300Y130500D02*
Y148800D01*
Y153500D02*
Y169300D01*
Y170700D02*
Y177700D01*
X12200Y130500D02*
Y148800D01*
Y153500D02*
Y169300D01*
Y170600D02*
Y177700D01*
X12100Y130500D02*
Y148900D01*
Y153600D02*
Y169300D01*
Y170500D02*
Y177700D01*
X12000Y130500D02*
Y149000D01*
Y153700D02*
Y169300D01*
Y170300D02*
Y177700D01*
X11900Y130500D02*
Y149000D01*
Y153700D02*
Y169300D01*
Y170200D02*
Y177700D01*
X11800Y130500D02*
Y149100D01*
Y153800D02*
Y169300D01*
Y170100D02*
Y177700D01*
X11700Y130500D02*
Y149200D01*
Y153900D02*
Y169300D01*
Y170000D02*
Y177700D01*
X11600Y130500D02*
Y149300D01*
Y153900D02*
Y169300D01*
Y169800D02*
Y177700D01*
X11500Y130500D02*
Y149400D01*
Y154000D02*
Y169300D01*
Y169700D02*
Y177700D01*
X11400Y130500D02*
Y149500D01*
Y154000D02*
Y177700D01*
X11300Y130500D02*
Y149500D01*
Y154000D02*
Y177700D01*
X11200Y130500D02*
Y149600D01*
Y154100D02*
Y177700D01*
X11100Y130500D02*
Y149700D01*
Y154100D02*
Y177700D01*
X11000Y130500D02*
Y149700D01*
Y154200D02*
Y177700D01*
X10900Y130500D02*
Y149800D01*
Y154300D02*
Y177700D01*
X10800Y130500D02*
Y149900D01*
Y154400D02*
Y177700D01*
X10700Y130500D02*
Y150000D01*
Y154400D02*
Y177700D01*
X10600Y130500D02*
Y154300D01*
Y154400D02*
Y177700D01*
X10500Y130500D02*
Y138400D01*
Y138500D02*
Y177700D01*
X10400Y130500D02*
Y132500D01*
Y135600D02*
Y138400D01*
Y139100D02*
Y177700D01*
X10300Y130500D02*
Y132500D01*
Y135600D02*
Y138400D01*
Y139100D02*
Y177700D01*
X10200Y130500D02*
Y132500D01*
Y135600D02*
Y138400D01*
Y139100D02*
Y177700D01*
X10100Y130500D02*
Y132500D01*
Y135600D02*
Y136400D01*
Y137000D02*
Y138400D01*
Y139100D02*
Y149200D01*
Y150500D02*
Y164500D01*
Y165500D02*
Y173300D01*
Y174600D02*
Y177700D01*
X10000Y130500D02*
Y132500D01*
Y135600D02*
Y136400D01*
Y137000D02*
Y138400D01*
Y139100D02*
Y148900D01*
Y151000D02*
Y152200D01*
Y154000D02*
Y155300D01*
Y156900D02*
Y158500D01*
Y161000D02*
Y164000D01*
Y166000D02*
Y166900D01*
Y168700D02*
Y169700D01*
Y171700D02*
Y172900D01*
Y175100D02*
Y177700D01*
X9900Y130500D02*
Y132500D01*
Y135600D02*
Y136400D01*
Y137000D02*
Y138400D01*
Y139100D02*
Y148700D01*
Y151300D02*
Y152200D01*
Y154100D02*
Y155300D01*
Y156900D02*
Y158500D01*
Y161100D02*
Y163800D01*
Y166200D02*
Y166900D01*
Y168700D02*
Y169600D01*
Y171700D02*
Y172700D01*
Y175300D02*
Y177700D01*
X9800Y130500D02*
Y132500D01*
Y133200D02*
Y136400D01*
Y137000D02*
Y138400D01*
Y139100D02*
Y148400D01*
Y151500D02*
Y152200D01*
Y154100D02*
Y155300D01*
Y156900D02*
Y158500D01*
Y161100D02*
Y163600D01*
Y166500D02*
Y166900D01*
Y168700D02*
Y169600D01*
Y171600D02*
Y172500D01*
Y175600D02*
Y177700D01*
X9700Y130500D02*
Y132500D01*
Y133200D02*
Y136400D01*
Y137000D02*
Y138400D01*
Y139100D02*
Y148300D01*
Y151500D02*
Y152200D01*
Y154200D02*
Y155300D01*
Y156900D02*
Y158500D01*
Y161200D02*
Y163400D01*
Y166500D02*
Y166900D01*
Y168700D02*
Y169500D01*
Y171500D02*
Y172400D01*
Y175600D02*
Y177700D01*
X9600Y130500D02*
Y132500D01*
Y133200D02*
Y136400D01*
Y137000D02*
Y138400D01*
Y139100D02*
Y148200D01*
Y151500D02*
Y152200D01*
Y154200D02*
Y155300D01*
Y156900D02*
Y158400D01*
Y161200D02*
Y163300D01*
Y166600D02*
Y166900D01*
Y168700D02*
Y169500D01*
Y171500D02*
Y172300D01*
Y175600D02*
Y177700D01*
X9500Y130500D02*
Y132500D01*
Y133200D02*
Y136400D01*
Y137000D02*
Y138400D01*
Y139100D02*
Y148100D01*
Y151500D02*
Y152200D01*
Y154300D02*
Y155300D01*
Y156900D02*
Y158400D01*
Y161200D02*
Y163100D01*
Y166500D02*
Y166900D01*
Y168700D02*
Y169400D01*
Y171400D02*
Y172200D01*
Y175600D02*
Y177700D01*
X9400Y130500D02*
Y132500D01*
Y133200D02*
Y136400D01*
Y137000D02*
Y138400D01*
Y139100D02*
Y148100D01*
Y151500D02*
Y152200D01*
Y154300D02*
Y155300D01*
Y156900D02*
Y158400D01*
Y161200D02*
Y163000D01*
Y166500D02*
Y166900D01*
Y168700D02*
Y169300D01*
Y171300D02*
Y172100D01*
Y175600D02*
Y177700D01*
X9300Y130500D02*
Y132500D01*
Y133200D02*
Y136400D01*
Y137000D02*
Y138400D01*
Y139100D02*
Y148000D01*
Y151500D02*
Y152200D01*
Y154400D02*
Y155300D01*
Y156900D02*
Y158300D01*
Y161200D02*
Y162900D01*
Y166500D02*
Y166900D01*
Y168700D02*
Y169300D01*
Y171300D02*
Y172100D01*
Y175600D02*
Y177700D01*
X9200Y130500D02*
Y132500D01*
Y133200D02*
Y136400D01*
Y137000D02*
Y138400D01*
Y139100D02*
Y139900D01*
Y140300D02*
Y143400D01*
Y143900D02*
Y147300D01*
Y147700D02*
Y148000D01*
Y151500D02*
Y152200D01*
Y154400D02*
Y155300D01*
Y156900D02*
Y158300D01*
Y161300D02*
Y162800D01*
Y166500D02*
Y166900D01*
Y168700D02*
Y169200D01*
Y171200D02*
Y172000D01*
Y175600D02*
Y177700D01*
X9100Y130500D02*
Y132500D01*
Y133200D02*
Y136400D01*
Y137000D02*
Y138400D01*
Y139100D02*
Y139700D01*
Y140600D02*
Y143100D01*
Y144200D02*
Y146000D01*
Y146100D02*
Y146400D01*
Y146500D02*
Y147100D01*
Y147700D02*
Y147900D01*
Y151500D02*
Y152200D01*
Y154500D02*
Y155300D01*
Y156900D02*
Y158300D01*
Y161300D02*
Y162800D01*
Y166500D02*
Y166900D01*
Y168700D02*
Y169100D01*
Y171200D02*
Y172000D01*
Y175600D02*
Y177700D01*
X9000Y130500D02*
Y132500D01*
Y133200D02*
Y135800D01*
Y137800D02*
Y138400D01*
Y139100D02*
Y139500D01*
Y140700D02*
Y142900D01*
Y144400D02*
Y145900D01*
Y146500D02*
Y146900D01*
Y147700D02*
Y147900D01*
Y151500D02*
Y152200D01*
Y154600D02*
Y155300D01*
Y156900D02*
Y158200D01*
Y161300D02*
Y162700D01*
Y166500D02*
Y166900D01*
Y168700D02*
Y169100D01*
Y171100D02*
Y172000D01*
Y175600D02*
Y177700D01*
X8900Y130500D02*
Y132500D01*
Y133200D02*
Y135800D01*
Y137800D02*
Y138400D01*
Y139100D02*
Y139400D01*
Y140900D02*
Y142800D01*
Y144500D02*
Y145900D01*
Y146500D02*
Y146800D01*
Y147700D02*
Y147900D01*
Y151400D02*
Y152200D01*
Y154600D02*
Y155300D01*
Y156900D02*
Y158200D01*
Y161300D02*
Y162600D01*
Y166500D02*
Y166900D01*
Y168700D02*
Y169000D01*
Y171000D02*
Y171900D01*
Y175600D02*
Y177700D01*
X8800Y130500D02*
Y132500D01*
Y133200D02*
Y135800D01*
Y137800D02*
Y138400D01*
Y139100D02*
Y139300D01*
Y141000D02*
Y142600D01*
Y144600D02*
Y145900D01*
Y146500D02*
Y146800D01*
Y147700D02*
Y147900D01*
Y151400D02*
Y152200D01*
Y154700D02*
Y155300D01*
Y156900D02*
Y158200D01*
Y161400D02*
Y162600D01*
Y166500D02*
Y166900D01*
Y168700D02*
Y168900D01*
Y171000D02*
Y171900D01*
Y175600D02*
Y177700D01*
X8700Y130500D02*
Y132500D01*
Y133200D02*
Y135800D01*
Y137800D02*
Y138400D01*
Y139100D02*
Y139200D01*
Y141000D02*
Y142600D01*
Y144700D02*
Y145900D01*
Y146500D02*
Y146700D01*
Y147700D02*
Y147800D01*
Y151400D02*
Y152200D01*
Y154700D02*
Y155300D01*
Y156900D02*
Y158200D01*
Y161400D02*
Y162500D01*
Y166500D02*
Y166900D01*
Y168700D02*
Y168900D01*
Y170900D02*
Y171900D01*
Y175600D02*
Y177700D01*
X8600Y130500D02*
Y132500D01*
Y133200D02*
Y135800D01*
Y137800D02*
Y138400D01*
Y141100D02*
Y142500D01*
Y144800D02*
Y145900D01*
Y146500D02*
Y146600D01*
Y147700D02*
Y147800D01*
Y149700D02*
Y150500D01*
Y151400D02*
Y152200D01*
Y154800D02*
Y155300D01*
Y156900D02*
Y158100D01*
Y161400D02*
Y162500D01*
Y164900D02*
Y165600D01*
Y166500D02*
Y166900D01*
Y168700D02*
Y168800D01*
Y170900D02*
Y171900D01*
Y173800D02*
Y174500D01*
Y175500D02*
Y177700D01*
X8500Y130500D02*
Y132500D01*
Y133200D02*
Y136400D01*
Y137000D02*
Y138400D01*
Y139700D02*
Y140300D01*
Y141200D02*
Y142400D01*
Y143300D02*
Y144000D01*
Y144900D02*
Y145900D01*
Y146500D02*
Y146600D01*
Y147700D02*
Y147800D01*
Y149600D02*
Y150900D01*
Y151400D02*
Y152200D01*
Y154800D02*
Y155300D01*
Y156900D02*
Y158100D01*
Y161400D02*
Y162500D01*
Y164600D02*
Y166000D01*
Y166400D02*
Y166900D01*
Y168700D02*
Y168800D01*
Y170800D02*
Y171800D01*
Y173700D02*
Y175000D01*
Y175500D02*
Y177700D01*
X8400Y130500D02*
Y132500D01*
Y133200D02*
Y136400D01*
Y137000D02*
Y138400D01*
Y139500D02*
Y140400D01*
Y141200D02*
Y142300D01*
Y143100D02*
Y144200D01*
Y144900D02*
Y145900D01*
Y147200D02*
Y147800D01*
Y149700D02*
Y151200D01*
Y151400D02*
Y152200D01*
Y154900D02*
Y155300D01*
Y156900D02*
Y158100D01*
Y161500D02*
Y162400D01*
Y164500D02*
Y166200D01*
Y166400D02*
Y166900D01*
Y170700D02*
Y171800D01*
Y173800D02*
Y175300D01*
Y175500D02*
Y177700D01*
X8300Y130500D02*
Y132500D01*
Y133200D02*
Y136400D01*
Y137000D02*
Y138400D01*
Y139500D02*
Y140500D01*
Y141200D02*
Y142300D01*
Y143100D02*
Y144200D01*
Y145000D02*
Y145900D01*
Y147100D02*
Y147800D01*
Y149900D02*
Y152200D01*
Y154900D02*
Y155300D01*
Y156900D02*
Y158100D01*
Y159700D02*
Y159800D01*
Y161500D02*
Y162400D01*
Y164400D02*
Y166900D01*
Y170600D02*
Y171800D01*
Y174000D02*
Y177700D01*
X8200Y130500D02*
Y132500D01*
Y133200D02*
Y133300D01*
Y135000D02*
Y136400D01*
Y137000D02*
Y138400D01*
Y139400D02*
Y140600D01*
Y141300D02*
Y142200D01*
Y143000D02*
Y144300D01*
Y145000D02*
Y145900D01*
Y146900D02*
Y147800D01*
Y150200D02*
Y152200D01*
Y154900D02*
Y155300D01*
Y156900D02*
Y158000D01*
Y159700D02*
Y159800D01*
Y161500D02*
Y162400D01*
Y164300D02*
Y166900D01*
Y170600D02*
Y171900D01*
Y174300D02*
Y177700D01*
X8100Y130500D02*
Y132500D01*
Y135100D02*
Y136400D01*
Y137000D02*
Y138400D01*
Y139300D02*
Y140600D01*
Y141300D02*
Y142200D01*
Y142900D02*
Y144300D01*
Y145100D02*
Y145900D01*
Y146800D02*
Y147800D01*
Y150500D02*
Y152200D01*
Y155000D02*
Y155300D01*
Y156900D02*
Y158000D01*
Y159700D02*
Y159900D01*
Y161600D02*
Y162400D01*
Y164200D02*
Y166900D01*
Y170500D02*
Y171900D01*
Y174500D02*
Y177700D01*
X8000Y130500D02*
Y132500D01*
Y135100D02*
Y136400D01*
Y137000D02*
Y138400D01*
Y139300D02*
Y140600D01*
Y141300D02*
Y142100D01*
Y142900D02*
Y144400D01*
Y145100D02*
Y145900D01*
Y146800D02*
Y147900D01*
Y150700D02*
Y152200D01*
Y155000D02*
Y155300D01*
Y156900D02*
Y158000D01*
Y159700D02*
Y159900D01*
Y161600D02*
Y162400D01*
Y164200D02*
Y166900D01*
Y170400D02*
Y171900D01*
Y174700D02*
Y177700D01*
X7900Y130500D02*
Y132500D01*
Y135100D02*
Y136400D01*
Y137000D02*
Y138400D01*
Y139300D02*
Y140600D01*
Y141300D02*
Y142100D01*
Y142800D02*
Y144400D01*
Y145100D02*
Y145900D01*
Y146700D02*
Y147900D01*
Y150900D02*
Y152200D01*
Y155100D02*
Y155300D01*
Y156900D02*
Y157900D01*
Y159600D02*
Y159900D01*
Y161600D02*
Y162300D01*
Y164200D02*
Y166900D01*
Y170400D02*
Y171900D01*
Y174900D02*
Y177700D01*
X7800Y130500D02*
Y132500D01*
Y135100D02*
Y136400D01*
Y137000D02*
Y138400D01*
Y139200D02*
Y140600D01*
Y141300D02*
Y142100D01*
Y142800D02*
Y144400D01*
Y145100D02*
Y145900D01*
Y146700D02*
Y147900D01*
Y151000D02*
Y152200D01*
Y155100D02*
Y155300D01*
Y156900D02*
Y157900D01*
Y159600D02*
Y159900D01*
Y161700D02*
Y162300D01*
Y164100D02*
Y166900D01*
Y170300D02*
Y172000D01*
Y175100D02*
Y177700D01*
X7700Y130500D02*
Y132500D01*
Y135100D02*
Y136400D01*
Y137000D02*
Y138400D01*
Y139200D02*
Y140600D01*
Y141300D02*
Y142100D01*
Y142800D02*
Y144500D01*
Y145100D02*
Y145900D01*
Y146700D02*
Y147900D01*
Y151200D02*
Y152200D01*
Y155200D02*
Y155300D01*
Y156900D02*
Y157900D01*
Y159600D02*
Y160000D01*
Y161700D02*
Y162300D01*
Y164100D02*
Y166900D01*
Y170300D02*
Y172000D01*
Y175200D02*
Y177700D01*
X7600Y130500D02*
Y132500D01*
Y135100D02*
Y136400D01*
Y137000D02*
Y138400D01*
Y139200D02*
Y140600D01*
Y141300D02*
Y142000D01*
Y142800D02*
Y144500D01*
Y145200D02*
Y145900D01*
Y146600D02*
Y148000D01*
Y151300D02*
Y152200D01*
Y155200D02*
Y155300D01*
Y156900D02*
Y157900D01*
Y159600D02*
Y160000D01*
Y161700D02*
Y162300D01*
Y164100D02*
Y166900D01*
Y170200D02*
Y172000D01*
Y175400D02*
Y177700D01*
X7500Y130500D02*
Y132500D01*
Y135100D02*
Y136400D01*
Y137000D02*
Y138400D01*
Y139200D02*
Y140600D01*
Y141300D02*
Y142000D01*
Y142700D02*
Y144500D01*
Y145200D02*
Y145900D01*
Y146600D02*
Y148000D01*
Y151400D02*
Y152200D01*
Y156900D02*
Y157900D01*
Y159600D02*
Y160000D01*
Y161700D02*
Y162300D01*
Y164100D02*
Y166900D01*
Y170300D02*
Y172100D01*
Y175500D02*
Y177700D01*
X7400Y130500D02*
Y132500D01*
Y133200D02*
Y136400D01*
Y137000D02*
Y138400D01*
Y139200D02*
Y140600D01*
Y141300D02*
Y142000D01*
Y145200D02*
Y145900D01*
Y146600D02*
Y148100D01*
Y151500D02*
Y152200D01*
Y156900D02*
Y157800D01*
Y159500D02*
Y160000D01*
Y161800D02*
Y162300D01*
Y164100D02*
Y166900D01*
Y170300D02*
Y172200D01*
Y175600D02*
Y177700D01*
X7300Y130500D02*
Y132500D01*
Y133200D02*
Y136400D01*
Y137000D02*
Y138400D01*
Y139100D02*
Y140600D01*
Y141300D02*
Y142000D01*
Y145200D02*
Y145900D01*
Y146600D02*
Y148200D01*
Y151600D02*
Y152200D01*
Y156900D02*
Y157800D01*
Y159500D02*
Y160000D01*
Y161800D02*
Y162300D01*
Y164100D02*
Y166900D01*
Y170400D02*
Y172200D01*
Y175600D02*
Y177700D01*
X7200Y130500D02*
Y132500D01*
Y133200D02*
Y136400D01*
Y137000D02*
Y138400D01*
Y139100D02*
Y140600D01*
Y141300D02*
Y142000D01*
Y145200D02*
Y145900D01*
Y146600D02*
Y148300D01*
Y151600D02*
Y152200D01*
Y153800D02*
Y153900D01*
Y156900D02*
Y157800D01*
Y159500D02*
Y160100D01*
Y161800D02*
Y162300D01*
Y164100D02*
Y166900D01*
Y170400D02*
Y172300D01*
Y175700D02*
Y177700D01*
X7100Y130500D02*
Y132500D01*
Y133200D02*
Y136400D01*
Y137000D02*
Y138400D01*
Y139100D02*
Y140600D01*
Y141300D02*
Y142000D01*
Y145200D02*
Y145900D01*
Y146600D02*
Y148400D01*
Y151700D02*
Y152200D01*
Y153800D02*
Y153900D01*
Y156900D02*
Y157800D01*
Y161800D02*
Y162300D01*
Y164100D02*
Y166900D01*
Y170500D02*
Y172400D01*
Y175700D02*
Y177700D01*
X7000Y130500D02*
Y132500D01*
Y133200D02*
Y136400D01*
Y137000D02*
Y138400D01*
Y139100D02*
Y140600D01*
Y141300D02*
Y141900D01*
Y145200D02*
Y145900D01*
Y146600D02*
Y148500D01*
Y151700D02*
Y152200D01*
Y153800D02*
Y154000D01*
Y156900D02*
Y157700D01*
Y161900D02*
Y162300D01*
Y164100D02*
Y166900D01*
Y170600D02*
Y172600D01*
Y175800D02*
Y177700D01*
X6900Y130500D02*
Y132500D01*
Y133200D02*
Y136400D01*
Y137000D02*
Y138400D01*
Y139100D02*
Y140600D01*
Y141300D02*
Y142000D01*
Y145200D02*
Y145900D01*
Y146600D02*
Y148700D01*
Y151700D02*
Y152200D01*
Y153800D02*
Y154000D01*
Y156900D02*
Y157700D01*
Y161900D02*
Y162300D01*
Y164200D02*
Y166900D01*
Y170600D02*
Y172800D01*
Y175800D02*
Y177700D01*
X6800Y130500D02*
Y132500D01*
Y133200D02*
Y136400D01*
Y137000D02*
Y138400D01*
Y139100D02*
Y140600D01*
Y141300D02*
Y142000D01*
Y142700D02*
Y145900D01*
Y146600D02*
Y149000D01*
Y151800D02*
Y152200D01*
Y153800D02*
Y154100D01*
Y156900D02*
Y157700D01*
Y162000D02*
Y162400D01*
Y164200D02*
Y166900D01*
Y168700D02*
Y168800D01*
Y170700D02*
Y173100D01*
Y175800D02*
Y177700D01*
X6700Y130500D02*
Y132500D01*
Y133200D02*
Y136400D01*
Y137000D02*
Y138400D01*
Y139100D02*
Y140600D01*
Y141300D02*
Y142000D01*
Y142700D02*
Y145900D01*
Y146600D02*
Y149200D01*
Y151800D02*
Y152200D01*
Y153800D02*
Y154100D01*
Y156900D02*
Y157700D01*
Y162000D02*
Y162400D01*
Y164300D02*
Y166900D01*
Y168700D02*
Y168800D01*
Y170700D02*
Y173300D01*
Y175800D02*
Y177700D01*
X6600Y130500D02*
Y132500D01*
Y133200D02*
Y136400D01*
Y137000D02*
Y138400D01*
Y139100D02*
Y140600D01*
Y141300D02*
Y142000D01*
Y142700D02*
Y145900D01*
Y146600D02*
Y149500D01*
Y151800D02*
Y152200D01*
Y153800D02*
Y154200D01*
Y156900D02*
Y157700D01*
Y162000D02*
Y162400D01*
Y164400D02*
Y166900D01*
Y168700D02*
Y168800D01*
Y170800D02*
Y172000D01*
Y172100D02*
Y173600D01*
Y175800D02*
Y177700D01*
X6500Y130500D02*
Y132500D01*
Y133200D02*
Y136400D01*
Y137000D02*
Y138400D01*
Y139100D02*
Y140600D01*
Y141300D02*
Y142000D01*
Y142700D02*
Y145900D01*
Y146600D02*
Y147900D01*
Y148200D02*
Y149800D01*
Y151800D02*
Y152200D01*
Y153800D02*
Y154200D01*
Y156900D02*
Y157600D01*
Y162000D02*
Y162400D01*
Y164400D02*
Y166300D01*
Y166400D02*
Y166900D01*
Y168700D02*
Y168900D01*
Y170900D02*
Y172000D01*
Y172300D02*
Y173900D01*
Y175800D02*
Y177700D01*
X6400Y130500D02*
Y132500D01*
Y133200D02*
Y136400D01*
Y137000D02*
Y138400D01*
Y139100D02*
Y140600D01*
Y141300D02*
Y142000D01*
Y142700D02*
Y145900D01*
Y146600D02*
Y147900D01*
Y148400D02*
Y149900D01*
Y151800D02*
Y152200D01*
Y153800D02*
Y154200D01*
Y156900D02*
Y157600D01*
Y162000D02*
Y162400D01*
Y164600D02*
Y166200D01*
Y166500D02*
Y166900D01*
Y168700D02*
Y168900D01*
Y171000D02*
Y172000D01*
Y172500D02*
Y174000D01*
Y175800D02*
Y177700D01*
X6300Y130500D02*
Y132500D01*
Y133200D02*
Y136400D01*
Y137000D02*
Y138400D01*
Y139100D02*
Y140600D01*
Y141300D02*
Y142000D01*
Y142800D02*
Y145900D01*
Y146600D02*
Y147900D01*
Y148800D02*
Y150000D01*
Y151800D02*
Y152200D01*
Y153800D02*
Y154300D01*
Y156900D02*
Y157600D01*
Y162100D02*
Y162400D01*
Y164800D02*
Y165800D01*
Y166500D02*
Y166900D01*
Y168700D02*
Y169000D01*
Y171000D02*
Y172000D01*
Y172800D02*
Y174000D01*
Y175800D02*
Y177700D01*
X6200Y130500D02*
Y132500D01*
Y133200D02*
Y136400D01*
Y137000D02*
Y138400D01*
Y139100D02*
Y140600D01*
Y141300D02*
Y142100D01*
Y142800D02*
Y144500D01*
Y144900D02*
Y145900D01*
Y146600D02*
Y147900D01*
Y151800D02*
Y152200D01*
Y153800D02*
Y154300D01*
Y156900D02*
Y157500D01*
Y162100D02*
Y162500D01*
Y166500D02*
Y166900D01*
Y168700D02*
Y169000D01*
Y171100D02*
Y172000D01*
Y175800D02*
Y177700D01*
X6100Y130500D02*
Y132500D01*
Y133200D02*
Y136400D01*
Y137000D02*
Y138400D01*
Y139100D02*
Y140600D01*
Y141300D02*
Y142100D01*
Y142800D02*
Y144500D01*
Y145100D02*
Y145900D01*
Y146600D02*
Y147900D01*
Y151800D02*
Y152200D01*
Y153800D02*
Y154400D01*
Y156900D02*
Y157500D01*
Y162100D02*
Y162500D01*
Y166500D02*
Y166900D01*
Y168700D02*
Y169100D01*
Y171100D02*
Y172000D01*
Y175800D02*
Y177700D01*
X6000Y130500D02*
Y132500D01*
Y133200D02*
Y136400D01*
Y137000D02*
Y138400D01*
Y139100D02*
Y140600D01*
Y141300D02*
Y142100D01*
Y142900D02*
Y144400D01*
Y145100D02*
Y145900D01*
Y146600D02*
Y147900D01*
Y151800D02*
Y152200D01*
Y153800D02*
Y154400D01*
Y156900D02*
Y157500D01*
Y162100D02*
Y162600D01*
Y166500D02*
Y166900D01*
Y168700D02*
Y169200D01*
Y171200D02*
Y172000D01*
Y175800D02*
Y177700D01*
X5900Y130500D02*
Y132500D01*
Y133200D02*
Y136400D01*
Y137000D02*
Y138400D01*
Y139100D02*
Y140600D01*
Y141300D02*
Y142200D01*
Y142900D02*
Y144400D01*
Y145100D02*
Y145900D01*
Y146600D02*
Y147900D01*
Y151700D02*
Y152200D01*
Y153800D02*
Y154500D01*
Y156900D02*
Y157400D01*
Y162100D02*
Y162600D01*
Y166500D02*
Y166900D01*
Y168700D02*
Y169200D01*
Y171200D02*
Y172000D01*
Y175800D02*
Y177700D01*
X5800Y130500D02*
Y132500D01*
Y133200D02*
Y136400D01*
Y137000D02*
Y138400D01*
Y139100D02*
Y140600D01*
Y141300D02*
Y142200D01*
Y143000D02*
Y144300D01*
Y145100D02*
Y145900D01*
Y146600D02*
Y147900D01*
Y151700D02*
Y152200D01*
Y153800D02*
Y154500D01*
Y156900D02*
Y157400D01*
Y162200D02*
Y162700D01*
Y166500D02*
Y166900D01*
Y168700D02*
Y169300D01*
Y171300D02*
Y172000D01*
Y175800D02*
Y177700D01*
X5700Y130500D02*
Y132500D01*
Y133200D02*
Y136400D01*
Y137100D02*
Y138400D01*
Y139100D02*
Y140600D01*
Y141300D02*
Y142300D01*
Y143100D02*
Y144200D01*
Y145000D02*
Y145900D01*
Y146600D02*
Y147900D01*
Y151700D02*
Y152200D01*
Y153800D02*
Y154600D01*
Y156900D02*
Y157400D01*
Y162200D02*
Y162800D01*
Y166600D02*
Y166900D01*
Y168700D02*
Y169300D01*
Y171400D02*
Y171900D01*
Y175700D02*
Y177700D01*
X5600Y130500D02*
Y132500D01*
Y135600D02*
Y136400D01*
Y137200D02*
Y138400D01*
Y139100D02*
Y140600D01*
Y141300D02*
Y142300D01*
Y143300D02*
Y144100D01*
Y144900D02*
Y145900D01*
Y146600D02*
Y147900D01*
Y151700D02*
Y152200D01*
Y153800D02*
Y154600D01*
Y156900D02*
Y157400D01*
Y159200D02*
Y160400D01*
Y162200D02*
Y162900D01*
Y166600D02*
Y166900D01*
Y168700D02*
Y169400D01*
Y171400D02*
Y171900D01*
Y175700D02*
Y177700D01*
X5500Y130500D02*
Y132500D01*
Y135700D02*
Y136500D01*
Y138000D02*
Y138400D01*
Y139100D02*
Y140600D01*
Y141300D02*
Y142400D01*
Y144900D02*
Y145900D01*
Y146600D02*
Y147900D01*
Y151600D02*
Y152200D01*
Y153800D02*
Y154700D01*
Y156900D02*
Y157300D01*
Y159200D02*
Y160400D01*
Y162200D02*
Y162900D01*
Y166500D02*
Y166900D01*
Y168700D02*
Y169500D01*
Y171500D02*
Y171900D01*
Y175700D02*
Y177700D01*
X5400Y130500D02*
Y132500D01*
Y135700D02*
Y136500D01*
Y138000D02*
Y138400D01*
Y139100D02*
Y140600D01*
Y141300D02*
Y142500D01*
Y144800D02*
Y145900D01*
Y146600D02*
Y147800D01*
Y151500D02*
Y152200D01*
Y153800D02*
Y154800D01*
Y156900D02*
Y157300D01*
Y159200D02*
Y160400D01*
Y162300D02*
Y163100D01*
Y166500D02*
Y166900D01*
Y168700D02*
Y169500D01*
Y171600D02*
Y171900D01*
Y175600D02*
Y177700D01*
X5300Y130500D02*
Y132500D01*
Y135700D02*
Y136600D01*
Y138000D02*
Y138400D01*
Y139100D02*
Y140600D01*
Y141300D02*
Y142500D01*
Y144700D02*
Y145900D01*
Y146600D02*
Y147800D01*
Y151400D02*
Y152200D01*
Y153800D02*
Y154800D01*
Y156900D02*
Y157300D01*
Y159200D02*
Y160400D01*
Y162300D02*
Y163200D01*
Y166600D02*
Y166900D01*
Y168700D02*
Y169600D01*
Y171700D02*
Y171900D01*
Y175500D02*
Y177700D01*
X5200Y130500D02*
Y132500D01*
Y135700D02*
Y136600D01*
Y138000D02*
Y138400D01*
Y139100D02*
Y140600D01*
Y141300D02*
Y142700D01*
Y144600D02*
Y145900D01*
Y146600D02*
Y147800D01*
Y151300D02*
Y152200D01*
Y153800D02*
Y154900D01*
Y156900D02*
Y157200D01*
Y159100D02*
Y160500D01*
Y162300D02*
Y163300D01*
Y166600D02*
Y166900D01*
Y168700D02*
Y169600D01*
Y171700D02*
Y171900D01*
Y175400D02*
Y177700D01*
X5100Y130500D02*
Y132500D01*
Y135700D02*
Y136800D01*
Y138000D02*
Y138400D01*
Y139100D02*
Y140600D01*
Y141300D02*
Y142800D01*
Y144500D02*
Y145900D01*
Y146600D02*
Y147800D01*
Y151200D02*
Y152200D01*
Y153800D02*
Y155000D01*
Y156900D02*
Y157200D01*
Y159100D02*
Y160500D01*
Y162400D02*
Y163400D01*
Y166600D02*
Y166900D01*
Y168700D02*
Y169700D01*
Y171800D02*
Y171900D01*
Y175300D02*
Y177700D01*
X5000Y130500D02*
Y132500D01*
Y135700D02*
Y136900D01*
Y138000D02*
Y138500D01*
Y139100D02*
Y140600D01*
Y141300D02*
Y143000D01*
Y144200D02*
Y145900D01*
Y146600D02*
Y148000D01*
Y151100D02*
Y152200D01*
Y153800D02*
Y155000D01*
Y156900D02*
Y157200D01*
Y159100D02*
Y160500D01*
Y162400D02*
Y163600D01*
Y166500D02*
Y166900D01*
Y168700D02*
Y169700D01*
Y171900D02*
Y172100D01*
Y175000D02*
Y177700D01*
X4900Y130500D02*
Y137200D01*
Y137800D02*
Y143400D01*
Y143900D02*
Y148400D01*
Y150800D02*
Y152200D01*
Y153800D02*
Y155000D01*
Y156900D02*
Y157100D01*
Y159100D02*
Y160600D01*
Y162400D02*
Y163900D01*
Y166100D02*
Y166900D01*
Y168700D02*
Y169800D01*
Y172000D02*
Y172500D01*
Y174800D02*
Y177700D01*
X4800Y130500D02*
Y148800D01*
Y150500D02*
Y164300D01*
Y165800D02*
Y172800D01*
Y174600D02*
Y177700D01*
X4700Y130500D02*
Y177700D01*
X4600Y130500D02*
Y177700D01*
X4500Y130500D02*
Y177700D01*
X4400Y130500D02*
Y155000D01*
Y158100D02*
Y177700D01*
X4300Y130500D02*
Y155000D01*
Y158200D02*
Y177700D01*
X4200Y130500D02*
Y155100D01*
Y158300D02*
Y177700D01*
X4100Y130500D02*
Y155200D01*
Y158300D02*
Y177700D01*
X4000Y130500D02*
Y155200D01*
Y158400D02*
Y177700D01*
X3900Y130500D02*
Y155300D01*
Y158400D02*
Y177700D01*
X3800Y130500D02*
Y155400D01*
Y158500D02*
Y177700D01*
X3700Y130500D02*
Y155400D01*
Y158500D02*
Y177700D01*
X3600Y130500D02*
Y155500D01*
Y158600D02*
Y177700D01*
X3500Y130500D02*
Y155600D01*
Y158700D02*
Y177700D01*
X3400Y130500D02*
Y155700D01*
Y158700D02*
Y177700D01*
X3300Y130500D02*
Y155800D01*
Y158800D02*
Y177700D01*
X3200Y130500D02*
Y155900D01*
Y158800D02*
Y177700D01*
X3100Y130500D02*
Y156000D01*
Y158900D02*
Y177700D01*
X3000Y130500D02*
Y156000D01*
Y159000D02*
Y177700D01*
X2900Y130500D02*
Y156100D01*
Y159000D02*
Y177700D01*
X2800Y130500D02*
Y156100D01*
Y159100D02*
Y177700D01*
X2700Y130500D02*
Y156200D01*
Y159100D02*
Y177700D01*
X2600Y130500D02*
Y156300D01*
Y159200D02*
Y177700D01*
X2500Y130500D02*
Y156400D01*
Y159300D02*
Y177700D01*
X2400Y130500D02*
Y156400D01*
Y159300D02*
Y177700D01*
X2300Y130500D02*
Y156500D01*
Y159400D02*
Y177700D01*
X2200Y130500D02*
Y156600D01*
Y159400D02*
Y177700D01*
X2100Y130500D02*
Y156700D01*
Y159500D02*
Y177700D01*
X2000Y130500D02*
Y156800D01*
Y159500D02*
Y177700D01*
X1900Y130500D02*
Y156800D01*
Y159600D02*
Y177700D01*
X1800Y130500D02*
Y156900D01*
Y159600D02*
Y177700D01*
X1700Y130500D02*
Y157000D01*
Y159600D02*
Y177700D01*
X1600Y130500D02*
Y177700D01*
X1500Y130500D02*
Y177700D01*
X1400Y130500D02*
Y177700D01*
X1300Y130500D02*
Y177700D01*
X1200Y130500D02*
Y177700D01*
X1100Y130500D02*
Y177700D01*
X1000Y130500D02*
Y177700D01*
X900Y130500D02*
Y177700D01*
X800Y130500D02*
Y177700D01*
X700Y130500D02*
Y177700D01*
X600Y130500D02*
Y177700D01*
X500Y130500D02*
Y177700D01*
X400Y130500D02*
Y177700D01*
D153*
X111020Y199800D02*
X112220D01*
X110780Y199760D02*
X112500D01*
X110540Y199720D02*
X112700D01*
X110380Y199680D02*
X112860D01*
X110260Y199640D02*
X113020D01*
X110100Y199600D02*
X113140D01*
X109980Y199560D02*
X113260D01*
X109860Y199520D02*
X113380D01*
X109780Y199480D02*
X113460D01*
X109700Y199440D02*
X113580D01*
X109580Y199400D02*
X113660D01*
X109500Y199360D02*
X113740D01*
X112020Y199320D02*
X113820D01*
X109420D02*
X111220D01*
X112340Y199280D02*
X113900D01*
X109340D02*
X110900D01*
X112580Y199240D02*
X113980D01*
X109260D02*
X110700D01*
X112740Y199200D02*
X114060D01*
X109180D02*
X110500D01*
X112900Y199160D02*
X114140D01*
X109140D02*
X110380D01*
X113020Y199120D02*
X114220D01*
X109060D02*
X110220D01*
X113140Y199080D02*
X114260D01*
X108980D02*
X110100D01*
X113260Y199040D02*
X114340D01*
X108940D02*
X110020D01*
X113340Y199000D02*
X114380D01*
X108860D02*
X109900D01*
X113420Y198960D02*
X114460D01*
X108820D02*
X109820D01*
X113540Y198920D02*
X114500D01*
X108740D02*
X109740D01*
X113620Y198880D02*
X114580D01*
X108700D02*
X109660D01*
X113700Y198840D02*
X114620D01*
X108620D02*
X109580D01*
X113740Y198800D02*
X114660D01*
X108580D02*
X109500D01*
X113820Y198760D02*
X114700D01*
X108540D02*
X109420D01*
X113900Y198720D02*
X114780D01*
X108500D02*
X109340D01*
X113980Y198680D02*
X114820D01*
X108420D02*
X109300D01*
X114020Y198640D02*
X114860D01*
X108380D02*
X109220D01*
X114100Y198600D02*
X114900D01*
X108340D02*
X109180D01*
X114140Y198560D02*
X114940D01*
X108300D02*
X109100D01*
X114220Y198520D02*
X114980D01*
X108260D02*
X109060D01*
X114260Y198480D02*
X115060D01*
X108220D02*
X108980D01*
X114300Y198440D02*
X115100D01*
X108180D02*
X108940D01*
X114380Y198400D02*
X115140D01*
X108140D02*
X108900D01*
X114420Y198360D02*
X115180D01*
X108100D02*
X108820D01*
X114460Y198320D02*
X115220D01*
X108060D02*
X108780D01*
X114500Y198280D02*
X115260D01*
X111300D02*
X112060D01*
X111220D02*
X111260D01*
X108020D02*
X108740D01*
X114580Y198240D02*
X115260D01*
X110900D02*
X112340D01*
X107980D02*
X108700D01*
X114620Y198200D02*
X115300D01*
X110740D02*
X112540D01*
X107940D02*
X108660D01*
X114660Y198160D02*
X115340D01*
X110540D02*
X112700D01*
X107900D02*
X108580D01*
X114700Y198120D02*
X115380D01*
X110380D02*
X112860D01*
X107860D02*
X108540D01*
X114740Y198080D02*
X115420D01*
X110260D02*
X112980D01*
X107820D02*
X108500D01*
X114780Y198040D02*
X115460D01*
X110140D02*
X113060D01*
X107820D02*
X108460D01*
X114820Y198000D02*
X115500D01*
X110020D02*
X113180D01*
X107780D02*
X108420D01*
X114860Y197960D02*
X115500D01*
X109940D02*
X113260D01*
X107740D02*
X108380D01*
X114900Y197920D02*
X115540D01*
X111780D02*
X113340D01*
X109820D02*
X111260D01*
X107700D02*
X108340D01*
X114940Y197880D02*
X115580D01*
X111820D02*
X113420D01*
X109740D02*
X111300D01*
X107660D02*
X108340D01*
X114980Y197840D02*
X115620D01*
X111820D02*
X113500D01*
X110820D02*
X111300D01*
X109660D02*
X110660D01*
X107660D02*
X108300D01*
X115020Y197800D02*
X115620D01*
X111860D02*
X113580D01*
X110860D02*
X111340D01*
X109580D02*
X110500D01*
X107620D02*
X108260D01*
X115020Y197760D02*
X115660D01*
X111860D02*
X113620D01*
X110900D02*
X111340D01*
X109540D02*
X110380D01*
X107580D02*
X108220D01*
X115060Y197720D02*
X115700D01*
X111900D02*
X113700D01*
X110900D02*
X111380D01*
X109460D02*
X110260D01*
X107540D02*
X108180D01*
X115100Y197680D02*
X115740D01*
X111900D02*
X113740D01*
X110940D02*
X111420D01*
X109420D02*
X110140D01*
X107540D02*
X108140D01*
X115140Y197640D02*
X115740D01*
X111940D02*
X113820D01*
X110940D02*
X111420D01*
X109340D02*
X110020D01*
X107500D02*
X108100D01*
X115180Y197600D02*
X115780D01*
X111940D02*
X113860D01*
X110980D02*
X111460D01*
X109300D02*
X109940D01*
X107460D02*
X108100D01*
X115180Y197560D02*
X115820D01*
X111980D02*
X113940D01*
X110980D02*
X111460D01*
X109220D02*
X109860D01*
X107460D02*
X108060D01*
X115220Y197520D02*
X115820D01*
X111980D02*
X113980D01*
X111020D02*
X111500D01*
X109180D02*
X109780D01*
X107420D02*
X108020D01*
X115260Y197480D02*
X115860D01*
X112020D02*
X114020D01*
X111020D02*
X111500D01*
X109140D02*
X109700D01*
X107380D02*
X107980D01*
X115300Y197440D02*
X115860D01*
X112060D02*
X114060D01*
X111060D02*
X111540D01*
X109100D02*
X109660D01*
X107380D02*
X107980D01*
X115300Y197400D02*
X115900D01*
X112060D02*
X114100D01*
X111060D02*
X111540D01*
X109060D02*
X109580D01*
X107340D02*
X107940D01*
X115340Y197360D02*
X115940D01*
X112100D02*
X114140D01*
X111100D02*
X111580D01*
X109020D02*
X109540D01*
X107340D02*
X107900D01*
X115380Y197320D02*
X115940D01*
X112100D02*
X114180D01*
X111100D02*
X111580D01*
X108980D02*
X109460D01*
X107300D02*
X107900D01*
X115380Y197280D02*
X115980D01*
X112140D02*
X114220D01*
X111140D02*
X111620D01*
X108940D02*
X109420D01*
X107300D02*
X107860D01*
X115420Y197240D02*
X115980D01*
X112140D02*
X114260D01*
X111140D02*
X111660D01*
X108900D02*
X109380D01*
X107260D02*
X107860D01*
X115460Y197200D02*
X116020D01*
X112180D02*
X114300D01*
X111180D02*
X111660D01*
X108860D02*
X109340D01*
X107260D02*
X107820D01*
X115460Y197160D02*
X116020D01*
X112180D02*
X114340D01*
X111220D02*
X111700D01*
X108820D02*
X109340D01*
X107220D02*
X107780D01*
X115500Y197120D02*
X116060D01*
X112220D02*
X114380D01*
X111220D02*
X111700D01*
X108780D02*
X109340D01*
X107180D02*
X107780D01*
X115500Y197080D02*
X116060D01*
X112220D02*
X114380D01*
X111260D02*
X111740D01*
X108780D02*
X109380D01*
X107180D02*
X107740D01*
X115540Y197040D02*
X116100D01*
X112260D02*
X114420D01*
X111260D02*
X111740D01*
X108740D02*
X109380D01*
X107180D02*
X107740D01*
X115540Y197000D02*
X116100D01*
X112260D02*
X114460D01*
X111300D02*
X111780D01*
X108700D02*
X109420D01*
X107140D02*
X107700D01*
X115580Y196960D02*
X116140D01*
X112300D02*
X114460D01*
X111300D02*
X111780D01*
X108700D02*
X109420D01*
X107140D02*
X107700D01*
X115580Y196920D02*
X116140D01*
X112300D02*
X114500D01*
X111340D02*
X111820D01*
X108660D02*
X109460D01*
X107100D02*
X107660D01*
X115620Y196880D02*
X116180D01*
X112340D02*
X114500D01*
X111340D02*
X111820D01*
X108660D02*
X109460D01*
X107100D02*
X107660D01*
X115620Y196840D02*
X116180D01*
X112380D02*
X114540D01*
X111380D02*
X111860D01*
X108620D02*
X109500D01*
X107060D02*
X107620D01*
X115660Y196800D02*
X116180D01*
X112380D02*
X114540D01*
X111380D02*
X111860D01*
X108620D02*
X109500D01*
X107060D02*
X107620D01*
X115660Y196760D02*
X116220D01*
X112420D02*
X114580D01*
X111420D02*
X111900D01*
X108580D02*
X109540D01*
X107020D02*
X107580D01*
X115700Y196720D02*
X116220D01*
X112420D02*
X114580D01*
X111420D02*
X111940D01*
X108580D02*
X109580D01*
X107020D02*
X107580D01*
X115700Y196680D02*
X116260D01*
X112460D02*
X114620D01*
X111460D02*
X111940D01*
X108540D02*
X109580D01*
X107020D02*
X107540D01*
X115740Y196640D02*
X116260D01*
X112460D02*
X114620D01*
X111500D02*
X111980D01*
X108540D02*
X109620D01*
X106980D02*
X107540D01*
X115740Y196600D02*
X116260D01*
X112500D02*
X114660D01*
X111500D02*
X111980D01*
X108540D02*
X109620D01*
X106980D02*
X107500D01*
X115740Y196560D02*
X116300D01*
X112500D02*
X114660D01*
X111540D02*
X112020D01*
X108500D02*
X109660D01*
X106980D02*
X107500D01*
X115780Y196520D02*
X116300D01*
X112540D02*
X114660D01*
X111540D02*
X112020D01*
X108500D02*
X109660D01*
X106940D02*
X107460D01*
X115780Y196480D02*
X116300D01*
X112580D02*
X114700D01*
X111580D02*
X112060D01*
X108500D02*
X109700D01*
X106940D02*
X107460D01*
X115820Y196440D02*
X116340D01*
X112580D02*
X114700D01*
X111580D02*
X112060D01*
X108460D02*
X109700D01*
X106940D02*
X107460D01*
X115820Y196400D02*
X116340D01*
X112580D02*
X114700D01*
X111620D02*
X112100D01*
X108460D02*
X109740D01*
X106900D02*
X107420D01*
X115820Y196360D02*
X116340D01*
X112620D02*
X114700D01*
X111620D02*
X112100D01*
X108460D02*
X109740D01*
X106900D02*
X107420D01*
X115860Y196320D02*
X116380D01*
X112660D02*
X114740D01*
X111660D02*
X112140D01*
X108420D02*
X109780D01*
X106900D02*
X107420D01*
X115860Y196280D02*
X116380D01*
X112660D02*
X114740D01*
X111660D02*
X112140D01*
X108420D02*
X109780D01*
X106860D02*
X107380D01*
X115860Y196240D02*
X116380D01*
X112700D02*
X114740D01*
X111700D02*
X112180D01*
X108420D02*
X109820D01*
X106860D02*
X107380D01*
X115900Y196200D02*
X116420D01*
X112700D02*
X114740D01*
X111700D02*
X112180D01*
X108420D02*
X109860D01*
X106860D02*
X107380D01*
X115900Y196160D02*
X116420D01*
X112740D02*
X114740D01*
X111740D02*
X112220D01*
X108420D02*
X109860D01*
X106860D02*
X107340D01*
X115900Y196120D02*
X116420D01*
X112740D02*
X114780D01*
X111740D02*
X112260D01*
X108380D02*
X109900D01*
X106820D02*
X107340D01*
X115900Y196080D02*
X116420D01*
X112780D02*
X114780D01*
X111780D02*
X112260D01*
X108380D02*
X109900D01*
X106820D02*
X107340D01*
X115940Y196040D02*
X116460D01*
X112780D02*
X114780D01*
X111820D02*
X112300D01*
X108380D02*
X109940D01*
X106820D02*
X107340D01*
X115940Y196000D02*
X116460D01*
X112820D02*
X114780D01*
X111820D02*
X112300D01*
X108380D02*
X109940D01*
X106820D02*
X107300D01*
X115940Y195960D02*
X116460D01*
X112820D02*
X114780D01*
X111860D02*
X112340D01*
X108380D02*
X109980D01*
X106780D02*
X107300D01*
X115940Y195920D02*
X116460D01*
X112860D02*
X114780D01*
X111860D02*
X112340D01*
X108380D02*
X109980D01*
X106780D02*
X107300D01*
X115980Y195880D02*
X116460D01*
X112900D02*
X114780D01*
X111900D02*
X112380D01*
X108380D02*
X110020D01*
X106780D02*
X107300D01*
X115980Y195840D02*
X116500D01*
X112900D02*
X114780D01*
X111900D02*
X112380D01*
X108380D02*
X110020D01*
X106780D02*
X107300D01*
X115980Y195800D02*
X116500D01*
X112940D02*
X114780D01*
X111940D02*
X112420D01*
X108380D02*
X110060D01*
X106780D02*
X107260D01*
X115980Y195760D02*
X116500D01*
X112940D02*
X114780D01*
X111940D02*
X112420D01*
X108380D02*
X110060D01*
X106740D02*
X107260D01*
X115980Y195720D02*
X116500D01*
X112980D02*
X114780D01*
X111980D02*
X112460D01*
X108380D02*
X110100D01*
X106740D02*
X107260D01*
X116020Y195680D02*
X116500D01*
X112980D02*
X114780D01*
X111980D02*
X112460D01*
X108380D02*
X110100D01*
X106740D02*
X107260D01*
X116020Y195640D02*
X116500D01*
X113020D02*
X114780D01*
X112020D02*
X112500D01*
X108380D02*
X110140D01*
X106740D02*
X107260D01*
X116020Y195600D02*
X116540D01*
X113020D02*
X114780D01*
X112060D02*
X112540D01*
X108380D02*
X110180D01*
X106740D02*
X107220D01*
X116020Y195560D02*
X116540D01*
X113060D02*
X114780D01*
X112060D02*
X112540D01*
X108380D02*
X110180D01*
X106740D02*
X107220D01*
X116020Y195520D02*
X116540D01*
X113060D02*
X114780D01*
X112100D02*
X112580D01*
X108380D02*
X110220D01*
X106740D02*
X107220D01*
X116020Y195480D02*
X116540D01*
X113100D02*
X114780D01*
X112100D02*
X112580D01*
X108380D02*
X110220D01*
X106700D02*
X107220D01*
X116020Y195440D02*
X116540D01*
X113100D02*
X114740D01*
X112140D02*
X112620D01*
X108420D02*
X110260D01*
X106700D02*
X107220D01*
X116060Y195400D02*
X116540D01*
X113140D02*
X114740D01*
X112140D02*
X112620D01*
X108420D02*
X110260D01*
X106700D02*
X107220D01*
X116060Y195360D02*
X116540D01*
X113140D02*
X114740D01*
X112180D02*
X112660D01*
X108420D02*
X110300D01*
X106700D02*
X107220D01*
X116060Y195320D02*
X116540D01*
X113180D02*
X114740D01*
X112180D02*
X112660D01*
X108420D02*
X110300D01*
X106700D02*
X107220D01*
X116060Y195280D02*
X116540D01*
X113220D02*
X114700D01*
X112220D02*
X112700D01*
X108460D02*
X110340D01*
X106700D02*
X107220D01*
X116060Y195240D02*
X116540D01*
X113220D02*
X114700D01*
X112220D02*
X112700D01*
X108460D02*
X110340D01*
X106700D02*
X107220D01*
X116060Y195200D02*
X116540D01*
X113260D02*
X114700D01*
X112260D02*
X112740D01*
X108460D02*
X110380D01*
X106700D02*
X107180D01*
X116060Y195160D02*
X116580D01*
X113260D02*
X114660D01*
X112260D02*
X112740D01*
X108500D02*
X110380D01*
X106700D02*
X107180D01*
X116060Y195120D02*
X116580D01*
X113300D02*
X114660D01*
X112300D02*
X112780D01*
X108500D02*
X110420D01*
X106700D02*
X107180D01*
X116060Y195080D02*
X116580D01*
X113300D02*
X114620D01*
X112300D02*
X112820D01*
X108540D02*
X110420D01*
X106700D02*
X107180D01*
X116060Y195040D02*
X116580D01*
X113340D02*
X114620D01*
X110940D02*
X112820D01*
X108540D02*
X110460D01*
X106700D02*
X107180D01*
X116060Y195000D02*
X116580D01*
X113340D02*
X114580D01*
X110620D02*
X112860D01*
X108580D02*
X110500D01*
X106700D02*
X107180D01*
X116060Y194960D02*
X116580D01*
X113380D02*
X114580D01*
X108580D02*
X113020D01*
X106700D02*
X107180D01*
X116060Y194920D02*
X116580D01*
X108620D02*
X114540D01*
X106700D02*
X107180D01*
X116060Y194880D02*
X116580D01*
X108660D02*
X114500D01*
X106700D02*
X107180D01*
X116060Y194840D02*
X116580D01*
X108700D02*
X114460D01*
X106700D02*
X107180D01*
X116060Y194800D02*
X116580D01*
X108740D02*
X114420D01*
X106700D02*
X107180D01*
X116060Y194760D02*
X116580D01*
X108780D02*
X114340D01*
X106700D02*
X107180D01*
X116060Y194720D02*
X116540D01*
X112100D02*
X114260D01*
X108860D02*
X111220D01*
X106700D02*
X107220D01*
X116060Y194680D02*
X116540D01*
X112540D02*
X114140D01*
X108940D02*
X110740D01*
X106700D02*
X107220D01*
X116060Y194640D02*
X116540D01*
X112860D02*
X114020D01*
X109020D02*
X110460D01*
X106700D02*
X107220D01*
X116060Y194600D02*
X116540D01*
X113140D02*
X113860D01*
X109180D02*
X110100D01*
X106700D02*
X107220D01*
X116060Y194560D02*
X116540D01*
X106700D02*
X107220D01*
X116020Y194520D02*
X116540D01*
X106700D02*
X107220D01*
X116020Y194480D02*
X116540D01*
X106700D02*
X107220D01*
X116020Y194440D02*
X116540D01*
X106700D02*
X107220D01*
X116020Y194400D02*
X116540D01*
X106740D02*
X107220D01*
X116020Y194360D02*
X116540D01*
X106740D02*
X107220D01*
X116020Y194320D02*
X116500D01*
X106740D02*
X107260D01*
X115980Y194280D02*
X116500D01*
X106740D02*
X107260D01*
X115980Y194240D02*
X116500D01*
X106740D02*
X107260D01*
X115980Y194200D02*
X116500D01*
X106740D02*
X107260D01*
X115980Y194160D02*
X116500D01*
X106780D02*
X107260D01*
X115980Y194120D02*
X116460D01*
X106780D02*
X107300D01*
X115940Y194080D02*
X116460D01*
X106780D02*
X107300D01*
X115940Y194040D02*
X116460D01*
X106780D02*
X107300D01*
X115940Y194000D02*
X116460D01*
X106820D02*
X107300D01*
X115900Y193960D02*
X116420D01*
X106820D02*
X107340D01*
X115900Y193920D02*
X116420D01*
X106820D02*
X107340D01*
X115900Y193880D02*
X116420D01*
X106820D02*
X107340D01*
X115860Y193840D02*
X116380D01*
X106860D02*
X107380D01*
X115860Y193800D02*
X116380D01*
X106860D02*
X107380D01*
X115860Y193760D02*
X116380D01*
X106860D02*
X107420D01*
X115820Y193720D02*
X116340D01*
X106900D02*
X107420D01*
X115820Y193680D02*
X116340D01*
X106900D02*
X107420D01*
X115780Y193640D02*
X116340D01*
X106900D02*
X107460D01*
X115780Y193600D02*
X116300D01*
X106940D02*
X107460D01*
X115740Y193560D02*
X116300D01*
X106940D02*
X107500D01*
X115700Y193520D02*
X116260D01*
X106980D02*
X107500D01*
X115700Y193480D02*
X116260D01*
X106980D02*
X107540D01*
X115660Y193440D02*
X116260D01*
X106980D02*
X107580D01*
X115660Y193400D02*
X116220D01*
X107020D02*
X107580D01*
X115620Y193360D02*
X116180D01*
X107060D02*
X107620D01*
X115580Y193320D02*
X116180D01*
X107060D02*
X107660D01*
X115540Y193280D02*
X116140D01*
X107100D02*
X107660D01*
X115500Y193240D02*
X116140D01*
X107100D02*
X107700D01*
X115500Y193200D02*
X116100D01*
X107140D02*
X107740D01*
X115460Y193160D02*
X116060D01*
X107140D02*
X107780D01*
X115420Y193120D02*
X116060D01*
X107180D02*
X107820D01*
X115380Y193080D02*
X116020D01*
X107220D02*
X107860D01*
X115340Y193040D02*
X115980D01*
X107220D02*
X107900D01*
X115300Y193000D02*
X115980D01*
X107260D02*
X107940D01*
X115220Y192960D02*
X115940D01*
X107300D02*
X107980D01*
X115180Y192920D02*
X115900D01*
X107340D02*
X108020D01*
X115140Y192880D02*
X115860D01*
X107340D02*
X108060D01*
X115060Y192840D02*
X115820D01*
X107380D02*
X108140D01*
X115020Y192800D02*
X115780D01*
X107420D02*
X108180D01*
X114940Y192760D02*
X115740D01*
X107460D02*
X108260D01*
X114900Y192720D02*
X115700D01*
X107500D02*
X108300D01*
X114820Y192680D02*
X115660D01*
X107540D02*
X108380D01*
X114740Y192640D02*
X115620D01*
X107580D02*
X108460D01*
X114660Y192600D02*
X115580D01*
X107620D02*
X108540D01*
X114580Y192560D02*
X115540D01*
X107660D02*
X108620D01*
X114500Y192520D02*
X115500D01*
X107740D02*
X108700D01*
X114380Y192480D02*
X115420D01*
X107780D02*
X108780D01*
X114260Y192440D02*
X115380D01*
X107820D02*
X108900D01*
X114140Y192400D02*
X115340D01*
X107900D02*
X109020D01*
X114020Y192360D02*
X115260D01*
X107940D02*
X109140D01*
X113860Y192320D02*
X115180D01*
X108020D02*
X109300D01*
X113700Y192280D02*
X115140D01*
X108020D02*
X109460D01*
X113500Y192240D02*
X115100D01*
X107980D02*
X109660D01*
X113260Y192200D02*
X115140D01*
X107940D02*
X109900D01*
X112940Y192160D02*
X115180D01*
X107900D02*
X110180D01*
X112500Y192120D02*
X115220D01*
X107860D02*
X110660D01*
X107820Y192080D02*
X115260D01*
X107780Y192040D02*
X115300D01*
X107740Y192000D02*
X115340D01*
X107700Y191960D02*
X115340D01*
X107660Y191920D02*
X115380D01*
X107660Y191880D02*
X115420D01*
X107620Y191840D02*
X115460D01*
X107580Y191800D02*
X115460D01*
X107580Y191760D02*
X115500D01*
X107540Y191720D02*
X115540D01*
X107500Y191680D02*
X115540D01*
X107500Y191640D02*
X115580D01*
X107380Y191600D02*
X115660D01*
X107300Y191560D02*
X115740D01*
X107220Y191520D02*
X115820D01*
X107140Y191480D02*
X115900D01*
X107100Y191440D02*
X115980D01*
X107020Y191400D02*
X116020D01*
X106980Y191360D02*
X116100D01*
X106940Y191320D02*
X116140D01*
X106860Y191280D02*
X116180D01*
X106820Y191240D02*
X116220D01*
X106780Y191200D02*
X116260D01*
X106740Y191160D02*
X116300D01*
X106700Y191120D02*
X116340D01*
X106660Y191080D02*
X116380D01*
X106620Y191040D02*
X116420D01*
X106580Y191000D02*
X116460D01*
X107300Y190960D02*
X116500D01*
X106540D02*
X107260D01*
X115820Y190920D02*
X116540D01*
X107300D02*
X115780D01*
X106540D02*
X107220D01*
X115900Y190880D02*
X116540D01*
X107300D02*
X115780D01*
X106500D02*
X107180D01*
X115940Y190840D02*
X116580D01*
X107300D02*
X115780D01*
X106460D02*
X107140D01*
X115980Y190800D02*
X116620D01*
X107300D02*
X115780D01*
X106460D02*
X107100D01*
X116020Y190760D02*
X116660D01*
X107300D02*
X115780D01*
X106420D02*
X107060D01*
X116060Y190720D02*
X116660D01*
X107300D02*
X115780D01*
X106380D02*
X107020D01*
X116100Y190680D02*
X116700D01*
X107300D02*
X115780D01*
X106380D02*
X106980D01*
X116100Y190640D02*
X116700D01*
X107300D02*
X115780D01*
X106340D02*
X106940D01*
X116140Y190600D02*
X116740D01*
X107300D02*
X115780D01*
X106340D02*
X106900D01*
X116180Y190560D02*
X116740D01*
X107300D02*
X115780D01*
X106300D02*
X106900D01*
X116220Y190520D02*
X116780D01*
X107300D02*
X115780D01*
X106300D02*
X106860D01*
X116220Y190480D02*
X116780D01*
X107300D02*
X115780D01*
X106260D02*
X106820D01*
X116260Y190440D02*
X116820D01*
X107300D02*
X115780D01*
X106260D02*
X106820D01*
X116260Y190400D02*
X116820D01*
X107300D02*
X115780D01*
X106220D02*
X106780D01*
X116300Y190360D02*
X116820D01*
X107300D02*
X115780D01*
X106220D02*
X106780D01*
X116300Y190320D02*
X116860D01*
X107300D02*
X115740D01*
X106220D02*
X106740D01*
X116340Y190280D02*
X116860D01*
X107300D02*
X115740D01*
X106180D02*
X106740D01*
X116340Y190240D02*
X116860D01*
X107300D02*
X115740D01*
X106180D02*
X106700D01*
X116380Y190200D02*
X116900D01*
X107340D02*
X115740D01*
X106180D02*
X106700D01*
X116380Y190160D02*
X116900D01*
X107340D02*
X115740D01*
X106140D02*
X106660D01*
X116380Y190120D02*
X116900D01*
X114220D02*
X115740D01*
X108940D02*
X114140D01*
X107340D02*
X108860D01*
X106140D02*
X106660D01*
X116420Y190080D02*
X116940D01*
X114260D02*
X115700D01*
X109020D02*
X114060D01*
X107340D02*
X108780D01*
X106140D02*
X106660D01*
X116420Y190040D02*
X116940D01*
X114300D02*
X115700D01*
X109060D02*
X113980D01*
X107340D02*
X108740D01*
X106140D02*
X106620D01*
X116420Y190000D02*
X116940D01*
X114340D02*
X115700D01*
X109100D02*
X113940D01*
X107380D02*
X108740D01*
X106100D02*
X106620D01*
X116460Y189960D02*
X116940D01*
X114340D02*
X115700D01*
X109140D02*
X113900D01*
X107380D02*
X108740D01*
X106100D02*
X106620D01*
X116460Y189920D02*
X116940D01*
X114340D02*
X115700D01*
X109180D02*
X113860D01*
X107380D02*
X108740D01*
X106100D02*
X106620D01*
X116460Y189880D02*
X116980D01*
X114340D02*
X115660D01*
X109220D02*
X113860D01*
X107380D02*
X108700D01*
X106100D02*
X106620D01*
X116460Y189840D02*
X116980D01*
X114340D02*
X115660D01*
X109260D02*
X113820D01*
X107420D02*
X108700D01*
X106100D02*
X106580D01*
X116460Y189800D02*
X116980D01*
X114340D02*
X115660D01*
X109260D02*
X113780D01*
X107420D02*
X108700D01*
X106100D02*
X106580D01*
X116460Y189760D02*
X116980D01*
X114340D02*
X115620D01*
X109300D02*
X113780D01*
X107420D02*
X108740D01*
X106100D02*
X106580D01*
X116460Y189720D02*
X116980D01*
X114340D02*
X115620D01*
X109300D02*
X113740D01*
X107420D02*
X108740D01*
X106060D02*
X106580D01*
X116460Y189680D02*
X116980D01*
X114340D02*
X115620D01*
X109340D02*
X113740D01*
X107460D02*
X108740D01*
X106060D02*
X106580D01*
X116500Y189640D02*
X116980D01*
X114340D02*
X115580D01*
X109340D02*
X113700D01*
X107460D02*
X108740D01*
X106060D02*
X106580D01*
X116500Y189600D02*
X116980D01*
X114300D02*
X115580D01*
X109380D02*
X113700D01*
X107500D02*
X108740D01*
X106060D02*
X106580D01*
X116500Y189560D02*
X116980D01*
X114300D02*
X115540D01*
X109380D02*
X113660D01*
X107500D02*
X108740D01*
X106060D02*
X106580D01*
X116500Y189520D02*
X116980D01*
X114300D02*
X115540D01*
X109420D02*
X113660D01*
X107540D02*
X108780D01*
X106060D02*
X106580D01*
X116500Y189480D02*
X116980D01*
X114300D02*
X115540D01*
X109420D02*
X113620D01*
X107540D02*
X108780D01*
X106060D02*
X106580D01*
X116460Y189440D02*
X116980D01*
X114300D02*
X115500D01*
X109460D02*
X113620D01*
X107540D02*
X108780D01*
X106060D02*
X106580D01*
X116460Y189400D02*
X116980D01*
X114260D02*
X115500D01*
X109460D02*
X113580D01*
X107580D02*
X108780D01*
X106100D02*
X106580D01*
X116460Y189360D02*
X116980D01*
X114260D02*
X115460D01*
X109500D02*
X113580D01*
X107580D02*
X108780D01*
X106100D02*
X106580D01*
X116460Y189320D02*
X116980D01*
X114260D02*
X115460D01*
X109500D02*
X113580D01*
X107620D02*
X108820D01*
X106100D02*
X106580D01*
X116420Y189280D02*
X116980D01*
X114260D02*
X115420D01*
X109500D02*
X113540D01*
X107620D02*
X108820D01*
X106100D02*
X106620D01*
X116380Y189240D02*
X116940D01*
X114220D02*
X115420D01*
X109540D02*
X113540D01*
X107660D02*
X108820D01*
X106100D02*
X106660D01*
X116340Y189200D02*
X116940D01*
X114220D02*
X115380D01*
X109540D02*
X113500D01*
X107660D02*
X108820D01*
X106100D02*
X106700D01*
X116300Y189160D02*
X116940D01*
X114220D02*
X115380D01*
X109540D02*
X113500D01*
X107700D02*
X108860D01*
X106100D02*
X106740D01*
X116260Y189120D02*
X116940D01*
X114220D02*
X115340D01*
X109580D02*
X113500D01*
X107700D02*
X108860D01*
X106100D02*
X106780D01*
X116220Y189080D02*
X116940D01*
X114180D02*
X115340D01*
X109580D02*
X113460D01*
X107740D02*
X108860D01*
X106140D02*
X106820D01*
X116180Y189040D02*
X116900D01*
X114180D02*
X115300D01*
X109580D02*
X113460D01*
X107740D02*
X108860D01*
X106140D02*
X106900D01*
X116100Y189000D02*
X116900D01*
X114180D02*
X115300D01*
X109620D02*
X113460D01*
X107740D02*
X108900D01*
X106140D02*
X106940D01*
X116020Y188960D02*
X116900D01*
X114180D02*
X115300D01*
X109620D02*
X113420D01*
X107780D02*
X108900D01*
X106180D02*
X107020D01*
X115940Y188920D02*
X116860D01*
X114140D02*
X115260D01*
X109660D02*
X113420D01*
X107780D02*
X108900D01*
X106180D02*
X107140D01*
X115820Y188880D02*
X116860D01*
X114140D02*
X115260D01*
X109660D02*
X113420D01*
X107820D02*
X108900D01*
X106180D02*
X107260D01*
X115700Y188840D02*
X116860D01*
X114140D02*
X115220D01*
X109660D02*
X113380D01*
X107580D02*
X108940D01*
X106220D02*
X107540D01*
X114140Y188800D02*
X116820D01*
X109700D02*
X113380D01*
X106220D02*
X108940D01*
X114100Y188760D02*
X116820D01*
X109700D02*
X113380D01*
X106220D02*
X108940D01*
X114100Y188720D02*
X116820D01*
X109700D02*
X113340D01*
X106260D02*
X108940D01*
X114100Y188680D02*
X116780D01*
X109740D02*
X113340D01*
X106260D02*
X108980D01*
X114100Y188640D02*
X116740D01*
X109740D02*
X113300D01*
X106300D02*
X108980D01*
X114060Y188600D02*
X116740D01*
X109780D02*
X113300D01*
X106340D02*
X108980D01*
X114060Y188560D02*
X116700D01*
X109780D02*
X113300D01*
X106340D02*
X109020D01*
X114060Y188520D02*
X116700D01*
X109780D02*
X113260D01*
X106380D02*
X109020D01*
X114020Y188480D02*
X116660D01*
X109820D02*
X113260D01*
X106380D02*
X109020D01*
X114020Y188440D02*
X116620D01*
X109820D02*
X113220D01*
X106420D02*
X109020D01*
X116020Y188400D02*
X116620D01*
X114020D02*
X115980D01*
X109820D02*
X113220D01*
X107140D02*
X109060D01*
X106420D02*
X107020D01*
X116020Y188360D02*
X116580D01*
X114020D02*
X115820D01*
X109860D02*
X113220D01*
X108060D02*
X109060D01*
X107340D02*
X107900D01*
X106460D02*
X107060D01*
X115980Y188320D02*
X116580D01*
X115260D02*
X115500D01*
X113980D02*
X114980D01*
X109860D02*
X113180D01*
X108060D02*
X109060D01*
X106500D02*
X107060D01*
X115980Y188280D02*
X116540D01*
X113980D02*
X114980D01*
X109900D02*
X113180D01*
X108100D02*
X109100D01*
X106500D02*
X107100D01*
X115940Y188240D02*
X116500D01*
X113980D02*
X114940D01*
X109900D02*
X113140D01*
X108100D02*
X109100D01*
X106540D02*
X107100D01*
X115900Y188200D02*
X116500D01*
X113940D02*
X114940D01*
X109900D02*
X113140D01*
X108140D02*
X109100D01*
X106540D02*
X107140D01*
X115900Y188160D02*
X116460D01*
X113940D02*
X114900D01*
X109940D02*
X113140D01*
X108140D02*
X109100D01*
X106580D02*
X107180D01*
X115860Y188120D02*
X116460D01*
X113940D02*
X114900D01*
X109940D02*
X113100D01*
X108180D02*
X109140D01*
X106620D02*
X107180D01*
X115860Y188080D02*
X116420D01*
X113940D02*
X114860D01*
X109980D02*
X113100D01*
X108180D02*
X109140D01*
X106620D02*
X107220D01*
X115820Y188040D02*
X116420D01*
X113900D02*
X114860D01*
X109980D02*
X113060D01*
X108220D02*
X109140D01*
X106660D02*
X107220D01*
X115780Y188000D02*
X116380D01*
X113900D02*
X114860D01*
X109980D02*
X113060D01*
X108220D02*
X109180D01*
X106660D02*
X107260D01*
X115780Y187960D02*
X116340D01*
X113900D02*
X114820D01*
X110020D02*
X113060D01*
X108220D02*
X109180D01*
X106700D02*
X107300D01*
X115740Y187920D02*
X116340D01*
X113860D02*
X114820D01*
X110020D02*
X113020D01*
X108260D02*
X109180D01*
X106740D02*
X107300D01*
X115740Y187880D02*
X116300D01*
X113860D02*
X114780D01*
X110060D02*
X113020D01*
X108260D02*
X109180D01*
X106740D02*
X107340D01*
X115700Y187840D02*
X116300D01*
X113860D02*
X114780D01*
X110060D02*
X112980D01*
X108300D02*
X109220D01*
X106780D02*
X107340D01*
X115660Y187800D02*
X116260D01*
X113860D02*
X114740D01*
X110100D02*
X112980D01*
X108300D02*
X109220D01*
X106780D02*
X107380D01*
X115660Y187760D02*
X116220D01*
X113820D02*
X114740D01*
X110100D02*
X112980D01*
X108340D02*
X109220D01*
X106820D02*
X107420D01*
X115620Y187720D02*
X116220D01*
X113820D02*
X114700D01*
X110100D02*
X112940D01*
X108340D02*
X109260D01*
X106860D02*
X107420D01*
X115620Y187680D02*
X116180D01*
X113820D02*
X114700D01*
X110140D02*
X112940D01*
X108380D02*
X109260D01*
X106860D02*
X107460D01*
X115580Y187640D02*
X116180D01*
X113780D02*
X114660D01*
X110140D02*
X112900D01*
X108380D02*
X109260D01*
X106900D02*
X107460D01*
X115540Y187600D02*
X116140D01*
X113780D02*
X114660D01*
X110180D02*
X112900D01*
X108420D02*
X109260D01*
X106900D02*
X107500D01*
X115540Y187560D02*
X116100D01*
X113780D02*
X114620D01*
X110180D02*
X112900D01*
X108420D02*
X109300D01*
X106940D02*
X107540D01*
X115500Y187520D02*
X116100D01*
X113740D02*
X114620D01*
X110180D02*
X112860D01*
X108420D02*
X109300D01*
X106980D02*
X107540D01*
X115500Y187480D02*
X116060D01*
X113740D02*
X114620D01*
X110220D02*
X112860D01*
X108460D02*
X109300D01*
X106980D02*
X107580D01*
X115460Y187440D02*
X116060D01*
X113740D02*
X114580D01*
X110220D02*
X112820D01*
X108460D02*
X109340D01*
X107020D02*
X107580D01*
X115420Y187400D02*
X116020D01*
X113740D02*
X114580D01*
X110260D02*
X112820D01*
X108500D02*
X109340D01*
X107020D02*
X107620D01*
X115420Y187360D02*
X115980D01*
X113700D02*
X114540D01*
X110260D02*
X112780D01*
X108500D02*
X109340D01*
X107060D02*
X107660D01*
X115380Y187320D02*
X115980D01*
X113700D02*
X114540D01*
X110300D02*
X112780D01*
X108540D02*
X109380D01*
X107100D02*
X107660D01*
X115380Y187280D02*
X115940D01*
X113700D02*
X114500D01*
X110300D02*
X112780D01*
X108540D02*
X109380D01*
X107100D02*
X107700D01*
X115340Y187240D02*
X115940D01*
X113660D02*
X114500D01*
X110300D02*
X112740D01*
X108580D02*
X109380D01*
X107140D02*
X107700D01*
X115340Y187200D02*
X115900D01*
X113660D02*
X114460D01*
X110340D02*
X112740D01*
X108580D02*
X109420D01*
X107140D02*
X107740D01*
X115300Y187160D02*
X115860D01*
X113660D02*
X114460D01*
X110340D02*
X112700D01*
X108620D02*
X109420D01*
X107180D02*
X107780D01*
X115260Y187120D02*
X115860D01*
X113620D02*
X114420D01*
X110380D02*
X112700D01*
X108620D02*
X109420D01*
X107220D02*
X107780D01*
X115260Y187080D02*
X115820D01*
X113620D02*
X114420D01*
X110380D02*
X112660D01*
X108620D02*
X109420D01*
X107220D02*
X107820D01*
X115220Y187040D02*
X115820D01*
X113620D02*
X114460D01*
X110380D02*
X112660D01*
X108620D02*
X109460D01*
X107260D02*
X107820D01*
X115180Y187000D02*
X115780D01*
X113580D02*
X114420D01*
X110420D02*
X112660D01*
X108620D02*
X109460D01*
X107300D02*
X107860D01*
X115180Y186960D02*
X115740D01*
X113580D02*
X114460D01*
X110420D02*
X112620D01*
X108620D02*
X109460D01*
X107300D02*
X107900D01*
X115140Y186920D02*
X115740D01*
X113580D02*
X114460D01*
X110460D02*
X112620D01*
X108620D02*
X109500D01*
X107340D02*
X107900D01*
X115140Y186880D02*
X115700D01*
X113580D02*
X114420D01*
X110460D02*
X112580D01*
X108620D02*
X109500D01*
X107340D02*
X107940D01*
X115100Y186840D02*
X115700D01*
X113540D02*
X114420D01*
X110500D02*
X112580D01*
X108660D02*
X109500D01*
X107380D02*
X107940D01*
X115060Y186800D02*
X115660D01*
X113540D02*
X114420D01*
X110500D02*
X112540D01*
X108660D02*
X109540D01*
X107380D02*
X107980D01*
X115060Y186760D02*
X115620D01*
X113540D02*
X114380D01*
X110540D02*
X112540D01*
X108660D02*
X109540D01*
X107420D02*
X108020D01*
X115020Y186720D02*
X115620D01*
X113500D02*
X114340D01*
X110540D02*
X112540D01*
X108700D02*
X109540D01*
X107460D02*
X108020D01*
X115020Y186680D02*
X115580D01*
X113500D02*
X114340D01*
X110540D02*
X112500D01*
X108740D02*
X109580D01*
X107460D02*
X108060D01*
X114980Y186640D02*
X115580D01*
X113500D02*
X114260D01*
X110580D02*
X112500D01*
X108780D02*
X109580D01*
X107500D02*
X108060D01*
X114940Y186600D02*
X115540D01*
X113460D02*
X114220D01*
X110580D02*
X112460D01*
X108820D02*
X109580D01*
X107500D02*
X108100D01*
X114940Y186560D02*
X115500D01*
X113460D02*
X114140D01*
X110620D02*
X112460D01*
X108900D02*
X109580D01*
X107540D02*
X108140D01*
X114900Y186520D02*
X115500D01*
X113460D02*
X114020D01*
X110620D02*
X112420D01*
X109020D02*
X109620D01*
X107580D02*
X108140D01*
X114900Y186480D02*
X115460D01*
X113460D02*
X113820D01*
X110620D02*
X112420D01*
X109260D02*
X109620D01*
X107580D02*
X108180D01*
X114860Y186440D02*
X115460D01*
X110660D02*
X112420D01*
X107620D02*
X108180D01*
X114860Y186400D02*
X115420D01*
X110660D02*
X112380D01*
X107620D02*
X108220D01*
X114820Y186360D02*
X115380D01*
X110700D02*
X112380D01*
X107660D02*
X108260D01*
X114780Y186320D02*
X115380D01*
X110700D02*
X112340D01*
X107700D02*
X108260D01*
X114780Y186280D02*
X115340D01*
X110740D02*
X112340D01*
X107700D02*
X108300D01*
X114740Y186240D02*
X115340D01*
X110740D02*
X112300D01*
X107740D02*
X108300D01*
X114740Y186200D02*
X115300D01*
X110780D02*
X112300D01*
X107740D02*
X108340D01*
X114700Y186160D02*
X115260D01*
X110780D02*
X112300D01*
X107780D02*
X108380D01*
X114660Y186120D02*
X115260D01*
X110780D02*
X112260D01*
X107820D02*
X108380D01*
X114660Y186080D02*
X115220D01*
X110820D02*
X112260D01*
X107820D02*
X108420D01*
X114620Y186040D02*
X115220D01*
X110820D02*
X112220D01*
X107860D02*
X108420D01*
X114620Y186000D02*
X115180D01*
X110860D02*
X112220D01*
X107860D02*
X108460D01*
X114580Y185960D02*
X115140D01*
X110860D02*
X112180D01*
X107900D02*
X108460D01*
X114540Y185920D02*
X115140D01*
X110900D02*
X112180D01*
X107940D02*
X108500D01*
X114540Y185880D02*
X115100D01*
X110900D02*
X112140D01*
X107940D02*
X108540D01*
X114500Y185840D02*
X115100D01*
X110900D02*
X112140D01*
X107980D02*
X108540D01*
X114500Y185800D02*
X115060D01*
X110940D02*
X112140D01*
X107980D02*
X108580D01*
X114460Y185760D02*
X115060D01*
X110940D02*
X112100D01*
X108020D02*
X108580D01*
X114420Y185720D02*
X115020D01*
X110980D02*
X112100D01*
X108060D02*
X108620D01*
X114420Y185680D02*
X114980D01*
X110980D02*
X112060D01*
X108060D02*
X108660D01*
X114380Y185640D02*
X114980D01*
X111020D02*
X112060D01*
X108100D02*
X108660D01*
X114380Y185600D02*
X114940D01*
X111020D02*
X112020D01*
X108100D02*
X108700D01*
X114340Y185560D02*
X114940D01*
X111060D02*
X111980D01*
X108140D02*
X108700D01*
X114300Y185520D02*
X114900D01*
X111100D02*
X111940D01*
X108180D02*
X108740D01*
X114300Y185480D02*
X114860D01*
X111180D02*
X111900D01*
X108180D02*
X108780D01*
X114260Y185440D02*
X114860D01*
X111260D02*
X111780D01*
X108220D02*
X108780D01*
X114220Y185400D02*
X114820D01*
X108220D02*
X108820D01*
X114180Y185360D02*
X114820D01*
X108260D02*
X108860D01*
X114180Y185320D02*
X114780D01*
X108300D02*
X108900D01*
X114140Y185280D02*
X114740D01*
X108300D02*
X108940D01*
X114060Y185240D02*
X114740D01*
X108340D02*
X108980D01*
X114020Y185200D02*
X114700D01*
X108340D02*
X109020D01*
X113980Y185160D02*
X114660D01*
X112460D02*
X112580D01*
X110540D02*
X110620D01*
X108380D02*
X109100D01*
X113900Y185120D02*
X114660D01*
X112420D02*
X112660D01*
X110420D02*
X110660D01*
X108420D02*
X109140D01*
X113820Y185080D02*
X114620D01*
X112420D02*
X112820D01*
X110300D02*
X110660D01*
X108460D02*
X109220D01*
X113740Y185040D02*
X114580D01*
X112420D02*
X113020D01*
X110100D02*
X110660D01*
X108460D02*
X109300D01*
X113540Y185000D02*
X114540D01*
X112420D02*
X113420D01*
X109820D02*
X110660D01*
X109700D02*
X109780D01*
X108500D02*
X109500D01*
X112380Y184960D02*
X114500D01*
X108540D02*
X110700D01*
X112380Y184920D02*
X114460D01*
X108580D02*
X110700D01*
X112380Y184880D02*
X114420D01*
X108620D02*
X110700D01*
X112380Y184840D02*
X114380D01*
X108660D02*
X110740D01*
X112380Y184800D02*
X114340D01*
X108740D02*
X110740D01*
X112340Y184760D02*
X114260D01*
X108780D02*
X110740D01*
X112340Y184720D02*
X114220D01*
X108860D02*
X110740D01*
X112340Y184680D02*
X114140D01*
X108900D02*
X110780D01*
X112340Y184640D02*
X114060D01*
X108980D02*
X110780D01*
X112300Y184600D02*
X113980D01*
X109060D02*
X110780D01*
X112300Y184560D02*
X113860D01*
X109180D02*
X110820D01*
X112300Y184520D02*
X113740D01*
X109340D02*
X110820D01*
X112260Y184480D02*
X113700D01*
X109420D02*
X110820D01*
X112260Y184440D02*
X113700D01*
X109460D02*
X110820D01*
X112260Y184400D02*
X113660D01*
X109500D02*
X110860D01*
X112260Y184360D02*
X113620D01*
X109540D02*
X110860D01*
X112220Y184320D02*
X113580D01*
X109540D02*
X110860D01*
X112220Y184280D02*
X113540D01*
X109580D02*
X110860D01*
X112220Y184240D02*
X113540D01*
X109620D02*
X110900D01*
X112220Y184200D02*
X113500D01*
X109660D02*
X110900D01*
X112180Y184160D02*
X113460D01*
X109660D02*
X110900D01*
X112180Y184120D02*
X113420D01*
X109700D02*
X110900D01*
X112180Y184080D02*
X113380D01*
X109740D02*
X110940D01*
X112140Y184040D02*
X113380D01*
X109780D02*
X110940D01*
X112140Y184000D02*
X113340D01*
X109780D02*
X110940D01*
X112140Y183960D02*
X113300D01*
X109820D02*
X110940D01*
X112140Y183920D02*
X113260D01*
X109860D02*
X110980D01*
X112100Y183880D02*
X113220D01*
X109900D02*
X110980D01*
X112100Y183840D02*
X113220D01*
X109900D02*
X110980D01*
X112100Y183800D02*
X113180D01*
X109940D02*
X110980D01*
X112100Y183760D02*
X113140D01*
X109980D02*
X111020D01*
X112060Y183720D02*
X113100D01*
X110020D02*
X111020D01*
X112060Y183680D02*
X113060D01*
X110020D02*
X111020D01*
X112060Y183640D02*
X113060D01*
X110060D02*
X111020D01*
X112020Y183600D02*
X113020D01*
X110100D02*
X111060D01*
X112020Y183560D02*
X112980D01*
X110140D02*
X111060D01*
X112020Y183520D02*
X112940D01*
X110140D02*
X111060D01*
X112020Y183480D02*
X112900D01*
X110180D02*
X111060D01*
X111980Y183440D02*
X112900D01*
X110220D02*
X111100D01*
X111980Y183400D02*
X112860D01*
X110260D02*
X111100D01*
X111980Y183360D02*
X112820D01*
X110260D02*
X111100D01*
X111980Y183320D02*
X112780D01*
X110300D02*
X111100D01*
X111940Y183280D02*
X112740D01*
X110340D02*
X111140D01*
X111940Y183240D02*
X112740D01*
X110380D02*
X111140D01*
X111940Y183200D02*
X112700D01*
X110380D02*
X111140D01*
X111900Y183160D02*
X112660D01*
X110420D02*
X111140D01*
X111900Y183120D02*
X112620D01*
X110460D02*
X111180D01*
X111900Y183080D02*
X112580D01*
X110500D02*
X111180D01*
X111900Y183040D02*
X112580D01*
X110540D02*
X111180D01*
X111860Y183000D02*
X112540D01*
X110540D02*
X111180D01*
X111860Y182960D02*
X112500D01*
X110580D02*
X111220D01*
X111860Y182920D02*
X112460D01*
X110620D02*
X111220D01*
X111860Y182880D02*
X112420D01*
X110660D02*
X111220D01*
X111820Y182840D02*
X112420D01*
X110660D02*
X111220D01*
X111820Y182800D02*
X112380D01*
X110700D02*
X111260D01*
X111820Y182760D02*
X112340D01*
X110740D02*
X111260D01*
X111780Y182720D02*
X112300D01*
X110780D02*
X111260D01*
X111780Y182680D02*
X112300D01*
X110780D02*
X111260D01*
X111780Y182640D02*
X112260D01*
X110820D02*
X111300D01*
X111780Y182600D02*
X112220D01*
X110860D02*
X111300D01*
X111740Y182560D02*
X112180D01*
X110900D02*
X111300D01*
X111740Y182520D02*
X112140D01*
X110900D02*
X111300D01*
X111740Y182480D02*
X112140D01*
X110940D02*
X111340D01*
X111740Y182440D02*
X112100D01*
X110980D02*
X111340D01*
X111700Y182400D02*
X112060D01*
X111020D02*
X111340D01*
X111700Y182360D02*
X112020D01*
X111020D02*
X111340D01*
X111700Y182320D02*
X111980D01*
X111060D02*
X111380D01*
X111660Y182280D02*
X111980D01*
X111100D02*
X111380D01*
X111660Y182240D02*
X111940D01*
X111140D02*
X111380D01*
X111660Y182200D02*
X111900D01*
X111140D02*
X111380D01*
X111660Y182160D02*
X111860D01*
X111180D02*
X111420D01*
X111620Y182120D02*
X111820D01*
X111220D02*
X111420D01*
X111620Y182080D02*
X111820D01*
X111260D02*
X111420D01*
X111620Y182040D02*
X111780D01*
X111260D02*
X111420D01*
X111620Y182000D02*
X111740D01*
X111300D02*
X111460D01*
X111580Y181960D02*
X111700D01*
X111340D02*
X111460D01*
X111580Y181920D02*
X111660D01*
X111380D02*
X111460D01*
X111580Y181880D02*
X111660D01*
X111380D02*
X111460D01*
X111540Y181840D02*
X111620D01*
X111420D02*
X111500D01*
X111540Y181800D02*
X111580D01*
X111460D02*
X111500D01*
M02*
