G04*
G04 #@! TF.GenerationSoftware,Altium Limited,Altium Designer,22.8.2 (66)*
G04*
G04 Layer_Physical_Order=4*
G04 Layer_Color=16440176*
%FSLAX25Y25*%
%MOIN*%
G70*
G04*
G04 #@! TF.SameCoordinates,FBB38BD8-B248-4C14-88E0-E7BD1AE39475*
G04*
G04*
G04 #@! TF.FilePolarity,Positive*
G04*
G01*
G75*
%ADD12C,0.00700*%
%ADD20C,0.01000*%
%ADD100C,0.04016*%
%ADD114C,0.03937*%
%ADD117C,0.00625*%
%ADD118C,0.02000*%
%ADD120C,0.00400*%
%ADD122C,0.15748*%
%ADD123C,0.02200*%
%ADD124C,0.01800*%
%ADD125C,0.01968*%
D12*
X94898Y31890D02*
X96850D01*
X89250Y138200D02*
X98316Y129134D01*
X78900Y138200D02*
X89250D01*
X23550Y100750D02*
X37867D01*
X20925Y100200D02*
X23000D01*
X23550Y100750D01*
X37867D02*
X40448Y103331D01*
X98316Y129134D02*
X107677D01*
X76900Y140200D02*
X78900Y138200D01*
X66535Y140157D02*
X70093Y136600D01*
X87404D01*
X95658Y128347D01*
X68003Y111918D02*
X71760D01*
X67141Y112780D02*
X68003Y111918D01*
X55512Y110630D02*
X57662Y112780D01*
X67141D01*
X69187Y114278D02*
X69291Y114173D01*
X67755Y114278D02*
X69187D01*
X60773Y121260D02*
X67755Y114278D01*
X46063Y121260D02*
X60773D01*
X40551Y159055D02*
X44488Y155118D01*
X61024D01*
X85039Y95276D02*
X96076D01*
X99900Y99100D01*
X115800Y23700D02*
Y30600D01*
X111000Y18900D02*
X115800Y23700D01*
X104727Y18900D02*
X111000D01*
X17593Y61392D02*
X25575D01*
X11700Y55500D02*
X17593Y61392D01*
X51000Y103331D02*
X51756Y102574D01*
X40448Y103331D02*
X51000D01*
X22800Y118000D02*
X22900Y117900D01*
X29317D01*
X22500Y111790D02*
X23660Y110630D01*
X55512D01*
X22500Y111790D02*
Y111900D01*
X23072Y115567D02*
X40370D01*
X22506Y115000D02*
X23072Y115567D01*
X22100Y115000D02*
X22506D01*
X29317Y117900D02*
X34646Y123228D01*
X48200Y19000D02*
X48606D01*
X49341Y19735D02*
X53865D01*
X48606Y19000D02*
X49341Y19735D01*
X53865D02*
X57963Y15638D01*
X101464D01*
X104727Y18900D01*
X81934Y98381D02*
Y98469D01*
Y98381D02*
X85039Y95276D01*
X21260Y94488D02*
X46063D01*
X51968Y100394D02*
X57008D01*
X46063Y94488D02*
X51968Y100394D01*
X34646Y123228D02*
X66142D01*
X97953Y29740D02*
X101678Y33465D01*
X94898Y29740D02*
X97953D01*
X101678Y33465D02*
X109055D01*
X110236Y32283D01*
X69685Y151181D02*
X80315D01*
X62992Y157874D02*
X69685Y151181D01*
X40370Y115567D02*
X46063Y121260D01*
X66142Y123228D02*
X71653Y117717D01*
X60236Y91732D02*
Y100394D01*
Y88992D02*
Y91732D01*
X51756Y102574D02*
X58056D01*
X60236Y100394D01*
X95658Y128347D02*
X96063D01*
X71760Y111918D02*
X72047Y112205D01*
D20*
X67716Y183361D02*
X80999Y170079D01*
X67716Y183361D02*
Y188189D01*
X80999Y170079D02*
X82677D01*
X89370Y173301D02*
X89695D01*
X90949Y172047D02*
X103543D01*
X89695Y173301D02*
X90949Y172047D01*
D100*
X99665Y203425D02*
D03*
X20413D02*
D03*
D114*
X91378Y11673D02*
D03*
X51378Y15673D02*
D03*
Y7673D02*
D03*
D117*
X107200Y74700D02*
Y91248D01*
X94898Y62398D02*
X107200Y74700D01*
X90768Y58268D02*
X94898Y62398D01*
X88583Y58268D02*
X90768D01*
X107200Y91248D02*
X109525Y93573D01*
X115551Y110800D02*
Y121063D01*
X109525Y93573D02*
Y104774D01*
X115551Y110800D01*
X109225Y111851D02*
Y121125D01*
X105512Y91433D02*
X108200Y94121D01*
Y110826D01*
X109225Y121125D02*
X114754Y126655D01*
X108200Y110826D02*
X109225Y111851D01*
X107900Y112400D02*
Y122323D01*
X103150Y107650D02*
X107900Y112400D01*
X105512Y75208D02*
Y91433D01*
X107900Y122323D02*
X109843Y124266D01*
X114754Y126655D02*
Y195775D01*
X96850Y211050D02*
Y212992D01*
X101455Y206445D02*
X109208D01*
X96850Y211050D02*
X101455Y206445D01*
X85000Y158800D02*
X95818Y147983D01*
X106169D01*
X91471Y145400D02*
X99700D01*
X87909Y148963D02*
X91471Y145400D01*
X42154Y151000D02*
X44191Y148963D01*
X87909D01*
X41800Y151000D02*
X42154D01*
X83489Y54700D02*
X94898D01*
X97220D01*
X111154Y68634D01*
X81496Y56693D02*
X83489Y54700D01*
X84402Y53300D02*
X99900D01*
X113266Y66666D01*
Y81496D01*
X81496Y50394D02*
X84402Y53300D01*
X11800Y78520D02*
X21172Y69147D01*
X11800Y78520D02*
Y92500D01*
X35213Y70904D02*
X38400Y67716D01*
X27943Y70904D02*
X35213D01*
X26187Y69147D02*
X27943Y70904D01*
X21172Y69147D02*
X26187D01*
X109208Y206445D02*
X118566Y197087D01*
X107900Y199100D02*
X114680D01*
X116867Y196913D01*
X113100Y23600D02*
Y28500D01*
X104200Y20300D02*
X109800D01*
X113100Y23600D01*
X100900Y17000D02*
X104200Y20300D01*
X70008Y17000D02*
X100900D01*
X65748Y21260D02*
X70008Y17000D01*
X108661Y195669D02*
X108661D01*
X113386Y190945D01*
Y139370D02*
Y190945D01*
X114746Y195783D02*
X114754Y195775D01*
X118566Y91401D02*
Y197087D01*
X116867Y122379D02*
Y196913D01*
X115551Y121063D02*
X116867Y122379D01*
X89100Y88852D02*
X99856D01*
X88976Y88976D02*
X89100Y88852D01*
X99856D02*
X99980Y88728D01*
X61811Y21260D02*
X65748D01*
X109055Y135039D02*
X113386Y139370D01*
X109055Y131264D02*
Y135039D01*
Y131264D02*
X109843Y130477D01*
Y124266D02*
Y130477D01*
X94488Y85433D02*
X101181D01*
X103150Y87402D02*
Y107650D01*
X101181Y85433D02*
X103150Y87402D01*
X90146Y59842D02*
X105512Y75208D01*
X90945Y81890D02*
X94488Y85433D01*
X30403Y87314D02*
X42189D01*
X28740Y88976D02*
X30403Y87314D01*
X25591Y88976D02*
X28740D01*
X22835Y86221D02*
X25591Y88976D01*
X22835Y84252D02*
Y86221D01*
X111154Y68634D02*
Y83988D01*
X118566Y91401D01*
X84646Y59842D02*
X90146D01*
D118*
X89110Y211945D02*
X89449D01*
X92886Y215382D01*
X74841Y197676D02*
X89110Y211945D01*
D120*
X5053Y22900D02*
X50459D01*
X62598Y31496D02*
X62809Y31707D01*
X88417Y32996D02*
X89523Y31890D01*
X63675Y31707D02*
X64965Y32996D01*
X62809Y31707D02*
X63675D01*
X89523Y31890D02*
X94898D01*
X64965Y32996D02*
X88417D01*
X3937Y24016D02*
X5053Y22900D01*
X50459D02*
X57455Y29897D01*
X26016Y41200D02*
X30510Y45694D01*
X25575Y41200D02*
X26016D01*
X5600D02*
X25575D01*
X108800Y74400D02*
Y90400D01*
X92200Y56600D02*
Y57800D01*
X108800Y74400D01*
Y90400D02*
X112200Y93800D01*
Y103900D01*
X17800Y118100D02*
Y166400D01*
X11100Y173100D02*
X17800Y166400D01*
X18900Y116800D02*
Y175300D01*
X14800Y179400D02*
X18900Y175300D01*
X23996Y32996D02*
X61096D01*
X62746Y34646D01*
X75197D01*
X4331Y27559D02*
X18559D01*
X23996Y32996D01*
X93073Y74569D02*
Y75807D01*
X93100Y75834D01*
X87795Y69291D02*
X93073Y74569D01*
X96800Y136400D02*
X98471D01*
X79700Y143100D02*
X90100D01*
X96800Y136400D01*
X13000Y123100D02*
X14800Y121300D01*
X13000Y123100D02*
Y147000D01*
X15800Y149800D01*
X15900Y116200D02*
X17800Y118100D01*
X15900Y84400D02*
Y116200D01*
X17500Y84400D02*
Y115400D01*
X18900Y116800D01*
X18800Y85458D02*
Y114300D01*
X20000Y115500D02*
Y149100D01*
X18800Y114300D02*
X20000Y115500D01*
X33214Y61954D02*
X33214D01*
X32702Y61442D02*
X33214Y61954D01*
X33214D02*
X34252Y62992D01*
X32702Y60037D02*
Y61442D01*
X30907Y58243D02*
X32702Y60037D01*
X19023Y67323D02*
X25575D01*
X28740D01*
X10400Y58700D02*
X19023Y67323D01*
X19500Y183100D02*
X23300Y179300D01*
Y152400D02*
Y179300D01*
X20000Y149100D02*
X23300Y152400D01*
X25575Y61392D02*
X27381D01*
X30531Y64542D01*
X18800Y85458D02*
X22006Y82252D01*
X15800Y149800D02*
Y162000D01*
X22006Y82252D02*
X23663D01*
X23160Y78740D02*
X31102D01*
X17500Y84400D02*
X23160Y78740D01*
X14800Y83600D02*
Y121300D01*
X50568Y21435D02*
X55118Y25984D01*
X14135Y21435D02*
X50568D01*
X12700Y20000D02*
X14135Y21435D01*
X14800Y83600D02*
X22809Y75590D01*
X32602Y56072D02*
Y58193D01*
X34252Y59842D01*
X31593Y55193D02*
X31635Y55235D01*
X31765D01*
X32602Y56072D01*
X24016Y50016D02*
X29193Y55193D01*
X31593D01*
X24016Y44094D02*
Y50016D01*
X55118Y25984D02*
X59252D01*
X38400Y67716D02*
X74016D01*
X98471Y136400D02*
X98713Y136158D01*
X22809Y75590D02*
X31102D01*
X23135Y77165D02*
X32283D01*
X15900Y84400D02*
X23135Y77165D01*
X20866Y50787D02*
X21078D01*
X25575Y55284D01*
X28534Y58243D01*
X110309Y35039D02*
X111548Y33800D01*
X115700D01*
X97638Y42520D02*
X104018Y36139D01*
X110764D01*
X111004Y35900D02*
X112600D01*
X110764Y36139D02*
X111004Y35900D01*
X97675Y22775D02*
X108725D01*
X108800Y22700D01*
X96160Y21260D02*
X97675Y22775D01*
X94898Y21260D02*
X96160D01*
X69291D02*
X94898D01*
X87758Y66142D02*
X90945D01*
X86208Y67692D02*
X87758Y66142D01*
X74041Y67692D02*
X86208D01*
X65660Y78740D02*
X68898D01*
X64110Y80290D02*
X65660Y78740D01*
X49606Y80290D02*
X64110D01*
X47460Y78740D02*
X50000D01*
X45885Y80315D02*
X47460Y78740D01*
X29805Y80315D02*
X45885D01*
X27043Y73500D02*
X34400D01*
X38090Y77190D01*
X25984Y72441D02*
X27043Y73500D01*
X38090Y77190D02*
X54700D01*
X28534Y58243D02*
X30907D01*
X23182Y70891D02*
X26626D01*
X94535Y23647D02*
X94895Y24007D01*
X85777Y23647D02*
X94535D01*
X94882Y24409D02*
X94895Y24396D01*
Y24007D02*
Y24396D01*
X89764Y38976D02*
X92520D01*
X87795Y40945D02*
X89764Y38976D01*
X92520D02*
X93732Y40189D01*
X84658Y37389D02*
X95170D01*
X95970Y38189D01*
X96457D01*
X89370Y42520D02*
X97638D01*
X94322Y30315D02*
X94898Y29740D01*
X87795Y31496D02*
X88976Y30315D01*
X94322D01*
X60039Y25197D02*
X65748D01*
X59252Y25984D02*
X60039Y25197D01*
X57455Y29897D02*
X73597D01*
X30531Y64542D02*
X35852D01*
X37402Y62992D01*
X35852Y57335D02*
X37184Y58668D01*
Y59625D02*
X37402Y59842D01*
X37184Y58668D02*
Y59625D01*
X34646Y88976D02*
X48255D01*
X51550Y85681D01*
Y83489D02*
Y85681D01*
Y83489D02*
X53150Y81890D01*
X32702Y83440D02*
X34252Y81890D01*
X28989Y83440D02*
X32702D01*
X86221Y51968D02*
X104724D01*
X114800Y41893D01*
X93732Y40189D02*
X97606D01*
X82702Y39345D02*
X84658Y37389D01*
X64148Y39345D02*
X82702D01*
X23663Y82252D02*
X26032Y84621D01*
X42189Y87314D02*
X46063Y83440D01*
X92955Y27953D02*
X94898D01*
X103937D01*
X105905Y29921D01*
X27049Y83071D02*
X29805Y80315D01*
X55512Y23622D02*
X76772D01*
X78347Y25197D01*
X30510Y45694D02*
X31744D01*
X35852Y49801D01*
Y57335D01*
X81496Y59842D02*
X83071Y58268D01*
X88583D01*
X27783Y72047D02*
X39739D01*
X41732Y74041D02*
X72689D01*
X39739Y72047D02*
X41732Y74041D01*
X28740Y67323D02*
X30709Y69291D01*
X31102D01*
X26626Y70891D02*
X27783Y72047D01*
X97606Y40189D02*
X102756Y35039D01*
X110309D01*
X86245Y48844D02*
X103518D01*
X113779Y38583D01*
X84646Y50394D02*
X86221Y51968D01*
X84646Y47244D02*
X86245Y48844D01*
X87795Y44094D02*
X89370Y42520D01*
X59449Y34646D02*
X64148Y39345D01*
X74016Y67716D02*
X74041Y67692D01*
X73597Y29897D02*
X75197Y31496D01*
X32283Y77165D02*
X33858Y78740D01*
X34252D01*
X26032Y84621D02*
X27807D01*
X28989Y83440D01*
X46063D02*
X47492D01*
X48425Y82507D01*
Y81273D02*
Y82507D01*
Y81273D02*
X49358Y80340D01*
X49557D01*
X49606Y80290D01*
X34252Y59842D02*
X34252D01*
X67298Y83489D02*
X68898Y81890D01*
X61956Y83489D02*
X67298D01*
X60236Y85210D02*
X61956Y83489D01*
X60236Y85210D02*
Y88992D01*
X74010Y75361D02*
X74967D01*
X72689Y74041D02*
X74010Y75361D01*
X74967D02*
X75197Y75590D01*
X54700Y77190D02*
X56299Y75590D01*
X89345Y45694D02*
X93676D01*
X87795Y47244D02*
X89345Y45694D01*
X93676D02*
X94882Y44488D01*
X91799Y26796D02*
X92955Y27953D01*
X89345Y26796D02*
X91799D01*
X87795Y28346D02*
X89345Y26796D01*
X61048Y26747D02*
X82677D01*
X85777Y23647D01*
X59449Y28346D02*
X61048Y26747D01*
D122*
X110236Y9843D02*
D03*
X104331Y157480D02*
D03*
X9843Y9843D02*
D03*
D123*
X8900Y52300D02*
D03*
X64567Y222835D02*
D03*
X71260Y220472D02*
D03*
X21366Y50787D02*
D03*
X5600Y41200D02*
D03*
X95200Y57500D02*
D03*
X112200Y103900D02*
D03*
Y111900D02*
D03*
X112000Y119800D02*
D03*
X70600Y210600D02*
D03*
X66000Y210800D02*
D03*
X68300Y213200D02*
D03*
X74800Y212300D02*
D03*
X70790Y215146D02*
D03*
X77900Y212300D02*
D03*
X11100Y173100D02*
D03*
X58800Y195063D02*
D03*
X10500Y224100D02*
D03*
X12700Y177300D02*
D03*
X14800Y179400D02*
D03*
X99700Y145400D02*
D03*
X85000Y158800D02*
D03*
X106169Y147983D02*
D03*
X97000Y150100D02*
D03*
X88600Y141100D02*
D03*
X95700Y141600D02*
D03*
X98900Y139100D02*
D03*
X76900Y140200D02*
D03*
X79700Y143100D02*
D03*
X21300Y159100D02*
D03*
X41800Y132687D02*
D03*
X23600Y138500D02*
D03*
X73003Y134425D02*
D03*
X15500Y125300D02*
D03*
X105755Y103925D02*
D03*
X15719Y144825D02*
D03*
X19500Y183100D02*
D03*
X60236Y222835D02*
D03*
X55905D02*
D03*
X34100Y217900D02*
D03*
X51575Y222835D02*
D03*
X46457D02*
D03*
X10600Y219400D02*
D03*
X42126Y222835D02*
D03*
X31600Y221700D02*
D03*
X11442Y192158D02*
D03*
X12500Y161600D02*
D03*
X21251Y172851D02*
D03*
X21100Y169000D02*
D03*
X11700Y55500D02*
D03*
X10400Y58700D02*
D03*
X20925Y100200D02*
D03*
X11800Y92500D02*
D03*
X26800Y98300D02*
D03*
X26400Y102900D02*
D03*
X22800Y118000D02*
D03*
X22100Y115000D02*
D03*
X22500Y111900D02*
D03*
X22000Y108800D02*
D03*
X27100Y126500D02*
D03*
X27953Y123228D02*
D03*
X22441Y121653D02*
D03*
X12100Y149400D02*
D03*
X15800Y162000D02*
D03*
X23800Y146900D02*
D03*
X22100Y64800D02*
D03*
X42200Y163483D02*
D03*
X41800Y151000D02*
D03*
Y147900D02*
D03*
Y144500D02*
D03*
Y141200D02*
D03*
Y137600D02*
D03*
X40551Y159055D02*
D03*
X48200Y19000D02*
D03*
X25300Y175100D02*
D03*
X28400Y175200D02*
D03*
X12700Y20000D02*
D03*
X98000Y166200D02*
D03*
X89800Y98700D02*
D03*
X93800Y98800D02*
D03*
X96000Y100700D02*
D03*
X99900Y99100D02*
D03*
X9570Y30670D02*
D03*
X37200Y13500D02*
D03*
X46700Y14900D02*
D03*
X57700Y20800D02*
D03*
X31000Y15900D02*
D03*
X101793Y210399D02*
D03*
X107900Y199100D02*
D03*
X96850Y8268D02*
D03*
X113100Y28500D02*
D03*
X115800Y30600D02*
D03*
X115700Y33800D02*
D03*
X112600Y35900D02*
D03*
X108800Y22700D02*
D03*
X80000Y19300D02*
D03*
X71590Y165914D02*
D03*
X91732Y221260D02*
D03*
X81544Y218311D02*
D03*
X60236Y213654D02*
D03*
X44457Y213796D02*
D03*
X101073Y224016D02*
D03*
X116535Y206693D02*
D03*
X105905Y201969D02*
D03*
X108455Y188770D02*
D03*
X108661Y195669D02*
D03*
X99575Y131306D02*
D03*
X100766Y43722D02*
D03*
X80378Y222277D02*
D03*
X96456Y216141D02*
D03*
X96850Y212992D02*
D03*
X93701Y218504D02*
D03*
X92886Y215382D02*
D03*
X81496Y172835D02*
D03*
X89370Y173301D02*
D03*
X114746Y195783D02*
D03*
X94095Y201575D02*
D03*
X103321Y197730D02*
D03*
X105702Y107087D02*
D03*
X100102Y107663D02*
D03*
X98277Y103395D02*
D03*
X81934Y98469D02*
D03*
X8268Y38583D02*
D03*
X4331Y217717D02*
D03*
Y211417D02*
D03*
Y214567D02*
D03*
X12598Y200000D02*
D03*
X27165Y200661D02*
D03*
X16535Y183858D02*
D03*
X111811Y132677D02*
D03*
X102362Y30709D02*
D03*
X95669Y24409D02*
D03*
X57874Y118110D02*
D03*
X58268Y114961D02*
D03*
X52250Y117784D02*
D03*
X79465Y159055D02*
D03*
X78347Y190354D02*
D03*
X76378Y187992D02*
D03*
X80315D02*
D03*
X113044Y48425D02*
D03*
X112992Y60630D02*
D03*
X109843Y148031D02*
D03*
X62598Y174409D02*
D03*
X67716Y168110D02*
D03*
X73601Y168597D02*
D03*
X75197Y171260D02*
D03*
X65863Y89485D02*
D03*
X47539Y195560D02*
D03*
X74016Y101325D02*
D03*
X76772Y102362D02*
D03*
X96215Y125421D02*
D03*
X113266Y81890D02*
D03*
X70866Y107480D02*
D03*
X57480Y107874D02*
D03*
X105905Y29921D02*
D03*
X87795Y196063D02*
D03*
X48701Y167723D02*
D03*
X51181Y169291D02*
D03*
X48962Y171403D02*
D03*
X45276Y170079D02*
D03*
X21654Y91339D02*
D03*
X21260Y94488D02*
D03*
X96063Y128347D02*
D03*
X86221Y4331D02*
D03*
X61024Y152022D02*
D03*
X61811Y138583D02*
D03*
X61417Y142913D02*
D03*
X24016Y190945D02*
D03*
X47638Y189370D02*
D03*
X110630Y168110D02*
D03*
X82677Y170079D02*
D03*
X56331Y129528D02*
D03*
X57087Y126378D02*
D03*
X73555Y2322D02*
D03*
X53937Y2756D02*
D03*
X111417Y88583D02*
D03*
X79134Y155905D02*
D03*
X80315Y151181D02*
D03*
X79921Y146850D02*
D03*
X65354Y162992D02*
D03*
X61024Y155118D02*
D03*
X62992Y157874D02*
D03*
X70866Y169685D02*
D03*
X102967Y111458D02*
D03*
X89370Y219291D02*
D03*
X96457Y188189D02*
D03*
X71260Y197638D02*
D03*
X74803D02*
D03*
X66535Y195669D02*
D03*
X61024Y164173D02*
D03*
Y160236D02*
D03*
X44882Y173622D02*
D03*
X26772Y17323D02*
D03*
X3937Y24016D02*
D03*
X4331Y27559D02*
D03*
X43701Y101181D02*
D03*
X43307Y98032D02*
D03*
X91032Y129614D02*
D03*
X88981Y127564D02*
D03*
X56693Y104724D02*
D03*
X39370Y99213D02*
D03*
X22835Y84252D02*
D03*
X22047Y71260D02*
D03*
X74016Y98425D02*
D03*
X95669Y83071D02*
D03*
X97638Y133465D02*
D03*
X114800Y41893D02*
D03*
X113779Y38583D02*
D03*
X94898Y69291D02*
D03*
X72441Y122047D02*
D03*
X71260Y124803D02*
D03*
X100787Y20472D02*
D03*
X34646Y15748D02*
D03*
X99980Y88728D02*
D03*
X96457Y38189D02*
D03*
X56783Y97502D02*
D03*
X57008Y100394D02*
D03*
X58661Y110630D02*
D03*
X24016Y44094D02*
D03*
X107677Y129134D02*
D03*
X60236Y91732D02*
D03*
X71653Y117717D02*
D03*
X68650Y117601D02*
D03*
X66535Y140157D02*
D03*
X75984Y4331D02*
D03*
X70472Y3937D02*
D03*
X58268D02*
D03*
X64173Y19291D02*
D03*
X76378D02*
D03*
X86221D02*
D03*
X110236Y32283D02*
D03*
X96850Y31890D02*
D03*
X98713Y136158D02*
D03*
X67716Y188189D02*
D03*
X103543Y172047D02*
D03*
X79921Y133858D02*
D03*
X60630Y133465D02*
D03*
X100394Y113779D02*
D03*
X104331Y114567D02*
D03*
X103937Y117717D02*
D03*
X46659Y126054D02*
D03*
X80709Y127165D02*
D03*
X82759Y129216D02*
D03*
X38473Y127843D02*
D03*
X36422Y125792D02*
D03*
X44882Y128347D02*
D03*
X72047Y112205D02*
D03*
X69291Y114173D02*
D03*
D124*
X37402Y31496D02*
D03*
Y34646D02*
D03*
X81500Y47300D02*
D03*
X92200Y56600D02*
D03*
X34252Y34646D02*
D03*
Y31496D02*
D03*
X31102Y34646D02*
D03*
Y31496D02*
D03*
X34252Y25197D02*
D03*
Y28346D02*
D03*
X93100Y75834D02*
D03*
X26600Y36000D02*
D03*
X28200Y40900D02*
D03*
X34252Y40945D02*
D03*
X94564Y47144D02*
D03*
X88976Y88976D02*
D03*
X78445Y75689D02*
D03*
X26403Y86577D02*
D03*
X27049Y83071D02*
D03*
X26772Y64567D02*
D03*
X55512Y23622D02*
D03*
X25984Y72441D02*
D03*
X61811Y21260D02*
D03*
X69291D02*
D03*
X34646Y88976D02*
D03*
X37402Y66142D02*
D03*
X94882Y44488D02*
D03*
X87795Y75590D02*
D03*
X84646Y72441D02*
D03*
X59449Y28346D02*
D03*
X31102Y81890D02*
D03*
X30315Y59842D02*
D03*
X31102Y47244D02*
D03*
Y44094D02*
D03*
X68898Y25197D02*
D03*
X31102Y53543D02*
D03*
X65748Y81890D02*
D03*
X51575Y53543D02*
D03*
X90945Y85039D02*
D03*
X31102D02*
D03*
X90945Y25197D02*
D03*
X31102D02*
D03*
X87795Y85039D02*
D03*
X90945Y81890D02*
D03*
Y28346D02*
D03*
X87795Y25197D02*
D03*
X31102Y28346D02*
D03*
Y78740D02*
D03*
X37402Y25197D02*
D03*
X34252Y81890D02*
D03*
X87795Y28346D02*
D03*
X40551Y85039D02*
D03*
X90945Y34646D02*
D03*
X31102Y75590D02*
D03*
X40551Y25197D02*
D03*
X34252Y78740D02*
D03*
X87795Y31496D02*
D03*
X37402Y28346D02*
D03*
X78347Y25197D02*
D03*
X31102Y37795D02*
D03*
X43701Y25197D02*
D03*
X81496Y78740D02*
D03*
X40551Y81890D02*
D03*
X87795Y34646D02*
D03*
X40551Y28346D02*
D03*
X46850Y85039D02*
D03*
X90945Y40945D02*
D03*
X31102Y69291D02*
D03*
X75197Y25197D02*
D03*
X46850D02*
D03*
X72047Y85039D02*
D03*
X90945Y66142D02*
D03*
X50000Y85039D02*
D03*
X90945Y44094D02*
D03*
X72047Y25197D02*
D03*
X50000D02*
D03*
X43701Y81890D02*
D03*
X78347Y28346D02*
D03*
X34252Y37795D02*
D03*
X43701Y28346D02*
D03*
X68898Y85039D02*
D03*
X53150D02*
D03*
X90945Y62992D02*
D03*
Y47244D02*
D03*
X40551Y78740D02*
D03*
X31102Y62992D02*
D03*
X84646Y34646D02*
D03*
X53150Y28346D02*
D03*
X40551Y31496D02*
D03*
X65748Y85039D02*
D03*
X56299D02*
D03*
X90945Y50394D02*
D03*
X31102D02*
D03*
X65748Y25197D02*
D03*
X62598Y85039D02*
D03*
X31102Y56693D02*
D03*
X87795Y69291D02*
D03*
X46850Y81890D02*
D03*
X87795Y40945D02*
D03*
X75197Y28346D02*
D03*
X46850D02*
D03*
X43701Y78740D02*
D03*
X37402Y37795D02*
D03*
X43701Y31496D02*
D03*
X72047Y81890D02*
D03*
X50000D02*
D03*
X87795Y44094D02*
D03*
X34252Y66142D02*
D03*
X50000Y28346D02*
D03*
X40551Y75590D02*
D03*
Y34646D02*
D03*
X68898Y81890D02*
D03*
X53150D02*
D03*
X87795Y62992D02*
D03*
Y47244D02*
D03*
X34252Y62992D02*
D03*
X56299Y81890D02*
D03*
X84646Y69291D02*
D03*
X87795Y50394D02*
D03*
X34252Y59842D02*
D03*
X75197Y31496D02*
D03*
X65748Y28346D02*
D03*
X37402Y40945D02*
D03*
X46850Y31496D02*
D03*
X62598Y81890D02*
D03*
X34252Y56693D02*
D03*
X81496Y72441D02*
D03*
X43701Y75590D02*
D03*
X40551Y37795D02*
D03*
X43701Y34646D02*
D03*
X72047Y78740D02*
D03*
X84646Y66142D02*
D03*
X50000Y78740D02*
D03*
X84646Y44094D02*
D03*
X72047Y31496D02*
D03*
X50000D02*
D03*
X68898Y78740D02*
D03*
X84646Y62992D02*
D03*
X53150Y78740D02*
D03*
X84646Y47244D02*
D03*
X37402Y62992D02*
D03*
X75197Y75590D02*
D03*
X81496Y69291D02*
D03*
X40551D02*
D03*
X75197Y34646D02*
D03*
X40551Y40945D02*
D03*
X46850Y34646D02*
D03*
X78347Y72441D02*
D03*
X84646Y59842D02*
D03*
X56299Y78740D02*
D03*
X43701Y72441D02*
D03*
X84646Y50394D02*
D03*
X78347Y37795D02*
D03*
X37402Y59842D02*
D03*
X65748Y31496D02*
D03*
X43701Y37795D02*
D03*
X62598Y78740D02*
D03*
X84646Y56693D02*
D03*
X37402D02*
D03*
X62598Y31496D02*
D03*
X72047Y75590D02*
D03*
X81496Y66142D02*
D03*
X50000Y75590D02*
D03*
X81496Y44094D02*
D03*
X40551Y66142D02*
D03*
X50000Y34646D02*
D03*
X75197Y72441D02*
D03*
X78347Y69291D02*
D03*
X46850Y72441D02*
D03*
X43701Y69291D02*
D03*
X78347Y40945D02*
D03*
X75197Y37795D02*
D03*
X43701Y40945D02*
D03*
X46850Y37795D02*
D03*
X68898Y75590D02*
D03*
X53150D02*
D03*
X81496Y62992D02*
D03*
X56299Y75590D02*
D03*
X81496Y59842D02*
D03*
Y50394D02*
D03*
X40551Y59842D02*
D03*
X62598Y75590D02*
D03*
X81496Y56693D02*
D03*
X40551D02*
D03*
X59449Y34646D02*
D03*
X72047Y72441D02*
D03*
X78347Y66142D02*
D03*
X50000Y72441D02*
D03*
X78347Y44094D02*
D03*
X43701Y66142D02*
D03*
X72047Y37795D02*
D03*
X43701Y44094D02*
D03*
X50000Y37795D02*
D03*
X75197Y69291D02*
D03*
X46850D02*
D03*
X75197Y40945D02*
D03*
X46850D02*
D03*
X68898Y72441D02*
D03*
X78347Y62992D02*
D03*
X53150Y72441D02*
D03*
X78347Y47244D02*
D03*
X43701Y62992D02*
D03*
X68898Y37795D02*
D03*
X43701Y47244D02*
D03*
X53150Y37795D02*
D03*
X78347Y59842D02*
D03*
X56299Y72441D02*
D03*
X78347Y50394D02*
D03*
X43701Y59842D02*
D03*
X65748Y37795D02*
D03*
X43701Y50394D02*
D03*
X56299Y37795D02*
D03*
X72047Y69291D02*
D03*
X75197Y66142D02*
D03*
X62598Y72441D02*
D03*
X50000Y69291D02*
D03*
X78347Y56693D02*
D03*
X75197Y44094D02*
D03*
X46850Y66142D02*
D03*
X72047Y40945D02*
D03*
X43701Y56693D02*
D03*
X46850Y44094D02*
D03*
X50000Y40945D02*
D03*
X59449Y37795D02*
D03*
X68898Y69291D02*
D03*
X53150D02*
D03*
X72047Y59842D02*
D03*
X75197Y47244D02*
D03*
X46850Y62992D02*
D03*
X68898Y40945D02*
D03*
X46850Y47244D02*
D03*
X53150Y40945D02*
D03*
X65748Y69291D02*
D03*
X72047Y56693D02*
D03*
X56299Y69291D02*
D03*
X75197Y50394D02*
D03*
X46850Y59842D02*
D03*
X65748Y40945D02*
D03*
X46850Y50394D02*
D03*
X56299Y40945D02*
D03*
X62598Y69291D02*
D03*
X75197Y56693D02*
D03*
X46850D02*
D03*
X59449Y40945D02*
D03*
X68898Y62992D02*
D03*
X53150D02*
D03*
X68898Y47244D02*
D03*
X53150D02*
D03*
X65748Y62992D02*
D03*
X68898Y59842D02*
D03*
X56299Y62992D02*
D03*
X68898Y50394D02*
D03*
X53150Y59842D02*
D03*
X65748Y47244D02*
D03*
X53150Y50394D02*
D03*
X56299Y47244D02*
D03*
X62598Y62992D02*
D03*
X68898Y56693D02*
D03*
X53150D02*
D03*
X62598Y47244D02*
D03*
X65748Y59842D02*
D03*
X56299D02*
D03*
X65748Y50394D02*
D03*
X56299D02*
D03*
X62598Y59842D02*
D03*
X65748Y56693D02*
D03*
X56299D02*
D03*
X62598Y50394D02*
D03*
Y56693D02*
D03*
D125*
X81102Y112992D02*
D03*
X90551D02*
D03*
X85827Y117717D02*
D03*
Y112992D02*
D03*
Y108268D02*
D03*
X31496Y112992D02*
D03*
X40945D02*
D03*
X36220Y117717D02*
D03*
Y112992D02*
D03*
Y108268D02*
D03*
M02*
